<svg xmlns="http://www.w3.org/2000/svg" xmlns:xlink="http://www.w3.org/1999/xlink" viewBox="0 0 438.9355 402.1113"><defs><clipPath id="clip-path"><path d="M294.5937,154.1074l-23.5371-14.5615q-1.128-.6974-2.2012-1.4766l23.5371,14.5615Q293.4677,153.4087,294.5937,154.1074Z" style="fill:none"/></clipPath><clipPath id="clip-path-2"><path d="M95.9238,180.582,131.7929,202.77c4.15,2.5684,6.44,8.68,7.3281,18.5654l-35.8671-22.1884C102.3632,189.2617,100.0742,183.1484,95.9238,180.582Z" style="fill:none"/></clipPath><clipPath id="clip-path-3"><path d="M110.5507,206.9531,74.6816,184.7656a77.6954,77.6954,0,0,1-10.0293-9.625L100.52,197.3281A77.8391,77.8391,0,0,0,110.5507,206.9531Z" style="fill:#348f9e"/></clipPath><clipPath id="clip-path-4"><path d="M194.0761,22.1885,158.2089,0a80.5263,80.5263,0,0,1,13.8789,2.4209L207.955,24.6094A80.5808,80.5808,0,0,0,194.0761,22.1885Z" style="fill:#348f9e"/></clipPath><clipPath id="clip-path-5"><path d="M62.9492,148.7051Q80.8847,159.8,98.8183,170.8926c6.793,4.2031,7.1192,12.5527,1.7012,26.4355L64.6523,175.1406C70.07,161.2558,69.7441,152.9082,62.9492,148.7051Z" style="fill:none"/></clipPath><clipPath id="clip-path-6"><path d="M84.0214,167.5351,48.1542,145.3476c-.7851-2.4589-1.498-4.9589-2.0937-7.5507s-1.0547-5.1954-1.4375-7.8155L80.4921,152.17c.3789,2.6211.84,5.2246,1.4356,7.8164C82.5214,162.5762,83.2363,165.0781,84.0214,167.5351Z" style="fill:#348f9e"/></clipPath><clipPath id="clip-path-7"><path d="M81.66,115.2383,45.7929,93.05a118.6491,118.6491,0,0,1,4.2793-15.4072L85.9414,99.831A118.2987,118.2987,0,0,0,81.66,115.2383Z" style="fill:#348f9e"/></clipPath><clipPath id="clip-path-8"><path d="M103.6113,66.7676,67.7441,44.5791a120.8448,120.8448,0,0,1,10.49-12.2666L114.1015,54.5A121.3313,121.3313,0,0,0,103.6113,66.7676Z" style="fill:#348f9e"/></clipPath><clipPath id="clip-path-9"><path d="M144.5253,32.2832,108.6562,10.0947c2.418-1.1885,4.8828-2.3408,7.4082-3.36,2.5234-1.02,5.043-1.8809,7.5606-2.6856l35.8671,22.1875c-2.5175.8047-5.0351,1.667-7.56,2.6875C149.4082,29.9424,146.9414,31.0957,144.5253,32.2832Z" style="fill:#348f9e"/></clipPath></defs><g style="isolation:isolate"><g id="Layer_2" data-name="Layer 2"><g id="Capa_1" data-name="Capa 1"><path d="M438.9355,327.4277c0,11.3916-25.543,20.626-57.0508,20.626-31.5058,0-57.0508-9.2344-57.0508-20.626S350.3789,306.8,381.8847,306.8C413.3925,306.8,438.9355,316.0351,438.9355,327.4277Z" style="fill:#9eabd3"/><path d="M376.7011,162.4687l-9.164,26.73s1.373,4.6289-3.3868,8.8184l-18.9375,21.3242-3.8769-2.7637,16.0723-26.7441,7.4023-30.4287s1.0488-9.2793,7.9805-7.169C372.791,152.2363,379.58,153.5205,376.7011,162.4687Z" style="fill:#f4b78e"/><path d="M339.2421,223.0976c-.6425-.2382-1.5879,1.4258-3.49.3848a17.1165,17.1165,0,0,1,2.1543-3.5273c.6055-.6114,1.01-.4668,1.8672-.3711.6933.0761,1.3848.3847,2.0859.4257.7129.043,2.1543-1.3964,2.8438-1.8437l.8047.4922a41.7062,41.7062,0,0,1-2.875,5.8672Z" style="fill:#f8b78f"/><path d="M334.9433,220.4687a28.0052,28.0052,0,0,1,3.0469-3.082l2.7949-1,1.5313-1.1562c1.205,1.5957,2.3867,2.9355,2.3867,2.9355-1.8535,1.8242-2.2481,2.31-2.2481,2.31s-.998.9356-3.4824-.039l-1.168-.2695S336.1464,221.8457,334.9433,220.4687Z" style="fill:#f8b78f"/><path d="M343.0722,223.8847a.5842.5842,0,0,0-.3262-.9472.6533.6533,0,0,0-1.0058.1523l.1855-.3066c.0157-.4492-.6406-.6055-.6406-.6055a.7185.7185,0,0,0-.9648.3848l.3086-.5918c.0722-.4141-.586-.6563-.586-.6563-.8281-.3476-1.08.32-1.08.32l-.1523.2461s-1.248-1.4121-2.4824.66l-.5762.9414s.4785.8633,1.8809.4434a1.3186,1.3186,0,0,0,1.6894.5761,1.3637,1.3637,0,0,0,1.5.3868s.7676.7617,1.3223.3046Z" style="fill:#f8b78f"/><path d="M372.664,108.3242l-2.25,26.66s.1133,5.34-6.4844,7.7812c0,0,22.7188,4.2422,24.3887-7.2305C388.3183,135.5351,388.2324,109.2637,372.664,108.3242Z" style="fill:#4b140d"/><path d="M370.3789,317.7568l.5195,4.2129-14.7578,5.2363s-2.6211.9161-.9571,2.0879c0,0,3.2032,2.211,7.93.0489l10.09-4.5372,2.4433-.8964-.1289-6.2579Z" style="fill:#fcc3a2"/><path d="M375.6933,323.7373l-2.5957,1.1523-9.9394,4.2832c-4.7247,2.1582-7.9239-.0527-7.9239-.0527-1.67-1.1719.75-2.2422.75-2.2422l3.5821-1.4629,9.9238-4.2929-.2051-1.8809s-.1074-.793.8574-.9414l2.8535.1777s1.1114.2852.8106,1.1621l-.4336,1.0918,2.2422-.9785.0781,3.9844" style="fill:#29323d"/><path d="M362.3515,326.55l10.8184-4.7774.2031-1.041.4336-1.0918c.3008-.8769-.8106-1.1621-.8106-1.1621l-2.8535-.1777c-.9648.1484-.8574.9414-.8574.9414l.2051,1.8809-9.9238,4.2929-1.9727.8047S359.0078,328.1357,362.3515,326.55Z" style="fill:#040d18"/><path d="M354.6425,328.2392a2.1312,2.1312,0,0,0,.44,1.9414,7.9911,7.9911,0,0,0,7.8652.4317l12.8242-5.6055-.0781-1.2695-13.8945,5.5547S357.3593,330.94,354.6425,328.2392Z" style="fill:#ebebec"/><path d="M362.0644,327.28a.5107.5107,0,1,1-.5391-.4805A.5111.5111,0,0,1,362.0644,327.28Z" style="fill:#939598;mix-blend-mode:multiply"/><path d="M364.2812,326.3135a.5107.5107,0,1,1-.541-.4786A.5137.5137,0,0,1,364.2812,326.3135Z" style="fill:#939598;mix-blend-mode:multiply"/><path d="M366.1718,325.4267a.5108.5108,0,1,1-.5429-.4765A.5113.5113,0,0,1,366.1718,325.4267Z" style="fill:#939598;mix-blend-mode:multiply"/><path d="M368.0781,324.5127a.5108.5108,0,1,1-.541-.4785A.51.51,0,0,1,368.0781,324.5127Z" style="fill:#939598;mix-blend-mode:multiply"/><path d="M370.3144,323.5576a.5108.5108,0,1,1-.541-.4766A.51.51,0,0,1,370.3144,323.5576Z" style="fill:#939598;mix-blend-mode:multiply"/><path d="M372.123,322.6631a.51.51,0,1,1-.541-.4785A.51.51,0,0,1,372.123,322.6631Z" style="fill:#939598;mix-blend-mode:multiply"/><path d="M361.2929,324.5947a3.2124,3.2124,0,0,1,2.4688,1.6094" style="fill:none;stroke:#fff;stroke-linecap:round;stroke-linejoin:round;stroke-width:0.8438669999999999px"/><path d="M363.1855,323.7314a3.2132,3.2132,0,0,1,2.4687,1.6074" style="fill:none;stroke:#fff;stroke-linecap:round;stroke-linejoin:round;stroke-width:0.8438669999999999px"/><path d="M365.0136,322.7353a3.2169,3.2169,0,0,1,2.4707,1.6094" style="fill:none;stroke:#fff;stroke-linecap:round;stroke-linejoin:round;stroke-width:0.8438669999999999px"/><path d="M367.3339,321.9267a3.2124,3.2124,0,0,1,2.4688,1.6094" style="fill:none;stroke:#fff;stroke-linecap:round;stroke-linejoin:round;stroke-width:0.8438669999999999px"/><path d="M369.0683,321.0517a3.21,3.21,0,0,1,2.4668,1.6094" style="fill:none;stroke:#fff;stroke-linecap:round;stroke-linejoin:round;stroke-width:0.8438669999999999px"/><path d="M359.0781,325.6142a3.2091,3.2091,0,0,1,2.4707,1.6075" style="fill:none;stroke:#fff;stroke-linecap:round;stroke-linejoin:round;stroke-width:0.8438669999999999px"/><path d="M376.33,319.3135a10.12,10.12,0,0,1-7.85.16l-2.9941-62.25-.5352-49.3291,23.3516-2.4023c-2.3828,12.2343-4.4277,23.9336-6.1309,36.2793-.8828,6.3984-2.7676,14.0478-3.2187,20.8779a176.2309,176.2309,0,0,1-.7676,37.9746l-1.5371,18.5566" style="fill:#1d2b4f"/><path d="M392.0351,319.6787l.5215,4.2109-14.76,5.2364s-2.6211.916-.9551,2.0878c0,0,3.2032,2.2129,7.93.0508l10.09-4.539,2.4433-.8946-.1289-6.2578Z" style="fill:#fcc3a2"/><path d="M397.3515,325.6572l-2.5957,1.1543-9.9375,4.2813c-4.7266,2.16-7.93-.0508-7.93-.0508-1.6679-1.1739.7539-2.2442.7539-2.2442l3.5821-1.4629,9.9238-4.2929-.2051-1.8809s-.1094-.793.8574-.9414l2.8535.1777s1.1114.2872.8106,1.1641l-.4356,1.09,2.2422-.9785.08,3.9844" style="fill:#ec524f"/><path d="M384.01,328.4717l10.8184-4.7774.2011-1.043.4356-1.09c.3008-.8769-.8106-1.1641-.8106-1.1641l-2.8535-.1777c-.9668.1484-.8574.9414-.8574.9414l.2051,1.8809-9.9238,4.2929-1.9746.8067S380.666,330.0556,384.01,328.4717Z" style="fill:#939598;mix-blend-mode:multiply"/><path d="M376.3007,330.1572a2.1367,2.1367,0,0,0,.4414,1.9453,7.9923,7.9923,0,0,0,7.8653.43l12.8222-5.6055-.0781-1.2695-13.8945,5.5547S379.0175,332.86,376.3007,330.1572Z" style="fill:#ebebec"/><path d="M383.7207,329.2021a.51.51,0,0,1-1.0176.0625.51.51,0,1,1,1.0176-.0625Z" style="fill:#939598;mix-blend-mode:multiply"/><path d="M385.9375,328.2334a.5108.5108,0,1,1-.5391-.4766A.5072.5072,0,0,1,385.9375,328.2334Z" style="fill:#939598;mix-blend-mode:multiply"/><path d="M387.83,327.3467a.5107.5107,0,1,1-.5429-.4766A.51.51,0,0,1,387.83,327.3467Z" style="fill:#939598;mix-blend-mode:multiply"/><path d="M389.7363,326.4346a.5108.5108,0,1,1-.541-.4805A.51.51,0,0,1,389.7363,326.4346Z" style="fill:#939598;mix-blend-mode:multiply"/><path d="M391.9726,325.48a.5112.5112,0,0,1-.4766.5429.5117.5117,0,1,1-.0644-1.0214A.511.511,0,0,1,391.9726,325.48Z" style="fill:#939598;mix-blend-mode:multiply"/><path d="M393.7812,324.5849a.51.51,0,1,1-.541-.4785A.51.51,0,0,1,393.7812,324.5849Z" style="fill:#939598;mix-blend-mode:multiply"/><path d="M382.9492,326.5146a3.2144,3.2144,0,0,1,2.4707,1.6094" style="fill:none;stroke:#fff;stroke-linecap:round;stroke-linejoin:round;stroke-width:0.8438669999999999px"/><path d="M384.8417,325.6513a3.2107,3.2107,0,0,1,2.4688,1.6075" style="fill:none;stroke:#fff;stroke-linecap:round;stroke-linejoin:round;stroke-width:0.8438669999999999px"/><path d="M386.6718,324.6553a3.2167,3.2167,0,0,1,2.4707,1.6093" style="fill:none;stroke:#fff;stroke-linecap:round;stroke-linejoin:round;stroke-width:0.8438669999999999px"/><path d="M388.99,323.8467a3.2167,3.2167,0,0,1,2.4707,1.6093" style="fill:none;stroke:#fff;stroke-linecap:round;stroke-linejoin:round;stroke-width:0.8438669999999999px"/><path d="M390.7246,322.9736a3.2159,3.2159,0,0,1,2.4687,1.6074" style="fill:none;stroke:#fff;stroke-linecap:round;stroke-linejoin:round;stroke-width:0.8438669999999999px"/><path d="M380.7363,327.5342a3.2177,3.2177,0,0,1,2.4707,1.6074" style="fill:none;stroke:#fff;stroke-linecap:round;stroke-linejoin:round;stroke-width:0.8438669999999999px"/><path d="M370.3789,317.7568l.5195,4.2129-14.7578,5.2363s-2.6211.9161-.9571,2.0879c0,0,3.2032,2.211,7.93.0489l10.09-4.5372,2.4433-.8964-.1289-6.2579Z" style="fill:#fcc3a2"/><path d="M375.6933,323.7373l-2.5957,1.1523-9.9394,4.2832c-4.7247,2.1582-7.9239-.0527-7.9239-.0527-1.67-1.1719.75-2.2422.75-2.2422l3.5821-1.4629,9.9238-4.2929-.2051-1.8809s-.1074-.793.8574-.9414l2.8535.1777s1.1114.2852.8106,1.1621l-.4336,1.0918,2.2422-.9785.0781,3.9844" style="fill:#ec524f"/><path d="M362.3515,326.55l10.8184-4.7774.2031-1.041.4336-1.0918c.3008-.8769-.8106-1.1621-.8106-1.1621l-2.8535-.1777c-.9648.1484-.8574.9414-.8574.9414l.2051,1.8809-9.9238,4.2929-1.9727.8047S359.0078,328.1357,362.3515,326.55Z" style="fill:#939598;mix-blend-mode:multiply"/><path d="M354.6425,328.2392a2.1312,2.1312,0,0,0,.44,1.9414,7.9911,7.9911,0,0,0,7.8652.4317l12.8242-5.6055-.0781-1.2695-13.8945,5.5547S357.3593,330.94,354.6425,328.2392Z" style="fill:#ebebec"/><path d="M362.0644,327.28a.5107.5107,0,1,1-.5391-.4805A.5111.5111,0,0,1,362.0644,327.28Z" style="fill:#939598;mix-blend-mode:multiply"/><path d="M364.2812,326.3135a.5107.5107,0,1,1-.541-.4786A.5137.5137,0,0,1,364.2812,326.3135Z" style="fill:#939598;mix-blend-mode:multiply"/><path d="M366.1718,325.4267a.5108.5108,0,1,1-.5429-.4765A.5113.5113,0,0,1,366.1718,325.4267Z" style="fill:#939598;mix-blend-mode:multiply"/><path d="M368.0781,324.5127a.5108.5108,0,1,1-.541-.4785A.51.51,0,0,1,368.0781,324.5127Z" style="fill:#939598;mix-blend-mode:multiply"/><path d="M370.3144,323.5576a.5108.5108,0,1,1-.541-.4766A.51.51,0,0,1,370.3144,323.5576Z" style="fill:#939598;mix-blend-mode:multiply"/><path d="M372.123,322.6631a.51.51,0,1,1-.541-.4785A.51.51,0,0,1,372.123,322.6631Z" style="fill:#939598;mix-blend-mode:multiply"/><path d="M361.2929,324.5947a3.2124,3.2124,0,0,1,2.4688,1.6094" style="fill:none;stroke:#fff;stroke-linecap:round;stroke-linejoin:round;stroke-width:0.8438669999999999px"/><path d="M363.1855,323.7314a3.2132,3.2132,0,0,1,2.4687,1.6074" style="fill:none;stroke:#fff;stroke-linecap:round;stroke-linejoin:round;stroke-width:0.8438669999999999px"/><path d="M365.0136,322.7353a3.2169,3.2169,0,0,1,2.4707,1.6094" style="fill:none;stroke:#fff;stroke-linecap:round;stroke-linejoin:round;stroke-width:0.8438669999999999px"/><path d="M367.3339,321.9267a3.2124,3.2124,0,0,1,2.4688,1.6094" style="fill:none;stroke:#fff;stroke-linecap:round;stroke-linejoin:round;stroke-width:0.8438669999999999px"/><path d="M369.0683,321.0517a3.21,3.21,0,0,1,2.4668,1.6094" style="fill:none;stroke:#fff;stroke-linecap:round;stroke-linejoin:round;stroke-width:0.8438669999999999px"/><path d="M359.0781,325.6142a3.2091,3.2091,0,0,1,2.4707,1.6075" style="fill:none;stroke:#fff;stroke-linecap:round;stroke-linejoin:round;stroke-width:0.8438669999999999px"/><path d="M368.2871,315.4678s-.4239-.0235-.3809.5175l.25,2.7676s-.0723.5645.3242.7207c0,0,3.15,1.8574,8.168-.293a.7374.7374,0,0,0,.5254-.7636l-.0528-2.6192s.168-.7754-.496-.7382A13.5541,13.5541,0,0,1,368.2871,315.4678Z" style="fill:#3c698b"/><path d="M378.8691,237.7051c-1.32-9.1954-.6426-5.9-1.6094-11.6875-2.0371-12.168-7.2363-7.3848-12.2129-17.4414l22.9766-2.0645-6.5274,39.334A23.714,23.714,0,0,1,378.8691,237.7051Z" style="fill:#d1d3d4;mix-blend-mode:multiply"/><path d="M368.2871,315.4678s-.4239-.0235-.3809.5175l.25,2.7676s-.0723.5645.3242.7207c0,0,3.15,1.8574,8.168-.293a.7374.7374,0,0,0,.5254-.7636l-.0528-2.6192s.168-.7754-.496-.7382A13.5541,13.5541,0,0,1,368.2871,315.4678Z" style="fill:#3c698b"/><path d="M397.85,323.2178c.5117-6.1856,1.0507-11.0079,1.5644-17.1934,2.6973-20.7813-3.3848-40.6211-3.3848-40.6211l.2325-8.0449,6.3261-37.7783a34.5508,34.5508,0,0,0-2.3867-21.5567l-22.5625.461,4.2676,56.4873.7129,7.7363,7.0625,60.8027a10.1267,10.1267,0,0,0,7.85-.1621" style="fill:#1d2b4f"/><path d="M389.4882,319.5029s-.4238-.0234-.3808.5195l.2519,2.7657s-.0742.5644.3223.7226c0,0,3.1523,1.8574,8.168-.2929a.7391.7391,0,0,0,.5254-.7657l-.0528-2.6191s.168-.7734-.4961-.7383A13.553,13.553,0,0,1,389.4882,319.5029Z" style="fill:#3c698b"/><path d="M381.8847,142.1045a41.548,41.548,0,0,0-5.3691-2.1533,13.4009,13.4009,0,0,0-3.5957-.6006c-2.8379-.0362-3.7422,2.9541-4.2071,5.23-.2675,1.3174-.4043,2.6573-.6367,3.9815-.26,1.4941-1.3769,2.9336-1.5566,4.33,0,.0009-4.84,8.59-1.2852,14.5234l4.4883,5.7773-3.75,31.83c19.875,7.9649,36.0527,3.2246,36.0527,3.2246,2.0664-7.4492-4.5566-23.8613-2.8632-19.0215.7324,2.09-1.7207-4.5488-1.377-7.5859.6-5.2676,5.1191-15.1064,5.5508-20.5225.34-4.2451,1.2226-6.248-1.2442-8.1162a55.1792,55.1792,0,0,0-10.2011-6.0937Z" style="fill:#f4b78e"/><path d="M372.92,139.3506s-4.8008-.61-7.1563,9.0615l-4.6562,18.001s-.2168,4.4873,10.707,5.44C371.8144,171.8535,380.248,142.2021,372.92,139.3506Z" style="fill:#552e49"/><rect x="381.8847" y="132.124" width="10.0059" height="20.1553" style="fill:#f4b78e"/><path d="M381.8847,142.8174V132.124h10.0059v6.0869S390.1328,139.3506,381.8847,142.8174Z" style="fill:#f4b78e;opacity:0.5;mix-blend-mode:multiply"/><path d="M396.7167,133.6308c7.2383-5.0429,10.3477-25.3125-3.2148-30.4638-9.8281-3.7315-20.8516,4.09-18.6816,14.8.4785,2.3652-.7715,4.6308-1.002,6.959-.3691,3.7011.33,7.1982,2.4727,12.2461,1.6465,3.8808,7.8769,1.4277,11.164.5976A28.221,28.221,0,0,0,396.7167,133.6308Z" style="fill:#f4b78e"/><path d="M402.0917,153.0019c2.4668,1.8682,1.584,3.8711,1.2442,8.1162-.4317,5.4161-4.9512,15.2549-5.5508,20.5225-.3437,3.0371,2.1094,9.6758,1.377,7.5859-1.6934-4.84,7.4746,15.8672,5.41,23.3184,0,0-26.7187,9.2285-39.6211-4.65l4.32-34.3555-4.0371-6.123c-3.5547-5.9336,1.2852-14.5225,1.2852-14.5234.18-1.3965,1.2969-2.836,1.5566-4.33.2324-1.3242.3692-2.6641.6367-3.9815.4649-2.2763,1.3692-5.2666,4.2071-5.23a13.4009,13.4009,0,0,1,3.5957.6006,29.3522,29.3522,0,0,1,4.9082,1.9433s-2.6524,4.0762,2.4258,6.542c0,0,5.5117,3.2412,8.6875-1.2432C392.5371,147.1933,399.9531,150.6367,402.0917,153.0019Z" style="fill:#552e49"/><path d="M394.5214,123.5635a5.166,5.166,0,0,1-1.2343-1.1758c-2.6094-4.626-3.1543-11.4463-3.1543-11.4463l8.24-5.7168s11.7871,7.9609,3.3086,22.957l-3.9316,5.1543a11.89,11.89,0,0,1-3.127,1.6485c-.9629-6.4414-.332-2.86.373-8.2247C394.996,126.76,395.7558,124.7383,394.5214,123.5635Z" style="fill:#4b140d"/><path d="M374.1679,122.3867s-2.3828-10.36-1.1465-14.9238c3.7032-8.5918,14.6993-7.8164,14.6993-7.8164,9.2832.6191,10.6523,5.5781,10.6523,5.5781l-8.24,5.7168c-.7149-2.375-3.6407-3.1582-5.7461-3.5059-5.5547-.916-4.6953,3.5723-9.6485,7.625-.01.0069.1836,4.36.1836,4.36A17.3154,17.3154,0,0,1,374.1679,122.3867Z" style="fill:#4b140d"/><path d="M369.3183,173.6191l-4.0273-6.1113c-3.5508-5.9238,1.2773-14.4941,1.2773-14.4941.1817-1.3985,1.2988-2.8321,1.5586-4.3233.2285-1.3223.3691-2.6592.6348-3.9736a12.7215,12.7215,0,0,1,.8613-2.8223,25.1441,25.1441,0,0,1-.8691,9.8809c-.9727,3.24-2.4434,6.6084-2.295,10.0527.1055,2.4482.5313,5.2383,3.0313,6.3535,2.6719,1.1875,5.6777,1.84,8.4394,2.8321,5.5079,1.9746,13.0606,4.7226,18.4961,1.0468,3.8985-2.6367,5.4473-7.1484,6.9434-11.4355-.0195.1953-.0352.3926-.0527.5976-.4336,5.4043-4.9414,15.2227-5.5372,20.4825-.2695,2.3613,1.1563,6.9023,1.4532,7.8086-.02-.0625-.0449-.1368-.0821-.2383-1.6875-4.83,7.4668,15.8379,5.4024,23.2715,0,0-26.7227,9.1992-39.6016-4.6524Z" style="fill:#d1d3d4;mix-blend-mode:multiply"/><path d="M390.1113,110.2226l-2.25,26.6621s.457,6.6475-7.5078,11.1221c0,0,23.7422.8994,25.41-10.5722,0,0,2.0762-15.0479-2.8535-26.7959C401.3281,106.8711,394.7207,110.5019,390.1113,110.2226Z" style="fill:#4b140d"/><path d="M232.7343,295.4482l-42.5449-26.3164c7.5664,4.6778,9.959,13.33,8.1328,27.3535l42.541,26.3184C242.6914,308.7763,240.2968,300.1279,232.7343,295.4482Z" style="fill:#504986"/><path d="M317.1035,172.2734c.73-.4883,1.4707-1.0078,2.2246-1.5683.0293-.0215.0566-.0371.0879-.0606.0957-.07.1914-.1562.2871-.2285.6426-.4844,1.2929-1,1.9492-1.5371.2109-.1719.4219-.3438.6328-.5234.7793-.65,1.5645-1.3243,2.3672-2.0469L282.1074,139.99c-.7989.7217-1.5821,1.3945-2.3574,2.043q-.3252.2724-.6465.5332-.9814.8057-1.9434,1.5332c-.123.0937-.25.1953-.373.2881-.7539.5635-1.4981,1.0849-2.2344,1.5752-.1758.1191-.3516.2285-.5274.3408q-.92.5962-1.82,1.1162c-.1562.09-.31.1865-.4648.2715-.4141.2305-.8223.4394-1.2285.6465-.1719.0879-.3477.1845-.5215.2676-.5762.2773-1.1465.5351-1.711.7636-.59.2383-1.17.4258-1.748.6094-.3965.127-.7891.2344-1.1816.3359-.3536.09-.7051.1768-1.0567.2481-.3867.0762-.7715.1338-1.1543.1855-.3437.0469-.6875.0918-1.0273.1182-.3828.03-.76.0361-1.1367.04-.3379.0039-.6719.0069-1.0039-.01-.377-.02-.752-.0645-1.125-.1094-.3379-.042-.6739-.08-1.0059-.1426-.2813-.0527-.5586-.12-.834-.1875-.375-.09-.748-.1885-1.1211-.3066-.2754-.0879-.5508-.1856-.8281-.2871-.41-.1524-.8164-.3174-1.2246-.503-.18-.083-.3613-.1611-.543-.2509-.6-.2969-1.1973-.6172-1.7949-.9844l42.543,26.3164c.5957.3691,1.1972.6894,1.7968.9844.18.09.3594.1679.5391.25.2285.1054.4551.2226.6855.3164.1817.0742.3653.1211.545.1894.2715.1.5429.1973.8164.2832.3789.1192.7636.2227,1.1465.3145.2675.0644.5351.1308.8027.1816.1172.02.2324.0586.35.0781.2266.0372.457.0391.6855.0665.3672.0429.7344.0878,1.1036.1074.3359.0176.6757.0136,1.0156.01.373-.0019.7461-.01,1.1269-.039.3418-.0274.69-.0723,1.0352-.1192.3789-.0507.7617-.1093,1.1484-.1875.3516-.0683.7051-.1562,1.0606-.248.3887-.1.7812-.207,1.1758-.332.1523-.0489.3027-.0762.457-.1309q.6415-.2167,1.293-.4805.8438-.3427,1.707-.76c.1914-.0938.3887-.2012.5859-.3008.3789-.1934.7618-.3906,1.1485-.6055.0586-.0332.1191-.0586.18-.0937.1113-.0645.23-.1446.34-.211q.876-.5039,1.7695-1.082C316.7343,172.5137,316.92,172.3984,317.1035,172.2734Z" style="fill:#504986"/><path d="M179.8886,204.66c.0762.1485.1446.2969.2188.4473q.5829,1.1659,1.0586,2.3125c.0429.1016.0918.2051.1347.3086.33.8145.6114,1.6211.8614,2.4238.0546.1748.1074.3487.16.5225.2344.8008.4375,1.5957.5938,2.3848.0175.0957.0293.1875.0468.2832.1368.7363.2325,1.4668.3008,2.1953.0117.1425.0293.2832.041.4257a22.5908,22.5908,0,0,1,.0469,2.2989c-.0039.16-.0137.32-.0234.4824a22.23,22.23,0,0,1-.2285,2.3262.1583.1583,0,0,1-.0039.0273,22.655,22.655,0,0,1-.5118,2.332c-.0429.1622-.0859.3243-.1308.4844q-.3252,1.125-.7656,2.2481c-.0684.1718-.1485.3437-.2208.5175-.2617.625-.5507,1.2559-.8691,1.8848-.1016.2031-.2012.4063-.3086.6094-.4043.76-.8418,1.5215-1.3262,2.289-.0878.1348-.1855.2735-.2734.4083-.4141.6386-.8633,1.2792-1.334,1.9218-.1972.2676-.3945.5371-.6015.8047-.4766.6231-.9825,1.2481-1.5118,1.8789-.1621.19-.3086.377-.4746.5684-.5058.5859-1.0625,1.18-1.6133,1.7734-.2832.3028-.541.6-.8339.9063q-1.2949,1.3418-2.74,2.7109l42.541,26.3164c.9668-.9141,1.877-1.8164,2.74-2.7109.2969-.3067.5566-.6094.8418-.916.498-.5352,1.0117-1.0723,1.4726-1.6016.0489-.0547.0879-.1094.1348-.1641.1621-.1855.3047-.3691.4629-.5566q.8056-.9551,1.5332-1.9024c.1973-.2578.3887-.5195.58-.7773.1738-.2383.3672-.4785.5332-.7148.2949-.418.5644-.836.8359-1.2539.0781-.1211.1641-.2422.2383-.3614.41-.6445.7949-1.2871,1.1465-1.9258.07-.1289.1269-.2578.1953-.3867.1035-.1953.1992-.3906.2988-.5859q.4834-.9609.8828-1.916c.0684-.1641.1446-.3282.209-.4922.0313-.08.0723-.1621.1016-.2422.26-.6738.4746-1.3477.67-2.0234.0449-.1543.0859-.3086.125-.4629a23.4073,23.4073,0,0,0,.5156-2.35h0a22.2908,22.2908,0,0,0,.2324-2.3575c.0079-.1543.0176-.3105.0215-.4687a21.7105,21.7105,0,0,0-.0468-2.3067c-.0118-.1386-.0274-.2773-.0391-.416-.0684-.73-.166-1.4668-.3027-2.207-.0176-.0918-.0293-.1836-.0469-.2754-.1563-.7891-.3594-1.584-.5918-2.3848-.0527-.1757-.1055-.3515-.1621-.5253-.25-.8008-.5313-1.6075-.8594-2.4219-.043-.1035-.0957-.211-.1367-.3164-.3164-.76-.67-1.5254-1.0528-2.2989-.0761-.1543-.1484-.3046-.2265-.4589q-.6328-1.2423-1.3848-2.5118c-.1094-.18-.2187-.3613-.33-.541-.5312-.8769-1.09-1.76-1.7011-2.6582l-42.541-26.3154c.6132.8984,1.1718,1.7812,1.7031,2.66.1074.1777.2187.3574.3242.5371Q179.251,203.414,179.8886,204.66Z" style="fill:#504986"/><path d="M260.98,182.8222c.1719-.5566.3379-1.1269.5-1.705.0938-.3379.1875-.6719.2793-1.0176.1641-.6309.3184-1.2813.4727-1.94.07-.31.1484-.6152.2168-.9316.2148-.9824.4218-1.9883.6113-3.0313L220.52,147.8808c-.1914,1.042-.3985,2.0489-.6113,3.0313-.07.3184-.1465.623-.2207.9375-.1524.6523-.3067,1.2988-.4688,1.9238-.0937.3535-.19.6992-.2852,1.0449-.1582.5664-.32,1.1231-.4882,1.6661-.1075.34-.2149.6777-.3243,1.01-.1777.5371-.3632,1.0606-.5546,1.5762-.1075.2988-.2168.6-.33.8926-.2285.584-.4707,1.1465-.7149,1.6992-.0839.1934-.166.3965-.2539.5859-.3379.7325-.6894,1.4375-1.0605,2.1153-.043.08-.09.1523-.1348.23-.4687.8457-.9668,1.6387-1.4863,2.4-.1035.15-.2051.3086-.3106.4571-.4687.6562-.955,1.2832-1.4668,1.8769-.0976.1133-.2031.2149-.3007.3281q-.6006.6709-1.2422,1.2891c-.168.1621-.34.3164-.5117.4727q-.6358.5712-1.3028,1.0917c-.1523.1172-.2988.2383-.4511.3516a22.954,22.954,0,0,1-2.1465,1.3984c-.1543.0879-.3086.17-.4629.254a24.7833,24.7833,0,0,1-2.5723,1.2343c-.7949.32-1.6465.5762-2.5019.83-.4336.1309-.8711.2617-1.3243.3731-.6836.1718-1.4.31-2.125.4433-.4472.08-.8847.1719-1.3476.24-.8184.1192-1.6778.1973-2.5449.27-.41.0351-.8028.0879-1.2246.1133-1.3067.0761-2.6583.1113-4.07.0918l42.543,26.3164c1.4121.0195,2.7617-.0157,4.0684-.0918.4277-.0254.8281-.0782,1.2441-.1153.8574-.07,1.707-.1484,2.5195-.2675.4707-.0665.9161-.16,1.3692-.2422.7168-.1309,1.4258-.27,2.1054-.44.4551-.1133.8926-.2441,1.3321-.375.3691-.1094.7617-.1933,1.1191-.3164.4688-.16.93-.33,1.3789-.5137a24.0063,24.0063,0,0,0,2.5625-1.23c.0957-.0508.1992-.086.293-.1387.0644-.0371.1211-.084.1875-.1211a23.2056,23.2056,0,0,0,2.1309-1.3906c.0468-.0332.1-.0586.1445-.0918.1152-.086.2148-.19.3281-.2774.4414-.3418.8731-.7031,1.2891-1.0781.0937-.0879.2011-.16.2949-.25.0762-.07.1445-.1523.2168-.2246.43-.41.84-.84,1.2441-1.2891.08-.09.166-.166.2442-.2558.0215-.0235.0371-.0508.0566-.0723.51-.5918.9961-1.2207,1.4649-1.8769.041-.0567.0878-.1055.1289-.1641.0644-.0918.1191-.2031.1855-.2969.5137-.7539,1.0078-1.541,1.4746-2.3789.0332-.0625.0742-.1133.1074-.1738.0137-.0254.0274-.0547.0391-.08.3711-.6777.7227-1.3828,1.0625-2.1152.0781-.1719.15-.3555.2285-.5313.2559-.5742.5039-1.16.74-1.7676.0332-.082.07-.1562.1015-.24.0742-.1894.1387-.3984.209-.5937.1973-.5332.3906-1.0743.5742-1.6348C260.7753,183.4726,260.8769,183.1484,260.98,182.8222Z" style="fill:#504986"/><path d="M290.2089,324.5967,247.666,298.28a39.49,39.49,0,0,1,9.2695,8.4785l42.543,26.3183A39.5418,39.5418,0,0,0,290.2089,324.5967Z" style="fill:#504986"/><path d="M356.6718,205.1914c.9375.2441,1.9141.4609,2.9512.6328.0234.0039.041.01.0625.0137.0859.0136.1855.02.2715.0332.8594.1347,1.7558.2441,2.68.3359.2754.0254.5527.0527.834.0762,1.0527.0859,2.1328.1543,3.2695.1855L324.1972,180.15c-1.1387-.0313-2.2207-.1-3.2754-.1856-.2773-.0234-.5508-.0488-.8222-.0742-.918-.09-1.8067-.1973-2.6582-.332-.1192-.02-.2481-.0332-.3672-.0528-1.0352-.1718-2.01-.3906-2.9492-.6328-.2071-.0527-.41-.1054-.6133-.1621a25.8063,25.8063,0,0,1-2.6075-.8711c-.3671-.1465-.7148-.3086-1.0644-.4707-.1738-.08-.3574-.1543-.5293-.2383q-.753-.375-1.4453-.8007c-.0156-.01-.0332-.0176-.0469-.0274h-.0039l42.541,26.3164c.0176.01.0352.0176.0528.0274.4609.2832.9414.5488,1.4433.8007.1777.0879.3692.1661.5527.25.3125.1446.6172.295.9434.4278.0313.0117.0664.0176.0977.0312a25.3319,25.3319,0,0,0,2.6093.8711C356.2578,205.084,356.4628,205.1387,356.6718,205.1914Z" style="fill:#504986"/><path d="M332.8085,257.5771c.3086-1.0195.59-2.0508.8379-3.0859.0489-.2012.0879-.4043.1348-.6055q.334-1.4736.5859-2.9609c.02-.1231.0469-.2422.0645-.3652.1719-1.0645.2969-2.1309.4-3.2012.0195-.2344.043-.4668.06-.7031.086-1.0684.1446-2.1387.1621-3.211.002-.1387-.0019-.2773-.0019-.414.0058-.9961-.0215-1.9942-.0742-2.99-.0118-.1914-.0176-.3847-.0332-.5781-.07-1.0586-.1836-2.1152-.33-3.17-.0293-.2246-.0664-.4473-.1016-.67-.164-1.086-.3574-2.17-.6054-3.2442-2.4571-10.6914-8.5157-18.9336-16.5469-23.9014q-21.2726-13.16-42.543-26.3164c8.0313,4.9668,14.0918,13.209,16.5488,23.9.2461,1.0762.44,2.16.6055,3.2461.0352.2227.07.4453.1.668q.22,1.5805.332,3.1709c.0157.1933.02.3867.0313.5781.0547.9942.08,1.9922.0742,2.9883,0,.1387.0059.2773.0039.416-.0176,1.07-.0781,2.1406-.164,3.2109-.0176.2344-.0391.4688-.0606.7032-.1015,1.0683-.2305,2.1367-.3984,3.1992-.02.123-.0469.2461-.0664.3672q-.249,1.4883-.586,2.959c-.0449.2031-.0879.4062-.1347.6093q-.3722,1.5528-.8379,3.084c-.0664.2207-.1387.4395-.2071.6582-.32,1.01-.66,2.0117-1.039,3.002-.0176.0488-.0352.1-.0547.1484-.4,1.0391-.8418,2.0664-1.3047,3.084-.0957.207-.1894.416-.2871.623-.4648.9864-.9531,1.961-1.4746,2.92-.1152.2129-.2383.4238-.3555.6347q-.5214.9317-1.0762,1.84-.22.36-.4414.7187c-.48.76-.9707,1.5117-1.4882,2.2461-.0352.0528-.0723.1055-.1075.1582-.4882.6914-.9961,1.3731-1.5156,2.043-.1777.23-.3633.457-.5469.6855-.375.4688-.7558.9336-1.1484,1.3887-.2051.2422-.4121.4805-.623.7188-.3809.4336-.7754.8593-1.1719,1.2812-.2012.2149-.4.4317-.6074.6406-.5079.5235-1.0293,1.0352-1.5586,1.5371-.0977.0938-.1895.19-.2891.2833-.6445.6035-1.31,1.1894-1.9863,1.76-.1992.168-.4063.33-.6074.4942-.49.4043-.9883.8007-1.4961,1.1836-.2286.1777-.4629.35-.6973.5214q-.9962.7324-2.0254,1.418c-.1348.0859-.2637.1816-.3965.2676q-1.2129.7851-2.4707,1.5c-.2305.1308-.4648.2558-.6973.3808q-.914.5068-1.8535.9707c-.248.1211-.4941.2461-.7441.3633-.8477.4024-1.7031.7871-2.5742,1.1407q-1.2218.4921-2.4375.9062c-.2969.1-.5918.1816-.8887.2754-.52.168-1.041.334-1.5605.4805-.3438.0937-.6856.1718-1.0254.2578-.4746.1211-.9473.2441-1.4161.3457-.3593.0781-.7148.1386-1.0722.207-.4512.0859-.9043.1738-1.3555.2461-.3672.0566-.73.1-1.0937.1465-.44.0566-.8789.1152-1.3164.1562-.3653.0352-.7325.0606-1.0977.086-.4316.0293-.8594.0566-1.2891.0722-.3632.0137-.7265.0176-1.09.0215q-.6387.0058-1.2754-.0078c-.3555-.0078-.7109-.0234-1.0664-.043-.4238-.0214-.8438-.0507-1.2637-.0839-.35-.0313-.6992-.0664-1.0468-.1055-.418-.0469-.834-.1035-1.2481-.1641-.3594-.0547-.7187-.1093-1.0742-.1718-.3164-.0567-.6309-.1192-.9434-.1817-.3828-.08-.7617-.1641-1.1406-.2539-.3086-.0742-.6191-.15-.9277-.2344-.375-.1-.7461-.207-1.1172-.32-.3008-.09-.6016-.1816-.8985-.2812-.373-.1211-.74-.2559-1.1054-.3887-.2891-.1074-.58-.2129-.8672-.3262-.2461-.0976-.4863-.207-.7324-.31q-.9171-.39-1.8086-.8281c-.2266-.1114-.4532-.2208-.6758-.336-.7734-.4023-1.5371-.8242-2.2793-1.2812l-.0059-.0059,42.543,26.3184c.7441.4609,1.51.8828,2.2871,1.2871.2227.1152.4453.2226.6719.334q.8906.4365,1.8047.8281c.1465.06.2871.1367.4316.1972.1035.0411.209.0762.3125.1172.2793.1114.5645.2129.8477.3184.373.1367.7461.2715,1.125.3984.291.0957.584.1836.8789.2735.3808.1152.76.2246,1.1426.3281.2988.0781.6015.1543.9.2266.3887.0918.7774.18,1.17.26.3047.0606.6093.1211.9179.1758.168.0293.334.07.502.0977.1953.0312.3965.0488.5918.0781.4121.06.8223.1152,1.2363.1621.35.041.6992.0742,1.0488.1035.4219.0371.8438.0664,1.27.0879.35.0176.7011.0332,1.0547.043.4316.01.8652.01,1.3007.0058.3516-.0039.7032-.0058,1.0586-.0195.4434-.0176.8868-.0449,1.334-.0762.35-.0254.6973-.0468,1.0488-.08.4571-.0449.9161-.1054,1.377-.166.3457-.0429.6875-.084,1.0332-.1386.4746-.0743.9551-.1661,1.4336-.26.33-.0625.66-.1191.9941-.1914.5118-.1113,1.0235-.2442,1.5371-.375.3008-.0762.6-.1426.9-.2266.5977-.166,1.1973-.3574,1.795-.5508.2011-.0644.4-.1152.6-.1835.0195-.0079.0371-.0157.0547-.0215q1.2275-.4161,2.457-.9121c.8769-.3536,1.7344-.7383,2.584-1.1407.2422-.1172.4824-.2382.7226-.3574q.9463-.4658,1.8711-.9746c.15-.082.3047-.1523.4531-.2363h0c.0762-.0449.15-.0957.2286-.1407.8457-.4824,1.6777-.9824,2.4922-1.5117.1171-.0761.2285-.1582.3457-.2343q1.0633-.7032,2.0859-1.459c.1074-.0782.2207-.1485.3281-.2285.1133-.084.2207-.1778.334-.2637.5215-.3965,1.0371-.8067,1.543-1.2246.1894-.1524.3789-.3028.5644-.459.68-.5742,1.3477-1.1621,1.9961-1.7676a.37.37,0,0,1,.041-.0371c.0879-.08.168-.17.2559-.252q.7939-.75,1.5566-1.5332c.2012-.2109.3985-.4238.6-.6347.3965-.4219.7911-.8516,1.1739-1.2852.1054-.1191.2207-.2324.3261-.3535.1036-.1191.1973-.2441.2989-.3652q.5947-.6973,1.1679-1.416c.17-.2149.3477-.4278.5176-.6465.5371-.6934,1.0625-1.3965,1.5645-2.1133l.01-.0078c.0118-.0176.02-.0352.0313-.0508.5273-.752,1.0293-1.5195,1.5195-2.2949.1465-.2324.2891-.4668.43-.7012.377-.6152.7383-1.2344,1.0918-1.8633.08-.1445.17-.2851.25-.43.0332-.0625.06-.125.0938-.1875q.7851-1.4472,1.4824-2.9355c.0937-.1992.1855-.4.2773-.6016.4649-1.0215.91-2.0527,1.3125-3.0976a.2522.2522,0,0,0,.01-.0274c.0137-.0351.0234-.0722.0371-.1054.3809-.9961.7226-2.0039,1.0449-3.0176C332.6718,258.0166,332.7421,257.7978,332.8085,257.5771Z" style="fill:#504986"/><path d="M366.74,206.4687a77.8128,77.8128,0,0,1,3.4824,11.2373,85.642,85.642,0,0,1,1.7246,10.7891c-16.2129,16.0723-18.1289,28.6035-6.4726,44.0957a104.558,104.558,0,0,1-11.0352,20.8145,43.1689,43.1689,0,0,0-15.0918,2.707c-10.0781,4.0742-15.5469,12.9414-18.1641,28.1953a90.4079,90.4079,0,0,1-10.6582,5.1621,85.2266,85.2266,0,0,1-11.0468,3.6074c-8.8067-10.5625-17.1289-13.84-27.086-9.8183-4.1367,1.6718-8.5547,4.6035-13.4043,8.7949a66.0613,66.0613,0,0,1-18.125-9.25c2.752-21.1309-4.0742-30.0606-23.7285-31.5918a76.7788,76.7788,0,0,1-3.17-10.3731,83.865,83.865,0,0,1-1.8438-12.0859c15.8848-15.0156,17.8653-27.4023,6.8907-43.4922a105.8147,105.8147,0,0,1,11.2109-20.8349,38.8467,38.8467,0,0,0,15.1367-2.3614c9.5821-3.8711,14.9278-12.6894,17.7012-27.8672a92.7652,92.7652,0,0,1,10.6152-5.1289,85.7856,85.7856,0,0,1,10.91-3.5664c8.4687,10.6895,16.5527,14.0957,26.2344,10.1836,4.2461-1.7168,8.8027-4.8418,13.832-9.3769a66.3535,66.3535,0,0,1,17.93,8.91C339.8125,197.0605,346.705,205.914,366.74,206.4687Zm-64.7793,85.72c23.082-9.3243,37.3906-36.1153,31.9473-59.8106-5.4415-23.6963-28.586-35.3545-51.668-26.0283-23.0957,9.331-37.3887,36.1142-31.9453,59.81,5.4433,23.6972,28.57,35.3613,51.666,26.0293" style="fill:#5f56a5"/><path d="M330.3671,168.4648q1.72.7325,3.3965,1.5567c.4258.2129.8574.4179,1.2793.6386,1.4414.752,2.8653,1.5371,4.25,2.3926a.4049.4049,0,0,1,.0391.0235l-.0039-.0059-12.2676-7.584q-15.1347-9.3662-30.2715-18.7285c-1.3945-.8633-2.834-1.6572-4.291-2.416-.42-.2178-.8477-.4238-1.2715-.6328q-1.6845-.832-3.4121-1.5655c-.2715-.1162-.5273-.2558-.8027-.3681-.1446-.06-.2989-.1035-.4453-.1621-1.4649-.586-2.9454-1.1387-4.459-1.6231l42.5449,26.3184c1.51.4824,2.9883,1.0332,4.4531,1.6191C329.5292,168.1,329.9453,168.2851,330.3671,168.4648Z" style="fill:#645ca8"/><path d="M212.121,268.7529,169.58,242.4365a83.5879,83.5879,0,0,0,1.8438,12.0859,76.702,76.702,0,0,0,3.1679,10.3731l42.543,26.3164a76.7788,76.7788,0,0,1-3.17-10.3731A83.865,83.865,0,0,1,212.121,268.7529Z" style="fill:#645ca8"/><path d="M280.5683,166.6406c.3242-.1.65-.2031.9785-.3008,1.0137-.2968,2.0293-.58,3.0391-.8379l-42.543-26.3183c-1.01.2578-2.0254.541-3.0429.84-.32.0947-.6426.1973-.9629.2969-.7032.2148-1.4082.4375-2.1153.6738-.1679.0567-.3359.1035-.5039.1621-.15.0528-.3027.1172-.4531.17-1.2773.4433-2.5547.91-3.83,1.4257a92.4249,92.4249,0,0,0-10.6152,5.1289l42.541,26.3164a92.7652,92.7652,0,0,1,10.6152-5.1289c1.2715-.5136,2.5469-.9785,3.82-1.4238.3282-.1133.6524-.2265.9766-.3359C279.1738,167.0762,279.871,166.8555,280.5683,166.6406Z" style="fill:#645ca8"/><path d="M224.25,214.1533c.6035-1.1133,1.246-2.2012,1.8906-3.291.3222-.5449.623-1.0986.9551-1.6377q1.5-2.4405,3.1269-4.7988L187.68,178.1094q-1.6288,2.3524-3.125,4.7949c-.3359.5469-.6406,1.1094-.9668,1.66-.5683.9649-1.1523,1.92-1.6914,2.9-.0664.1211-.123.2481-.1894.3692-.6543,1.207-1.2617,2.4375-1.8692,3.6679-.3007.6075-.625,1.2032-.9121,1.8164q-1.31,2.78-2.455,5.627l42.541,26.3154q1.1426-2.8476,2.457-5.6289c.2871-.6113.6113-1.207.91-1.8125C222.9863,216.5888,223.5937,215.3584,224.25,214.1533Z" style="fill:#645ca8"/><g style="isolation:isolate"><path d="M287.8945,137.4951l-23.541-14.5605c4.1855,2.5869,5.5117,7.375,4.5019,15.1347l23.5371,14.5615C293.4042,144.87,292.0781,140.083,287.8945,137.4951Z" style="fill:#503065"/><path d="M334.5761,69.3418c.4043-.2705.8145-.5576,1.2305-.8682.0176-.0127.0332-.02.0488-.0332.0528-.0391.1074-.0869.1582-.126.3574-.27.7149-.5537,1.08-.8506.1172-.0957.2324-.1914.35-.29.4317-.36.8652-.7334,1.3106-1.1338L315.2128,51.48c-.4414.4-.875.7715-1.3046,1.1308-.1192.1-.2383.1993-.3575.295-.3613.2959-.7207.5791-1.0742.8476-.07.0518-.1387.1084-.207.1592-.418.3115-.8281.6006-1.2363.8711-.0977.0664-.1954.1269-.2911.19q-.51.3282-1.01.6162c-.084.0508-.17.1026-.2559.15-.2285.1279-.4551.2432-.68.3574-.0957.0489-.1933.1026-.2871.1485-.32.1533-.6367.2959-.9472.4219-.3282.1318-.6465.2353-.9688.3388-.2187.0694-.4355.1279-.6523.1846-.1973.0488-.3907.0986-.586.1377-.2129.043-.4258.0742-.6387.1025-.1894.0254-.3808.0508-.5683.0655-.2109.0175-.42.02-.6289.0214-.1856.002-.3711.0039-.5567-.0039-.207-.0117-.416-.0371-.6211-.0625-.1855-.0215-.373-.0439-.5566-.0771-.1543-.03-.3086-.0684-.4609-.1045-.2071-.0508-.4141-.1045-.6211-.169q-.2286-.0732-.4571-.16c-.2265-.083-.4531-.1748-.6777-.2783-.1-.0459-.2012-.0879-.3008-.1387-.332-.1631-.664-.3418-.9922-.5439l23.5391,14.56c.33.2041.6621.3828.9941.5459.1.0488.1973.0928.2969.1377.127.0586.252.1231.3789.1758.1016.041.2032.0674.3028.1035.15.0557.3007.1094.4511.1572.209.0664.4239.1231.6348.1748.1465.0352.2949.0713.4453.1.0645.0117.127.0322.1914.0429.125.02.2539.0225.3809.0381.2011.0234.4062.0479.6094.0586.1855.01.375.0078.5625.0068.207-.0019.414-.0068.623-.0224.19-.0147.3809-.04.5723-.0664.2109-.0284.4238-.0606.6367-.1026.1933-.0381.3906-.0879.5859-.1377.2149-.0556.4317-.1142.65-.1836.0859-.0283.168-.0429.2539-.0732q.3544-.12.7149-.2666c.31-.125.6269-.2656.9453-.4189.1054-.0528.2148-.1124.3242-.168.209-.1055.42-.2149.6348-.334.0332-.0186.0664-.0332.1-.0518.0625-.0351.1269-.081.1875-.1171.3242-.1846.65-.3858.98-.5987C334.371,69.4746,334.4746,69.41,334.5761,69.3418Z" style="fill:#503065"/><path d="M258.6562,87.2607c.041.084.0781.1641.1191.2481.2149.43.41.8574.586,1.2793.0234.0566.0527.1132.0742.1709.1836.45.3379.8974.4766,1.3408.0312.0976.06.1924.09.289.1289.4444.2422.8838.3281,1.32.01.0527.0157.1045.0254.1562.0762.4063.1289.8115.166,1.2149.0078.0791.0176.1562.0235.2353a12.0656,12.0656,0,0,1,.0254,1.2715c-.002.09-.0078.1787-.0118.2676a12.3805,12.3805,0,0,1-.1269,1.2871l-.002.0137a12.5914,12.5914,0,0,1-.2832,1.2919c-.0234.0889-.0468.1788-.0722.2676-.1211.4141-.2617.83-.4239,1.2442-.0371.0947-.082.1894-.1211.2861q-.22.52-.4824,1.0439c-.0566.11-.1113.2246-.1718.337-.2227.42-.4649.8408-.7325,1.2646-.0488.0762-.1015.1523-.15.2275-.23.3526-.4785.7071-.7382,1.0625-.1094.1475-.2188.2979-.3321.4444-.2656.3447-.5449.6933-.84,1.041-.0879.1045-.168.209-.26.3144-.2793.3243-.5879.6534-.8945.9805-.1563.168-.2988.334-.461.501q-.7148.7427-1.5156,1.501l23.5371,14.5615c.5352-.5059,1.0391-1.0059,1.5176-1.501.1641-.1689.3086-.3369.4668-.5058.2734-.2969.5586-.5948.8125-.8868.0274-.03.0508-.0605.0762-.09.09-.1035.1679-.2061.2558-.3086q.4454-.5287.8477-1.0518c.1094-.1435.2168-.288.3223-.4316.0937-.1318.2011-.2646.2929-.3955.1641-.2305.3125-.4619.4629-.6943.043-.0664.0918-.1329.1328-.1993.2266-.3574.44-.7109.6328-1.0654.0411-.0713.0723-.1426.1075-.2139.0586-.1084.1113-.2158.166-.3242.18-.3535.3418-.708.49-1.0605.0371-.09.0781-.1817.1153-.2725.0175-.0439.039-.0879.0566-.1328.1426-.374.2617-.7461.3691-1.1191.0254-.087.0489-.1719.07-.2559a12.9848,12.9848,0,0,0,.2852-1.3018h0a12.1918,12.1918,0,0,0,.127-1.3027c.0058-.0869.0117-.1728.0136-.26a12.6914,12.6914,0,0,0-.0254-1.2773c-.0058-.0762-.0156-.1533-.0234-.2305-.0371-.4033-.09-.8115-.166-1.22-.01-.0518-.0156-.1025-.0254-.1533-.0879-.4365-.1992-.877-.33-1.32-.0273-.0967-.0566-.1924-.0879-.2891-.1386-.4443-.2949-.8906-.4765-1.3408-.0235-.0567-.0508-.1172-.0762-.1758-.1738-.4189-.3692-.8428-.582-1.2715-.0411-.0849-.0821-.1689-.1231-.2539q-.3516-.6855-.7676-1.3887c-.06-.1-.1211-.2011-.1816-.3007-.2949-.4854-.6055-.9727-.9434-1.4707L256.7636,84.1c.34.4961.6485.9853.9414,1.4707.0606.1.1211.1992.18.2969C258.1621,86.3369,258.42,86.8,258.6562,87.2607Z" style="fill:#503065"/><path d="M303.5234,75.1787c.0957-.3086.1855-.6231.2773-.9443.0508-.1866.1035-.3721.1524-.5635.0918-.35.1777-.708.2636-1.0713.0391-.1729.0821-.3408.1192-.5156.1191-.544.2324-1.1006.3379-1.6778l-23.5371-14.56c-.1075.5762-.2207,1.1328-.34,1.6767-.039.1768-.08.3448-.1211.5186-.084.3623-.17.7187-.26,1.0635-.0508.1963-.1055.3877-.1582.5791q-.129.47-.27.9219c-.0586.1884-.1191.375-.18.5585-.0976.2969-.1992.586-.3066.8721-.0586.1651-.1191.332-.1836.4942-.125.3242-.26.6337-.3945.94-.0469.1074-.0918.22-.1406.3242-.1875.4053-.3809.7949-.586,1.17-.0234.044-.0508.084-.0742.128-.26.4668-.5371.9062-.8223,1.3271-.0586.084-.1152.1719-.1738.2529-.2578.3633-.5273.711-.81,1.0391-.0528.0625-.1114.12-.168.1816-.2207.2461-.4492.4854-.6856.7129-.0937.0889-.1875.1758-.2832.2608q-.3515.3178-.7207.6045c-.0839.0644-.166.1328-.25.1963a12.6243,12.6243,0,0,1-1.1875.7724c-.0859.05-.1718.0938-.2558.1406a13.4428,13.4428,0,0,1-1.4239.6817c-.4394.1787-.91.3193-1.3828.4609-.24.0723-.4824.1436-.7343.207-.377.0928-.7754.17-1.1739.2432-.25.0459-.49.0967-.748.1348-.4531.0644-.9277.1084-1.4063.1484-.2285.0186-.4453.0488-.6777.0615-.7227.043-1.4707.0635-2.252.0518l23.5372,14.5615c.7812.01,1.5293-.0088,2.2519-.0517.2363-.0127.457-.043.6875-.0635.4746-.0391.9453-.082,1.3945-.1465.26-.0381.5059-.09.7579-.1367.3964-.07.789-.1485,1.166-.2412.2519-.0635.4922-.1358.7363-.2071.2051-.0615.42-.1084.6191-.1757.2579-.0889.5157-.1836.7637-.2842a13.5293,13.5293,0,0,0,1.418-.6807c.0527-.0283.1094-.0488.16-.0771.0371-.0205.0664-.0459.1036-.0664a12.618,12.618,0,0,0,1.18-.77c.0274-.0167.0547-.0333.08-.05.0645-.0478.1192-.1044.1817-.1543q.3662-.2841.7148-.5957c.0508-.0488.1094-.09.1621-.1386.043-.0381.0781-.084.1211-.125q.3545-.34.6875-.7139c.043-.0488.0918-.0908.1348-.1406.0117-.0127.0195-.0283.0312-.0391.2832-.3271.5508-.6758.8106-1.039.0215-.0313.0488-.0586.07-.09.0371-.0527.0664-.1123.1035-.165.2852-.417.5586-.8535.8164-1.3164.0195-.0332.041-.0625.0586-.0967a.4947.4947,0,0,0,.0215-.0449q.3076-.5611.5879-1.17c.0429-.0947.084-.1962.1269-.2939.1406-.3184.2793-.6406.41-.9775.0176-.0459.039-.087.0566-.1329.0391-.1054.0762-.2207.1153-.3291.1093-.2939.2148-.5937.3183-.9043C303.41,75.539,303.4667,75.3584,303.5234,75.1787Z" style="fill:#503065"/><path d="M319.6953,153.6221l-23.5391-14.5606a21.8837,21.8837,0,0,1,5.1289,4.6914l23.5391,14.5625A21.8522,21.8522,0,0,0,319.6953,153.6221Z" style="fill:#503065"/><path d="M356.4687,87.5556c.5195.1348,1.06.2549,1.6348.35l.0332.0068c.0488.0078.1035.0107.15.0185.4746.0762.9726.1368,1.4824.1856.1543.0156.3066.0293.4609.042.5821.0478,1.18.0859,1.8106.1035L338.5019,73.7c-.6309-.0176-1.2285-.0557-1.8144-.1035-.1524-.0127-.3028-.0264-.4532-.0411-.5078-.0488-1-.1093-1.4726-.1835-.0645-.0108-.1348-.0176-.2012-.0284-.5723-.0966-1.1113-.2168-1.6328-.3506-.1133-.0283-.2266-.0585-.3379-.09a14.5559,14.5559,0,0,1-1.4434-.4814c-.2031-.0821-.3964-.1709-.5879-.2608-.0976-.0439-.1992-.0849-.2949-.1328-.2773-.1377-.5449-.2861-.7988-.4424l-.0273-.0146h0l23.5371,14.5605a.1465.1465,0,0,1,.0293.0156q.3837.2345.7988.4424c.0976.0489.2051.0918.3066.1377.1719.0811.3418.1631.5215.2373.0176.0059.0352.0108.0527.0176a14.2554,14.2554,0,0,0,1.4454.4824Q356.2959,87.5118,356.4687,87.5556Z" style="fill:#613e7a"/><path d="M343.2656,116.54q.2579-.8466.4648-1.707c.0254-.1113.0488-.2236.0742-.3359.1231-.542.2325-1.0879.3243-1.6377.01-.0664.0234-.1348.0351-.2012.0957-.59.1641-1.18.2207-1.77.0117-.13.0254-.26.0332-.39.0488-.5908.0821-1.1845.0918-1.7773,0-.0772-.0019-.1533-.0019-.2295.0019-.5508-.0118-1.1035-.0411-1.6533-.0058-.1065-.01-.2139-.0175-.3194-.0391-.5869-.1035-1.1718-.1836-1.7558-.0156-.1231-.0371-.2461-.0547-.3692-.0918-.6015-.1992-1.2-.3359-1.7949a20.6612,20.6612,0,0,0-9.1563-13.2256Q322.9471,82.0913,311.18,74.8115a20.6612,20.6612,0,0,1,9.1563,13.2256c.1367.5947.2422,1.1934.3359,1.7939.02.1241.0371.2471.0547.37q.123.8758.1836,1.7558c.0078.1055.0117.2129.0156.3193q.05.8248.043,1.6534c0,.0761.002.1533.002.23-.01.5927-.043,1.1865-.09,1.7773-.0117.13-.0215.26-.0351.3887-.0547.5918-.127,1.1836-.2188,1.7715-.0117.0683-.0254.1347-.0371.2021-.0918.5488-.2012,1.0947-.3242,1.6367-.0254.1123-.0489.2266-.0762.3369q-.205.8585-.4629,1.7061c-.0371.123-.0762.2432-.1133.3652-.1777.5586-.3652,1.1133-.5761,1.66-.01.0273-.02.0557-.0313.083-.2207.5752-.4648,1.1426-.7207,1.7061-.0527.1152-.1055.23-.1582.3447-.2578.5449-.5293,1.0859-.8164,1.6152-.0645.1192-.1309.2363-.1973.3535-.1914.3428-.3906.6807-.5957,1.0166-.08.1328-.16.2657-.2422.3965-.2656.4219-.539.8369-.8242,1.2432-.0195.0293-.041.0595-.06.0879-.27.3828-.5508.76-.8379,1.1308-.0977.127-.2012.252-.3027.378-.209.2607-.418.5166-.6348.7705-.1152.1328-.2285.2656-.3457.3964q-.3165.36-.6485.7081c-.1113.1191-.2226.2392-.3359.3564-.2812.2891-.57.5723-.8613.8506-.0547.0508-.1074.1045-.16.1553-.3574.3349-.7265.6591-1.1015.9736-.1075.0928-.2227.1836-.334.2734-.2715.2246-.5469.4424-.8281.6563-.127.0967-.2559.1933-.3848.2881q-.5538.4057-1.1211.7841c-.0742.0479-.1465.1-.2207.1485q-.671.4335-1.3672.8291c-.127.0723-.2559.1416-.3848.2109-.3379.1875-.68.3653-1.0254.5362-.1386.0683-.2734.1377-.4121.2031-.4687.2207-.9414.4346-1.4238.6289q-.6768.2724-1.35.5029c-.1641.0557-.3262.1-.49.1524-.2891.0927-.5762.1845-.8633.2656-.1914.0517-.3809.0947-.5684.1435-.2636.0664-.5234.1338-.7851.1914-.1973.042-.3946.0752-.5918.1133-.25.0479-.5.0967-.75.1358-.2032.0322-.4024.0556-.6055.081-.2422.0323-.4863.0635-.7285.0869-.2012.02-.4043.0332-.6055.0479-.24.0156-.4765.0312-.7148.0391-.2012.0078-.4024.01-.6035.0126-.2344.002-.4707.002-.7051-.0048-.1973-.0049-.3926-.0127-.59-.0235-.2343-.0107-.4687-.0263-.7011-.0478-.1914-.0156-.3848-.0362-.5782-.0567-.23-.0263-.4609-.0586-.6914-.0918-.1972-.0293-.3965-.0595-.5918-.0947-.1757-.03-.35-.0644-.5214-.1-.2129-.0439-.4239-.0918-.6309-.1406-.1738-.041-.3438-.084-.5156-.13-.2071-.0547-.4121-.1152-.6172-.1768-.166-.0507-.334-.1015-.4981-.1552-.205-.0674-.4082-.1426-.6113-.2168-.1582-.0586-.32-.1172-.48-.18-.1347-.0537-.2675-.1143-.4043-.1709-.3379-.1436-.6718-.2979-1-.459-.125-.0615-.25-.123-.375-.1865-.4277-.2207-.85-.4551-1.2617-.708l-.0019-.003,23.5371,14.5616c.414.2548.8379.4882,1.2676.7109.123.0654.246.125.371.1855.33.1612.6622.3145,1,.4581.08.0332.1583.0761.2383.1093.0567.0235.1153.043.1719.0645.1563.0625.3125.1191.4707.1758q.3077.1141.6211.2216.2432.0777.4863.15.3165.0967.6328.1817c.1641.0439.3321.0849.4981.125.2148.0517.43.1.6465.1435.1679.0352.3379.0684.5078.0987.0937.0166.1855.039.2793.0537.1074.0175.2168.0263.3262.0439.2285.0332.455.0635.6855.0889.1934.0215.3848.042.5781.0586q.3516.0308.7032.0469c.1933.01.3886.02.5839.0234.2383.0068.4786.0068.7188.0039.1953-.002.3906-.0039.5859-.0117.2461-.0088.4922-.0235.7383-.041.1934-.0137.3867-.0264.58-.044.2539-.0254.5078-.0586.7617-.0918.1914-.0234.3809-.0478.5723-.0771.2636-.041.5293-.0918.7929-.1426.1836-.0352.3653-.0664.5508-.1074.2832-.0606.5664-.1348.85-.2071.166-.0429.3321-.0791.4981-.125.332-.0918.664-.1982.9941-.3056.1113-.0362.2207-.0635.332-.1006l.0293-.0117q.68-.2314,1.3614-.5059c.4824-.1943.957-.4082,1.4277-.6308.1328-.0645.2676-.1309.4-.1973q.5244-.2593,1.0352-.5391c.0839-.0459.1679-.084.25-.1318h0c.0429-.0234.0839-.0518.1269-.0772.4688-.2675.9277-.5439,1.3789-.8369.0645-.042.127-.0869.1914-.13q.5889-.3881,1.1543-.8056c.0586-.0449.1211-.0821.1817-.128.0625-.0458.123-.0966.1835-.1445q.4337-.3311.8555-.6777c.1055-.084.209-.168.3125-.2539q.5625-.4761,1.1055-.9785a.1355.1355,0,0,1,.0215-.02c.0488-.044.0937-.0928.1406-.1387.293-.2774.58-.56.8613-.85.1133-.1153.2207-.2334.3321-.3506q.331-.3516.65-.7119c.0586-.0664.1211-.128.18-.1944.0567-.0664.1094-.1357.1641-.2021.2207-.2578.4355-.5186.6484-.7832.0938-.12.1914-.2383.2852-.3584.2969-.3828.5879-.7715.8672-1.169l.0039-.0048.0176-.0284q.4365-.624.84-1.2695c.082-.1279.1621-.2578.2383-.3877.209-.34.4082-.6826.6035-1.0312.0449-.08.0957-.1582.1406-.2383.0176-.0332.0332-.0694.0508-.1026.291-.5341.5625-1.0752.82-1.624.0528-.1113.1016-.2226.1524-.334.2578-.5644.5058-1.1347.7265-1.7138a.0477.0477,0,0,0,.0059-.0147c.0078-.02.0137-.039.0215-.06q.3135-.826.5761-1.6679C343.1894,116.7842,343.2285,116.6621,343.2656,116.54Z" style="fill:#5f3d78"/><g style="isolation:isolate"><g style="clip-path:url(#clip-path)"><g style="isolation:isolate"><path d="M294.5937,154.1074l-23.5371-14.5615q-1.128-.6974-2.2012-1.4766l23.5371,14.5615q1.0752.7779,2.2012,1.4766" style="fill:#503065"/></g></g></g><path d="M362.041,88.2617a43.0813,43.0813,0,0,1,1.9277,6.2188,47.7187,47.7187,0,0,1,.9531,5.9687c-8.9707,8.8936-10.0312,15.8271-3.582,24.3975a57.8218,57.8218,0,0,1-6.1055,11.5175,23.8613,23.8613,0,0,0-8.35,1.4991c-5.5781,2.2529-8.6035,7.16-10.0508,15.5986a49.8753,49.8753,0,0,1-5.8964,2.8555,47.1441,47.1441,0,0,1-6.1133,1.998c-4.8711-5.8447-9.4785-7.6582-14.9864-5.4316a27.4883,27.4883,0,0,0-7.416,4.8652,36.5885,36.5885,0,0,1-10.0293-5.1182c1.5235-11.6923-2.2539-16.6337-13.1308-17.4795a43.115,43.115,0,0,1-1.7539-5.74,47.017,47.017,0,0,1-1.02-6.6865c8.791-8.31,9.8868-15.1631,3.8125-24.0654a58.7876,58.7876,0,0,1,6.2032-11.5274,21.5137,21.5137,0,0,0,8.3769-1.3066c5.3008-2.1416,8.2578-7.0215,9.793-15.419a51.4877,51.4877,0,0,1,5.873-2.8388,47.4788,47.4788,0,0,1,6.0371-1.9727c4.6856,5.915,9.1582,7.8,14.5157,5.6338a27.1125,27.1125,0,0,0,7.6543-5.1885,36.7722,36.7722,0,0,1,9.92,4.9307C347.1425,83.0556,350.955,87.9541,362.041,88.2617ZM326.1992,135.69c12.7715-5.1592,20.6855-19.9824,17.6758-33.0918-3.0118-13.1113-15.8165-19.5635-28.5879-14.4033-12.7813,5.1641-20.6875,19.9834-17.6758,33.0937s15.8066,19.5655,28.5879,14.4014" style="fill:#744e92"/><path d="M341.914,67.2344c.6367.2705,1.2617.5566,1.8809.8613.2343.1172.4746.2314.707.3525.7969.416,1.5859.8506,2.3516,1.3242l.0215.0118-.002-.001-6.7871-4.1963q-8.373-5.1827-16.75-10.3643c-.7715-.4775-1.5684-.915-2.375-1.3359-.2324-.1191-.4668-.2344-.7031-.3506-.6192-.3066-1.25-.5937-1.8868-.8642-.15-.0655-.2929-.1426-.4433-.2041-.082-.0332-.166-.0567-.2481-.09-.81-.3242-1.6289-.6308-2.4668-.8984L338.7539,66.04c.8339.2676,1.6543.5723,2.4628.8965C341.4511,67.0312,341.6816,67.1347,341.914,67.2344Z" style="fill:#623f7c"/><path d="M276.4882,122.7246l-23.5371-14.5615a46.1944,46.1944,0,0,0,1.0215,6.6865,42.2632,42.2632,0,0,0,1.752,5.74l23.5371,14.5615a43.115,43.115,0,0,1-1.7539-5.74A47.017,47.017,0,0,1,276.4882,122.7246Z" style="fill:#623f7c"/><path d="M314.3613,66.2256c.18-.0557.3594-.1143.541-.166.56-.1661,1.123-.3233,1.6816-.4649l-23.539-14.5615c-.5586.1426-1.1211.2988-1.6836.4648-.1758.0528-.3555.1094-.5313.1631-.3906.12-.7812.2432-1.1718.375-.0918.03-.1856.0567-.2793.0879-.0821.0293-.168.0654-.252.0938-.7051.247-1.4121.5039-2.1172.789a50.9954,50.9954,0,0,0-5.873,2.8389l23.5371,14.56a51.4877,51.4877,0,0,1,5.873-2.8388c.7032-.2842,1.41-.5411,2.1153-.7871.1816-.0616.3593-.125.539-.1856C313.59,66.4658,313.9746,66.3437,314.3613,66.2256Z" style="fill:#623f7c"/><path d="M283.1992,92.5137c.334-.6153.6894-1.2178,1.0468-1.82.1778-.3017.3457-.6084.5293-.9072q.8292-1.3506,1.7286-2.6543L262.9667,72.57q-.9022,1.3023-1.73,2.6533c-.1856.3027-.3535.6143-.5352.919-.3144.5332-.6367,1.0615-.9355,1.6035-.0371.0683-.0684.1377-.1035.206-.3633.667-.6993,1.3487-1.0352,2.0284-.166.3369-.3457.666-.5039,1.0058q-.7266,1.5366-1.3594,3.1133l23.5371,14.56c.4219-1.05.8789-2.087,1.3594-3.1133.16-.3379.34-.669.5059-1.0039C282.5,93.8623,282.8378,93.1806,283.1992,92.5137Z" style="fill:#623f7c"/></g><g style="isolation:isolate"><path d="M178.74,211.1738,142.873,188.9844a35.8857,35.8857,0,0,1,8.8418,8.5351l35.8691,22.1885A35.83,35.83,0,0,0,178.74,211.1738Z" style="fill:#287986"/><path d="M252.3789,76.8691c.1875.0586.3769.1153.57.17.3613.1036.7343.1973,1.1152.2881.18.044.3555.0889.5391.1289.5488.12,1.1152.2315,1.7031.33.0215.0029.041.0078.0625.0108l.0117.0029.043.0049c.873.1425,1.8027.2539,2.7617.3486.248.0244.498.0479.748.0693.9961.084,2.0215.1543,3.1094.1914L227.1757,56.2265c-1.0879-.038-2.1132-.1074-3.1113-.1933q-.3778-.0307-.7441-.0684c-.9512-.0937-1.875-.2031-2.7383-.3447-.6406-.1035-1.2539-.2217-1.8457-.3525-.1856-.04-.3613-.085-.541-.1289-.3809-.09-.7539-.1856-1.1153-.2872q-.2871-.0834-.5683-.17-.5127-.16-.9981-.3359c-.166-.0606-.334-.1192-.4961-.1817-.34-.1347-.6621-.2773-.98-.4238-.1329-.0605-.2715-.1172-.3985-.1816-.4414-.2168-.8633-.4453-1.26-.6905q17.9325,11.0934,35.8671,22.1885c.0157.0088.0313.0186.045.0274.3828.2343.791.4541,1.2129.6631.1308.0644.2734.121.4062.1826.2461.1142.4863.2314.7441.3369.0743.03.1543.0547.2305.084.1621.0634.332.123.5.1845C251.707,76.6513,252.0371,76.7637,252.3789,76.8691Z" style="fill:#287986"/><g style="isolation:isolate"><g style="clip-path:url(#clip-path-2)"><g style="isolation:isolate"><path d="M139.121,221.3349l-35.8671-22.1884c-.8907-9.8848-3.18-15.9981-7.33-18.5645L131.7929,202.77c4.15,2.5684,6.44,8.68,7.3281,18.5654" style="fill:#287986"/></g></g></g><path d="M222.3789,133.3027c.3457-1.1191.6523-2.2461.9355-3.3808.07-.2735.1406-.5479.2051-.8243.2793-1.1855.5293-2.3769.74-3.5742.0371-.209.0664-.417.1-.625q.2637-1.6083.4434-3.2275c.0293-.2461.0605-.4922.0859-.7393q.1788-1.8076.2442-3.625c.0117-.2627.0136-.5263.0195-.789q.0409-1.6613-.01-3.32c-.0058-.1709-.0058-.34-.0117-.51-.0508-1.2207-.1523-2.4375-.2812-3.6533q-.047-.4263-.1-.8506c-.1543-1.2383-.3321-2.4746-.5684-3.7041-2.6484-13.6865-10.15-24.2842-20.291-30.5567Q185.955,62.83,168.0234,51.7344c10.1387,6.2734,17.6426,16.8711,20.2891,30.5566.2382,1.2305.416,2.4668.5683,3.707.0352.2813.07.5625.1.8438.1328,1.2178.2305,2.4375.2813,3.6582.0078.168.0058.334.0117.5019q.0556,1.6671.0117,3.336c-.0059.2588-.01.5176-.0176.7754q-.07,1.8222-.248,3.6367c-.0235.2412-.0547.4805-.082.7207q-.1817,1.6319-.4493,3.2558c-.0332.2-.0605.4014-.0957.6016q-.3164,1.8046-.7441,3.5889c-.0625.27-.1328.54-.1992.8095-.2852,1.1407-.5957,2.2754-.9434,3.4014-.0234.08-.0449.1611-.0683.24-.3731,1.1866-.7872,2.3584-1.2266,3.5245-.0977.2558-.1934.5136-.2949.7695-.4805,1.2324-.9922,2.4551-1.5489,3.6582-.08.1738-.1679.3457-.25.5185q-.82,1.7476-1.74,3.4493c-.07.1259-.1328.2529-.2012.3779-.539.98-1.1074,1.9434-1.6933,2.8945-.1485.2422-.3047.48-.4571.7207q-.706,1.1163-1.4589,2.2041c-.1758.2549-.3477.5118-.5274.7647q-.8115,1.1367-1.664,2.2422c-.0782.1006-.15.2031-.2286.3027-.6484.8281-1.3183,1.6367-2.0058,2.4336-.2071.24-.4219.4736-.6309.7109q-.7236.8145-1.4687,1.6055c-.252.2637-.502.5254-.7578.7852q-.753.7676-1.5293,1.5078c-.2364.2275-.4727.458-.7149.6816-.7734.7188-1.5625,1.4219-2.3691,2.1006-.086.0713-.1739.1377-.26.208-.7305.6074-1.4805,1.1973-2.2363,1.7715-.2422.1826-.4883.3594-.7324.5391q-1.1572.85-2.3555,1.6445c-.2031.1367-.4043.2773-.6133.4121q-1.4443.936-2.9453,1.7881c-.2441.14-.4961.27-.7441.4072-.752.4141-1.5157.8125-2.2852,1.1943-.2891.1416-.5781.2862-.8672.4229-1.0117.48-2.0312.9394-3.0683,1.3594-.5977.24-1.1954.4707-1.8008.6914-.6387.2344-1.2793.4365-1.918.6445-.5664.1836-1.1309.3555-1.6953.5195-.4121.1192-.8223.2344-1.2344.3438-.57.1484-1.1348.2851-1.7012.4141-.4023.09-.8046.1835-1.2031.2656-.5859.1191-1.17.2187-1.7539.3164-.375.0625-.7519.1308-1.1269.1855-.6407.0918-1.2793.16-1.9161.2266-.31.0312-.623.0762-.9336.1016-.9472.08-1.8867.1347-2.82.1582h-.0371c-.9238.0214-1.84.0136-2.75-.0176-.2988-.01-.5957-.0371-.8945-.0528-.6191-.0351-1.2383-.07-1.8516-.1289-.3515-.0332-.6992-.082-1.0468-.123-.5547-.0664-1.1075-.1348-1.6563-.2207-.42-.0664-.8418-.1426-1.26-.2227-.3828-.07-.7675-.1406-1.1464-.2226-.4317-.0918-.8555-.1973-1.2832-.3028-.375-.0918-.7481-.1816-1.1172-.2832-.4258-.1171-.8457-.248-1.2676-.3769-.3633-.1123-.7266-.2188-1.084-.34-.416-.1406-.8262-.2968-1.2383-.4492-.3535-.1318-.709-.2578-1.0586-.3974-.1953-.0791-.3808-.167-.5742-.2471q-1.204-.5069-2.3711-1.084c-.2539-.125-.51-.251-.76-.3809-.9122-.4746-1.8125-.9707-2.6875-1.51-.0215-.0137-.045-.0235-.0645-.0371l35.8672,22.1875c.0117.0058.0215.0136.0312.02.02.0117.0411.0215.0606.0332.8633.5332,1.7558,1.0234,2.6582,1.4922.2539.1328.51.26.7676.3867q1.1484.5655,2.33,1.0645c.1446.06.2813.1367.4278.1953.0644.0273.1347.0488.1992.0742.3223.1309.6523.2461.9766.3672.4355.164.8711.3281,1.3125.4765.3457.1172.6953.2188,1.0429.3262.4356.1348.8692.27,1.3067.3906.3593.0977.7246.1856,1.0859.2735.4375.1094.875.2168,1.3145.31.375.08.7539.15,1.1347.2207.293.0547.584.1211.8809.1719.125.0215.2558.0313.3828.0508.5508.0859,1.1055.1562,1.6641.2226.3457.0411.6894.0879,1.039.1211.6172.0586,1.24.0957,1.8633.1289.2969.0157.5879.043.8828.0528.92.0332,1.8457.041,2.7793.0176h.0078c.9336-.0235,1.877-.0782,2.8223-.1582.3047-.0254.6133-.0684.92-.1.6426-.0664,1.2852-.1347,1.9317-.2285.371-.0527.7421-.1211,1.1152-.1836.5879-.0976,1.1758-.1992,1.7656-.3183.3965-.08.7969-.1739,1.1934-.2637.57-.1309,1.1386-.2656,1.709-.416.4121-.1074.8222-.2246,1.2343-.3438.5645-.1621,1.127-.3339,1.6914-.5175.2286-.0743.4551-.1329.6836-.209.4121-.1406.8242-.2852,1.2383-.4375q.9052-.3311,1.7969-.6914c1.043-.42,2.0625-.8809,3.0742-1.3594.2871-.1348.57-.2773.8535-.416q1.1719-.58,2.3184-1.211c.164-.09.3359-.17.498-.2617.0723-.041.1426-.0879.2149-.1289q1.5059-.8554,2.9629-1.7988c.1972-.1289.3925-.2656.59-.3965q1.21-.8028,2.3809-1.6641c.1386-.1015.2851-.1933.4257-.2968.1-.0723.1895-.1543.2872-.2285q1.1542-.8732,2.2695-1.7969c.0762-.0625.1543-.1211.2305-.1836q1.2188-1.0284,2.3886-2.1172c.0664-.0625.1387-.1211.2071-.1836.1562-.1484.3046-.3066.4628-.457q.8-.7617,1.5762-1.5528c.2422-.25.4844-.5.7246-.7539.5078-.5332,1.0059-1.0781,1.4922-1.6289.1485-.166.3047-.3261.4512-.4922.06-.0683.1152-.1406.1738-.2109q1.0254-1.19,2-2.4238c.0918-.1172.1758-.2364.2656-.3535q.8321-1.0782,1.6211-2.1875c.0743-.1045.1543-.2041.2286-.3086.1113-.16.2109-.3262.3222-.4864q.7383-1.0722,1.4356-2.1718c.1562-.2471.3183-.4922.4726-.7422.584-.9492,1.1485-1.9082,1.6875-2.8848.0215-.0391.0449-.0762.0645-.1143.0508-.0908.0918-.1845.1406-.2744q.92-1.6962,1.7363-3.4394c.084-.1738.17-.3467.252-.5215.5527-1.2012,1.0644-2.42,1.5449-3.65.0488-.125.1074-.2441.1563-.3691.0527-.1387.0937-.2793.1445-.418.4355-1.16.8515-2.3291,1.2226-3.51C222.33,133.4746,222.3515,133.3887,222.3789,133.3027Z" style="fill:#287986"/><path d="M232.7031,41.0176c.373-.1836.76-.3887,1.1445-.586.2383-.122.4668-.2353.707-.3633.3614-.19.7344-.4,1.1036-.6035.2675-.1465.5312-.2851.8046-.4394l.0489-.0293L200.6464,16.8076c-.6015.3389-1.1894.66-1.7675.9687-.0567.03-.1153.0655-.1719.0948-.5469.291-1.082.5605-1.6094.8232-.08.041-.168.0869-.248.1279-.5254.2588-1.0391.4971-1.545.7286-.0742.0351-.1562.0761-.2343.1113q-.87.3926-1.7012.7285c-.707.2852-1.3906.5342-2.0566.76-.7754.2617-1.5274.4863-2.25.666-.1309.0312-.2481.0469-.377.0762-.5879.1367-1.1641.2509-1.7168.33-.2324.0332-.4531.0469-.6777.07-.4317.0439-.8594.0791-1.2676.0878-.24.0039-.4727-.0039-.7051-.0117-.3769-.0117-.748-.04-1.1055-.0859-.2793-.0352-.56-.0713-.8281-.127-.125-.0273-.2519-.0507-.3769-.082a9.6864,9.6864,0,0,1-1.2715-.4023,8.9965,8.9965,0,0,1-1.041-.5293c-.0938-.0528-.1953-.0889-.2871-.1455l.0039.0029,35.8671,22.1875c.127.0781.2657.1289.3946.2a8.7565,8.7565,0,0,0,.9258.47l.0117.0059a9.4172,9.4172,0,0,0,1.2637.3984c.125.0313.2539.0566.3808.082.15.0313.2949.0733.4492.0987.1192.0185.252.0127.3711.0283.3633.0469.7344.0742,1.1153.0869.23.0068.4589.0166.6953.0107.414-.0078.8457-.0429,1.2832-.0878.2226-.0235.4355-.0372.6621-.0684.5625-.082,1.1484-.1973,1.7461-.3359.1191-.0274.2285-.0411.3476-.0723.7266-.18,1.4805-.4043,2.26-.668.0371-.0117.07-.02.1094-.0312q.9433-.3238,1.9414-.7256c.5527-.2236,1.1152-.4658,1.6933-.7246.4258-.1924.8653-.4053,1.3067-.6162C232.3925,41.1621,232.5429,41.0957,232.7031,41.0176Z" style="fill:#287986"/><path d="M110.5507,206.9531,74.6816,184.7656a77.6954,77.6954,0,0,1-10.0293-9.625L100.52,197.3281A77.8391,77.8391,0,0,0,110.5507,206.9531Z" style="fill:#348f9e"/><g style="clip-path:url(#clip-path-3)"><g style="isolation:isolate"><path d="M110.5507,206.9531,74.6816,184.7656a77.6954,77.6954,0,0,1-10.0293-9.625L100.52,197.3281a77.8391,77.8391,0,0,0,10.0312,9.625" style="fill:#348f9e"/></g></g><path d="M194.0761,22.1885,158.2089,0a80.5263,80.5263,0,0,1,13.8789,2.4209L207.955,24.6094A80.5808,80.5808,0,0,0,194.0761,22.1885Z" style="fill:#348f9e"/><g style="clip-path:url(#clip-path-4)"><g style="isolation:isolate"><path d="M194.0761,22.1885,158.2089,0q3.2784.2828,6.4864.82l35.8691,22.1885q-3.208-.5376-6.4883-.82" style="fill:#348f9e"/><path d="M200.5644,23.0088,164.6953.82q3.7528.63,7.3925,1.6006L207.955,24.6094q-3.6357-.97-7.3906-1.6006" style="fill:#348f9e"/></g></g><g style="isolation:isolate"><g style="clip-path:url(#clip-path-5)"><g style="isolation:isolate"><path d="M100.52,197.3281,64.6523,175.1406c.0547-.1426.1094-.2832.1621-.4219l35.8691,22.1875q-.0819.211-.164.4219" style="fill:#297c89"/><path d="M100.6835,196.9062,64.8144,174.7187c5.2481-13.6308,4.8613-21.8535-1.8652-26.0136l35.8691,22.1875c6.7227,4.16,7.1133,12.3828,1.8652,26.0136" style="fill:#287986"/></g></g></g><path d="M84.0214,167.5351,48.1542,145.3476c-.7851-2.4589-1.498-4.9589-2.0937-7.5507s-1.0547-5.1954-1.4375-7.8155L80.4921,152.17c.3789,2.6211.84,5.2246,1.4356,7.8164C82.5214,162.5762,83.2363,165.0781,84.0214,167.5351Z" style="fill:#348f9e"/><g style="clip-path:url(#clip-path-6)"><g style="isolation:isolate"><path d="M84.0214,167.5351,48.1542,145.3476c-.7851-2.4589-1.498-4.9589-2.0937-7.5507s-1.0547-5.1954-1.4375-7.8155L80.4921,152.17c.3789,2.6211.84,5.2246,1.4356,7.8164.5937,2.59,1.3086,5.0918,2.0937,7.5488" style="fill:#348f9e"/></g></g><path d="M81.66,115.2383,45.7929,93.05a118.6491,118.6491,0,0,1,4.2793-15.4072L85.9414,99.831A118.2987,118.2987,0,0,0,81.66,115.2383Z" style="fill:#348f9e"/><g style="clip-path:url(#clip-path-7)"><g style="isolation:isolate"><path d="M81.66,115.2383,45.7929,93.05a118.6491,118.6491,0,0,1,4.2793-15.4072L85.9414,99.831A118.2987,118.2987,0,0,0,81.66,115.2383" style="fill:#348f9e"/></g></g><path d="M191.99,25.0566c.1094-.1445.2207-.291.33-.4385.5039-.6728,1.0078-1.3632,1.5195-2.0927.08-.1114.1582-.2237.2363-.3369L158.2089,0c-.59.85-1.1757,1.65-1.7539,2.4248-.1133.1514-.2265.3017-.3379.45-.5566.7363-1.1113,1.4453-1.6582,2.1133L154.32,5.15c-.4668.5664-.93,1.0947-1.3926,1.6113-.2129.2383-.4258.4746-.6387.7031-.3672.3936-.73.7657-1.0918,1.127-.2012.2-.4.4043-.6.5937-.5156.4922-1.0293.9619-1.5391,1.3887-.0644.0547-.1289.1016-.1953.1543-.4668.3857-.9316.7393-1.3925,1.0684-.1192.0849-.24.17-.3575.2519-.5.3408-.9961.6543-1.4922.93a15.7811,15.7811,0,0,1-1.7793.8633c-.3652.1484-.73.2607-1.0937.373-.2227.0684-.4473.13-.67.1856-.2461.0605-.49.1113-.7364.1562-.2226.041-.4453.0742-.67.1016-.2441.0293-.4883.0478-.7324.06-.2227.0118-.4492.02-.6719.0176-.2422-.0019-.4843-.0156-.7265-.0342-.2246-.0166-.4493-.0381-.6758-.0693-.2442-.0332-.49-.0791-.7363-.1289-.2129-.0449-.4258-.09-.6407-.1445-.248-.0664-.5-.1465-.748-.2286-.2129-.07-.4258-.14-.6387-.2226-.291-.1133-.584-.2422-.8769-.3789-.1446-.0664-.2852-.126-.43-.1983-.44-.2226-.8828-.4638-1.3262-.7392L168.3378,34.78c.4434.2734.8829.5166,1.3223.7373.1484.0742.293.1347.44.2031.2129.0976.4218.207.6347.293.0782.0312.1543.0507.2305.081.2168.083.4316.1543.6484.2256.2461.082.4942.16.7422.2256.2149.0576.43.1025.6465.1474.1445.0293.2891.0733.4316.0977.1.0156.1973.0156.295.0293.23.0312.457.0527.6855.07.2383.0176.4785.03.7188.0332.2265.002.4511-.0058.6777-.0176.24-.0117.4844-.0312.7285-.06.2227-.0264.4473-.0606.6719-.1016q.3662-.0658.7324-.1562c.2246-.0547.4512-.1172.6758-.1866.1211-.0371.24-.0595.3594-.1.2441-.083.4863-.1728.7324-.2724a15.7784,15.7784,0,0,0,1.7793-.8623c.0234-.0127.0469-.02.0683-.0332.4727-.2666.9473-.5733,1.4239-.8994.1172-.0782.2324-.1622.35-.2442.15-.1074.3008-.2051.4551-.32.3125-.2324.6269-.49.9414-.749.0664-.0557.1347-.1045.2011-.1621.4278-.3575.8575-.7354,1.2891-1.14.082-.0761.166-.167.248-.2441.1973-.1914.3985-.3945.5977-.5947.3633-.3623.7246-.7334,1.0918-1.127.2129-.23.4258-.4658.6426-.7061.16-.1777.3164-.34.4765-.5253.3047-.35.6114-.7188.92-1.09.0429-.0527.0859-.1006.1269-.1523C190.873,26.51,191.43,25.7949,191.99,25.0566Z" style="fill:#287986"/><path d="M92.93,131.3017c-.0117-.3642-.041-.7275-.0839-1.0888-.0079-.0625-.01-.127-.0176-.1885-.0567-.4209-.1367-.8389-.2344-1.2568-.0293-.1182-.0645-.2364-.0957-.3555-.08-.3027-.168-.6045-.2715-.9053-.0488-.14-.0976-.28-.15-.4209-.1113-.2969-.2344-.5937-.3672-.8906-.0527-.1191-.1035-.24-.1621-.3594-.1953-.4082-.4062-.8164-.6445-1.2207-.0313-.0566-.07-.1113-.1035-.167-.211-.3525-.4395-.7041-.68-1.0556-.0918-.1319-.1875-.2637-.2852-.3946-.205-.2832-.4179-.5664-.6445-.85-.1074-.1347-.2148-.2695-.3262-.4053q-.4013-.4789-.8379-.956c-.08-.0859-.1523-.1738-.2343-.26q-.5655-.6034-1.1953-1.206c-.1075-.1045-.2247-.209-.336-.3135-.3242-.3027-.6562-.6055-1.0019-.9082-.1543-.1358-.3145-.2725-.4766-.4092q-.5038-.4291-1.043-.86c-.1562-.125-.3086-.25-.4687-.375-.5176-.4043-1.0488-.8106-1.6094-1.2168L45.7929,93.05c.5586.4072,1.0918.8135,1.6113,1.22.1563.1231.3067.2461.461.3692q.5419.4335,1.0527.8662c.1582.1357.3145.2695.4688.4052.35.3047.6855.61,1.0117.9161.1074.1015.2226.2031.3281.3046q.63.6051,1.1973,1.209c.0781.084.15.168.2265.2539.295.32.5782.6426.8457.9649.1094.1318.2149.2636.32.3945.23.2881.4492.5781.6562.8652.0918.127.1856.2539.2734.3809.25.3613.4825.7227.7012,1.0859.0254.045.0567.0918.086.1368.2382.4082.4531.8183.65,1.23.0528.1143.1.2285.1524.3438q.205.4541.375.9082c.0508.1367.1.2715.1445.4082.1035.3056.1953.6133.2774.9209.0293.1142.0644.23.0918.3428.0976.4189.1777.8378.2343,1.2617.01.06.01.1211.0176.18.0449.3632.07.7285.084,1.0957.0059.1367.002.2734.0039.4121.002.3008-.0078.6045-.0273.9092-.01.1425-.0176.2841-.0313.4267-.0332.3477-.084.6992-.1445,1.05-.0156.0889-.0235.1768-.0391.2656q-.126.6578-.3144,1.3233c-.0352.1211-.0782.2441-.1133.3681-.1016.3291-.211.6592-.334.9932-.06.1621-.125.3272-.1914.4922-.1074.2656-.2207.5352-.3438.8047-.0742.1689-.15.3379-.2324.5078-.1347.2852-.2832.5723-.4355.86-.0821.1553-.16.31-.2461.4659-.2481.4472-.5117.8974-.7988,1.3535-.004.0078-.01.0156-.0157.0254-.2832.4492-.5879.9043-.9082,1.3613-.082.1191-.1719.2393-.2578.3574q-.48.671-1.0137,1.3555c-.1093.1426-.2187.2832-.332.4248-.4414.5537-.9023,1.1113-1.3926,1.6768-.0468.0527-.0976.1064-.1425.1591q-1.0782,1.235-2.3145,2.51c-.0313.03-.0625.0615-.0918.0928q-1.28,1.3125-2.7207,2.6728L80.4921,152.17q1.4532-1.3712,2.7344-2.6894c.0235-.0235.0488-.0469.0723-.0713.83-.8555,1.6015-1.6944,2.3242-2.5215.0293-.0332.0645-.0674.0918-.1006a.3048.3048,0,0,0,.041-.05c.4942-.5654.957-1.124,1.3965-1.6777.1152-.1436.2227-.2862.334-.4288q.5273-.6766,1.0058-1.34c.0586-.0859.1309-.1719.1914-.2578.0274-.0391.0508-.0781.0782-.1182.31-.4443.6074-.8867.8808-1.3242.0176-.0254.0332-.0518.0489-.0762.2832-.4511.5449-.8974.791-1.3408.02-.0351.0429-.07.0625-.1055.0605-.11.1093-.2187.166-.3291.16-.3.3144-.5986.4551-.8935.0781-.1621.15-.3223.2226-.4844q.1905-.42.3555-.8389c.0351-.0849.0781-.1728.1113-.2578.0254-.0674.041-.1338.0664-.2q.1933-.5214.3477-1.0371c.0351-.11.0722-.2207.1035-.331q.1905-.6725.3164-1.335c.0156-.082.0234-.1621.0371-.2432.0645-.3593.1113-.7177.1465-1.0732.0137-.1387.0215-.2783.0312-.418q.0294-.46.0293-.915C92.9335,131.5752,92.9335,131.4375,92.93,131.3017Z" style="fill:#287986"/><path d="M142.496,41.2783c.2442-.7969.4766-1.6221.6973-2.4853.041-.1631.0781-.336.1192-.501q.2694-1.1.5156-2.2725c.0547-.2578.1074-.5156.1582-.7773.1914-.9571.373-1.9346.539-2.959L108.6562,10.0947c-.166,1.0244-.3477,2.001-.5371,2.958-.0527.2637-.1074.5215-.16.7793q-.246,1.1674-.5117,2.2637c-.041.1689-.082.3447-.123.5117-.2168.8594-.4492,1.6807-.6934,2.4746-.0625.2031-.1269.3965-.1894.5957q-.3018.9316-.625,1.8008c-.0762.2021-.1485.4082-.2266.6055-.1758.4492-.3594.8769-.5449,1.3007-.0723.1622-.1407.334-.2149.4932q-.3954.86-.8222,1.6465c-.0313.0537-.0625.1025-.0938.1572-.3476.625-.7129,1.2071-1.0918,1.7627-.0918.1319-.18.2666-.2695.3955-.3027.418-.6113.8155-.9317,1.1914-.0449.0528-.0878.1133-.1308.1641-.3457.3965-.7051.7676-1.0762,1.1172-.1055.1015-.2187.1914-.33.289-.2675.24-.541.4727-.8222.6895-.1309.1016-.2676.1953-.4024.291-.3281.2324-.6621.4512-1.0058.6553-.1387.081-.2774.167-.42.2432a13.7106,13.7106,0,0,1-1.4472.6953c-.3692.15-.76.2607-1.1465.3808-.4766.1485-.9688.2725-1.4727.378-.2324.0478-.4629.1025-.6992.1416a19.1755,19.1755,0,0,1-2.0605.2216c-.0821.0049-.1582.0186-.24.0225a24.218,24.218,0,0,1-2.4824-.043c-.2578-.0156-.5273-.0488-.791-.0732-.623-.0576-1.2578-.1319-1.9141-.2324-.3164-.0489-.6386-.1026-.9629-.1612-.65-.1191-1.32-.2617-2.0039-.42-.3046-.07-.6015-.1328-.91-.2109-.9942-.252-2.01-.5332-3.0684-.8672L114.1015,54.5c1.0586.334,2.0742.6152,3.0684.8672.3086.0781.6054.1406.9082.2109.6855.1592,1.3574.3027,2.0117.4209.1621.0293.34.0781.5.1045.1562.0254.2969.0312.4512.0547.66.1015,1.3047.1777,1.9336.2353.2578.0235.5214.0557.7734.0713a23.8177,23.8177,0,0,0,2.49.043c.0743-.0039.1407-.0156.2129-.02a18.9055,18.9055,0,0,0,2.0879-.2246c.2363-.0381.461-.0918.6914-.14.5059-.1045,1-.23,1.4785-.3789.1289-.04.2715-.0586.3985-.1025.2519-.086.5019-.1788.748-.2774a13.8005,13.8005,0,0,0,1.4531-.6992c.0528-.0273.1094-.0479.1582-.0762.086-.0478.1622-.1093.2461-.1592.35-.206.6875-.4287,1.0215-.665.0782-.0566.166-.1016.2461-.1611.0488-.0381.0957-.084.1465-.1221.2871-.2207.5625-.457.8359-.7031.086-.0752.1778-.1387.2618-.2168.0195-.02.0371-.041.0566-.06q.5566-.5259,1.0781-1.12a.1969.1969,0,0,1,.02-.0225c.0371-.042.0683-.0927.1054-.1338.32-.3769.6328-.7763.9336-1.1953.0391-.0566.086-.1054.127-.164.0527-.0742.0976-.1641.1484-.24.375-.5507.7383-1.1279,1.084-1.7461.0234-.0449.0508-.0791.0742-.123.01-.0156.0156-.0332.0254-.0488.2871-.5235.5606-1.0743.8242-1.6465.0684-.1465.1309-.3057.1973-.457.1933-.4375.3848-.8848.5664-1.3516.0273-.0693.0586-.1328.0859-.2031.043-.1133.08-.2412.1231-.3536.2207-.5957.4355-1.2119.6387-1.85C142.375,41.6572,142.4355,41.4726,142.496,41.2783Z" style="fill:#287986"/><path d="M106.34,84.458c.0762-.3652.1328-.7451.1855-1.124.043-.3184.0938-.6348.1231-.9629.0332-.3946.041-.8028.0527-1.211.0078-.3359.0235-.6689.0156-1.0156-.01-.4238-.0449-.8652-.0781-1.3047-.0273-.3535-.0429-.7011-.0859-1.0654-.0527-.46-.1367-.9414-.2129-1.417-.0606-.3672-.1074-.7246-.1816-1.1016-.1016-.51-.2344-1.0429-.3614-1.5722-.0879-.3672-.1621-.7227-.2636-1.0977-.16-.5976-.3575-1.2217-.5508-1.8428-.1035-.331-.1856-.6474-.2989-.9853-.32-.9707-.6757-1.9648-1.0722-2.99L67.7441,44.5791q.5917,1.5381,1.0723,2.9912c.1093.332.1914.6455.2949.9717.1933.626.3926,1.2529.5547,1.8564.1.3731.1718.7266.26,1.0908.127.5313.2637,1.0674.3653,1.5791.0722.376.1191.7325.18,1.0977.0781.4775.1621.959.2148,1.42.043.3633.0586.711.084,1.0645.0332.4394.0722.8818.08,1.3066.0078.3457-.0079.6787-.0176,1.0156-.01.4073-.0195.8164-.0547,1.209-.0273.33-.0762.6465-.1211.9649-.0547.3789-.1074.7578-.1836,1.123-.0644.3106-.15.6094-.2324.91-.0977.3525-.1953.7041-.3164,1.0429-.1035.3-.2266.59-.3516.8789-.1308.3077-.2656.6123-.416.9082-.1738.334-.3574.66-.5566.9805-.1094.18-.2129.3594-.3321.5342a15.0233,15.0233,0,0,1-.9668,1.2744c-.0429.0527-.08.1074-.125.16a17.0313,17.0313,0,0,1-1.3222,1.3515c-.26.24-.5547.4658-.834.6973-.2813.23-.5469.4668-.85.6894-.0957.07-.2032.1387-.3047.21q-.6768.4819-1.4258.9365c-.1523.0928-.3047.1866-.459.2774-.4531.2636-.9375.5156-1.4238.7656-.2266.1143-.4414.2344-.6758.3477-.7187.3457-1.4687.6816-2.2617,1.0019-.6973.2813-1.4336.55-2.1875.8125-.2168.0752-.44.1494-.6621.2227-.5254.1757-1.0684.3476-1.6231.5156-.2246.0664-.4453.1367-.6757.2031-.7754.2246-1.57.4434-2.3985.6524L85.9414,99.831c.8242-.208,1.6132-.4267,2.3867-.6494.24-.07.4746-.1435.7109-.2148.5391-.1621,1.0625-.3281,1.5762-.4981.1387-.0468.291-.09.4277-.1367.0938-.0312.1778-.0664.27-.1.75-.2617,1.4824-.5273,2.1777-.8086.791-.32,1.543-.6562,2.2617-1.0039.23-.11.4414-.2285.6621-.3418.3692-.1875.75-.3721,1.1-.5684.1153-.0644.2188-.1347.3321-.2011.1582-.09.3085-.1836.4589-.2754.5-.3047.9786-.6172,1.4317-.9395.1-.0693.2051-.1377.3027-.209.043-.0322.0918-.0615.1328-.0937h0c.2559-.1914.4746-.3975.7149-.5938.2793-.23.5722-.455.832-.6953.0313-.0273.07-.0547.1-.082a16.9077,16.9077,0,0,0,1.209-1.2519.2137.2137,0,0,0,.0176-.0215c.0449-.0508.08-.1055.1211-.1553.2968-.3516.584-.7061.8437-1.0752.0469-.0664.082-.1387.1289-.207.1153-.1719.2168-.35.3281-.5264.1309-.2158.2793-.4258.4024-.6475.0586-.1093.0976-.2285.1543-.3379.1523-.2949.2851-.6015.418-.9082.0781-.1826.1777-.3544.25-.5429.041-.1074.0625-.2246.1015-.334.1192-.34.2207-.6914.3145-1.0449C106.1914,85.0674,106.2734,84.7676,106.34,84.458Z" style="fill:#287986"/><path d="M103.6113,66.7676,67.7441,44.5791a120.8448,120.8448,0,0,1,10.49-12.2666L114.1015,54.5A121.3313,121.3313,0,0,0,103.6113,66.7676Z" style="fill:#348f9e"/><g style="clip-path:url(#clip-path-8)"><g style="isolation:isolate"><path d="M103.6113,66.7676,67.7441,44.5791q2.7276-3.6519,5.7129-7.0879L109.3222,59.68q-2.9824,3.4335-5.7109,7.0879" style="fill:#348f9e"/><path d="M109.3222,59.68,73.457,37.4912q2.3085-2.66,4.7773-5.1787L114.1015,54.5q-2.4639,2.5166-4.7793,5.18" style="fill:#348f9e"/></g></g><path d="M266.5722,93.7793c-16.2129,15.2724-16.5859,25.7168-1.168,36.9316a118.38,118.38,0,0,1-4.2812,15.4072,58.607,58.607,0,0,0-7.5234,2.4024c-13.5137,5.46-16.33,14.624-10.1348,30.6572a120.1327,120.1327,0,0,1-10.5156,12.2754c-7.3985-2.3359-13.2032-2.6973-17.73-.8691-6.6777,2.6992-10.57,10.164-12.668,23.0752-2.4257,1.207-4.8808,2.3418-7.4062,3.3613-2.5235,1.0195-5.0528,1.9-7.5606,2.6875-7.1777-9.167-13.5449-12.4854-20.2246-9.7881-4.5273,1.83-9.1972,6.4248-14.3593,13.835a79.7377,79.7377,0,0,1-13.879-2.42c-1.6074-17.88-7.7949-23.4169-21.3007-17.96a62.5738,62.5738,0,0,0-7.27,3.5781,77.8391,77.8391,0,0,1-10.0312-9.625c8.082-20.709,3.3808-29.1035-16.4981-29.793-.7851-2.457-1.5-4.9589-2.0937-7.5488-.5957-2.5918-1.0567-5.1953-1.4356-7.8164,16.2129-15.2725,16.584-25.7168,1.168-36.9316A118.2987,118.2987,0,0,1,85.9414,99.831,58.7121,58.7121,0,0,0,93.49,97.4238c13.498-5.4531,16.3047-14.6152,10.1211-30.6562A121.3313,121.3313,0,0,1,114.1015,54.5c7.41,2.334,13.2227,2.6953,17.7539.8652,6.6778-2.6992,10.5684-10.16,12.67-23.082,2.4161-1.1875,4.8829-2.3408,7.4063-3.3594,2.5254-1.02,5.043-1.8828,7.56-2.6875,7.1719,9.1758,13.5391,12.4922,20.2188,9.793,4.5293-1.83,9.2012-6.4278,14.3652-13.8408a80.5808,80.5808,0,0,1,13.8789,2.4209c1.6016,17.8925,7.7813,23.4238,21.2813,17.97a63.1969,63.1969,0,0,0,7.2754-3.583,77.5142,77.5142,0,0,1,10.0312,9.625c-8.082,20.709-3.3808,29.1035,16.5,29.7929.7852,2.4571,1.4981,4.959,2.0938,7.55C265.73,88.5547,266.1914,91.1582,266.5722,93.7793Zm-42.3906,10.7c-5.584-28.8653-32.7676-43.9912-60.7344-33.7823q-.9083.3312-1.7988.6915c-26.9434,10.8867-44.2149,41.8349-38.752,70.0761,5.57,28.8692,32.752,43.9961,60.7344,33.7813q.9052-.3311,1.7969-.6914c26.9433-10.8848,44.2031-41.8291,38.7539-70.0752" style="fill:#43aec0"/><path d="M144.5253,32.2832,108.6562,10.0947c2.418-1.1885,4.8828-2.3408,7.4082-3.36,2.5234-1.02,5.043-1.8809,7.5606-2.6856l35.8671,22.1875c-2.5175.8047-5.0351,1.667-7.56,2.6875C149.4082,29.9424,146.9414,31.0957,144.5253,32.2832Z" style="fill:#348f9e"/><g style="clip-path:url(#clip-path-9)"><g style="isolation:isolate"><path d="M144.5253,32.2832,108.6562,10.0947c2.418-1.1885,4.8828-2.3408,7.4082-3.36,1.5918-.6426,3.1816-1.2227,4.7695-1.7657l35.8672,22.1885c-1.5879.542-3.1777,1.1231-4.7695,1.7666-2.5234,1.0186-4.99,2.1719-7.4063,3.3594" style="fill:#348f9e"/><path d="M156.7011,27.1572,120.8339,4.9687q1.3976-.4774,2.7911-.92l35.8671,22.1875q-1.3944.4454-2.791.9209" style="fill:#348f9e"/></g></g></g><path d="M114.1015,381.4853c0,11.3916-25.543,20.626-57.0508,20.626C25.5449,402.1113,0,392.8769,0,381.4853s25.5449-20.6279,57.0507-20.6279C88.5585,360.8574,114.1015,370.0928,114.1015,381.4853Z" style="fill:#9eabd3"/><polygon points="64.408 386.74 63.73 374.725 71.848 374.725 71.176 386.74 64.408 386.74" style="fill:#f8b78f"/><path d="M63.5078,389.8672c4.0156,1.7187,8.34-.0821,8.34-.0821l14.1836-5.6816c3.0684-1.9766-.91-3.3711-.91-3.3711-2.3808-1.085-6.1543.249-6.1543.249L71.4,382.7236c-2.5449,2.72-7.17.8867-7.17.8867S63.0371,385.623,63.5078,389.8672Z" style="fill:#693634"/><path d="M63.5078,389.8672a13.4887,13.4887,0,0,0,8.34-.0821l13.9258-5.5781s2.0605-1.001.9375-2.543c0,0,1.082.3409.4824,3.7657-.3555.5429-1.66,1.2441-4.2109,2.4316-4.3555,2.0264-8.7774,4.2236-13.5606,5.0938a9.6364,9.6364,0,0,1-4.0605-.1133c-.252-.0645-1.8535-.5235-1.8535-.8506Z" style="fill:#ebebec"/><path d="M63.5078,389.8672l.7187.2158.7246.1592a10.5443,10.5443,0,0,0,1.4688.1611,12.7269,12.7269,0,0,0,1.4707-.0449,13.3916,13.3916,0,0,0,1.4511-.211,14.6215,14.6215,0,0,0,1.418-.36,9.3049,9.3049,0,0,0,1.3535-.5234l2.7344-1.2188,2.7481-1.1894c.916-.3946,1.8339-.7881,2.7558-1.1661q2.7627-1.1586,5.5469-2.2558l-.0488.0254a2.5684,2.5684,0,0,0,.7812-.5889.636.636,0,0,0,.1094-.749,2.3165,2.3165,0,0,0-.68-.7764,7.7328,7.7328,0,0,0-.94-.6123,4.5209,4.5209,0,0,1,1.0821.3877,2.5432,2.5432,0,0,1,.957.751,1.1954,1.1954,0,0,1,.2188.6777,1.33,1.33,0,0,1-.2129.6914,3.19,3.19,0,0,1-.916.877l-.0137.0078-.0371.0166q-2.7334,1.2275-5.4844,2.4043-1.374.5932-2.76,1.1611l-2.7695,1.1406-2.7793,1.1094a10.2869,10.2869,0,0,1-1.4648.4805,11.8317,11.8317,0,0,1-1.5039.2842,14.0039,14.0039,0,0,1-1.5235.1123,12.363,12.363,0,0,1-1.5215-.1016,10.8925,10.8925,0,0,1-1.4843-.31c-.24-.08-.4825-.1543-.7149-.2461Z" style="fill:#582526"/><polygon points="35.529 380.139 34.851 368.123 42.967 368.123 42.295 380.139 35.529 380.139" style="fill:#f8b78f"/><path d="M34.6289,383.2656c4.0136,1.7188,8.3378-.084,8.3378-.084L57.1523,377.5c3.0684-1.9746-.9121-3.3692-.9121-3.3692-2.3809-1.0859-6.1543.25-6.1543.25l-7.5645,1.7422c-2.5468,2.7178-7.17.8867-7.17.8867S34.1582,379.0215,34.6289,383.2656Z" style="fill:#693634"/><path d="M34.6289,383.2656a13.4747,13.4747,0,0,0,8.3378-.084l13.9258-5.5761s2.0625-1.001.94-2.543c0,0,1.082.3418.4824,3.7637-.3574.5449-1.6621,1.246-4.2129,2.4335-4.3535,2.0254-8.7773,4.2227-13.5586,5.0938a9.6192,9.6192,0,0,1-4.0605-.1133c-.252-.0644-1.8535-.5234-1.8535-.8515Z" style="fill:#ebebec"/><path d="M34.6289,383.2656l.7187.2149.7246.16a10.4652,10.4652,0,0,0,1.4688.1611,12.4982,12.4982,0,0,0,1.4707-.0459,13.4334,13.4334,0,0,0,1.4511-.2089c.48-.0918.9512-.2247,1.4161-.3614a9.3093,9.3093,0,0,0,1.3535-.5234l2.7343-1.2188,2.7481-1.1894q1.374-.5948,2.7578-1.166c1.84-.7735,3.6914-1.52,5.5469-2.2559l-.0508.0254a2.5781,2.5781,0,0,0,.7832-.5889.6417.6417,0,0,0,.1094-.749,2.339,2.339,0,0,0-.68-.7754,7.77,7.77,0,0,0-.9414-.6133,4.5048,4.5048,0,0,1,1.084.3887,2.5419,2.5419,0,0,1,.957.752,1.2008,1.2008,0,0,1,.2188.6757,1.3282,1.3282,0,0,1-.2129.6915,3.2335,3.2335,0,0,1-.918.8769l-.0137.0088-.0351.0166q-2.7335,1.2261-5.4864,2.4023c-.916.3975-1.8359.7823-2.76,1.1631l-2.7676,1.14-2.7813,1.11a10.2536,10.2536,0,0,1-1.4628.4795,11.9,11.9,0,0,1-1.504.2852,14.07,14.07,0,0,1-1.5253.1113,12.3323,12.3323,0,0,1-1.52-.1016,10.9056,10.9056,0,0,1-1.4863-.3105c-.24-.08-.4824-.1543-.7148-.2471Z" style="fill:#582526"/><path d="M37.3886,261.5859c-.8418,4.1182.3067,9.9,1.461,13.8848,2.51,8.6523,15.2011,13.6767,22.8964,15.125,0,0,14.3165.8369,13.6387-20.1738Z" style="fill:#142b4e"/><path d="M61.7226,218.668a189.28,189.28,0,0,1,15.9141-30.7256l3.8476,2.1074S77.09,215.92,69.9257,224.959Z" style="fill:#f4b78e"/><path d="M67.8691,212.4912s7.1836,7.1641,6.123,11.9219c0,0-.6679,2.6152-2.7675,2.5039,0,0-2.8907,1.0468-12.7012-7.5235Z" style="fill:#f4b78e"/><path d="M38.15,191.0859a8.8179,8.8179,0,0,0,2.1133,9.8047l19.084,18.8984s6.4707.7715,11.3106-10.1455l-17.5118-17.208S43.1347,185.5058,38.15,191.0859Z" style="fill:#cade70"/><path d="M58.6269,219.0742c3.08.1494,5.332-1.5254,7.4746-3.9082.9551-1.06,2.2051-2.915,1.7481-4.4473-.7344-2.4765-5.3789-3.4218-7.43-4.2353-3.41-1.3565-6.8379-2.669-10.32-3.836-3.1934-1.07-6.59-1.9687-9.252-4.1416a9.2484,9.2484,0,0,1-3.1328-6.0752,7.1476,7.1476,0,0,1,.4355-1.3447c4.9844-5.58,14.9961,1.35,14.9961,1.35l17.5118,17.208c-4.84,10.917-11.3106,10.1455-11.3106,10.1455Z" style="fill:#d1d3d4;mix-blend-mode:multiply"/><path d="M75.1816,275.9492l.207,39.0479-1.9609,66.2578s-4.1406,4.0908-11.5488,1.8095l-5.625-66.2978-1.2012-44.3779Z" style="fill:#142b4e"/><path d="M55.0527,276.0937l-17.8906-9.61.539,44.9971-3.1347,65.4951c4.1582,3.5039,10.1972-.2842,10.1972-.2842l9.5528-60.6309Z" style="fill:#142b4e"/><polygon points="67.189 187.859 64.129 201.96 54.226 196.698 56.523 184.748 67.189 187.859" style="fill:#f4b78e"/><path d="M67.1484,189.3437a54.21,54.21,0,0,1-7.7871-1.2187c-3.4746-.84-6.2461-6.2529-8.709-8.8174-1.57-1.6367-2.5293-4.0088-3.6074-6.0029-3.4043-6.295-3.0645-12.9629,1.0683-19.1543,2.0352-3.044,6.1328-5.8086,9.6875-6.1582,7.127-.7032,15.752,2.9316,19.4864,9.7343,2.2714,4.1387-.8789,9.4356,2.6992,13.045,0,0,3.2226,1.9785.4551,3.9951,0,0-2.8809,1.417-3.2012,3.456a29.6134,29.6134,0,0,0-.4785,4.2676c-.1992,1.2627.1015,3.94-.752,4.9981-1.74,2.1582-4.9043,2.1562-7.418,1.9726C68.1113,189.4258,67.6308,189.3877,67.1484,189.3437Z" style="fill:#f4b78e"/><path d="M63.08,182.7021c.1524,2.5713,1.24,5.9463,4.0684,6.6416a8.6738,8.6738,0,0,0,1.4433.1172c2.5137.1836,5.6778.1856,7.418-1.9726.8535-1.0586.5528-3.7354.752-4.9981.1347-.8633.3164-3.2392.3886-3.791a10.1165,10.1165,0,0,0-2.7089-.2549,7.497,7.497,0,0,0-2.8477.6289c-.7812.3653-1.82.9658-2.6465.3926a3.2911,3.2911,0,0,1-1.0586-1.8506c-.4179-1.49-1.18-4.2148-1.4414-5.7324l-1.1211.24s-1.1562,5.211-1.1582,5.2188C63.746,179.2441,62.9609,180.65,63.08,182.7021Z" style="fill:#554f49"/><path d="M77.6367,276.0937l-.1524-64.7011c.5742-3.9385-.5293-6.2774-2.3554-7.7793-1.7579-1.4453-8.01-4.918-10.0118-6.003,0,0-1.6.6153-6.1523-1.4775,0,0-3.3223-1.291-4.1231-3.26-2.3046-.74-7.3417-2.7461-11.0761-3.374-5.2949-.8877-5.5645,4.0772-6.15,7.9883,0,0-2.3457,35.3818-1.2617,66.8174A53.83,53.83,0,0,0,77.6367,276.0937Z" style="fill:#cade70"/><path d="M77.4843,211.3926c.5742-3.9385-.5293-6.2774-2.3554-7.7793a34.618,34.618,0,0,0-3.4786-2.2891c.7579,1.6836.5137,3.5273-.76,5.59-.8926,1.4454-1.9356,2.8165-2.69,4.3418a16.6089,16.6089,0,0,0-1.3828,6.2979,106.3952,106.3952,0,0,0-.1191,15.1572c.457,6.9727,2.51,13.8018,2.4414,20.82-.0625,6.584-2.4317,12.708-8.5606,15.8662a32.0858,32.0858,0,0,1-10.5566,3.084,53.9555,53.9555,0,0,0,27.6133,3.6123Z" style="fill:#d1d3d4;mix-blend-mode:multiply"/><path d="M73.9648,382.1328c-1.59,1.2324-4.8359,3.65-11.9727,2.1387a1.3531,1.3531,0,0,1-.6914-1.0313l-.2754-4.9824s-.0273-1.3.7364-.9727c0,0,4.916,2.2168,11.5976-1.4345,0,0,.6914-.6162.9375.5322l.0742,4.4062S74.4882,381.7265,73.9648,382.1328Z" style="fill:#7c9ec2"/><path d="M45.4785,376.32c-1.5918,1.2324-5.0215,4.1992-10.8516,1.3711a1.3526,1.3526,0,0,1-.6914-1.0313l.3848-4.2763s-.0254-1.3.7382-.9717c0,0,3.8282,2.8711,10.51-.7813,0,0,.6914-.6152.9375.5332l-.3027,3.7491A2.8013,2.8013,0,0,1,45.4785,376.32Z" style="fill:#7c9ec2"/><path d="M103.0664,208.751s-.4043-10.6319,3.1035-31.2569l4.1777.2666s6.6934,24.1826,1.7051,34.2256Z" style="fill:#f4b78e"/><path d="M86.4,203.9287l20.5079,1.5957s5.3828,1.2715,5.4824,5.708c0,0-.377,4.2012-7.2461,4.2979L84.791,215.48Z" style="fill:#f4b78e"/><path d="M110.3476,177.7607a79.2679,79.2679,0,0,0,1.7734-9.4707c.8692-4.5547-2.0761-4.751-2.0761-4.751-.9024-2.4287-2.7832-.2822-2.7832-.2822a1.5885,1.5885,0,0,0-1.3575,1.26l.0977,6.7646c-.3359,1.1485-1.1465.2149-1.1465.2149l-1.9629-2.93c-1.0683-1.3184-1.7011.2148-1.7011.2148l4.9121,9.0957Z" style="fill:#f4b78e"/><path d="M66.2656,204.4707s1.0215-7.2393,15.2187-4.6992l15.5606,3.541s4.2812,8.8047-1.6309,14.8613l-25.3047-1.6182S62.65,212.3955,66.2656,204.4707Z" style="fill:#cade70"/><path d="M55.7148,188.9551l-5.0625,2.4629s5.2578,7.1562,17.1074,7.6992c.1641.0078-1.7207-5.9571-1.7207-5.9571Z" style="fill:#fff"/><path d="M42.6152,161.1494c-.002.0225-2.7969,10.5752,6.8965,20.0693l6.3984,5.8731,4.5117-1.2071.6563-9.4824c.1035-.81-.7774-1.8457-1.0684-2.5449a6.3949,6.3949,0,0,1-.4765-2.6348c.01-1.8027.5878-3.8769,2.8554-3.4179,1.8692.3789,2.5489,2.6972,2.9375,4.3183l1.1211-.24c-.8008-5.4424,3.2383-7.4316,3.2383-7.4316-1.0352-5.74,4.2715-5.3868,4.2715-5.3868s6.6289-.1484,5.8066-6.2568c0,0,.41-3.582-5.2285-6.9307-10.92-1.2773-15.6523-.3242-15.6523-.3242a24.2923,24.2923,0,0,0-7.0723,2.1348,15.5529,15.5529,0,0,0-5.4434,4.1387,4.3319,4.3319,0,0,0,.3477,4.7216S43.1679,156.5478,42.6152,161.1494Z" style="fill:#554f49"/><path d="M42.6152,161.1494c-.002.0225-2.7969,10.5752,6.8965,20.0693l6.3984,5.8731,4.5117-1.2071.6563-9.4824c.1035-.81-.7774-1.8457-1.0684-2.5449a6.3949,6.3949,0,0,1-.4765-2.6348c.01-1.8027.5878-3.8769,2.8554-3.4179,1.8692.3789,2.5489,2.6972,2.9375,4.3183l1.1211-.24c-.8008-5.4424,3.2383-7.4316,3.2383-7.4316-1.0352-5.74,4.2715-5.3868,4.2715-5.3868s6.6289-.1484,5.8066-6.2568c0,0,.41-3.582-5.2285-6.9307-10.92-1.2773-15.6523-.3242-15.6523-.3242a24.2923,24.2923,0,0,0-7.0723,2.1348,15.5529,15.5529,0,0,0-5.4434,4.1387,4.3319,4.3319,0,0,0,.3477,4.7216S43.1679,156.5478,42.6152,161.1494Z" style="fill:#554f49"/><path d="M64.5273,176.2646c-1.7852.8838-4.1856-.3291-5.3633-2.708-1.18-2.3789-.6894-5.0254,1.0938-5.9082,1.7851-.8838,4.1855.3281,5.3652,2.7071C66.8007,172.7363,66.3105,175.3808,64.5273,176.2646Z" style="fill:#f4b78e"/><path d="M64.2421,173.68c-.6015-.1534-.5293-.4375-.5859-.9473a1.7408,1.7408,0,0,0-.4492-.9434.6524.6524,0,0,0-.7774-.2441,2.8349,2.8349,0,0,0-.6757.0469c-.7168.1162-.9844-.1533-.8809-.9424.1191-.9033,1.0742-1.3193,1.9648-1.4453.3789-.0537.5391-.3408.0235-.5215-1.5957-.5576-2.836.8037-2.8653,2.3369a1.3864,1.3864,0,0,0,.754,1.377.7679.7679,0,0,0,.1386.0215c.2949.4628.7656.7421,1.0606,1.2128a.4182.4182,0,0,0,.164.1485,2.7492,2.7492,0,0,0,.3184.5644c.3945.5137,1.09.0537,1.5976.168A.43.43,0,0,0,64.2421,173.68Z" style="fill:#dd957c"/><path d="M411.59,200.4258a15.7867,15.7867,0,0,0,.8457-10.2969l-3.834-27.999c-1.4512-9.2862-8.0937-7.38-8.0937-7.38-7.1387,1.2305-3.9043,9.99-3.9043,9.99l7.0683,30.5059S403.9765,203.4043,411.59,200.4258Z" style="fill:#f4b78e"/><path d="M370.8222,219.84c-.5469-.4121-1.93.9082-3.4531-.6367a17.17,17.17,0,0,1,3.08-2.7578c.7539-.41,1.1015-.1543,1.8965.1855.6425.2715,1.2128.7657,1.873,1.01.668.2441,2.4648-.7168,3.2539-.9473l.6289.7032a41.8509,41.8509,0,0,1-4.4453,4.791Z" style="fill:#f8b78f"/><path d="M367.4628,216.084a28.0389,28.0389,0,0,1,3.8067-2.0723l2.9648-.15,1.8028-.666c.6894,1.875,1.4355,3.498,1.4355,3.498-2.2988,1.2149-2.8184,1.5625-2.8184,1.5625s-1.2246.6114-3.3261-1.039l-1.0391-.5957S368.2187,217.7519,367.4628,216.084Z" style="fill:#f8b78f"/><path d="M374.2617,221.6972a.5836.5836,0,0,0-.0391-1,.6529.6529,0,0,0-1.0059-.1425l.2637-.24c.1446-.4277-.4375-.7636-.4375-.7636a.7172.7172,0,0,0-1.0351.0879l.4668-.4766c.1875-.377-.3731-.7988-.3731-.7988-.6933-.57-1.125-.0059-1.125-.0059l-.2168.1934s-.7871-1.711-2.5683-.084l-.8223.7363s.209.9649,1.6738.9668a1.3178,1.3178,0,0,0,1.4492,1.0391,1.3647,1.3647,0,0,0,1.3262.8027s.5176.9512,1.1777.6738Z" style="fill:#f8b78f"/><path d="M398.7539,150.8965s-5.4786,2.6054-3.3125,10.9316c0,0,.9843,10.2324,2.955,16.7949,0,0,9.3848.4141,13.6133-5.6953C412.01,172.9277,410.6015,153.5019,398.7539,150.8965Z" style="fill:#552e49"/><path d="M411.2734,201.08l-34.25,17.0332-2.4883-4.0625,29.8594-20.4375s3.3769-2.668,5.5449.332A5.76,5.76,0,0,1,411.2734,201.08Z" style="fill:#f4b78e"/></g></g></g></svg>