<svg xmlns="http://www.w3.org/2000/svg" viewBox="0 0 698.9755 416.6593"><g id="Layer_2" data-name="Layer 2"><g id="Character_1" data-name="Character 1"><rect x="539.7893" y="242.8715" width="89.0481" height="89.0481" transform="matrix(1, 0.0085, -0.0085, 1, 2.4659, -4.9601)" style="fill:#e0e0e0"/><path d="M629.1241,253.8819c.0322.0477-14.2806,9.7416-31.9643,21.6492-17.69,11.9117-32.0517,21.5262-32.0839,21.4785s14.2776-9.74,31.9675-21.6513C614.7272,263.4507,629.092,253.8342,629.1241,253.8819Z" style="fill:#ebebeb"/><path d="M628.3134,274.403c.0322.0478-14.2806,9.7417-31.9644,21.6493-17.69,11.9117-32.0516,21.5262-32.0838,21.4785s14.2776-9.74,31.9675-21.6513C613.9164,283.9719,628.2813,274.3553,628.3134,274.403Z" style="fill:#ebebeb"/><path d="M628.7809,294.2277c.0321.0477-12.3755,8.4588-27.71,18.7842-15.3395,10.3291-27.7966,18.661-27.8287,18.6133s12.3728-8.457,27.7124-18.7861C616.2891,302.5137,628.7488,294.18,628.7809,294.2277Z" style="fill:#ebebeb"/><path d="M610.2667,243.0907c.0321.0477-10.15,6.96-22.74,15.4377-12.5941,8.48-22.8263,15.3142-22.8584,15.2665s10.148-6.9589,22.742-15.4393C600,249.8782,610.2345,243.043,610.2667,243.0907Z" style="fill:#ebebeb"/><path d="M628.3633,315.5111c.0333.0469-5.1665,3.7981-11.6126,8.3776-6.4484,4.581-11.7011,8.2555-11.7344,8.2086s5.1653-3.7974,11.6137-8.3784C623.0761,319.1394,628.33,315.4642,628.3633,315.5111Z" style="fill:#ebebeb"/><rect x="476.3276" y="242.3315" width="89.0481" height="89.0481" transform="translate(2.459 -4.4203) rotate(0.4874)" style="fill:#ebebeb"/><polygon points="147.301 415.769 70.264 415.921 70.926 338.083 147.956 338.738 147.301 415.769" style="fill:#e0e0e0"/><path d="M147.3661,348.8509c.0278.0413-12.3538,8.4273-27.6516,18.7282C104.4114,377.8838,91.9873,386.201,91.96,386.16s12.3512-8.4254,27.6544-18.73C134.9116,357.1287,147.3384,348.81,147.3661,348.8509Z" style="fill:#ebebeb"/><path d="M146.6648,366.6033c.0278.0413-12.3539,8.4273-27.6516,18.7283-15.3032,10.3045-27.7272,18.6218-27.755,18.5805s12.3512-8.4255,27.6543-18.73C134.21,374.8811,146.6371,366.562,146.6648,366.6033Z" style="fill:#ebebeb"/><path d="M147.0692,383.7531c.0278.0413-10.7057,7.3175-23.971,16.25-13.27,8.9354-24.0462,16.1431-24.0739,16.1019s10.7034-7.316,23.9732-16.2514C136.2628,390.9212,147.0414,383.7119,147.0692,383.7531Z" style="fill:#ebebeb"/><path d="M131.053,339.5156c.0278.0414-8.7807,6.0213-19.6717,13.3549-10.8949,7.3362-19.7465,13.248-19.7743,13.2066s8.7788-6.02,19.6736-13.3561C122.1716,345.3874,131.0252,339.4744,131.053,339.5156Z" style="fill:#ebebeb"/><path d="M146.7079,402.1649c.0289.0406-4.4694,3.2858-10.0458,7.2473-5.5783,3.963-10.1223,7.1416-10.1511,7.1011s4.4684-3.285,10.0468-7.248C142.1342,405.3038,146.6791,402.1243,146.7079,402.1649Z" style="fill:#ebebeb"/><rect x="15.1854" y="338.859" width="77.0335" height="77.0334" transform="translate(3.2122 -0.4432) rotate(0.4874)" style="fill:#f5f5f5"/><polygon points="159.765 24.536 159.765 97.925 54.358 97.925 50.561 25.049 159.765 24.536" style="fill:#e0e0e0"/><rect x="66.9035" y="8.7065" width="72.7217" height="105.4071" transform="translate(41.8543 164.6744) rotate(-90)" style="fill:#fff"/><path d="M156.4682,98.2708H50.0609V24.5491H156.4682Zm-105.4073-1H155.4682V25.5491H51.0609Z" style="fill:#e0e0e0"/><rect x="61.9771" y="34.0843" width="82.5745" height="54.6515" style="fill:#fff"/><path d="M144.5516,34.0843s-.142.0094-.4072.0141l-1.1741.014-4.535.029-17.0164.0642-59.4417.1176.2388-.2388c.0065,16.6977.0138,35.199.0215,54.6448v.0065l-.26-.26,82.5743.0529-.2074.2074c.0456-16.6314.083-30.2677.109-39.7636.0229-4.7461.0407-8.4541.0529-10.9957q.0151-1.8838.0232-2.8894c.0076-.6549.0224-1.0027.0224-1.0027s.0149.3181.0224.959q.0081.9907.0232,2.8507c.0122,2.5309.03,6.2231.0528,10.9491.0261,9.5267.0635,23.2072.1091,39.8926l.0006.2075h-.2082l-82.5743.0529-.2605,0v-.2672c.0077-19.4458.015-37.9471.0215-54.6448v-.2395l.2389,0,59.5985.1175,16.9623.0643,4.4872.0289,1.1472.0141C144.4284,34.0749,144.5516,34.0843,144.5516,34.0843Z" style="fill:#e0e0e0"/><path d="M50.5608,24.845a8.9048,8.9048,0,0,1,1.8123,1.1738c1.078.7789,2.5467,1.8831,4.1321,3.1517s2.98,2.47,3.9622,3.3689a8.5577,8.5577,0,0,1,1.51,1.5449c-.098.1106-2.6322-1.98-5.7975-4.5073A57.4712,57.4712,0,0,1,50.5608,24.845Z" style="fill:#e0e0e0"/><path d="M155.9678,25.0492a51.0943,51.0943,0,0,1-5.5462,4.7215,51.1048,51.1048,0,0,1-5.87,4.3136,51.101,51.101,0,0,1,5.5468-4.7219A51.1309,51.1309,0,0,1,155.9678,25.0492Z" style="fill:#e0e0e0"/><path d="M155.8844,97.7814q-5.8761-4.7628-11.7524-9.5254" style="fill:#fff"/><path d="M144.132,88.256a55.1684,55.1684,0,0,1,6.04,4.56,55.1362,55.1362,0,0,1,5.7125,4.9652,55.1727,55.1727,0,0,1-6.04-4.5607A55.1578,55.1578,0,0,1,144.132,88.256Z" style="fill:#e0e0e0"/><path d="M50.5608,97.7709a50.0416,50.0416,0,0,1,5.488-4.6724,50.0264,50.0264,0,0,1,5.8117-4.2644,50.0623,50.0623,0,0,1-5.4886,4.6728A50.0521,50.0521,0,0,1,50.5608,97.7709Z" style="fill:#e0e0e0"/><rect x="95.5719" y="34.2824" width="18.2995" height="51.9574" transform="translate(44.4606 164.9828) rotate(-90)" style="fill:#e0e0e0"/><rect x="531.317" y="22.6185" width="105.0553" height="152.2735" style="fill:#e0e0e0"/><rect x="526.0542" y="22.6185" width="105.0554" height="152.2735" style="fill:#f5f5f5"/><rect x="539.1065" y="39.1107" width="78.9508" height="119.289" style="fill:#fff"/><path d="M618.0574,158.4s-.01-.2019-.0155-.5834c-.0036-.3939-.0087-.9559-.0155-1.6915-.0072-1.4991-.0179-3.6937-.0317-6.543-.0164-5.7172-.04-14.0486-.07-24.573-.0316-21.0347-.0763-50.8211-.1289-85.8981l.2619.262-78.9412.0236h-.0094l.2856-.2856c-.0219,45.0006-.0421,86.4917-.058,119.2888l-.2276-.2275,57.4658.12,15.8767.058,4.1673.0255c.9436.0083,1.441.0246,1.441.0246s-.4648.0163-1.393.0245l-4.1249.0255-15.8255.058-57.6074.12-.2277.0005V158.4c-.016-32.7971-.0362-74.2882-.058-119.2888l0-.2858h.2954l78.9412.0236h.2626l0,.2621c-.0526,35.1473-.0973,64.9933-.1289,86.07-.03,10.499-.0541,18.81-.0705,24.5136-.0138,2.8264-.0245,5.0034-.0317,6.49-.0068.7228-.0119,1.275-.0155,1.662C618.0677,158.2185,618.0574,158.4,618.0574,158.4Z" style="fill:#e0e0e0"/><path d="M631.4046,22.6184a18.209,18.209,0,0,1-1.8725,2.7207c-1.2205,1.632-2.9526,3.8519-4.9291,6.2521s-3.8249,4.5262-5.1928,6.0368a18.2055,18.2055,0,0,1-2.3113,2.3589,19.6327,19.6327,0,0,1,2.005-2.6223l5.058-6.1366,5.053-6.1391A19.6558,19.6558,0,0,1,631.4046,22.6184Z" style="fill:#e0e0e0"/><path d="M618.46,158.0156a97.7752,97.7752,0,0,0,13.77,17.2215" style="fill:#fff"/><path d="M632.23,175.2371a15.6884,15.6884,0,0,1-2.4006-2.184,76.9584,76.9584,0,0,1-9.7675-12.2155,15.6915,15.6915,0,0,1-1.6022-2.8221,21.7526,21.7526,0,0,1,1.9369,2.5958c1.158,1.6255,2.7855,3.849,4.6846,6.2265,1.9008,2.3748,3.7116,4.4514,5.0426,5.9386A21.7626,21.7626,0,0,1,632.23,175.2371Z" style="fill:#e0e0e0"/><path d="M526.039,174.7715,539.8,157.7936" style="fill:#fff"/><path d="M539.8,157.7936a104.7374,104.7374,0,0,1-6.658,8.6684,104.6793,104.6793,0,0,1-7.1026,8.3094,104.7872,104.7872,0,0,1,6.6587-8.6692A104.7355,104.7355,0,0,1,539.8,157.7936Z" style="fill:#e0e0e0"/><path d="M526.0542,22.6185a94.9771,94.9771,0,0,1,6.6789,7.9842,94.992,94.992,0,0,1,6.2314,8.34,94.9973,94.9973,0,0,1-6.68-7.9851A95.0171,95.0171,0,0,1,526.0542,22.6185Z" style="fill:#e0e0e0"/><rect x="567.0237" y="63.3312" width="26.4359" height="75.0588" style="fill:#e0e0e0"/><rect x="442.3899" y="0.0011" width="57.2731" height="83.015" style="fill:#e0e0e0"/><rect x="439.5208" y="0.0011" width="57.2731" height="83.015" style="fill:#f5f5f5"/><rect x="446.6365" y="8.9922" width="43.0417" height="65.0328" style="fill:#fff"/><path d="M489.6782,74.025s-.0056-.11-.0084-.318c-.002-.2147-.0048-.5211-.0084-.9222-.004-.8172-.01-2.0136-.0173-3.567-.009-3.1169-.022-7.6589-.0385-13.3965-.0172-11.4675-.0416-27.7061-.07-46.8291l.1429.1429-43.0365.0128h-.0051l.1557-.1557c-.0119,24.533-.0229,47.1528-.0316,65.0328l-.1241-.1241,31.3287.0652,8.6554.0316,2.272.0139c.5144.0046.7855.0134.7855.0134s-.2533.0089-.7594.0134l-2.2488.0139-8.6276.0316-31.4058.0653-.1241,0V74.025c-.0087-17.88-.02-40.5-.0316-65.0328V8.8364h.161l43.0365.0129h.1431l0,.1429c-.0287,19.1613-.0531,35.4325-.07,46.9229-.0165,5.7238-.03,10.2548-.0384,13.3641-.0076,1.5409-.0134,2.7277-.0173,3.5384-.0037.3941-.0065.6951-.0084.9062C489.6839,73.9262,489.6782,74.025,489.6782,74.025Z" style="fill:#e0e0e0"/><path d="M496.9547.0011a9.9212,9.9212,0,0,1-1.0208,1.4832c-.6654.89-1.61,2.1-2.6872,3.4085s-2.0852,2.4675-2.8309,3.2911a9.9343,9.9343,0,0,1-1.26,1.286,10.7083,10.7083,0,0,1,1.093-1.43c.7679-.9315,1.7126-2.0777,2.7575-3.3455l2.7548-3.3468A10.72,10.72,0,0,1,496.9547.0011Z" style="fill:#e0e0e0"/><path d="M489.8975,73.8156a53.2989,53.2989,0,0,0,7.5072,9.3887" style="fill:#fff"/><path d="M497.4047,83.2043a8.5588,8.5588,0,0,1-1.3088-1.1907,41.9682,41.9682,0,0,1-5.3249-6.6595,8.56,8.56,0,0,1-.8735-1.5385,11.8452,11.8452,0,0,1,1.056,1.4151c.6312.8862,1.5185,2.0984,2.5539,3.3945s2.0234,2.4268,2.749,3.2376A11.866,11.866,0,0,1,497.4047,83.2043Z" style="fill:#e0e0e0"/><path d="M439.5126,82.95l7.5018-9.2558" style="fill:#fff"/><path d="M447.0144,73.6946a57.071,57.071,0,0,1-3.63,4.7257,57.0489,57.0489,0,0,1-3.8722,4.53,57.1006,57.1006,0,0,1,3.63-4.7262A57.09,57.09,0,0,1,447.0144,73.6946Z" style="fill:#e0e0e0"/><path d="M439.5208.0011a51.7764,51.7764,0,0,1,3.6412,4.3528A51.78,51.78,0,0,1,446.5591,8.9a51.8029,51.8029,0,0,1-3.6414-4.3532A51.833,51.833,0,0,1,439.5208.0011Z" style="fill:#e0e0e0"/><rect x="461.8562" y="22.1965" width="14.412" height="40.9198" style="fill:#e0e0e0"/><path d="M690.3238,415.6525c0,.1438-154.5467.26-345.1453.26-190.665,0-345.1785-.1166-345.1785-.26s154.5135-.26,345.1785-.26C535.7771,415.3921,690.3238,415.5087,690.3238,415.6525Z" style="fill:#263238"/><polygon points="616.357 415.66 532.095 415.691 532.812 331.435 617.068 332.152 616.357 415.66" style="fill:#e8505b"/><g style="opacity:0.4"><path d="M616.9821,342.2106c.0322.0478-13.5094,9.2223-30.242,20.49-16.7384,11.271-30.3291,20.3662-30.3612,20.3185s13.5065-9.22,30.2449-20.4913C603.3564,351.26,616.95,342.1629,616.9821,342.2106Z" style="fill:#fff"/></g><g style="opacity:0.4"><path d="M616.215,361.628c.0321.0478-13.5094,9.2223-30.242,20.49-16.7384,11.271-30.3291,20.3663-30.3613,20.3185s13.5066-9.22,30.245-20.4913C602.5892,370.6775,616.1828,361.58,616.215,361.628Z" style="fill:#fff"/></g><g style="opacity:0.4"><path d="M616.6573,380.3863c.0321.0478-11.7067,8.0085-26.2161,17.7786-14.5145,9.7735-26.3028,17.6552-26.335,17.6074s11.7042-8.0067,26.2187-17.78C604.8342,388.222,616.6252,380.3386,616.6573,380.3863Z" style="fill:#fff"/></g><g style="opacity:0.4"><path d="M599.139,332c.0321.0477-9.6012,6.5906-21.5137,14.6121-11.9167,8.0243-21.6,14.4884-21.632,14.4406s9.599-6.5891,21.5157-14.6134C589.4215,338.4177,599.1068,331.9521,599.139,332Z" style="fill:#fff"/></g><g style="opacity:0.4"><path d="M616.2622,400.525c.0333.0469-4.8854,3.5984-10.9848,7.9316-6.1015,4.3347-11.0731,7.8094-11.1065,7.7625s4.8843-3.5977,10.9859-7.9324C611.2562,403.9536,616.2289,400.4781,616.2622,400.525Z" style="fill:#fff"/></g><rect x="472.404" y="331.2815" width="84.2585" height="84.2584" transform="translate(3.1953 -4.3637) rotate(0.4874)" style="fill:#e8505b"/><rect x="472.404" y="331.2815" width="84.2585" height="84.2584" transform="translate(3.1953 -4.3637) rotate(0.4874)" style="fill:#fff;opacity:0.2"/><rect x="615.7435" y="332.3827" width="82.9189" height="83.4262" transform="translate(3.2063 -5.5774) rotate(0.4874)" style="fill:#263238"/><polygon points="639.171 415.771 556.25 415.652 556.966 331.528 639.882 332.234 639.171 415.771" style="fill:#455a64"/><path d="M698.8913,342.6349c.0321.0478-13.2937,9.0771-29.76,20.1651-16.4723,11.0918-29.8474,20.0419-29.88,19.9942s13.2908-9.0752,29.7631-20.1669C685.4812,351.5392,698.8591,342.5873,698.8913,342.6349Z" style="fill:#455a64"/><path d="M698.1363,361.7436c.0321.0478-13.2937,9.0771-29.76,20.1651-16.4723,11.0918-29.8474,20.0419-29.88,19.9942s13.2909-9.0751,29.7631-20.1669C684.7263,370.6479,698.1042,361.696,698.1363,361.7436Z" style="fill:#455a64"/><path d="M698.5716,380.2037c.0321.0478-11.52,7.8825-25.7984,17.4973-14.2836,9.6181-25.8851,17.3739-25.9172,17.3262s11.5172-7.8808,25.8009-17.4989C686.9356,387.9135,698.54,380.1561,698.5716,380.2037Z" style="fill:#455a64"/><path d="M681.3318,332.5865c.0321.0477-9.4475,6.4872-21.1707,14.3811-11.7272,7.8967-21.2569,14.2574-21.289,14.21s9.4455-6.4858,21.1726-14.3824C671.7679,338.9009,681.3,332.5388,681.3318,332.5865Z" style="fill:#455a64"/><path d="M698.1827,400.0222c.0334.0469-4.8067,3.5426-10.8091,7.8068-6.0045,4.2658-10.8975,7.6847-10.9309,7.6378s4.8058-3.5418,10.81-7.8076C693.2554,403.395,698.15,399.9753,698.1827,400.0222Z" style="fill:#455a64"/><path d="M208.9112,161.0031v89.1074h76.662a44.5537,44.5537,0,0,1,89.1074,0h76.0365V161.0031Z" style="fill:#e8505b"/><path d="M208.9112,161.0031v89.1074h76.662a44.5537,44.5537,0,0,1,89.1074,0h76.0365V161.0031Z" style="opacity:0.4"/><path d="M153.7748,161.0031v89.1074h76.6621a44.5537,44.5537,0,1,1,89.1073,0h76.0365V161.0031Z" style="fill:#e8505b"/><path d="M450.7171,165.8044c.0325.0474-12.2056,8.4968-27.331,18.87-15.1307,10.3766-27.419,18.7474-27.4515,18.7s12.2029-8.4951,27.3337-18.8717C438.3937,174.13,450.6846,165.7569,450.7171,165.8044Z" style="fill:#e8505b"/><path d="M451.1723,182.822c.0325.0474-12.2056,8.4968-27.331,18.87-15.1307,10.3767-27.419,18.7474-27.4515,18.7s12.203-8.495,27.3337-18.8717C438.8489,191.1471,451.14,182.7746,451.1723,182.822Z" style="fill:#e8505b"/><path d="M450.625,200.4815c.0326.0474-12.2055,8.4969-27.331,18.87-15.1307,10.3767-27.4189,18.7474-27.4514,18.7s12.2029-8.495,27.3336-18.8717C438.3017,208.8065,450.5925,200.4341,450.625,200.4815Z" style="fill:#e8505b"/><path d="M450.1783,217.5324c.0325.0474-10.576,7.3793-23.6918,16.3742-13.12,8.9979-23.7794,16.2513-23.812,16.2039s10.5738-7.3778,23.6941-16.3757C439.4844,224.74,450.1458,217.485,450.1783,217.5324Z" style="fill:#e8505b"/><path d="M428.079,161.0031s-.1054.09-.3175.2432l-.9334.6639-3.4551,2.41L411.93,172.2047l-11.48,7.8359-3.4923,2.3549-.9555.6315c-.22.1425-.3411.2086-.3411.2086s.1053-.09.3174-.2432c.2642-.1879.5714-.4063.9333-.6638l3.4549-2.4094,11.4454-7.8863,11.4779-7.8346,3.4925-2.355.9556-.6316C427.9576,161.0692,428.079,161.0031,428.079,161.0031Z" style="fill:#e8505b"/><path d="M296.23,210.79c.0325.0475-12.7771,8.8889-28.6075,19.7454-15.8359,10.86-28.6955,19.6228-28.7281,19.5754s12.7744-8.887,28.61-19.7472C283.3354,219.5068,296.1978,210.7423,296.23,210.79Z" style="fill:#e8505b"/><path d="M288.9276,233.1277a1.6762,1.6762,0,0,1-.24.19l-.7105.5109-2.6348,1.8471-8.7372,6.029-8.7732,5.98-2.6721,1.7924-.7325.4786a1.6858,1.6858,0,0,1-.2634.1552,1.6825,1.6825,0,0,1,.24-.19l.71-.5109,2.6347-1.847,8.7387-6.03,8.7717-5.9786,2.6723-1.7925.7325-.4787A1.68,1.68,0,0,1,288.9276,233.1277Z" style="fill:#e8505b"/><path d="M273.5922,205.9885c.0326.0475-8.8713,6.21-19.8847,13.7633-11.0173,7.5557-19.972,13.64-20.0046,13.5928s8.8695-6.209,19.8867-13.7646C264.6031,212.027,273.56,205.9411,273.5922,205.9885Z" style="fill:#e8505b"/><path d="M450.9688,235.8447c.0337.0467-4.4082,3.317-9.92,7.3038-5.5138,3.9881-10.0094,7.1822-10.0431,7.1356s4.4073-3.3163,9.921-7.3044C446.4385,238.9929,450.9351,235.7981,450.9688,235.8447Z" style="fill:#e8505b"/><rect x="386.6551" y="250.1105" width="76.6073" height="76.6073" style="fill:#263238"/><rect x="332.0575" y="250.1105" width="76.6074" height="76.6073" style="fill:#455a64"/><path d="M463.2624,259.2557c.0326.0475-12.2055,8.4969-27.331,18.87-15.1307,10.3767-27.4189,18.7474-27.4515,18.7s12.203-8.4951,27.3337-18.8717C450.9391,267.5808,463.23,259.2083,463.2624,259.2557Z" style="fill:#455a64"/><path d="M462.7152,276.9152c.0325.0475-12.2056,8.4969-27.331,18.87-15.1308,10.3766-27.419,18.7473-27.4515,18.7s12.2029-8.495,27.3336-18.8717C450.3918,285.24,462.6827,276.8678,462.7152,276.9152Z" style="fill:#455a64"/><path d="M463.2624,293.9661c.0326.0475-10.576,7.3794-23.6918,16.3742-13.12,8.998-23.7794,16.2514-23.8119,16.2039s10.5737-7.3777,23.6941-16.3757C452.5686,301.1737,463.23,293.9187,463.2624,293.9661Z" style="fill:#455a64"/><path d="M446.9611,250.1105c.0326.0474-8.6726,6.0739-19.4409,13.4589-10.7722,7.3875-19.5282,13.3359-19.5607,13.2884s8.6707-6.0726,19.4428-13.46C438.1707,256.0127,446.9286,250.063,446.9611,250.1105Z" style="fill:#455a64"/><path d="M463.0589,312.2785c.0338.0466-4.4082,3.317-9.92,7.3037-5.5137,3.9881-10.0093,7.1823-10.0431,7.1356s4.4073-3.3163,9.921-7.3044C458.5287,315.4267,463.0252,312.2319,463.0589,312.2785Z" style="fill:#455a64"/><rect x="217.7701" y="250.1105" width="76.6074" height="76.6073" style="fill:#263238"/><rect x="163.1725" y="250.1105" width="76.6074" height="76.6073" style="fill:#455a64"/><path d="M294.3774,259.2557c.0326.0475-12.2055,8.4969-27.331,18.87-15.1307,10.3767-27.4189,18.7474-27.4514,18.7s12.2029-8.4951,27.3336-18.8717C282.0541,267.5808,294.3449,259.2083,294.3774,259.2557Z" style="fill:#455a64"/><path d="M293.83,276.9152c.0326.0475-12.2055,8.4969-27.331,18.87-15.1307,10.3766-27.4189,18.7473-27.4515,18.7s12.2029-8.495,27.3337-18.8717C281.5068,285.24,293.7977,276.8678,293.83,276.9152Z" style="fill:#455a64"/><path d="M294.3774,293.9661c.0326.0475-10.576,7.3794-23.6918,16.3742-13.12,8.998-23.7794,16.2514-23.8119,16.2039s10.5737-7.3777,23.6941-16.3757C283.6836,301.1737,294.3449,293.9187,294.3774,293.9661Z" style="fill:#455a64"/><path d="M278.0761,250.1105c.0326.0474-8.6726,6.0739-19.4409,13.4589-10.7722,7.3875-19.5282,13.3359-19.5607,13.2884s8.6707-6.0726,19.4428-13.46C269.2857,256.0127,278.0436,250.063,278.0761,250.1105Z" style="fill:#455a64"/><path d="M294.174,312.2785c.0337.0466-4.4082,3.317-9.92,7.3037-5.5137,3.9881-10.0093,7.1823-10.043,7.1356s4.4072-3.3163,9.921-7.3044C289.6437,315.4267,294.14,312.2319,294.174,312.2785Z" style="fill:#455a64"/><rect x="395.5807" y="326.7178" width="54.0503" height="89.1074" style="fill:#e8505b"/><rect x="395.5807" y="326.7178" width="54.0503" height="89.1074" style="opacity:0.4"/><rect x="153.7748" y="326.7178" width="241.8059" height="89.1074" style="fill:#e8505b"/><path d="M449.1878,331.8018c.033.0471-11.8819,8.4508-26.6092,18.7678-14.7324,10.3207-26.6983,18.6462-26.7313,18.5991s11.8793-8.449,26.6118-18.77C437.1864,340.082,449.1548,331.7547,449.1878,331.8018Z" style="fill:#e8505b"/><path d="M449.631,348.7275c.033.0471-11.8818,8.4508-26.6092,18.7679-14.7324,10.3206-26.6982,18.6461-26.7313,18.599s11.8794-8.4491,26.6118-18.77C437.63,357.0077,449.598,348.68,449.631,348.7275Z" style="fill:#e8505b"/><path d="M449.0982,366.2916c.033.0471-11.8819,8.4508-26.6092,18.7678-14.7325,10.3207-26.6983,18.6462-26.7313,18.5991s11.8793-8.449,26.6118-18.77C437.0968,374.5718,449.0652,366.2445,449.0982,366.2916Z" style="fill:#e8505b"/><path d="M448.6632,383.25c.033.0471-10.2952,7.3394-23.0658,16.2856-12.775,8.9494-23.1545,16.1636-23.1876,16.1165s10.2931-7.3377,23.0681-16.2871C438.2484,390.4191,448.63,383.2033,448.6632,383.25Z" style="fill:#e8505b"/><path d="M427.1456,327.0265s-.1023.089-.3086.2418l-.9084.66c-.8718.6211-2.0029,1.4271-3.3634,2.3966l-11.1415,7.8422-11.1784,7.7937-3.4012,2.3422-.9307.6281c-.2141.1417-.3327.2075-.3327.2075s.1023-.089.3086-.2419l.9083-.66,3.3632-2.3965,11.1434-7.8436,11.1765-7.7923,3.4013-2.3423.9309-.6283C427.027,327.0922,427.1456,327.0265,427.1456,327.0265Z" style="fill:#e8505b"/><path d="M449.4329,401.4638c.0342.0463-4.29,3.299-9.6565,7.2641-5.3686,3.9666-9.7469,7.1436-9.7811,7.0973s4.2888-3.2982,9.6574-7.2648C445.0194,404.5952,449.3987,401.4175,449.4329,401.4638Z" style="fill:#e8505b"/><polygon points="203.889 161.086 476.872 160.685 340.181 25.275 278.841 25.365 203.889 161.086" style="fill:#e8505b"/><polygon points="142.55 161.177 415.532 160.775 278.841 25.365 142.55 161.177" style="fill:#e8505b"/><g style="opacity:0.4"><path d="M420.4778,104.82s-.1181.0985-.3545.2693l-1.04.7392-3.8464,2.6863-12.7346,8.798-12.7713,8.7493-3.8837,2.6316-1.0619.7069c-.2441.16-.3783.2347-.3783.2347s.1181-.0985.3545-.2693l1.04-.739,3.8462-2.6863,12.7367-8.8,12.7692-8.7477,3.884-2.6318,1.062-.7069C420.3436,104.8946,420.4778,104.82,420.4778,104.82Z" style="fill:#fff"/><path d="M433.5223,118.0239s-.1182.0985-.3546.2693l-1.04.7392-3.8464,2.6863-12.7345,8.7981-12.7714,8.7492-3.8837,2.6316-1.0619.7069c-.244.16-.3782.2347-.3782.2347s.1181-.0985.3544-.2693l1.04-.739c.98-.6843,2.2765-1.59,3.8462-2.6863l12.7367-8.7994,12.7692-8.7478,3.8839-2.6318,1.062-.7069C433.388,118.099,433.5223,118.0239,433.5223,118.0239Z" style="fill:#fff"/><path d="M446.1527,130.6963s-.1181.0986-.3545.2695l-1.04.7391-3.8464,2.6864-12.7346,8.798-12.7713,8.7492-3.8837,2.6317-1.0619.7068c-.2441.16-.3783.2347-.3783.2347s.1181-.0985.3545-.2693l1.04-.739,3.8462-2.6863,12.7367-8.8,12.7692-8.7477,3.884-2.6318,1.062-.7069C446.0185,130.7715,446.1527,130.6963,446.1527,130.6963Z" style="fill:#fff"/><path d="M459.8435,143.8162a1.6075,1.6075,0,0,1-.2343.1867l-.6952.502-2.5788,1.8143-8.5523,5.9208-8.5884,5.8714-2.6161,1.76-.7172.47a1.622,1.622,0,0,1-.2582.1521,1.6047,1.6047,0,0,1,.2344-.1867l.695-.5019,2.5786-1.8142c2.2874-1.5835,5.2629-3.6434,8.5538-5.9218l8.5869-5.87,2.6163-1.76.7174-.47A1.6216,1.6216,0,0,1,459.8435,143.8162Z" style="fill:#fff"/><path d="M407.1677,91.6154s-.1181.0986-.3545.2694l-1.04.7392L401.927,95.31l-12.7346,8.798-12.7714,8.7492-3.8837,2.6317-1.0619.7068c-.244.16-.3782.2348-.3782.2348s.1181-.0985.3544-.2694c.2879-.2046.6306-.4481,1.04-.739l3.8462-2.6862,12.7368-8.7995,12.7692-8.7477c1.5849-1.074,2.8945-1.9615,3.8839-2.6318l1.062-.707C407.0335,91.6905,407.1677,91.6154,407.1677,91.6154Z" style="fill:#fff"/><path d="M393.8577,78.4114s-.1181.0985-.3545.2694l-1.04.7391-3.8464,2.6864-12.7346,8.798L363.111,99.6535l-3.8838,2.6317-1.0618.7068c-.2441.16-.3783.2348-.3783.2348s.1181-.0985.3545-.2694l1.04-.739,3.8462-2.6862,12.7367-8.8,12.7692-8.7477,3.8839-2.6319c.418-.2782.768-.5111,1.062-.7069C393.7235,78.4865,393.8577,78.4114,393.8577,78.4114Z" style="fill:#fff"/><path d="M380.5476,65.2074s-.1181.0985-.3545.2694l-1.04.7391-3.8464,2.6864L362.5722,77.7,349.8009,86.45l-3.8837,2.6317-1.0619.7068c-.2441.16-.3783.2348-.3783.2348s.1181-.0985.3545-.2694l1.04-.739,3.8462-2.6862,12.7368-8.7995,12.7691-8.7478,3.884-2.6318,1.062-.7069C380.4134,65.2825,380.5476,65.2074,380.5476,65.2074Z" style="fill:#fff"/><path d="M367.2376,52.0034s-.1182.0985-.3546.2694l-1.04.7391-3.8464,2.6864-12.7345,8.798-12.7714,8.7492-3.8837,2.6317-1.0619.7068c-.244.16-.3782.2347-.3782.2347s.1181-.0985.3544-.2693l1.04-.739,3.8462-2.6863,12.7367-8.7994,12.7692-8.7478,3.8839-2.6318,1.062-.7069C367.1033,52.0785,367.2376,52.0034,367.2376,52.0034Z" style="fill:#fff"/><path d="M353.9275,38.7994s-.1181.0985-.3546.2694l-1.04.7391-3.8464,2.6864-12.7346,8.798-12.7713,8.7492-3.8837,2.6317-1.0619.7068c-.2441.16-.3783.2347-.3783.2347s.1181-.0985.3545-.2693l1.04-.739,3.8462-2.6863,12.7367-8.7995,12.7692-8.7477,3.8839-2.6318,1.062-.7069C353.7933,38.8745,353.9275,38.7994,353.9275,38.7994Z" style="fill:#fff"/><path d="M340.6174,25.5954s-.1181.0985-.3545.2693l-1.04.7392L335.3766,29.29l-12.7346,8.798-12.7713,8.7492-3.8837,2.6317-1.0619.7067c-.2441.16-.3783.2348-.3783.2348s.1181-.0985.3545-.2693l1.04-.739,3.8462-2.6863,12.7368-8.7995,12.7691-8.7477,3.884-2.6318,1.062-.7069C340.4832,25.6705,340.6174,25.5954,340.6174,25.5954Z" style="fill:#fff"/><path d="M307.8444,25.7812c.0327.0474-3.659,2.6437-8.2443,5.7983-4.587,3.1557-8.3307,5.6746-8.3633,5.6272s3.6582-2.6431,8.2452-5.7988C304.0674,28.2533,307.8119,25.7338,307.8444,25.7812Z" style="fill:#fff"/></g><polygon points="142.55 161.177 415.532 160.775 278.841 25.365 142.55 161.177" style="fill:#fff;opacity:0.2"/><path d="M523.9778,411.1785l-.1955-8.5966-16.1056.2634.1532,12.58,1,.0478c4.4483.1738,22.6295.5712,25.5855-.3778C537.712,414.0362,523.9778,411.1785,523.9778,411.1785Z" style="fill:#e8505b"/><g style="opacity:0.4"><path d="M530.6924,412.8132s4.8186,1.305,4.2332,2.1048-18.9737,1.0893-27.0957.5074l.02-.36,21.4515-.1551S529.7553,412.8677,530.6924,412.8132Z" style="fill:#fff"/></g><path d="M507.5967,415.059a1.4682,1.4682,0,0,0,.2772.0256c.2389.0109.5008.0224.796.0355.796.0219,1.7745.0486,2.9293.08,2.4737.05,5.8922.0737,9.6674.0177s7.1929-.1834,9.664-.3075c1.1533-.0663,2.13-.1223,2.9254-.1678l.7944-.0594a.1395.1395,0,1,0-.002-.0393c-.2393.0068-.5008.0142-.7964.0229l-2.9271.1056c-2.4717.0888-5.8871.193-9.6612.25-3.773.0559-7.1895.0542-9.6628.0395l-2.9292-.0179c-.2958,0-.5575.0008-.7968.0013A1.5146,1.5146,0,0,0,507.5967,415.059Z" style="fill:#263238"/><path d="M529.301,415.16a4.2533,4.2533,0,0,1,1.505-2.5421,2.6015,2.6015,0,0,0-1.505,2.5421Z" style="fill:#263238"/><path d="M524.511,412.8242c.0458.0281.2689-.2523.498-.626s.3776-.7.3315-.7279-.2689.2521-.4979.6259S524.465,412.796,524.511,412.8242Z" style="fill:#263238"/><path d="M523.1959,412.1552c.0369.0394.2884-.1341.5618-.3879s.4655-.4912.429-.5309-.2882.1341-.5618.3878S523.1594,412.1156,523.1959,412.1552Z" style="fill:#263238"/><path d="M522.3477,410.6481a3.6747,3.6747,0,1,0,.8411-.1015A1.8958,1.8958,0,0,0,522.3477,410.6481Z" style="fill:#263238"/><path d="M522.0477,409.5806a2.3679,2.3679,0,0,0,1.9082.1136,72.3606,72.3606,0,0,1-1.9082-.1136Z" style="fill:#263238"/><path d="M525.0351,411.4105a2.9863,2.9863,0,0,0,1.035-.0228,6.0589,6.0589,0,0,0,1.0978-.26,3.0358,3.0358,0,0,0,.6266-.27.56.56,0,0,0,.2511-.3255.4074.4074,0,0,0-.1633-.4112,1.8983,1.8983,0,0,0-2.3384.5921,1.8542,1.8542,0,0,0-.3268.6958.5728.5728,0,0,0-.0222.28,2.9279,2.9279,0,0,1,.4574-.89,1.8679,1.8679,0,0,1,.8751-.5883,1.6051,1.6051,0,0,1,1.2347.0645c.1662.1192.1053.3135-.0757.4252a3.0943,3.0943,0,0,1-.5779.2576,7.1326,7.1326,0,0,1-1.0614.2942C525.4291,411.3715,525.0343,411.3787,525.0351,411.4105Z" style="fill:#263238"/><path d="M525.3041,411.4576a1.0206,1.0206,0,0,0,.108-.72,1.7,1.7,0,0,0-.2946-.7516,1.0386,1.0386,0,0,0-.87-.514.412.412,0,0,0-.3115.4829,1.1324,1.1324,0,0,0,.1833.46,3.1258,3.1258,0,0,0,.4986.6185,1.49,1.49,0,0,0,.5988.4095c.0177-.0254-.2091-.1824-.5-.5056a3.6126,3.6126,0,0,1-.4431-.6141c-.1455-.2164-.2489-.6077.01-.6589.2587-.0291.5273.2245.6888.4286a1.7024,1.7024,0,0,1,.3032.6682A3.7838,3.7838,0,0,1,525.3041,411.4576Z" style="fill:#263238"/><path d="M507.8562,410.6472c.004.0364.4605-.0511,1.19.0232a5.0466,5.0466,0,0,1,4.2715,3.2959c.2566.6866.2876,1.15.3239,1.1451a.9293.9293,0,0,0-.0046-.3249,4.2508,4.2508,0,0,0-.1894-.8658,4.8952,4.8952,0,0,0-4.39-3.3878,4.2381,4.2381,0,0,0-.8854.0365A.9323.9323,0,0,0,507.8562,410.6472Z" style="fill:#263238"/><path d="M509.42,403.9189a56.1449,56.1449,0,0,0,.02,6.62,56.1442,56.1442,0,0,0-.02-6.62Z" style="fill:#263238"/><path d="M515.6691,413.6012a13.235,13.235,0,0,0,4.7071-.0295c-.0061-.0565-1.0568.0243-2.3536.03C516.7262,413.6123,515.6745,413.5447,515.6691,413.6012Z" style="fill:#263238"/><path d="M512.5126,413.6461c-.0387.04.09.2215.2006.4613.1148.2384.1734.4525.2287.4481.0521-.0011.0792-.2558-.052-.5315C512.76,413.7476,512.5465,413.6066,512.5126,413.6461Z" style="fill:#263238"/><path d="M511.3,412.1845c-.0379.0384.0686.2045.238.3708s.3371.27.375.2315-.0688-.2045-.2383-.3709S511.3374,412.146,511.3,412.1845Z" style="fill:#263238"/><path d="M509.5868,411.5349c.0121.0545.2262.0492.4639.1288.24.0739.4105.2028.452.1655.0429-.03-.0964-.2573-.3922-.3512C509.8153,411.3818,509.57,411.4853,509.5868,411.5349Z" style="fill:#263238"/><path d="M508.37,411.2349c-.0187.05.0751.1317.2095.1814s.2587.049.2774-.0015-.0751-.1317-.21-.1815S508.3886,411.1844,508.37,411.2349Z" style="fill:#263238"/><g style="opacity:0.30000000000000004"><polygon points="507.871 410.215 523.956 409.694 523.9 407.755 507.727 409.198 507.871 410.215"/></g><path d="M538.9414,409.3918l2.7323-8.1532-15.24-5.2157-4.1236,11.886.9241.384c4.1255,1.6727,21.0937,8.2141,24.1965,8.3242C550.8918,416.7391,538.9414,409.3918,538.9414,409.3918Z" style="fill:#e8505b"/><g style="opacity:0.4"><path d="M544.7033,413.2074s4.09,2.8623,3.2682,3.4159-18.2181-5.4117-25.6612-8.7144l.1411-.3321,20.232,7.1311S543.8034,412.9407,544.7033,413.2074Z" style="fill:#fff"/></g><path d="M522.2153,407.4852a1.4808,1.4808,0,0,0,.2521.1182c.2212.0912.4634.191.7368.3035q1.1121.4356,2.7284,1.0688c2.31.8862,5.5179,2.0681,9.0882,3.2961s6.8285,2.2676,9.1952,2.989c1.1073.3289,2.0458.6077,2.8089.8346.2847.0791.537.1495.7675.2136a.14.14,0,1,0,.0113-.0376c-.2273-.0748-.4759-.1565-.7568-.2487-.7579-.2429-1.69-.5414-2.7894-.8936-2.3553-.755-5.6036-1.8155-9.1733-3.0419-3.5681-1.2273-6.7815-2.3879-9.1032-3.2407q-1.626-.5976-2.75-1.01c-.2783-.1-.5247-.1885-.75-.2691A1.52,1.52,0,0,0,522.2153,407.4852Z" style="fill:#263238"/><path d="M542.5982,414.9433a4.2558,4.2558,0,0,1,2.2782-1.881,2.6025,2.6025,0,0,0-2.2782,1.881Z" style="fill:#263238"/><path d="M538.8846,411.1208c.0338.042.3386-.1461.681-.42s.5925-.53.5588-.5722-.3385.1458-.6807.42S538.851,411.0786,538.8846,411.1208Z" style="fill:#263238"/><path d="M537.8746,410.0454c.0213.0494.3168-.0285.66-.1744s.6046-.3041.5837-.3538-.3166.0284-.66.1742S537.8537,409.9957,537.8746,410.0454Z" style="fill:#263238"/><path d="M537.5879,408.34c-.0181.051.3223.2182.76.374a1.8994,1.8994,0,0,0,.8257.19c.018-.0507-.3223-.218-.76-.3738A1.9026,1.9026,0,0,0,537.5879,408.34Z" style="fill:#263238"/><path d="M537.6679,407.2339a2.367,2.367,0,0,0,1.7565.7542,71.6521,71.6521,0,0,1-1.7565-.7542Z" style="fill:#263238"/><path d="M539.8573,409.9687a2.9831,2.9831,0,0,0,.9813.33,6.0564,6.0564,0,0,0,1.1211.1276,3.0372,3.0372,0,0,0,.681-.0411.56.56,0,0,0,.3466-.2211.4075.4075,0,0,0-.0142-.4422,1.898,1.898,0,0,0-2.4005-.2363,1.8518,1.8518,0,0,0-.5434.5436c-.0966.1541-.1265.2509-.1159.256a2.9249,2.9249,0,0,1,.7322-.6823,1.8671,1.8671,0,0,1,1.0228-.2566,1.6052,1.6052,0,0,1,1.14.4794c.1158.1685-.0074.3306-.2156.3743a3.0742,3.0742,0,0,1-.631.0463,7.1254,7.1254,0,0,1-1.0983-.0832C540.2412,410.0656,539.8675,409.9385,539.8573,409.9687Z" style="fill:#263238"/><path d="M540.0944,410.1042a1.02,1.02,0,0,0,.346-.641,1.6978,1.6978,0,0,0-.0221-.8069,1.0391,1.0391,0,0,0-.644-.7787.4121.4121,0,0,0-.4569.3487,1.1333,1.1333,0,0,0,.0164.4945,3.1345,3.1345,0,0,0,.2593.7509,1.4956,1.4956,0,0,0,.4244.5885c.0253-.018-.1348-.2426-.2984-.6452a3.613,3.613,0,0,1-.2085-.728c-.0636-.253-.028-.6562.2327-.6165.2533.06.42.39.5025.6369a1.7,1.7,0,0,1,.0586.7314A3.7762,3.7762,0,0,1,540.0944,410.1042Z" style="fill:#263238"/><path d="M523.9559,403.423c-.0085.0356.4506.1081,1.1114.4254a5.0468,5.0468,0,0,1,2.9,4.5495c.0084.7329-.12,1.18-.0837,1.187a.9314.9314,0,0,0,.1058-.3071,4.2449,4.2449,0,0,0,.1157-.8787,4.8951,4.8951,0,0,0-2.9808-4.6762,4.2361,4.2361,0,0,0-.8451-.266A.9355.9355,0,0,0,523.9559,403.423Z" style="fill:#263238"/><path d="M527.7093,397.624a56.2489,56.2489,0,0,0-2.2266,6.2343,56.1637,56.1637,0,0,0,2.2266-6.2343Z" style="fill:#263238"/><path d="M530.3036,408.8522a13.2262,13.2262,0,0,0,4.4379,1.5691c.0135-.0553-1.0024-.3355-2.2242-.77C531.2941,409.2213,530.3277,408.801,530.3036,408.8522Z" style="fill:#263238"/><path d="M527.319,407.8237c-.05.0245.009.2388.0322.502.0271.2631.01.4845.0633.4992.0493.0165.1612-.214.1313-.5177C527.5176,408.0032,527.3643,407.7981,527.319,407.8237Z" style="fill:#263238"/><path d="M526.6737,406.0374c-.0486.0232-.0046.2157.0983.43s.2255.3682.2742.3448.0046-.2156-.0983-.43S526.7224,406.0139,526.6737,406.0374Z" style="fill:#263238"/><path d="M525.2828,404.8451c-.007.0555.1962.1231.3929.2786.2.1509.3171.33.369.309.05-.0138-.0034-.2748-.25-.4635C525.55,404.7787,525.2835,404.7927,525.2828,404.8451Z" style="fill:#263238"/><path d="M524.24,404.15c-.0348.0412.0259.1495.1356.2418s.2266.1339.2613.0927-.0259-.1493-.1356-.2419S524.2748,404.109,524.24,404.15Z" style="fill:#263238"/><g style="opacity:0.30000000000000004"><polygon points="524.116 403.022 539.424 407.988 540.029 406.145 524.326 402.016 524.116 403.022"/></g><path d="M550.4191,250.22l-18.9492.8287h0l-29.0636-.8287,3.317,159.3324,23.4155-.7764s.0374-1.7663,0-4.8777l12.375,3.1962S564.8247,359.222,569.842,338.82C574.0265,321.8022,550.4191,250.22,550.4191,250.22ZM529.0569,379.5559c-.3933-36.7752,1.2437-99.3144,1.7815-106.9648,0,0,14.3388,55.06,14.4751,59.4045C545.397,334.638,535.3283,360.0492,529.0569,379.5559Z" style="fill:#263238"/><path d="M528.9413,369.1132a10.16,10.16,0,0,1,.0921,1.5449c.0212,1.0685.0493,2.49.0834,4.2131.0508,3.5574.09,8.4721.1051,13.9.0152,5.43.0037,10.3445-.027,13.9013-.0245,1.7226-.0447,3.1438-.06,4.2116a10.123,10.123,0,0,1-.0833,1.5434,10.1641,10.1641,0,0,1-.092-1.546c-.0212-1.0682-.0494-2.49-.0834-4.2131-.0509-3.5576-.09-8.4719-.1052-13.9008-.0151-5.4267-.0037-10.34.0271-13.8971.0245-1.7229.0446-3.1443.06-4.2125A10.1579,10.1579,0,0,1,528.9413,369.1132Z" style="fill:#455a64"/><path d="M517.666,252.3855a2.4867,2.4867,0,0,1,.0055.8217,9.4708,9.4708,0,0,1-.4632,2.1945,10.6826,10.6826,0,0,1-11.6688,7.2762,9.467,9.467,0,0,1-2.1741-.55,2.4865,2.4865,0,0,1-.7355-.3665,22.7471,22.7471,0,0,0,2.9456.5994,10.8218,10.8218,0,0,0,11.3325-7.0666A22.7463,22.7463,0,0,0,517.666,252.3855Z" style="fill:#455a64"/><path d="M532.9492,252.6244a3.0315,3.0315,0,0,1,.0927.8346c.03.5377.0591,1.3156.0853,2.277.0523,1.9229.0936,4.5794.1111,7.5133.0017,1.4613.0033,2.8535.0046,4.14a6.0447,6.0447,0,0,1-.7737,3.3433,2.8821,2.8821,0,0,1-1.9284,1.2789,1.2189,1.2189,0,0,1-.8437-.1146,5.2031,5.2031,0,0,0,.813-.0582,2.8172,2.8172,0,0,0,1.6921-1.28,5.9522,5.9522,0,0,0,.6254-3.1718c-.0125-1.2845-.0258-2.6749-.04-4.1344-.0176-2.934-.0083-5.5907.021-7.514.0146-.9616.0343-1.74.058-2.2779A3.027,3.027,0,0,1,532.9492,252.6244Z" style="fill:#455a64"/><path d="M552.1664,262.5458a1.7864,1.7864,0,0,1-.6456.007,9.9905,9.9905,0,0,1-1.7354-.2754,14.4077,14.4077,0,0,1-9.0578-6.8175,9.9836,9.9836,0,0,1-.7447-1.5912,1.7872,1.7872,0,0,1-.1721-.6222c.0753-.03.4118.8193,1.19,2.0494a15.7937,15.7937,0,0,0,8.8666,6.6735C551.2649,262.377,552.175,262.4652,552.1664,262.5458Z" style="fill:#455a64"/><path d="M528.732,254.2159c.031.0722-.5389.1592-.8464.8672a1.4217,1.4217,0,0,0,.0128,1.2072,1.3007,1.3007,0,0,0,2.3062-.3742,1.4214,1.4214,0,0,0-.37-1.1493,2.0334,2.0334,0,0,0-1.0771-.555c-.0054-.0228.1175-.0943.3656-.0906a1.4991,1.4991,0,0,1,.9459.4121,1.7053,1.7053,0,0,1,.561,1.45,1.703,1.703,0,0,1-3.1145.5053,1.7052,1.7052,0,0,1,.0735-1.5532,1.4992,1.4992,0,0,1,.7671-.69C528.5906,254.1638,528.73,254.1927,528.732,254.2159Z" style="fill:#455a64"/><path d="M501.1648,254.9319c-.6794-5.9993.2648-28.83.2648-28.83-.8462-10.871-4.495-22.6984-5.1412-30.5936-2.1873-26.7223,18.7995-25.9474,18.7995-25.9474l6.7984-.7678c7.0355,5.064,14.2736,8.4226,15.467,15.8535l14.8131,67.7386Z" style="fill:#455a64"/><path d="M505.0923,171.2074a13.9767,13.9767,0,0,0,2.9259.3394l7.0721.4442c2.7607.17,5.2551.355,7.0584.5186a17.3152,17.3152,0,0,0,2.9346.19,11.6286,11.6286,0,0,0-2.8826-.625c-1.8-.2761-4.303-.5313-7.0719-.702s-5.2762-.2418-7.0923-.2635A13.8521,13.8521,0,0,0,505.0923,171.2074Z" style="fill:#263238"/><g style="opacity:0.2"><polygon points="503.485 198.731 533.398 221.527 530.179 205.374 503.485 198.731"/></g><path d="M551.0514,247.2866c.0051.1438-11.2487.6583-25.1329,1.1492-13.889.4912-25.1486.7727-25.1537.6289s11.2463-.6582,25.1353-1.1493C539.7843,247.4245,551.0463,247.1429,551.0514,247.2866Z" style="fill:#fafafa"/><path d="M550.5,244.7662c.0051.1437-11.1431.6546-24.8969,1.1409-13.7587.4865-24.9127.7642-24.9178.62s11.1407-.6544,24.8993-1.1409C539.3388,244.9,550.4952,244.6225,550.5,244.7662Z" style="fill:#fafafa"/><path d="M519.06,131.1835a9.616,9.616,0,0,0,1.63-7.2372,7.8929,7.8929,0,0,0-4.5519-5.73,6.7087,6.7087,0,0,0-7.09,1.2462c-1.5971,1.5529-2.3989,4.0141-4.4521,4.878-1.9149.8057-4.4954-.0083-5.9227,1.5012-.8092.8559-.9067,2.1718-1.5776,3.14-.8621,1.2436-2.4714,1.6777-3.7112,2.5451a6.0853,6.0853,0,0,0-2.5034,5.5605c.26,2.265,1.7638,4.1566,3.0871,6.013s2.57,4.0341,2.2043,6.2843" style="fill:#263238"/><path d="M505.846,173.2277l-12.7516-34.0921.8213-1.1312c5.535-7.62,7.9542-11.7637,17.3051-10.6425h0a12.7209,12.7209,0,0,1,9.5488,7.9862c1.8628,4.9013,4.2382,11.3808,5.3756,15.4245,2.0243,7.1957-4.8182,10.4238-4.8182,10.4238l2.8205,11.5334Z" style="fill:#ffbe9d"/><path d="M519.7276,140.345a1.0855,1.0855,0,1,1,1.45-.5053A1.0855,1.0855,0,0,1,519.7276,140.345Z" style="fill:#263238"/><path d="M521.1308,138.0045c-.0758.1571-.94-.1771-1.9281.109-.9934.2719-1.5554,1.0077-1.7019.913-.07-.0406-.0241-.2975.2185-.6275a2.5378,2.5378,0,0,1,2.8973-.8157C520.9959,137.7381,521.1689,137.9334,521.1308,138.0045Z" style="fill:#263238"/><path d="M510.3184,142.1333a1.0854,1.0854,0,1,1-1.3317.7634A1.0855,1.0855,0,0,1,510.3184,142.1333Z" style="fill:#263238"/><path d="M510.9431,141.7954c-.0758.1574-.94-.177-1.928.1092-.9933.2719-1.5553,1.0077-1.7019.9131-.07-.0407-.0242-.2975.2185-.6277a2.5378,2.5378,0,0,1,2.8973-.8157C510.8083,141.5293,510.9814,141.7243,510.9431,141.7954Z" style="fill:#263238"/><path d="M517.1543,149.1485a5.0087,5.0087,0,0,1,1.4973-.8089c.25-.1041.4355-.2223.4133-.3668a1.465,1.465,0,0,0-.4029-.6852l-1.3722-1.7764a28.6368,28.6368,0,0,1-3.2446-4.7765,28.6447,28.6447,0,0,1,3.7118,4.4234c.4608.6227.9008,1.2171,1.3354,1.8042a1.7176,1.7176,0,0,1,.4573,1.0319.7042.7042,0,0,1-.3233.5436,1.73,1.73,0,0,1-.4238.1875A4.9854,4.9854,0,0,1,517.1543,149.1485Z" style="fill:#263238"/><path d="M521.327,161.1964a18.0554,18.0554,0,0,1-10.1486-.009s3.6217,4.5511,10.5859,1.7972Z" style="fill:#eb996e"/><path d="M517.1372,137.0923a1.4922,1.4922,0,0,0,1.6179.0855c.5845-.2574,1.0843-.7054,1.06-1.2257-.0165-.5105-.8672-.8863-1.7916-.4933S516.7807,136.7265,517.1372,137.0923Z" style="fill:#263238"/><path d="M507.2147,140.5428c.4333.2941,1.1113.073,1.7754-.1587.6511-.2664,1.3054-.55,1.4352-1.0572.046-.2488-.1279-.53-.5209-.7031a2.2746,2.2746,0,0,0-2.765,1.0471C506.96,140.0612,507.0155,140.3868,507.2147,140.5428Z" style="fill:#263238"/><path d="M513.0264,150.3009c-.1547.0643.4164,1.21,1.8006,1.7495,1.3794.5539,2.5794.1092,2.5106-.0435-.0348-.1772-1.1073-.0546-2.2814-.5355C513.8713,151.0188,513.173,150.1955,513.0264,150.3009Z" style="fill:#263238"/><path d="M519.0634,131.1835c-1.8515,2.1184-5.8738,2.8145-8.6218,2.2115-1.9429-.4264-3.9358-1.5821-5.7893-.86-1.717.6691-2.3356,2.2221-2.387,4.0642a3.8362,3.8362,0,0,1-3.964,3.5819c1.0948,3.4863,2.2172,5.9955,1.9169,9.5157-.0532.6231-.762,1.27-1.1238,1.78a1.42,1.42,0,0,1-1.6322.5838,2.15,2.15,0,0,1-.97-1.4911c-1.0269-3.47-2.61-7.0646-3.6371-10.5344a7.3407,7.3407,0,0,1,.0913-3.8682,7.9491,7.9491,0,0,1,2.6212-3.6858,37.5238,37.5238,0,0,1,7.0563-5.6836,12.6246,12.6246,0,0,1,8.7182-1.708c2.961.6341,6.7138,2.2956,7.159,5.2908" style="fill:#263238"/><path d="M498.0532,147.3479c-.1375-.0265-5.4162.3321-3.7081,5.1944,1.4766,4.2029,5.897,2.0526,5.8692,1.9073S498.0532,147.3479,498.0532,147.3479Z" style="fill:#ffbe9d"/><path d="M498.06,152.868c-.0222-.0088-.0607.0706-.1708.16a.7623.7623,0,0,1-.5493.1526c-.49-.05-1.0491-.6648-1.2648-1.4237a2.5161,2.5161,0,0,1-.0639-1.1106.8819.8819,0,0,1,.4108-.7092.3884.3884,0,0,1,.4878.0912c.0871.1041.0819.1956.106.1969.0147.0077.073-.0941-.0058-.2606a.4891.4891,0,0,0-.2349-.223.5766.5766,0,0,0-.4363-.0035,1.072,1.072,0,0,0-.6035.8547,2.5886,2.5886,0,0,0,.0461,1.2473c.2457.8476.8874,1.5353,1.5457,1.5558a.8166.8166,0,0,0,.6471-.2848C498.0789,152.9724,498.0771,152.8719,498.06,152.868Z" style="fill:#eb996e"/><path d="M640.3907,184.0137l4.1259-.4138c2.3907-.45,5.8537-1.5267,7.6946-2.9826,1.0239-.81,1.62-1.5418,1.4175-2.31a1.526,1.526,0,0,0-1.7643-1.1891s2.47-.6175,1.6761-2.3524c-.5367-1.1729-2.4116-.5587-2.4116-.5587s3.0866-1.4615,2.68-2.87a1.3476,1.3476,0,0,0-1.2481-1.0563c1.5441-1.1537,1.4183-1.9719.8826-2.6118-.6839-.8169-2.0112-.6078-3.0048-.2232l-3.3623,1.3012c-2.0976.8074-3.6116,2.0779-1.7246-1.3555s2.0434-6.7843,1.4551-7.7205a1.2256,1.2256,0,0,0-2.191.7551,14.29,14.29,0,0,1-1.21,3.76,9.3643,9.3643,0,0,1-1.7381,2.6506c-.85.9034-1.6041,1.6356-2.2619,2.2422l-3.3579,3.8754Z" style="fill:#ffbe9d"/><rect x="529.3418" y="160.854" width="70.4882" height="70.4881" transform="matrix(-0.9838, 0.1794, -0.1794, -0.9838, 1155.1944, 287.7124)" style="fill:#e8505b"/><rect x="529.3418" y="160.854" width="70.4882" height="70.4881" transform="matrix(-0.9838, 0.1794, -0.1794, -0.9838, 1155.1944, 287.7124)" style="opacity:0.4"/><path d="M525.1,176.0279c.0235-.0525,12.5328,5.4937,27.9367,12.3861,15.4094,6.8949,27.8779,12.525,27.8544,12.5775s-12.53-5.4925-27.9395-12.3873C537.5476,181.7117,525.0764,176.08,525.1,176.0279Z" style="fill:#e8505b"/><path d="M528.5107,191.9228c.0235-.0525,12.5328,5.4936,27.9368,12.3861,15.4093,6.8949,27.8778,12.5249,27.8544,12.5775s-12.53-5.4925-27.94-12.3874C540.9584,197.6066,528.4872,191.9753,528.5107,191.9228Z" style="fill:#e8505b"/><path d="M530.83,207.4474c.0235-.0525,10.8732,4.7511,24.23,10.7278,13.3619,5.9788,24.1713,10.8665,24.1478,10.919s-10.871-4.75-24.2329-10.7288C541.6185,212.3887,530.8069,207.5,530.83,207.4474Z" style="fill:#e8505b"/><path d="M538.3458,165.0585c.0235-.0525,8.9348,3.8837,19.9015,8.7907,10.97,4.9087,19.8418,8.9293,19.8183,8.9818s-8.9329-3.8829-19.9034-8.7916C547.1956,169.1324,538.3223,165.111,538.3458,165.0585Z" style="fill:#e8505b"/><path d="M534.0378,223.99c.0248-.0519,4.6241,2.0943,10.2716,4.7931,5.6493,2.7,10.2074,4.93,10.1826,4.9815s-4.6231-2.0939-10.2725-4.7936C538.5721,226.2722,534.013,224.0419,534.0378,223.99Z" style="fill:#e8505b"/><rect x="578.7629" y="151.8403" width="70.4881" height="70.4881" transform="matrix(-0.9838, 0.1794, -0.1794, -0.9838, 1251.6173, 260.9638)" style="fill:#e8505b"/><path d="M650.7434,167.463l-4.1635,1.6378a4.2764,4.2764,0,0,0-1.4323.789,1.2915,1.2915,0,0,0,.8623,2.3314,4.2757,4.2757,0,0,0,1.6093-.3356l4.52-1.5733" style="fill:#ffbe9d"/><path d="M650.0582,170.9864l-4.4408,1.7469a4.5625,4.5625,0,0,0-1.5277.8416,1.3775,1.3775,0,0,0,.92,2.4866,4.56,4.56,0,0,0,1.7165-.358l4.82-1.678" style="fill:#ffbe9d"/><path d="M650.1115,174.3946l-3.7331,1.4685a3.8324,3.8324,0,0,0-1.2843.7075,1.158,1.158,0,0,0,.7732,2.09,3.8341,3.8341,0,0,0,1.443-.3008l4.0523-1.4107" style="fill:#ffbe9d"/><path d="M651.6388,176.8615l-3.7332,1.4685a3.8351,3.8351,0,0,0-1.2843.7075,1.158,1.158,0,0,0,.7732,2.09,3.8361,3.8361,0,0,0,1.443-.3009l4.0523-1.4107" style="fill:#ffbe9d"/><path d="M652.89,170.0177a20.7037,20.7037,0,0,1-6.1762,2.1723,20.7089,20.7089,0,0,1,6.1762-2.1723Z" style="fill:#eb996e"/><path d="M651.6359,173.98a12.49,12.49,0,0,1-5.59,1.8895,26.1,26.1,0,0,1,5.59-1.8895Z" style="fill:#eb996e"/><path d="M652.0755,176.9723c.0423.1375-.8543.5351-2.0023.888a4.7677,4.7677,0,0,1-2.1556.39c-.0423-.1375.8542-.535,2.0025-.8881A4.7688,4.7688,0,0,1,652.0755,176.9723Z" style="fill:#eb996e"/><path d="M611.47,160.9165c-1.498-1.71-8.9233,4.187-9.5888,4.64-.646.4394-1.3421-.4934-.72-.87.895-.5415,10.1536-6.4576,8.6984-8.1508-.8068-.9386-2.3579.6665-2.3579.6665s-8.2546,6.1734-8.9148,5.3512c-.67-.8346,4.0542-4.6227,5.7378-5.7873,1.6634-1.1507,1.7921-2.41.6706-2.7233-.7649-.2135-6.0047,3.2316-7.6425,4.422s-6.0718,4.536-5.2277,1.1082.2013-6.38-.528-7.0579-1.939.0908-1.7318,1.1672a12.8585,12.8585,0,0,1-.18,3.5545,8.4031,8.4031,0,0,1-.8967,2.71c-.23.4278-.4474.8085-.66,1.1737-5.9384,3.2316-38.9691,21.1962-42.4571,22.8776-3.8342,1.8484-33.2319-6.1528-33.2319-6.1528l-4.5783,18.3815s29.1612,9.5424,36.6562,10.0024c6.1157.3753,37.5764-22.6,48.9562-31.0744v0a132.2949,132.2949,0,0,0,12.9708-5.8857c4.5871-2.5626,4.3635-2.9774,3.9738-3.4606-1.0468-1.2978-8.24,4.2026-7.38,2.1238S612.6189,162.2281,611.47,160.9165Z" style="fill:#ffbe9d"/><path d="M506.5509,199.4939l26.1865,9.0516,5.082-24.8908s-10.3295-3.7121-20.1183-6.6811c-7.0864-2.1494-17.8716.0116-18.7692,7.3622h0C496.1286,192.3642,501.264,197.4715,506.5509,199.4939Z" style="fill:#455a64"/><path d="M531.0682,207.9069a27.3256,27.3256,0,0,0,.8182-3.6315c.46-2.2481,1.1478-5.341,1.96-8.7487s1.5568-6.4965,2.0415-8.7452a20.9078,20.9078,0,0,0,.6447-3.6711,23.6264,23.6264,0,0,0-1.0707,3.5679c-.5929,2.22-1.4033,5.29-2.2186,8.7053s-1.4373,6.5368-1.7881,8.8136A18.68,18.68,0,0,0,531.0682,207.9069Z" style="fill:#263238"/><path d="M500.8554,196.1545c.045-.0348-.3836-.5584-.963-1.6147a13.1282,13.1282,0,0,1-1.505-4.8184,12.292,12.292,0,0,1,1.3513-7.24,12.83,12.83,0,0,1,6.7681-5.8462,13.8639,13.8639,0,0,1,4.652-.7838,21.2238,21.2238,0,0,1,4.4166.4377,53.6494,53.6494,0,0,1,7.2681,2.1806c2.0451.73,3.7067,1.3158,4.8712,1.6708.5791.1864,1.0373.3056,1.3465.39a1.5545,1.5545,0,0,0,.4818.0952,12.657,12.657,0,0,0-1.7538-.702l-4.8015-1.8448a49.2685,49.2685,0,0,0-7.3032-2.3216,17.3841,17.3841,0,0,0-9.3813.325,13.2189,13.2189,0,0,0-7.0433,6.1432,12.7958,12.7958,0,0,0,.4338,12.429,9.0392,9.0392,0,0,0,.82,1.1459C500.7229,196.0455,500.84,196.1672,500.8554,196.1545Z" style="fill:#263238"/><path d="M534.3563,182.4083c.138.04-1.3289,5.4561-3.2759,12.0947-1.9477,6.6409-3.638,11.99-3.7761,11.9494s1.3287-5.455,3.2763-12.0959C532.5277,187.7179,534.2183,182.3678,534.3563,182.4083Z" style="fill:#fafafa"/><path d="M531.8393,181.7328c.1374.0429-1.4039,5.3707-3.442,11.8986-2.0389,6.53-3.8024,11.7875-3.94,11.7446s1.4037-5.37,3.4425-11.9C529.9383,186.9483,531.7021,181.69,531.8393,181.7328Z" style="fill:#fafafa"/><path d="M139.6252,201.3446c-31.4338,6.5681-63.5566,6.2023-102.04,1.4173L55.26,129.8587c36.9679,4.4879,64.033,5.5209,98.0128.8174Z" style="fill:#e0e0e0"/><path d="M116.1949,154.9654s-.0266.2332-.11.6791q-.1374.7041-.3844,1.97c-.3564,1.75-.8709,4.2764-1.5257,7.4912-1.3508,6.4875-3.2791,15.7478-5.6112,26.9481l-.0354.17-.1743.0015-11.5911.097-.2832.0023.05-.2794c1.1354-6.4137,2.38-13.4458,3.6841-20.8095l-.0036.0311a7.2215,7.2215,0,0,0-3.0985-6.1642,10.693,10.693,0,0,0-7.2556-1.1183,9.3588,9.3588,0,0,0-3.8274,1.6636,10.2348,10.2348,0,0,0-2.718,3.12,12.1712,12.1712,0,0,0-.86,1.8783,20.1012,20.1012,0,0,0-.5139,2.0044q-.47,2.0374-.9329,4.0412l-3.561,15.3978-.0432.187-.1914,0-14.1765-.0228-.2829,0,.072-.2724,7.2056-27.2455c.8755-3.2534,1.5645-5.8139,2.0419-7.5878l.5529-1.9908c.1287-.4492.2113-.6765.2113-.6765s-.0389.2387-.1462.6935l-.49,2.0071c-.45,1.7809-1.1,4.3516-1.9264,7.618L63.2418,192.09l-.2107-.2727,14.1765-.0228-.2344.1865c1.1253-4.907,2.3071-10.0607,3.5323-15.4038l.9286-4.042a20.4236,20.4236,0,0,1,.5281-2.06,12.6591,12.6591,0,0,1,.8975-1.9638,10.7463,10.7463,0,0,1,2.8569-3.2809,9.8735,9.8735,0,0,1,4.0425-1.7588,11.1776,11.1776,0,0,1,7.6343,1.1948,6.921,6.921,0,0,1,2.5262,2.9179,8.6042,8.6042,0,0,1,.802,3.7087l0,.012-.0035.0195c-1.318,7.3612-2.5766,14.3909-3.7246,20.8023L96.76,191.85l11.5913-.0569-.2094.1709c2.4068-11.1846,4.3967-20.4318,5.7908-26.91.7042-3.2044,1.2577-5.7226,1.641-7.4668q.2873-1.2579.4467-1.9565C116.1248,155.1893,116.1949,154.9654,116.1949,154.9654Z" style="fill:#263238"/><path d="M71.7513,154.76a.8755.8755,0,0,1,.2391-.0254l.7024-.0246,2.707-.0469,10.0045-.08,14.9485-.0567c5.65-.0047,11.8882-.056,18.4814.0411l-.1208.4908-3.4617-1.767L96.17,143.5185l.2032.0055-19.5183,8.5781-5.5606,2.4-1.4812.6186a3.0135,3.0135,0,0,1-.52.1893,3.0212,3.0212,0,0,1,.489-.26l1.4514-.6858,5.5065-2.5221,19.4416-8.7506.1023-.0461.1012.0515,19.1041,9.7292,3.4609,1.7683.9946.5082-1.1154-.0173c-6.5892-.1022-12.8283-.0688-18.4776-.0923l-14.9474-.0567-10.004-.08-2.7069-.0468-.7024-.0247A.8655.8655,0,0,1,71.7513,154.76Z" style="fill:#263238"/><path d="M116.1949,154.9655a2.8352,2.8352,0,0,1,.6384-.0892l1.8354-.148,6.747-.4407.2534-.0165-.0556.2509c-1.0829,4.8868-2.5208,11.3762-4.1,18.502-1.6982,7.406-3.238,14.1215-4.38,19.1028l-.0343.1493-.15-.0034-6.2907-.14-1.71-.065a2.5376,2.5376,0,0,1-.5959-.0589,2.5449,2.5449,0,0,1,.5969-.0482l1.7109-.0344,6.2922-.0274-.1839.1457c1.1048-4.99,2.5943-11.7164,4.237-19.135,1.63-7.1143,3.1147-13.5932,4.2326-18.4721l.1976.2342-6.7559.27-1.8408.0455A2.8363,2.8363,0,0,1,116.1949,154.9655Z" style="fill:#263238"/><path d="M126.4414,154.48a6.1876,6.1876,0,0,1-1.1938-.5052l-3.1664-1.55c-2.6632-1.3289-6.3257-3.1966-10.3559-5.2879l-6.9174-3.6251.1052.0256c-2.5807-.022-4.74-.0545-6.2536-.0939a15.4133,15.4133,0,0,1-2.3825-.1349,15.4033,15.4033,0,0,1,2.3825-.135c1.5139-.0393,3.6729-.0718,6.2536-.0939l.0546,0,.051.0262,6.9465,3.5691c4.03,2.0914,7.6658,4.0108,10.2856,5.4234l3.09,1.6967A6.2029,6.2029,0,0,1,126.4414,154.48Z" style="fill:#263238"/><path d="M119.6826,181.62c-.0009.1439-4.6792.2307-10.4479.194-5.7707-.0368-10.4465-.1831-10.4455-.3269s4.6781-.2306,10.4488-.1939C115.0067,181.33,119.6835,181.4764,119.6826,181.62Z" style="fill:#263238"/><path d="M121.6281,171.3362c0,.1439-4.7383.2478-10.581.2322-5.8447-.0156-10.5809-.1449-10.58-.2887s4.7372-.2477,10.5819-.2321C116.8912,171.0632,121.6285,171.1925,121.6281,171.3362Z" style="fill:#263238"/><path d="M88.5768,181.591c-.0009.1438-5.1024.23-11.3932.1919-6.2929-.0379-11.392-.1851-11.3911-.3289s5.1013-.23,11.3942-.1919C83.4775,181.3,88.5776,181.4473,88.5768,181.591Z" style="fill:#263238"/><path d="M90.8528,171.3071c0,.1439-5.0924.2478-11.372.2321-6.2818-.0156-11.3722-.1448-11.3718-.2887s5.0913-.2476,11.3731-.232C85.7617,171.0341,90.8532,171.1634,90.8528,171.3071Z" style="fill:#263238"/><path d="M97.5906,165.1172a1.2852,1.2852,0,0,1-.41.0533l-.491.0257c-.1925.0173-.41.0781-.656.1213a5.3261,5.3261,0,0,0-1.67.6839,6.6436,6.6436,0,0,0-1.7075,1.6632A9.9368,9.9368,0,0,0,91.36,170.273c-.3307.9883-.4934,2.1327-.77,3.3077-.5155,2.3672-1.0788,4.9544-1.67,7.67-.8958,3.99-1.729,7.7-2.432,10.8312l-.0389.1731-.1735-.0024-6.5846-.0921-1.8355-.06a2.4527,2.4527,0,0,1-.6479-.0657,2.4527,2.4527,0,0,1,.6479-.0657l1.8355-.06,6.5846-.0921-.2122.17c.6785-3.1352,1.4827-6.8509,2.3473-10.8462.6053-2.7118,1.182-5.2954,1.71-7.6593.29-1.1684.4637-2.3047.831-3.3493a10.055,10.055,0,0,1,1.4082-2.687,6.751,6.751,0,0,1,1.8523-1.6935,5.2388,5.2388,0,0,1,1.7824-.6344c.2583-.03.4853-.0755.6841-.0768l.5029.0237A1.2243,1.2243,0,0,1,97.5906,165.1172Z" style="fill:#263238"/><path d="M136.0016,143.3082c.14.0331-2.3493,11.0511-5.5591,24.6062-3.2109,13.56-5.9265,24.5217-6.0664,24.4885s2.3487-11.0487,5.56-24.6085C133.1456,154.2393,135.8617,143.275,136.0016,143.3082Z" style="fill:#263238"/><path d="M133.1417,192.4789a64.7146,64.7146,0,0,1-8.199.0734,64.6974,64.6974,0,0,1-8.1878-.4474,64.7283,64.7283,0,0,1,8.2-.0733A64.7431,64.7431,0,0,1,133.1417,192.4789Z" style="fill:#263238"/><path d="M125.7549,193.9054c-.1328.0644-.5917-.6238-1.1871-1.4338-.5911-.8137-1.1073-1.46-1.0056-1.5667.0945-.1033.8026.4026,1.4261,1.2594C125.615,193.0182,125.882,193.8467,125.7549,193.9054Z" style="fill:#263238"/><path d="M137.5267,171.1637a60.2215,60.2215,0,0,1-7.9038.3047,60.236,60.236,0,0,1-7.9074-.216,60.2377,60.2377,0,0,1,7.9045-.3047A60.2381,60.2381,0,0,1,137.5267,171.1637Z" style="fill:#263238"/><path d="M130.5618,170.3122c.0891.113-.4029.6492-1.0987,1.1975s-1.3321.9015-1.4212.7885.4029-.649,1.0989-1.1975S130.4728,170.1993,130.5618,170.3122Z" style="fill:#263238"/><path d="M139.8328,155.3917a53.5215,53.5215,0,0,1-7.4555-.0686,53.5212,53.5212,0,0,1-7.4332-.5888,53.5461,53.5461,0,0,1,7.4562.0686A53.554,53.554,0,0,1,139.8328,155.3917Z" style="fill:#263238"/><path d="M135.3334,154.2063c.0643.1287-.5553.5688-1.3838.983s-1.5524.6459-1.6167.5173.5551-.5687,1.3839-.9831S135.2691,154.0778,135.3334,154.2063Z" style="fill:#263238"/><path d="M139.35,144.3941c-.0045.1438-7.7178.0172-17.226-.2826-9.5114-.3-17.2157-.66-17.2112-.8033s7.7162-.0172,17.2276.2827C131.649,143.8908,139.355,144.2505,139.35,144.3941Z" style="fill:#263238"/><path d="M138.1444,142.9562c.08.1194-.8143.86-1.9976,1.6541a6.6207,6.6207,0,0,1-2.288,1.2218c-.08-.1194.8142-.86,1.9978-1.6542A6.62,6.62,0,0,1,138.1444,142.9562Z" style="fill:#263238"/><path d="M62.3807,166.2659c-3.2914-5.5619-4.2346-12.9706-5.0664-19.38-.3914-3.0161-1.08-7.3107,1.0412-9.1976,2.2724-2.0213,2.4911-5.1376,5.1021-6.6971a8.0206,8.0206,0,0,1,8.6146.0961" style="fill:#263238"/><path d="M71.5,185.9664h0a8.9248,8.9248,0,0,0,9.6254-8.5291c.2011-4.8577.3783-9.7683.3783-9.7683s7.3636-.6681,7.9189-7.9522.3606-24.1039.3606-24.1039h0a25.3868,25.3868,0,0,0-25.6617,1.5746l.379,25.6425-.04,13.7947C64.4957,181.2518,66.8878,185.5987,71.5,185.9664Z" style="fill:#b78876"/><path d="M82.1876,150.8014A3.7338,3.7338,0,0,0,77.2123,149.7a4.2348,4.2348,0,0,0-1.4264,5.2906,5.5807,5.5807,0,0,0,3.5664,2.7129,2.7975,2.7975,0,0,1,2.182,3.0192c-.215,1.8279-3.2592,2.5057-4.6365,4.0154-2.1423,2.348-6.8321,3.3308-9.99,3.6947-3.1043.3578-2.73.3889-4.5275-2.1668a9.7839,9.7839,0,0,1-1.755-5.92q-.1431-8.0581-.2863-16.1162a23.0663,23.0663,0,0,1,.3839-5.7811,7.764,7.764,0,0,1,3.0638-4.7727c1.7757-1.1611,4.0206-1.2541,6.0411-1.9009,2.5256-.8087,4.6735-2.4762,7.038-3.677s5.2606-1.9141,7.6273-.7176c1.6987.8588,2.8342,2.56,4.486,3.5059,2.3516,1.3466,5.5588,1.0518,6.6925,4.5186a5.8708,5.8708,0,0,1-.05,3.7046c-1.6108,4.7087-7.4542,6.5919-11.6525,4.5423-.0853.7983.6958,2.5772-.1522,5.0967-.271.8051-.37,2.0337-1.63,2.0531" style="fill:#263238"/><path d="M80.8708,155.3455c.0295.0111.0287.1379-.1014.3146a1.09,1.09,0,0,1-.8133.4035,2.006,2.006,0,0,1-1.8824-2.0165,2.1056,2.1056,0,0,1,.54-1.54,2.177,2.177,0,0,1,1.1422-.6534c.751-.1548,1.1823.1231,1.1512.1705-.0186.0828-.4481-.0352-1.05.1837a1.8264,1.8264,0,0,0-1.2622,1.8154,1.6976,1.6976,0,0,0,1.3655,1.672C80.5694,155.7334,80.8176,155.3,80.8708,155.3455Z" style="fill:#aa6550"/><path d="M59.89,145.9668a9.029,9.029,0,0,0-6.2355-4.7842,7.6357,7.6357,0,0,0-7.2792,2.6436,6.6273,6.6273,0,0,0-.3524,7.6026c1.7541,2.5641,5.1256,3.3771,8.2047,3.79a12.6775,12.6775,0,0,1-9.0061,4.2932,8.1918,8.1918,0,0,0,8.3347.4242l-5.0212,4.2583a11.1829,11.1829,0,0,0,9.2307-19.9336" style="fill:#263238"/><path d="M55.26,154.8767a5.1,5.1,0,0,0,2.4323-.4246,6.1987,6.1987,0,0,0,3.2556-4.7226,6.6853,6.6853,0,0,0-1.7165-5.5253,14.0733,14.0733,0,0,0-1.9507-1.6036,1.4948,1.4948,0,0,1,.6627.2292,6.0948,6.0948,0,0,1,1.5529,1.1186,6.8207,6.8207,0,0,1,1.5814,2.376,6.7281,6.7281,0,0,1,.3854,3.4814,6.325,6.325,0,0,1-3.6217,4.983,3.88,3.88,0,0,1-1.9067.2935C55.4792,155.0211,55.2516,154.9028,55.26,154.8767Z" style="fill:#e8505b"/><path d="M44.7274,147.5238c-.0574.0023.3848-1.0425,1.91-1.7284a10.4594,10.4594,0,0,1,6.2066-.3645,13.773,13.773,0,0,1,5.6532,2.6023,10.8644,10.8644,0,0,1,1.3921,1.28c.2908.34.4374.5372.411.5617-.0671.0658-.7306-.6624-2.0213-1.5449a15.1987,15.1987,0,0,0-5.5409-2.389,11.0519,11.0519,0,0,0-5.9582.1941A6.1627,6.1627,0,0,0,44.7274,147.5238Z" style="fill:#455a64"/><path d="M46.9207,152.419c.02-.0816.694.0775,1.7858.0922a9.2554,9.2554,0,0,0,7.4161-3.4414c.6936-.8433,1.0071-1.46,1.0825-1.4231a3.76,3.76,0,0,1-.789,1.6455,8.485,8.485,0,0,1-7.7292,3.5867A3.7606,3.7606,0,0,1,46.9207,152.419Z" style="fill:#455a64"/><path d="M57.9887,162.2276c-.0482-.0742.6825-.5232,1.6165-1.5a10.1388,10.1388,0,0,0,2.528-9.7011c-.3383-1.3087-.7569-2.057-.6786-2.0982a4.9331,4.9331,0,0,1,1.032,1.995A9.604,9.604,0,0,1,59.8633,160.99,4.9364,4.9364,0,0,1,57.9887,162.2276Z" style="fill:#455a64"/><path d="M73.3523,133.3562a6.1427,6.1427,0,0,0-2.8626-1.1144,6.2521,6.2521,0,0,0-3.238.59A7.78,7.78,0,0,0,64.261,135.55a17.58,17.58,0,0,0-2.3526,7.1251,19.0179,19.0179,0,0,1-.5722,3.1315,19.5557,19.5557,0,0,1,.2072-3.18,16.3362,16.3362,0,0,1,2.2851-7.3664,7.9891,7.9891,0,0,1,3.22-2.8621,6.37,6.37,0,0,1,3.4848-.5213,4.89,4.89,0,0,1,2.2091.8634C73.1935,133.0784,73.3693,133.3412,73.3523,133.3562Z" style="fill:#455a64"/><path d="M93.8473,140.8686a5.5211,5.5211,0,0,0,.8807-.51,2.3479,2.3479,0,0,0,.84-2.3815,2.4054,2.4054,0,0,0-1.0475-1.4213,3.5958,3.5958,0,0,0-2.0633-.3414,6.05,6.05,0,0,1-1.2651-.0708,2.9787,2.9787,0,0,1-1.2493-.5657,15.2167,15.2167,0,0,1-1.8537-1.9829,8.8283,8.8283,0,0,0-4.26-2.5162,9.7117,9.7117,0,0,0-4.0873-.2113,12.4238,12.4238,0,0,0-3.59,1.2965,3.1976,3.1976,0,0,1,.8366-.6379,8.267,8.267,0,0,1,2.6884-1.021,9.6524,9.6524,0,0,1,4.2718.1089,9.0806,9.0806,0,0,1,4.5251,2.63,15.9469,15.9469,0,0,0,1.7762,1.9267,3.1909,3.1909,0,0,0,2.2027.5642,3.9535,3.9535,0,0,1,2.3.4566,2.7623,2.7623,0,0,1,1.1741,1.7,2.419,2.419,0,0,1-.2314,1.6826,2.6338,2.6338,0,0,1-.846.9471,2.0948,2.0948,0,0,1-.7256.3257C93.9463,140.8869,93.85,140.8836,93.8473,140.8686Z" style="fill:#455a64"/><path d="M74.2955,161.0818a2.6123,2.6123,0,0,1-1.0685-.4087,5.8,5.8,0,0,1-2.6587-6.8145,5.9034,5.9034,0,0,1,1.4233-2.4012,10.76,10.76,0,0,1,2.3871-1.7532c.8685-.5011,1.7236-.9482,2.4886-1.4582a8.1627,8.1627,0,0,0,1.9268-1.7634,8.7173,8.7173,0,0,0,1.7322-4.0594,10.7114,10.7114,0,0,0-.2945-4.1193c.0167-.0066.0662.082.1459.2586a4.7,4.7,0,0,1,.2874.7978,7.99,7.99,0,0,1,.2262,3.1117,8.8038,8.8038,0,0,1-1.7175,4.3039,8.4672,8.4672,0,0,1-2.0211,1.893c-.7927.5366-1.66.993-2.5127,1.4858a10.5585,10.5585,0,0,0-2.2834,1.6592A5.6176,5.6176,0,0,0,71.35,158.28a6.0159,6.0159,0,0,0,1.9835,2.2206C73.9283,160.9019,74.3129,161.0381,74.2955,161.0818Z" style="fill:#455a64"/><path d="M61.6944,150.3549c.0107-.1077,1.3631.1542,3.5271-.0735a17.0646,17.0646,0,0,0,7.87-2.8363,13.2067,13.2067,0,0,0,5.2882-6.36,6.3917,6.3917,0,0,0,.116-3.4317,2.1368,2.1368,0,0,1,.356.8987,5.5406,5.5406,0,0,1-.119,2.6377,12.8682,12.8682,0,0,1-5.35,6.6869,16.2356,16.2356,0,0,1-8.1313,2.7714,13.66,13.66,0,0,1-2.6182-.0845A3.3988,3.3988,0,0,1,61.6944,150.3549Z" style="fill:#455a64"/><path d="M144.912,192.1153l-4.3678,4.8352-21.633,25.51a12.0038,12.0038,0,0,1-20.3736-3.4934l-7.5287-16.1436,12.8363-7.2165c.6049.47,7.283,13.4871,7.283,13.4871,1.955-.6244,23.977-22.7672,23.977-22.7672h0l.2737-1.4054c.1171-.5721.2348-1.21.3438-1.9364a7.7128,7.7128,0,0,0-.0508-2.5525,11.7722,11.7722,0,0,0-.8868-3.0494c-.4825-.8466.2844-1.8459,1.0795-1.4875s2.18,2.6583,2.4854,5.7916,2.8764-.082,3.8668-1.5649c1.3044-1.9532,3.8943-.7867,2.9411,1.5771a1.7,1.7,0,0,1,1.1761.7766,2.9564,2.9564,0,0,1,.1209,2.2821,7.8108,7.8108,0,0,1,.1831,2.9445A11.3636,11.3636,0,0,1,144.912,192.1153Z" style="fill:#b78876"/><polygon points="82.331 313.648 103.192 409.868 118.933 409.5 105.227 317.488 82.331 313.648" style="fill:#b78876"/><path d="M121.0817,411.1126l-.0667-1.76-17.8231.5152.1541,5.8022,1.1022.0362c4.904.1213,24.9444.2951,28.1888-.715C136.2555,413.8639,121.0817,411.1126,121.0817,411.1126Z" style="fill:#e8505b"/><g style="opacity:0.6000000000000001"><path d="M109.7753,415.3681a5.6994,5.6994,0,0,0-2.3733-3.4565,6.3146,6.3146,0,0,0-4.1847-1.0877l.14,4.61Z" style="fill:#fff"/></g><g style="opacity:0.6000000000000001"><path d="M128.5033,412.7012s5.328,1.2752,4.6939,2.1019-20.893,1.3593-29.8512.8672l.0171-.3693,23.6363-.434S127.4716,412.7689,128.5033,412.7012Z" style="fill:#fff"/></g><path d="M103.0841,415.2982a1.7625,1.7625,0,0,0,.3058.0227l.8778.0261c.8774.012,1.9561.0269,3.2288.0442,2.7266.0195,6.4942,0,10.6532-.1059s7.9238-.28,10.6451-.4391c1.27-.0825,2.346-.1523,3.2212-.2093.3245-.0264.6121-.05.8748-.0709a1.7216,1.7216,0,0,0,.3038-.0383,1.757,1.757,0,0,0-.3067-.002l-.8771.0336-3.2242.1458c-2.7225.1227-6.4847.2732-10.6428.38-4.1567.1056-7.9216.1476-10.6473.1646-1.2725.0073-2.3509.0139-3.228.019-.3258.0043-.6145.0079-.878.0116A1.7818,1.7818,0,0,0,103.0841,415.2982Z" style="fill:#263238"/><path d="M127.0026,415.1235a6.4432,6.4432,0,0,1,.5587-1.4471,6.9325,6.9325,0,0,1,1.0645-1.1767,2.3521,2.3521,0,0,0-1.251,1.0771A2.0861,2.0861,0,0,0,127.0026,415.1235Z" style="fill:#263238"/><path d="M121.6919,412.7916c.0511.0282.2928-.2617.54-.6476s.4064-.7217.3552-.75-.2927.2617-.54.6476S121.6409,412.7633,121.6919,412.7916Z" style="fill:#263238"/><path d="M120.2336,412.1231c.0411.04.3157-.1412.6136-.4044s.5063-.5094.4655-.5494-.3158.141-.6137.4043S120.1929,412.0831,120.2336,412.1231Z" style="fill:#263238"/><path d="M119.2781,410.59a4.3473,4.3473,0,0,0,1.8545-.0293,4.3514,4.3514,0,0,0-1.8545.0293Z" style="fill:#263238"/><path d="M118.9329,409.5a1.8962,1.8962,0,0,0,1.0415.2522,1.9186,1.9186,0,0,0,1.0627-.16,86.4926,86.4926,0,0,1-2.1042-.092Z" style="fill:#263238"/><path d="M122.25,411.3368a3.5414,3.5414,0,0,0,1.14-.0367,7.1038,7.1038,0,0,0,1.2062-.2807,3.4654,3.4654,0,0,0,.6868-.2845.58.58,0,0,0,.2721-.3367.4046.4046,0,0,0-.1856-.4192,2.184,2.184,0,0,0-2.5684.6366,1.8321,1.8321,0,0,0-.3506.7171c-.04.1826-.0335.2859-.0208.2872a2.9069,2.9069,0,0,1,.4919-.918,2.0645,2.0645,0,0,1,.9562-.614,1.8919,1.8919,0,0,1,1.3615.05c.1848.12.12.32-.0777.4366a3.5338,3.5338,0,0,1-.6332.2713,8.3187,8.3187,0,0,1-1.1655.315C122.6837,411.2916,122.2488,411.304,122.25,411.3368Z" style="fill:#263238"/><path d="M122.5471,411.3815a.9862.9862,0,0,0,.1089-.74,1.6688,1.6688,0,0,0-.3349-.7662,1.1613,1.1613,0,0,0-.9655-.5155.4216.4216,0,0,0-.3367.4988,1.12,1.12,0,0,0,.2082.4685,3.276,3.276,0,0,0,.558.6272,1.6709,1.6709,0,0,0,.6655.412c.0192-.0265-.2327-.1844-.5575-.5116a3.7454,3.7454,0,0,1-.4967-.6236c-.1635-.22-.2828-.6194.0019-.6751a1.034,1.034,0,0,1,.7647.43,1.6947,1.6947,0,0,1,.3434.6806A3.61,3.61,0,0,1,122.5471,411.3815Z" style="fill:#263238"/><path d="M103.3091,410.7751c.0049.0371.5068-.0585,1.3114.0084a6.0024,6.0024,0,0,1,2.8934,1.0206,5.3733,5.3733,0,0,1,1.8588,2.3012c.2922.7.3332,1.1746.3729,1.1688a.888.888,0,0,0-.01-.3327,4.0925,4.0925,0,0,0-.22-.8845,5.123,5.123,0,0,0-1.8724-2.4126,5.76,5.76,0,0,0-3.0123-1.002,5.021,5.021,0,0,0-.9752.0489A1.0739,1.0739,0,0,0,103.3091,410.7751Z" style="fill:#263238"/><path d="M111.9593,413.701a15.6667,15.6667,0,0,0,5.1866-.0905c-.0075-.0578-1.1641.0385-2.5931.0615C113.1244,413.6989,111.9644,413.6431,111.9593,413.701Z" style="fill:#263238"/><path d="M108.4817,413.7876c-.0422.0414.1017.2257.2275.47.13.2426.1972.4613.2582.4561.0574-.0018.0835-.2631-.0648-.5438C108.756,413.8885,108.5186,413.7466,108.4817,413.7876Z" style="fill:#263238"/><path d="M107.1248,412.3057c-.041.04.0787.2086.2675.3767s.3751.2723.4163.2323-.0785-.2085-.2675-.3767S107.166,412.2658,107.1248,412.3057Z" style="fill:#263238"/><path d="M105.2285,411.6622c.0142.0556.25.0475.5129.126.2653.0726.4551.2025.5.1637.0468-.0314-.11-.2624-.4371-.3549C105.478,411.5024,105.209,411.6116,105.2285,411.6622Z" style="fill:#263238"/><path d="M103.8835,411.37c-.02.052.0847.1341.2334.1832s.2857.0471.3057-.005-.0846-.134-.2336-.1832S103.9035,411.3183,103.8835,411.37Z" style="fill:#263238"/><polygon points="43.81 310.393 38.741 404.354 54.233 408.097 65.848 312.374 43.81 310.393" style="fill:#b78876"/><polygon points="38.28 403.99 35.642 415.597 53.47 415.597 54.233 408.041 38.28 403.99" style="fill:#e8505b"/><path d="M53.8346,413.9108a12.514,12.514,0,0,1-2.5975.1489c-1.6053.0176-3.8217-.0255-6.2659-.1154l-6.2557-.2656a14.6205,14.6205,0,0,1-2.59-.2085,12.6422,12.6422,0,0,1,2.5976-.141c1.605-.0138,3.8216.0312,6.2664.1212,2.3555.0977,4.4863.1863,6.2544.26A14.7974,14.7974,0,0,1,53.8346,413.9108Z" style="fill:#263238"/><path d="M46.2812,406.2523a28.572,28.572,0,0,1-.5041,7.4836,28.569,28.569,0,0,1,.5041-7.4836Z" style="fill:#263238"/><g style="opacity:0.6000000000000001"><polyline points="35.642 415.597 53.47 415.597 53.641 413.911 35.963 413.47 35.642 415.395" style="fill:#fff"/></g><path d="M35.9771,208.6063l-5.9624,14.2414a8.082,8.082,0,0,0,5.2248,10.137h0A8.0821,8.0821,0,0,0,45.37,227.8937l4.7757-14.047Z" style="fill:#b78876"/><path d="M52.2944,238.9238s-10.8732,18.1671-10.8732,29.0348l-7.389,116.8277,29.464,3.3961,7.1574-114.4581S94.7408,389.8805,95.76,389.8805s26.8373-1.6981,26.8373-1.6981L94.7445,239.5062Z" style="fill:#263238"/><path d="M117.146,388.2864c-.1417.0249-6.1189-33.2572-13.3487-74.3282-7.2324-41.0853-12.9787-74.4007-12.837-74.4256s6.1175,33.25,13.35,74.3353C111.54,354.9389,117.2875,388.2615,117.146,388.2864Z" style="fill:#e0e0e0"/><path d="M108.4742,389.8805c-.1418.0244-6.0407-33.6151-13.1741-75.1262-7.1358-41.5256-12.8037-75.1974-12.6619-75.2217s6.0394,33.6079,13.1752,75.1335C102.9467,356.1772,108.6159,389.8562,108.4742,389.8805Z" style="fill:#e0e0e0"/><path d="M100.6319,389.6c-.1413.0272-6.78-33.7339-14.8269-75.398-8.0494-41.6786-14.4582-75.4768-14.3169-75.504s6.7788,33.7266,14.8282,75.4052C94.3629,355.767,100.773,389.5724,100.6319,389.6Z" style="fill:#e0e0e0"/><path d="M59.5692,387.73c-.1437-.0075,1.46-33.2815,3.5818-74.31,2.1223-41.043,3.9586-74.2979,4.1023-74.2905s-1.46,33.2744-3.5822,74.3174C61.55,354.4752,59.7127,387.7372,59.5692,387.73Z" style="fill:#e0e0e0"/><path d="M60.5685,238.9238a2.3884,2.3884,0,0,1-.1564.351l-.4757,1.0194c-.4091.9-.99,2.2381-1.6391,3.9993a61.6189,61.6189,0,0,0-3.5377,15.44c-.9832,13.3964-1.8817,31.9575-2.9917,52.4384-1.083,20.48-2.0633,39.0173-2.7746,52.4687-.37,6.6908-.67,12.1149-.8788,15.8982L47.851,384.86l-.0815,1.1231a2.1163,2.1163,0,0,1-.0455.3818,2.092,2.092,0,0,1-.0077-.3844l.03-1.1257.166-4.326.7134-15.9067c.6306-13.4308,1.5391-31.9846,2.6223-52.4777,1.11-20.486,2.066-39.0309,3.1453-52.4469a59.8677,59.8677,0,0,1,3.7146-15.4752c.68-1.7564,1.2932-3.0854,1.7339-3.9729.2207-.4438.3992-.777.5233-.9987A1.8756,1.8756,0,0,1,60.5685,238.9238Z" style="fill:#e0e0e0"/><path d="M53.5328,238.6977a2.08,2.08,0,0,1-.1289.361c-.1056.2575-.2464.6006-.4255,1.0371-.3743.9111-.9761,2.2334-1.5985,3.9974a86.8518,86.8518,0,0,0-4.1423,15.2488c-.5752,3.29-1.06,6.9192-1.4043,10.8341-.337,3.9157-.5543,8.1116-.755,12.5307-.3228,8.847-1.1347,18.55-1.8561,28.7322-1.5139,20.3609-2.8842,38.79-3.8786,52.1637l-1.2349,15.8034-.362,4.2948-.1073,1.1159a2.0811,2.0811,0,0,1-.0543.379,2.0779,2.0779,0,0,1,.0012-.3826l.0557-1.12c.0623-1.0132.1511-2.4567.2645-4.3016.2546-3.7638.62-9.1593,1.07-15.8149.9553-13.3762,2.2719-31.8093,3.7264-52.1743.7217-10.1879,1.5474-19.878,1.8963-28.7188.2139-4.42.4477-8.6221.8042-12.5464.3633-3.9239.8715-7.5638,1.4722-10.8616a83.0994,83.0994,0,0,1,4.3152-15.2552c.6532-1.7572,1.2861-3.0691,1.6919-3.9676l.4731-1.0168A2.0746,2.0746,0,0,1,53.5328,238.6977Z" style="fill:#e0e0e0"/><path d="M82.6381,276.65c-.0341.14-5.7593-1.1378-12.786-2.853-7.0291-1.7159-12.6978-3.22-12.6637-3.3594s5.7581,1.1376,12.7872,2.8535C77.0023,275.006,82.6722,276.51,82.6381,276.65Z" style="fill:#455a64"/><path d="M52.2944,238.9238,57.37,224.1877l-3.5256-17.8815-2.7592,7.8854-17.0529-6.2609s11.0421-22.0753,11.595-23.2367c5.0458-10.6,18.4947-10.6,18.4947-10.6l17.121.4486a18.6979,18.6979,0,0,1,14.7048,5.7037c4.9012,4.9389,15.4085,27.6727,15.4085,27.6727l-15.4085,8.0938L90.45,205.7377,91.48,219.7932l3.5466,21.4194Z" style="fill:#e8505b"/><path d="M88.0418,179.1226c.0076.0554-.4806.0722-1.26.3953a5.7863,5.7863,0,0,0-2.6066,2.3305,7.7579,7.7579,0,0,0-1.0652,5.0487,19.73,19.73,0,0,0,2.0221,6.1787c1.99,4.2486,3.7429,8.1252,4.9983,10.934.5841,1.3375,1.0732,2.4578,1.4588,3.3408a6.64,6.64,0,0,1,.4709,1.2557,6.5853,6.5853,0,0,1-.6537-1.1682c-.4251-.8641-.9643-1.96-1.6082-3.2694-1.3412-2.77-3.144-6.6157-5.1377-10.8721a19.4613,19.4613,0,0,1-2.028-6.3519,8.0017,8.0017,0,0,1,1.2329-5.2953,5.7314,5.7314,0,0,1,2.8435-2.3206,3.5655,3.5655,0,0,1,.9829-.2111C87.9212,179.1033,88.0405,179.1047,88.0418,179.1226Z" style="fill:#263238"/><path d="M57.537,224.99c-.1408.0293-2.192-9.248-4.581-20.7187-2.39-11.4748-4.2124-20.7976-4.0715-20.8269s2.1915,9.2459,4.5813,20.7207C55.8548,215.636,57.6777,224.9609,57.537,224.99Z" style="fill:#263238"/><g style="opacity:0.2"><path d="M58.8024,223.8452c3.214,2.4057,7.9471,1.6037,11.9074.9453a17.1892,17.1892,0,0,0,10.37-5.6171,6.9738,6.9738,0,0,0,1.9258-4.9021c-.1573-1.7956-1.7448-3.5284-3.5343-3.3133-2.0511.2466-3.04,2.5464-4.0277,4.3609A15.9071,15.9071,0,0,1,58.87,223.1018S58.23,223.4171,58.8024,223.8452Z"/></g><path d="M83.26,211.0767a4.3839,4.3839,0,0,1-.0128,1.232,11.739,11.739,0,0,1-.8225,3.2635,15.8933,15.8933,0,0,1-7.4858,7.9864,22.0659,22.0659,0,0,1-10.7976,2.1657,25.6264,25.6264,0,0,1-3.335-.3427,5.0721,5.0721,0,0,1-1.1973-.28c.0134-.0954,1.737.2257,4.5405.2547a23.0485,23.0485,0,0,0,10.553-2.2615,16.15,16.15,0,0,0,7.383-7.6657A18.4222,18.4222,0,0,0,83.26,211.0767Z" style="fill:#263238"/><g style="opacity:0.2"><path d="M83.26,188.98c1,8.0755,2.3069,14.7008,3.9913,22.6617.8284,3.9155,1.8347,8.0023,4.5355,10.9559L90.235,204.6933Z"/></g></g></g></svg>