<svg xmlns="http://www.w3.org/2000/svg" viewBox="0 0 2204.6665 1306.4585"><g id="Layer_2" data-name="Layer 2"><g id="Layer_1-2" data-name="Layer 1"><path d="M93.5518,1301.2583s-181.9537-394.1416,12.1-629.4687c250.2959-303.53,562.5884-182.5645,683.9551-189.9629s130.9273-254.9824,493.5552-289.7686c280.3857-26.8965,749.29,60.08,651.0527,535.9053-74.6894,361.7646,268.9659,174.7471,188.0537,574.3975Z" style="fill:#ebf2f9"/><polygon points="1131.21 0.345 1243.173 0 1243.482 99.818 1131.515 99.818 1131.21 0.345" style="fill:#d3671e"/><polygon points="1097.616 0.518 1187.252 0.173 1187.498 99.879 1097.861 99.818 1097.616 0.518" style="fill:#f1a34f"/><polygon points="1187.252 0.173 1097.385 0.519 1097.462 32.091 1187.498 99.879 1187.252 0.173" style="fill:#d86713;opacity:0.4"/><polygon points="420.889 1091.631 655.859 1090.907 656.504 1300.386 421.531 1300.386 420.889 1091.631" style="fill:#d3671e"/><polygon points="350.389 1091.993 538.502 1091.269 539.016 1300.514 350.903 1300.386 350.389 1091.993" style="fill:#f1a34f"/><polygon points="538.502 1091.269 349.904 1091.996 350.067 1158.253 539.016 1300.514 538.502 1091.269" style="fill:#d86713;opacity:0.4"/><rect x="1110.1363" y="1133.0323" width="172.7903" height="153.2454" transform="translate(-3.7271 3.6981) rotate(-0.1768)" style="fill:#d3671e"/><polygon points="1058.058 1133.565 1196.389 1133.033 1196.768 1286.278 1058.437 1286.81 1058.058 1133.565" style="fill:#f1a34f"/><polygon points="1196.389 1133.033 1057.702 1133.568 1057.822 1182.29 1196.768 1286.278 1196.389 1133.033" style="fill:#d86713;opacity:0.4"/><polygon points="712.998 830.376 885.787 829.842 886.259 983.886 713.47 983.62 712.998 830.376" style="fill:#d3671e"/><polygon points="661.155 830.641 799.486 830.109 799.866 983.886 661.533 983.886 661.155 830.641" style="fill:#f1a34f"/><polygon points="799.486 830.109 661.528 830.64 660.919 879.367 799.864 983.354 799.486 830.109" style="fill:#d86713;opacity:0.4"/><polygon points="1047.371 734.425 1220.16 733.892 1220.631 983.886 1047.842 984.418 1047.371 734.425" style="fill:#d3671e"/><polygon points="995.528 734.691 1133.859 734.159 1134.238 983.768 995.906 983.768 995.528 734.691" style="fill:#f1a34f"/><polygon points="1133.859 734.159 995.171 734.693 995.291 783.416 1134.237 887.404 1133.859 734.159" style="fill:#d86713;opacity:0.4"/><polygon points="931.362 529.149 1104.151 528.616 1104.626 682.66 931.835 682.66 931.362 529.149" style="fill:#d3671e"/><polygon points="879.519 529.415 1017.85 528.882 1018.228 682.754 879.897 682.66 879.519 529.415" style="fill:#f1a34f"/><polygon points="1017.85 528.882 879.162 529.417 879.282 578.141 1018.228 682.754 1017.85 528.882" style="fill:#d86713;opacity:0.4"/><rect x="789.9737" y="1052.0585" width="268.9088" height="238.4919" transform="translate(-3.6109 2.8589) rotate(-0.1768)" style="fill:#d3671e"/><polygon points="708.926 1052.888 924.207 1052.059 924.795 1290.55 709.514 1291.379 708.926 1052.888" style="fill:#f1a34f"/><polygon points="924.207 1052.059 708.371 1052.891 708.557 1128.718 924.795 1290.55 924.207 1052.059" style="fill:#d86713;opacity:0.4"/><path d="M646.8257,98.8794V1300.5142h649.0391V98.8794Zm634.3369,1186.2334H661.5278V113.0054h619.6348Z" style="fill:#699ff0"/><rect x="1295.8648" y="98.8794" width="88.2128" height="1202.0576" style="fill:#466aa5"/><rect x="653.6108" y="381.4341" width="635.4678" height="32.7974" style="fill:#699ff0"/><rect x="653.6108" y="682.6597" width="635.4678" height="32.7978" style="fill:#699ff0"/><rect x="653.6108" y="983.8863" width="635.4678" height="32.7968" style="fill:#699ff0"/><path d="M705.603,1306.1314a10.0091,10.0091,0,0,1-9.7412-12.2979l222.1465-941.687a10,10,0,1,1,19.4648,4.5918l-222.1464,941.687A10.0026,10.0026,0,0,1,705.603,1306.1314Z" style="fill:#2e3552"/><path d="M505.603,1306.1314a10.0091,10.0091,0,0,1-9.7412-12.2979l222.1465-941.687a10,10,0,1,1,19.4648,4.5918l-222.1464,941.687A10.0026,10.0026,0,0,1,505.603,1306.1314Z" style="fill:#2e3552"/><path d="M803.7358,872.0816H604.0942a10,10,0,0,1,0-20H803.7358a10,10,0,0,1,0,20Z" style="fill:#2e3552"/><path d="M769.7358,1026.0816H572.5786a10,10,0,0,1,0-20H769.7358a10,10,0,0,1,0,20Z" style="fill:#2e3552"/><path d="M843.7358,718.0816H633.2476a10,10,0,0,1,0-20H843.7358a10,10,0,0,1,0,20Z" style="fill:#2e3552"/><path d="M869.7358,562.0816H642.9185a10,10,0,0,1,0-20H869.7358a10,10,0,0,1,0,20Z" style="fill:#2e3552"/><path d="M732.7358,1181.0816H536.76a10,10,0,1,1,0-20H732.7358a10,10,0,0,1,0,20Z" style="fill:#2e3552"/><path d="M909.7358,408.0816H682.9185a10,10,0,0,1,0-20H909.7358a10,10,0,0,1,0,20Z" style="fill:#2e3552"/><path d="M765.459,273.66s.7241-21.6655,4.3818-27.8408,11.791-13.7588,16.1626-11.0713c4.37,2.688,4.95,23.8491,3.4395,27.5805s-12.1817,17.5328-12.1817,17.5328Z" style="fill:#ffb27d"/><path d="M773.4263,271.335c-6.2632-3.5161-8.9287-.6734-8.9287-.6734S721.397,330.85,716.9858,335.6133s-76.8505,29.0513-76.8505,29.0513-29.3721,8.5483-31.9156,25.7319c-2.21,14.9316,5.5552,24.854,14.4322,31.1826a31.6116,31.6116,0,0,0,35.6088.6177c24.418-15.9424,72.8658-48.0689,80.9864-57.1909,18.0742-20.3057,41.708-86.6621,41.708-86.6621A22.6081,22.6081,0,0,0,773.4263,271.335Z" style="fill:#aa413e"/><rect x="769.4029" y="171.7555" width="172.7896" height="153.2456" transform="matrix(1, -0.0031, 0.0031, 1, -0.7624, 2.642)" style="fill:#d3671e"/><polygon points="717.325 172.289 855.656 171.756 856.034 325.001 717.703 325.534 717.325 172.289" style="fill:#f1a34f"/><polygon points="855.656 171.756 716.968 172.29 717.087 221.014 856.034 325.001 855.656 171.756" style="fill:#d86713;opacity:0.4"/><path d="M869.5606,309.3628s-.086-21.6777,3.3388-27.9853,11.2686-14.19,15.7373-11.667,5.8379,23.6474,4.4678,27.4326-11.5186,17.9756-11.5186,17.9756Z" style="fill:#ffb27d"/><path d="M600.7686,1007.1255c-4.8321-4.1357-1.9366-27.31-1.9366-27.31s24.89-19.9112,28.3116-4.667,23.6445,22.0888,35.1562,23.956c7.6777,1.2451,10.2305,5.3946,11.082,8.0215Z" style="fill:#2c3a64"/><path d="M597.9863,980.8931c23.044,3.5752,31.4688-1.91,31.4688-1.91C629.1572,956.2876,638.81,913.7573,648.4043,855c12.6475-77.4746,27.1494-176.7763,37.9893-232.666,6.2353-32.1474,10.3867-52.7881,10.3867-52.7881l-18.8321-.37-93.9248-1.8594s7.0274,103.9522,5.1065,155.2911c-.4629,12.2568-1.4385,21.5244-3.1338,25.6533C569.99,787.1587,597.9863,980.8931,597.9863,980.8931Z" style="fill:#35488b"/><path d="M589.13,722.607c12.76,23.8759,47.0854,95.8046,58.9819,134.1767,12.6475-77.4756,27.4419-178.56,38.2818-234.45-.5352-21.124-3.0625-39.5849-8.4454-53.1582l-93.9248-1.8594S591.0508,671.2681,589.13,722.607Z" style="fill:#2c3a64"/><path d="M679.8779,1007.1255c-4.832-4.1357-1.9365-27.31-1.9365-27.31s24.89-19.9112,28.3115-4.667,23.6436,22.0888,35.1553,23.956c7.6777,1.2451,10.2315,5.3946,11.083,8.0215Z" style="fill:#2c3a64"/><path d="M737.6123,567.2818S700.7139,908.687,708.0225,977.54c0,0-7.8868,6.1767-31.1573,4.7558,0,0-46.2109-176.0459-33.2236-228.5058,5.5234-22.3116-18.5156-178.4082-18.5156-178.4082Z" style="fill:#35488b"/><path d="M646.7744,323.1431s46.916,23.4326,70.1934,12.7461c0,0-9.7783-12.6592-20.7266-17.9131.2334-4.1729.3662-7.9424.4346-11.2754.206-11.1006-.3486-17.3506-.3486-17.3506l-20.2325-14.7187-13.7285-9.9883a88.8736,88.8736,0,0,1,.5567,17.1328C661.1074,308.7759,646.7744,323.1431,646.7744,323.1431Z" style="fill:#ffb27d"/><path d="M662.9229,281.7759s10.9423,21.8135,33.7529,24.9248c.206-11.1006-.3486-17.3506-.3486-17.3506l-20.2325-14.7187C667.2481,277.96,662.9229,281.7759,662.9229,281.7759Z" style="fill:#ed975d"/><path d="M701.5606,287.938s-41.9971,14.9561-50.9083-11.3408-20.333-42.0772,6.1036-52.7393c26.4375-10.66,35.0752-2.4,40.1845,5.6534S712.2559,283.37,701.5606,287.938Z" style="fill:#ffb27d"/><path d="M581.0537,567.2857c6.5762,13.6953,152.1172,13.0888,159.3086,3.4316,2.9277-3.9248,6.2774-43.2119,8.1983-88.8906,1.0585-25.3047,1.6845-52.5713,1.5625-76.8692-.2168-39.6464-2.4366-71.3828-8.0254-73.8076-31.1914-13.53-50.4746-22.14-91.2217-20.8974a33.7912,33.7912,0,0,0-29.4141,18.956c-9.791,20.26-23.6816,56.1572-24.7392,98.5576C595.0781,493.0972,572.7734,550.0259,581.0537,567.2857Z" style="fill:#c65447"/><path d="M703.0371,378.05s4.7354,68.3223,45.5235,103.7764c1.0585-25.3047,1.6845-52.5713,1.5625-76.8692C737.9365,388.6626,721.8584,376.93,703.0371,378.05Z" style="fill:#aa413e"/><path d="M682.9717,311.7066s44.7617.2783,58.8086,13.3242c10.0664,9.3506,77.2646,55.1538,81.374,54.4692s43.2383-78.6411,43.2383-78.6411,20.5322,1.7383,23.956,10.626c0,0-18.663,99.4507-60.4443,122.0151,0,0-106.3193-15.69-137.6553-50.6216C676.1084,364.8863,682.9717,311.7066,682.9717,311.7066Z" style="fill:#c65447"/><path d="M699.6982,208.9927s-2.4834,25.0859-10.0175,31.9355-5.545,16.2735-6.3692,17.6446c-.8242,1.3691-8.6211-2.66-9.9941-.3506-3.1572,5.3076,1.7764,9.1777,4.8916,10.4619s-7.9531,22.8184-16.083,23.6113c-14.0547,1.3721-35.7637-37.4931-37.5987-48.8847-2.3974-14.8975,6.0381-38.13,30.2217-36.9864C692.7637,208.2222,700.4639,199.979,699.6982,208.9927Z" style="fill:#2b478b"/><rect x="1421.5741" y="1061.2661" width="268.9085" height="238.4918" transform="translate(-3.6324 4.8032) rotate(-0.1767)" style="fill:#d3671e"/><polygon points="1340.526 1062.095 1555.807 1061.266 1556.396 1299.758 1341.115 1300.586 1340.526 1062.095" style="fill:#f1a34f"/><polygon points="1555.807 1061.266 1339.971 1062.099 1340.158 1137.925 1556.396 1299.758 1555.807 1061.266" style="fill:#d86713;opacity:0.4"/><rect x="1681.7369" y="1146.6485" width="172.7904" height="153.2449" transform="translate(-3.7664 5.462) rotate(-0.1768)" style="fill:#d3671e"/><polygon points="1629.659 1147.181 1767.99 1146.648 1768.368 1299.893 1630.037 1300.426 1629.659 1147.181" style="fill:#f1a34f"/><polygon points="1767.99 1146.648 1629.302 1147.183 1629.421 1195.907 1768.368 1299.893 1767.99 1146.648" style="fill:#d86713;opacity:0.4"/><path d="M2200.5708,1306.4585H4.0967A4.1092,4.1092,0,0,1,0,1302.3609H0a4.1082,4.1082,0,0,1,4.0967-4.0957H2200.57a4.1083,4.1083,0,0,1,4.0967,4.0966h0A4.1082,4.1082,0,0,1,2200.5708,1306.4585Z" style="fill:#2e3552"/></g></g></svg>