<svg xmlns="http://www.w3.org/2000/svg" viewBox="0 0 1764.0426 1732.877"><g id="Layer_2" data-name="Layer 2"><g id="Ñëîé_1" data-name="Ñëîé 1"><g id="_3" data-name="3"><path d="M311.3232,1521.143S103.6379,823.85,253.0955,668.58c99.8978-103.783,205.7848,125.0009,332.1679,3.9693C697.78,564.7969,540.9116,293.3557,728.649,222.3462c197.329-74.6374,358.9916,529.8076,524.5652,446.2337,200.9127-101.4115,400.7678,104.4553,228.0563,853.8944Z" style="fill:#d4e8ff"/><path d="M148.8244,1461.3611c-3.4863-13.8607-6.9361-28.2229-10.2525-42.6864l8.1737-3.1539c3.295,14.3707,6.7218,28.6392,10.1853,42.4069Zm1462.2326-17.9-8.463-1.3559c1.4052-14.7545,2.7395-29.6142,3.9662-44.1653l8.4767,1.2035C1613.8063,1413.7458,1612.467,1428.6567,1611.057,1443.4612ZM129.1579,1375.6774c-2.9847-14.2946-5.879-28.8551-8.6034-43.2768l8.2823-2.6335c2.7082,14.3352,5.5852,28.8082,8.5518,43.0172Zm1489.37-20.9245-8.4888-1.0409c1.0789-14.8139,2.078-29.7154,2.97-44.29l8.5.874C1620.615,1324.9268,1619.6118,1339.8836,1618.5281,1354.7529ZM112.7628,1288.8693c-2.463-14.5636-4.8063-29.289-6.9655-43.769L114.17,1243c2.1455,14.3894,4.4747,29.025,6.9221,43.4978Zm1511.1938-23.09-8.51-.6988c.7218-14.8034,1.3552-29.7362,1.881-44.3812l8.5177.5152C1625.3167,1235.9213,1624.6818,1250.9147,1623.9566,1265.78Zm-1524.27-64.6653c-1.8964-14.7421-3.652-29.607-5.2179-44.1841l8.4454-1.5269c1.5559,14.4791,3.3,29.2451,5.1832,43.89Zm1527.4608-24.5049-8.5242-.3213c.3328-14.8691.5619-29.8176.6817-44.43l8.5273.1169C1627.7115,1146.6551,1627.4816,1161.6724,1627.1472,1176.6094ZM90.1891,1112.5676c-1.2713-14.89-2.3778-29.8656-3.2889-44.5105l8.4995-.8907c.9049,14.5364,2.0029,29.4015,3.265,44.1831ZM1619.34,1087.4244c-.1-14.8806-.3183-29.8239-.6479-44.4166l8.5242-.3234c.33,14.6679.55,29.6873.6511,44.6431ZM84.6642,1023.43c-.5656-14.9778-.9406-30.0148-1.1149-44.6952l8.5265-.1711c.1724,14.5574.5447,29.47,1.1053,44.325Zm1532.6573-24.7991c-.5852-14.8609-1.3055-29.7717-2.139-44.3186l8.5032-.8209c.8393,14.6314,1.5627,29.6289,2.152,44.5743ZM92.1566,934.2218l-8.5257-.2274c.2375-15.0173.6952-30.06,1.3613-44.7066l8.5129.6507C92.8451,904.4458,92.3913,919.3442,92.1566,934.2218Zm1520.0676-24.14c-1.139-14.8577-2.4292-29.6978-3.8336-44.1081l8.46-1.3876c1.4141,14.5068,2.7123,29.4457,3.8594,44.4ZM96.2089,845.7727l-8.4848-1.1055c1.1584-14.9611,2.57-29.9142,4.1974-44.4449l8.4389,1.59C98.751,816.1829,97.3544,830.9733,96.2089,845.7727Zm1507.4076-23.7379c-1.7741-14.7643-3.7218-29.4729-5.7886-43.7169l8.3794-2.0473c2.0845,14.3577,4.0474,29.1815,5.8353,44.06ZM595.1046,820.4735c-11.849-2.4238-20.42-9.4216-32.2919-21.5064l5.39-8.5731c10.4006,10.5589,17.9125,16.8931,27.8105,19.0786ZM624.69,794.1513l-7.594-5.0317C621,779.2024,624.45,765.44,627.3528,748.2155l8.33,2.3623C632.5819,768.9852,628.9857,783.238,624.69,794.1513Zm-86.9038-26.9146c-6.7931-9.8147-14.0527-21.11-22.1935-34.5323l6.701-6.8417c8.0259,13.2319,15.1689,24.3475,21.8373,33.9822Zm-431.73-9.0735-8.3713-2.1079c2.2089-14.7664,4.7086-29.4907,7.4292-43.7638l8.2783,2.6564C110.7057,729.04,108.2375,743.58,106.0561,758.1632Zm1484.88-23.2749c-2.5249-14.6121-5.2493-29.098-8.0965-43.0556l8.2444-2.8306c2.8746,14.0928,5.6238,28.7173,8.172,43.4666ZM641.4208,706.0526l-8.4575-1.4121c1.3095-13.2058,2.4836-27.6666,3.5881-44.21l8.4956.9553C643.932,678.0831,642.7459,692.6936,641.4208,706.0526ZM494.7072,697.06c-6.9318-12.1451-14.1211-24.9831-20.316-36.0623l6.9028-6.4964c6.1828,11.0583,13.3576,23.87,20.2665,35.9751Zm624.307-.91c-6.6407,0-13.1568-2.5738-19.3659-7.65l4.5467-9.36c9.3277,7.64,18.5038,7.6565,28.4117,1.5635l3.6688,9.9866C1130.4169,694.3133,1124.61,696.15,1119.0142,696.15ZM122.4626,672.313l-8.1548-3.2353c3.3883-14.3747,7.1053-28.6714,11.0487-42.4929l7.9968,3.84C129.467,644.0477,125.8031,658.141,122.4626,672.313ZM1164.16,661.7658l-6.2652-7.5051A372.7249,372.7249,0,0,0,1179.0836,620l6.9083,6.4872A383.364,383.364,0,0,1,1164.16,661.7658Zm-88.7583-7.6073a382.7638,382.7638,0,0,1-16.7187-39.7647l7.7074-4.7328a370.6943,370.6943,0,0,0,16.1672,38.48Zm498.0163-4.8986c-3.4349-14.3348-7.1-28.4457-10.8947-41.9413l8.0113-3.7912c3.8408,13.662,7.5507,27.9436,11.0265,42.4482ZM454.1825,624.9291c-7.8019-13.8331-14.3035-25.19-20.462-35.74l6.7983-6.6789c6.1869,10.5994,12.7151,22.0025,20.5456,35.8861Zm193.43-8.2226-8.51-.7143c.6463-12.9622,1.3043-27.5305,2.01-44.5387l8.515.5954C648.92,589.0968,648.2608,603.7042,647.6125,616.7065Zm-501.477-27.2347-7.8015-4.4669q7.0216-20.6325,14.97-40.47l7.5615,5.1147Q153.0418,569.1426,146.1355,589.4718Zm1059.3918-.0027-7.1254-6.0788c6.06-11.9524,12.3194-24.6169,18.6552-37.41l7.1737,5.9806C1217.88,564.7873,1211.6136,577.4622,1205.5273,589.4691Zm-160.5712-16.3617c-3.8626-12.5694-7.8538-26.283-12.2019-41.9245l8.021-3.7536c4.3167,15.5248,8.2749,29.1262,12.1021,41.581Zm505.0227-6.9c-4.5844-13.8549-9.4341-27.3136-14.414-40.002l7.6-5.02c5.0635,12.9022,9.9928,26.5814,14.65,40.6569ZM412.6663,554.1327c-7.7376-12.461-14.94-23.5516-22.0187-33.9059l6.38-7.3413c7.1688,10.4863,14.4566,21.7078,22.28,34.3065Zm238.7363-26.7122-8.5168-.557c.5746-14.7805,1.1452-29.5685,1.7539-44.6164l8.5157.58C652.547,497.8668,651.9761,512.6474,651.4026,527.4205Zm591.5237-12.8255-7.1143-6.1c7.1246-13.9863,13.4969-26.0854,19.4816-36.9873l6.9454,6.4177C1256.3129,488.7211,1249.9954,500.716,1242.9263,514.595ZM177.7771,511.4723l-7.1873-5.9541a353.6313,353.6313,0,0,1,20.5354-36.5493l6.5145,7.139A342.2737,342.2737,0,0,0,177.7771,511.4723Zm843.5913-22.5077c-3.9109-14.8681-7.7477-29.7445-10.9848-42.336l8.0892-3.5006c3.2331,12.5737,7.0636,27.4268,10.9664,42.263ZM367.2018,488.19a334.1906,334.1906,0,0,0-25.4711-28.9067l5.2-8.7679A343.9183,343.9183,0,0,1,373.15,480.2629Zm1151.8067-.473c-6.11-12.936-12.517-25.1708-19.0419-36.3641l6.8007-6.6739c6.6921,11.48,13.2573,24.0154,19.5113,37.257ZM221.5574,446.0087l-5.1721-8.7963c10.1834-10.0784,20.782-17.3466,31.5009-21.6023l2.4953,10.5795C240.6322,430.06,230.9344,436.728,221.5574,446.0087Zm1061.2491-3.384-6.6245-6.9658c7.9967-12.8021,15.5748-23.818,23.1666-33.6769l6.0321,7.8188C1298,419.3865,1290.6161,430.1235,1282.8065,442.6247Zm-627.74-4.35-8.512-.6581c.7383-16.0812,1.4715-30.6849,2.2412-44.6456l8.5056.7894C656.5337,407.6769,655.8027,422.238,655.0662,438.2747ZM313.538,435.9583c-10.6407-6.87-21.1069-11.2549-31.1078-13.0326l1.1575-10.9613c10.9217,1.942,22.2767,6.6817,33.7494,14.0891ZM1478.03,418.0745a228.22,228.22,0,0,0-25.2638-28.6282l5.0209-8.9427a237.9057,237.9057,0,0,1,26.3458,29.8432Zm-478.5236-13.78c-4.242-16.4607-7.7379-29.8823-11.0016-42.239l8.0659-3.5867c3.2717,12.3833,6.7741,25.83,11.0225,42.3173ZM1330.9017,381.56l-4.8875-9.0653c10.4872-9.5189,21.08-16.5687,31.484-20.9526l2.6334,10.5222C1350.5319,366.11,1340.6975,372.67,1330.9017,381.56Zm93.0437-13.5536a88.5681,88.5681,0,0,0-31.7742-10.6317l.7926-11.0156a95.55,95.55,0,0,1,34.2951,11.4536ZM660.0289,349.3433l-8.494-.9789c1.0627-15.5226,2.2187-30.5138,3.4361-44.5575l8.4744,1.2369C662.2351,319.002,661.0856,333.9062,660.0289,349.3433Zm317.13-29.3672c-4.12-14.9218-8.0031-28.5619-11.8714-41.6988l7.9663-3.9475c3.8891,13.2093,7.7918,26.92,11.9325,41.9147Zm-309.3725-59.047-8.44-1.5822c1.7247-15.49,3.6207-30.386,5.6351-44.2749l8.38,2.0451C671.37,230.8531,669.494,245.5931,667.7866,260.9291ZM952.62,236.97c-4.5819-14.2993-9.2-27.9805-13.7283-40.6633l7.738-4.6494c4.5748,12.8146,9.24,26.6315,13.865,41.0657ZM680.6034,173.8242l-8.2734-2.6813c2.9744-15.449,6.2533-30.0007,9.7456-43.2517l8.0684,3.5793C686.73,144.4269,683.5194,158.6766,680.6034,173.8242Zm243.144-17.2231c-5.6086-13.7041-11.3377-26.5694-17.0282-38.2377l7.2058-5.9157c5.8055,11.9047,11.6439,25.014,17.3545,38.9649ZM702.9507,90.9371l-7.6467-4.8965A238.1955,238.1955,0,0,1,713.7594,47.358l6.6987,6.8458A226.2926,226.2926,0,0,0,702.9507,90.9371ZM887.1748,82.481a256.4723,256.4723,0,0,0-22.8577-31.9067l5.72-8.2058a266.9559,266.9559,0,0,1,23.804,33.2134ZM744.2487,25.5286l-4.5972-9.3181A74.3839,74.3839,0,0,1,772.7312,0l1.2981,10.9343A66.9706,66.9706,0,0,0,744.2487,25.5286Zm93.1635-.0067a88.6712,88.6712,0,0,0-30.7545-14.1173L808.1529.5121a95.9983,95.9983,0,0,1,33.3059,15.2713Z" style="fill:#dce6ff"/><path d="M1602.433,1426.1628c-65.1-5.8107-54.4771,46.6879-147.2731,46.6879-84.8429,0-82.5116-117.6567-139.2876-142.6622-104.556-46.049-190.754,187.0092-231.29,70.0423-76.989-310.3638-301.5321-466.009-405.122,0-40.5359,116.9669-135.3294-91.7434-231.29-70.0423-59.0676,13.358-54.4448,142.6622-139.2878,142.6622-92.7961,0-82.1728-52.4986-147.2731-46.6879-70.0913,6.2565-91.0266,99.1782-91.0266,99.1782H1693.46S1672.5244,1432.4193,1602.433,1426.1628Z" style="fill:#dce6ff"/><path d="M1.312,1525.341s-12.3764,48.1587,38.8959,60.2163c70.13,16.4922,481.7852,59.8233,381.78,92.7505-56.4532,18.5874,28.8188,43.8269,303.7873,53.1208s746.7931-27.1216,588.1255-81.0021,487.7868-13.0112,448.4094-125.0855Z" style="fill:#cfddf9"/></g><g id="_2" data-name="2"><path d="M1529.1658,794.18l-5.7734-.0562a146.2329,146.2329,0,0,0-1.5137-18.7563l5.7227-.7783A148.4356,148.4356,0,0,1,1529.1658,794.18Z" style="fill:#8a9edd"/><path d="M1513.19,737.6533a206.8577,206.8577,0,0,0-15.3662-35.5078l5.0567-2.7871a212.5349,212.5349,0,0,1,15.7978,36.501Zm-37.3017-67.2924a188.1336,188.1336,0,0,0-27.9512-26.6123l3.5332-4.5674a193.871,193.871,0,0,1,28.8106,27.4316ZM1415.2166,623.2a237.3016,237.3016,0,0,0-35.9267-14.4565l1.7226-5.5112a243.0789,243.0789,0,0,1,36.8037,14.8115Zm-73.7012-23.4428a362.6348,362.6348,0,0,0-38.6679-4.3868l.3515-5.7636a368.3125,368.3125,0,0,1,39.2871,4.458Z" style="fill:#8a9edd"/><path d="M1244.5731,595.6055l-.3614-5.7627c6.5088-.4087,13.0147-.7,19.335-.8652l.15,5.7724C1257.4471,594.9141,1251.0125,595.2017,1244.5731,595.6055Z" style="fill:#8a9edd"/><path d="M213.2337,825.5171a145.3163,145.3163,0,0,1-17.2144-9.5l3.2393-4.78a142.8185,142.8185,0,0,0,16.4731,9.0738Z" style="fill:#8a9edd"/><path d="M286.4324,845.482a204.0715,204.0715,0,0,1-37.5161-6.6558l1.5283-5.5684a198.3258,198.3258,0,0,0,36.4517,6.4683Zm38.1275-.7691-.7071-5.7314a179.22,179.22,0,0,0,36.002-8.3033l1.8691,5.4639A185.0472,185.0472,0,0,1,324.56,844.7129Zm71.8364-24.375-2.8789-5.0058A226.1416,226.1416,0,0,0,423.9837,794.18l3.6611,4.4658A232.0168,232.0168,0,0,1,396.3963,820.3379Z" style="fill:#8a9edd"/><path d="M455.3069,772.5332l-4.2285-3.9326c4.232-4.5508,8.4615-9.3789,12.5718-14.3506l4.45,3.68C463.9192,762.9873,459.6151,767.9,455.3069,772.5332Z" style="fill:#8a9edd"/><path d="M200.3416,430.6612l-5.4043-2.0342c.1055-.2813,2.6509-7.0064,8.0034-17.813l5.1748,2.5635C202.9046,423.8975,200.3665,430.5948,200.3416,430.6612Z" style="fill:#8a9edd"/><path d="M557.0442,503.1079l-5.7587-.4248c.624-8.4511.94-17.229.94-26.0893,0-3.38-.0469-6.8076-.1377-10.1865l5.7725-.1553c.0922,3.43.1391,6.91.14,10.3413C558,485.5957,557.6785,494.5161,557.0442,503.1079Zm-7.6474-72.9262a350.3978,350.3978,0,0,0-6.2339-35.7578l5.6279-1.294a356.0552,356.0552,0,0,1,6.3374,36.35ZM225.9993,381.85l-4.86-3.1172a330.4363,330.4363,0,0,1,21.61-29.9184l4.4815,3.6416A324.7753,324.7753,0,0,0,225.9993,381.85Zm306.92-22.1582a215.0882,215.0882,0,0,0-15.1221-32.74l5.0068-2.877a220.8522,220.8522,0,0,1,15.5342,33.6221ZM271.7547,325.8164l-3.9883-4.1758a257.1881,257.1881,0,0,1,28.4771-23.5839l3.3447,4.707A251.4033,251.4033,0,0,0,271.7547,325.8164Zm224.8721-27.749a113.5126,113.5126,0,0,0-27.9737-21.8389l2.7686-5.0673a119.2772,119.2772,0,0,1,29.4033,22.9414ZM330.5652,284.2793l-2.539-5.1865a213.628,213.628,0,0,1,34.54-13.35l1.6026,5.5479A207.8114,207.8114,0,0,0,330.5652,284.2793Zm104.6075-19.4477a124.6512,124.6512,0,0,0-29.961-1.0244c-1.8979.1547-3.8144.3364-5.6958.54l-.6211-5.7412c1.9317-.209,3.899-.3955,5.8477-.5542a130.6,130.6,0,0,1,31.35,1.0786Z" style="fill:#8a9edd"/><path d="M546.8626,558.7447l-5.4639-1.8672a160.4832,160.4832,0,0,0,4.9434-18.2369l5.6475,1.2061A166.1732,166.1732,0,0,1,546.8626,558.7447Z" style="fill:#8a9edd"/><path d="M547.5086,1051.1592a188.8471,188.8471,0,0,1-18.6934-5.7832l2.0918-5.3828a186.6833,186.6833,0,0,0,18.0684,5.58Z" style="fill:#8a9edd"/><path d="M618.3382,1060.4063a273.2976,273.2976,0,0,1-30.5523-1.7481l.6485-5.7383a262.43,262.43,0,0,0,40.081,1.504l.2364,5.77C625.3109,1060.334,621.8069,1060.4063,618.3382,1060.4063Zm51.1313-5.4444-1.2548-5.6367a198.5025,198.5025,0,0,0,37.9267-12.5l2.36,5.27A204.2557,204.2557,0,0,1,669.47,1054.9619Zm74.565-33.5488-3.416-4.6562a200.5909,200.5909,0,0,0,29.624-26.7725l4.2725,3.8848A206.4322,206.4322,0,0,1,744.0345,1021.4131Z" style="fill:#8a9edd"/><path d="M799.3567,961.1426l-4.874-3.0977c3.335-5.248,6.5767-10.7753,9.6358-16.4257l5.0781,2.748C806.074,950.1367,802.7635,955.78,799.3567,961.1426Z" style="fill:#8a9edd"/><path d="M1008.1824,873.94l-1.1787-5.6524A157.4366,157.4366,0,0,1,1026.49,865.92l.3984,5.76A155.6773,155.6773,0,0,0,1008.1824,873.94Z" style="fill:#8a9edd"/><path d="M1217.1942,954.7823a228.8718,228.8718,0,0,0-24.3614-26.542l3.9258-4.2344a234.7093,234.7093,0,0,1,24.9805,27.2139ZM1164.47,906.0889a209.2,209.2,0,0,0-31.7461-16.9473l2.2715-5.3086a215.0014,215.0014,0,0,1,32.625,17.416Zm-65.9277-28.3027a234.544,234.544,0,0,0-35.5976-5.7813l.4882-5.7539a240.1791,240.1791,0,0,1,36.4766,5.9258Z" style="fill:#8a9edd"/><path d="M1246.4393,1001.542c-2.8623-5.7607-5.8975-11.4092-9.0205-16.79l4.9941-2.8985c3.1855,5.4873,6.2793,11.2471,9.1982,17.1182Z" style="fill:#8a9edd"/><path d="M1449.9432,409.7432c-.0147-.07-1.5381-7.0908-5.2022-18.2036l5.4844-1.8076c3.77,11.4375,5.3008,18.5048,5.3643,18.8Z" style="fill:#8a9edd"/><path d="M1428.5779,352.2056a284.272,284.272,0,0,0-21.6054-36.6157l4.7324-3.3076a290.118,290.118,0,0,1,22.0488,37.3608Zm-48.7705-69.1919a210.9377,210.9377,0,0,0-32.7129-26.834l3.1856-4.8164a216.742,216.742,0,0,1,33.6113,27.5693Zm-70.2412-46.2427a207.04,207.04,0,0,0-40.7978-11.0918l.9472-5.6963a212.74,212.74,0,0,1,41.9366,11.4043Z" style="fill:#8a9edd"/><path d="M1207.408,223.4844l-.4687-5.7559c6.5429-.5327,13.0781-.8442,19.4218-.9253l.0743,5.7745C1220.2215,222.6568,1213.82,222.9619,1207.408,223.4844Z" style="fill:#8a9edd"/><path d="M1180.2625,250.708l-3.6621-4.4638a177.41,177.41,0,0,1,15.6982-11.7115l3.0967,4.8736A175.7351,175.7351,0,0,0,1180.2625,250.708Z" style="fill:#8a9edd"/><path d="M1128.5965,530.1372a300.17,300.17,0,0,1-18.06-35.1767l5.3067-2.2783a294.2626,294.2626,0,0,0,17.7119,34.496Zm-30.7354-72.7138a202.2983,202.2983,0,0,1-5.6943-39.2823l5.77-.249a196.3361,196.3361,0,0,0,5.5342,38.1572Zm2.53-77.9419-5.6894-.9893A189.7187,189.7187,0,0,1,1105.6268,340.3l5.3574,2.1553A183.89,183.89,0,0,0,1100.3914,379.4815Zm28.37-71.2862-4.8613-3.1172a245.1972,245.1972,0,0,1,24.0859-31.4682l4.293,3.8623A239.3916,239.3916,0,0,0,1128.7615,308.1953Z" style="fill:#8a9edd"/><path d="M1162.6209,578.1734c-4.1455-5.0635-8.167-10.1929-11.9521-15.2461l4.6211-3.4619c3.7363,4.9868,7.706,10.05,11.8,15.05Z" style="fill:#8a9edd"/><path d="M859.5442,297.2a180.9842,180.9842,0,0,0-16.353-9.4692l2.5127-5.1987a182.3071,182.3071,0,0,1,16.9468,9.8007Z" style="fill:#8a9edd"/><path d="M984.6639,734.8218l-5.4805-1.8164c4.3682-13.1831,8.2744-26.3814,11.6084-39.228l5.59,1.45C993.0154,708.1973,989.0731,721.5186,984.6639,734.8218Zm20.6123-79.9414-5.6836-1.0244c2.459-13.6343,4.3242-27.25,5.5439-40.4678l5.75.5308C1009.6512,627.3018,1007.7635,641.083,1005.2762,654.88Zm1.6621-82.2627a375.55,375.55,0,0,0-2.418-40.69l5.7364-.6616a380.9306,380.9306,0,0,1,2.455,41.3179Zm-9.4551-80.8052a323.4128,323.4128,0,0,0-11.9014-38.93l5.4043-2.0361a329.22,329.22,0,0,1,12.1143,39.627Zm-28.6846-76.01a316.9334,316.9334,0,0,0-21.44-34.6065l4.7031-3.3506a322.912,322.912,0,0,1,21.833,35.2393Zm-47.122-66.2149a329.7788,329.7788,0,0,0-29.4229-28.1792l3.7285-4.41a335.682,335.682,0,0,1,29.9385,28.6743Z" style="fill:#8a9edd"/><path d="M963.15,791.5254l-5.3125-2.2627c2.5195-5.9179,4.9756-11.8862,7.3-17.7388l5.3672,2.1309C968.1629,779.5513,965.6893,785.564,963.15,791.5254Z" style="fill:#8a9edd"/><path d="M539.7825,623.3579a113.0045,113.0045,0,0,1-3.3134-19.5l5.7675-.2773-2.8838.1387,2.8838-.1412a110.0159,110.0159,0,0,0,3.1543,18.4053Z" style="fill:#8a9edd"/><path d="M689.9192,787.0874a373.5068,373.5068,0,0,1-33.5927-17.9946l2.99-4.94a367.8091,367.8091,0,0,0,33.0713,17.7144Zm-65.0214-39.623A278.5615,278.5615,0,0,1,596.47,721.9507l4.1494-4.0156a272.8737,272.8737,0,0,0,27.837,24.9824ZM572.0457,692.521A222.7087,222.7087,0,0,1,552.7313,659.46l5.2226-2.4639a216.91,216.91,0,0,0,18.813,32.2Z" style="fill:#8a9edd"/><path d="M743.3792,808.1787c-6.1958-2.0175-12.35-4.1548-18.29-6.3515l2.0029-5.416c5.87,2.1709,11.9517,4.2827,18.0757,6.2773Z" style="fill:#8a9edd"/><path d="M821.9868,431.2015c-2.5819,31.2575-49.1285,28.2068-47.6111-3.1163C776.9576,396.8287,823.5042,399.8793,821.9868,431.2015Z" style="fill:#eb5648"/><path d="M744.67,218.1356c-5.6129-58.9252,49.2415-102.6579,105.74-85.8071,74.0116,23.5785,67.8783,124.4194,13.462,165.986-25.5483,17.4473-52.5957,51.2083-56.9445,78.5424-3.142,16.0728-16.0326,12.1524-17.9621-3.1257-3.511-69.6874,36.7529-79.91,62.8729-128.8523,29.1645-81.7677-66.4692-87.3781-95.43-24.6813C753.5487,225.4926,745.0834,224.4086,744.67,218.1356Z" style="fill:#eb5648"/><path d="M484.25,758.9286c-4.1438,24.09-40.0715,18.536-36.75-5.678C451.6441,729.1612,487.5719,734.7153,484.25,758.9286Z" style="fill:#fcb4b4"/><path d="M438.8079,588.2224c-.3247-46.1309,45.2547-76.3285,87.9644-59.38,55.8455,23.3707,44.1821,101.2391-.909,129.7851-21.0289,11.7968-44.3377,36.1559-49.5848,57.0793-3.5392,12.2631-13.2786,8.3372-13.7309-3.6561,2.0438-54.3423,34.0025-59.5228,57.63-95.7317,28.2384-61.4855-45.6242-72.3848-72.3978-25.6928C445.1971,594.5418,438.6992,593.1207,438.8079,588.2224Z" style="fill:#fcb4b4"/><path d="M468.8272,1214.7534c-4.8034,27.9244-46.45,21.4863-42.5991-6.5817C431.0314,1180.2481,472.6776,1186.6862,468.8272,1214.7534Z" style="fill:#3a72aa"/><path d="M416.1521,1016.8766c-.3764-53.4734,52.4578-88.4775,101.9654-68.8308,64.7342,27.0905,51.2144,117.3529-1.0538,150.4426-24.3759,13.6743-51.3946,41.9107-57.4769,66.1644-4.1026,14.2149-15.3922,9.6642-15.9164-4.2381,2.369-62.9917,39.4145-68.9968,66.8032-110.969,32.733-71.2719-52.8859-83.906-83.921-29.7822C423.5583,1024.2017,416.0261,1022.5545,416.1521,1016.8766Z" style="fill:#3a72aa"/><path d="M1272.7375,1249.9953c.3887,27.6614-40.7355,28.9376-42.0644,1.3088C1230.2845,1223.6435,1271.4087,1222.3674,1272.7375,1249.9953Z" style="fill:#eb5648"/><path d="M1186.7575,1069.5048c-9.9338-51.2558,34.51-94.31,85.5436-84.3165,66.9808,14.4128,70.163,103.4661,25.92,144.582-20.9478,17.4881-41.8254,49.4259-43.3213,73.7931-1.3929,14.3778-13.0432,12.0311-16.0351-1.2183-9.0027-60.8829,25.4782-73.2783,44.2519-118.4658,18.6581-74.2657-65.78-71.0647-85.878-13.5615C1195.1772,1075.21,1187.653,1074.9769,1186.7575,1069.5048Z" style="fill:#eb5648"/><path d="M1193.6775,301.6569c-3.2309,18.7825-31.243,14.4521-28.653-4.427C1168.2553,278.4479,1196.2674,282.7783,1193.6775,301.6569Z" style="fill:#eb5648"/><path d="M1158.2471,168.5608c-.2531-35.9673,35.2842-59.5118,68.5841-46.297,43.5415,18.2217,34.4478,78.934-.7088,101.1908-16.3958,9.1977-34.5691,28.19-38.66,44.5036-2.7595,9.5612-10.3531,6.5-10.7057-2.8506,1.5935-42.37,26.511-46.4088,44.9333-74.64,22.0169-47.9389-35.5722-56.4369-56.4471-20.0321C1163.2287,173.4879,1158.1624,172.38,1158.2471,168.5608Z" style="fill:#eb5648"/><path d="M157.0933,578.5576c-3.2309,18.7825-31.243,14.4522-28.653-4.427C131.6711,555.3486,159.6832,559.679,157.0933,578.5576Z" style="fill:#3a72aa"/><path d="M121.6629,445.4616c-.2531-35.9673,35.2842-59.5118,68.5841-46.297,43.5415,18.2216,34.4478,78.934-.7088,101.1907-16.3958,9.1977-34.5691,28.19-38.66,44.5036-2.7595,9.5613-10.3531,6.5-10.7057-2.8506,1.5934-42.3695,26.511-46.4087,44.9332-74.64,22.0169-47.9389-35.5721-56.4369-56.447-20.0321C126.6445,450.3886,121.5782,449.2806,121.6629,445.4616Z" style="fill:#3a72aa"/><path d="M210.1566,926.32c6.3835,16.5272-18.0322,26.437-24.9732,10.1384C178.8,919.9314,203.2159,910.0217,210.1566,926.32Z" style="fill:#eb5648"/><path d="M118.3869,837.032c-17.3622-28.5761-.2417-64.3164,32.6318-69.6605,43.4337-6.2358,65.1446,46.5428,47.7134,81.0741-8.6932,15.161-14.1316,38.9849-9.6123,53.9527,2.36,8.9451-5.159,10.1259-9.9017,2.8334-18.9435-34.5652-.99-49.6763.239-80.99-5.3057-48.753-55.3081-28.0569-54.5943,10.9485C124.7123,838.5863,120.1415,840.12,118.3869,837.032Z" style="fill:#eb5648"/><path d="M1532.9364,552.7417c6.3835,16.5273-18.0323,26.4371-24.9732,10.1385C1501.58,546.3534,1525.9956,536.4436,1532.9364,552.7417Z" style="fill:#fcb4b4"/><path d="M1441.1667,463.454c-17.3623-28.5761-.2417-64.3164,32.6317-69.6606,43.4338-6.2357,65.1447,46.5429,47.7135,81.0742-8.6932,15.161-14.1316,38.9849-9.6124,53.9527,2.36,8.9451-5.1589,10.1259-9.9016,2.8334-18.9436-34.5652-.99-49.6763.239-80.99-5.3057-48.753-55.3082-28.0569-54.5943,10.9485C1447.492,465.0083,1442.9212,466.5415,1441.1667,463.454Z" style="fill:#fcb4b4"/><path d="M439.451,308.4952c6.3836,16.5273-18.0322,26.4371-24.9732,10.1384C408.0945,302.1068,432.51,292.1971,439.451,308.4952Z" style="fill:#9358e0"/><path d="M347.6814,219.2074c-17.3623-28.5761-.2418-64.3164,32.6317-69.6605,43.4337-6.2357,65.1446,46.5429,47.7135,81.0742-8.6933,15.161-14.1316,38.9848-9.6124,53.9526,2.36,8.9451-5.1589,10.1259-9.9017,2.8334-18.9435-34.5651-.99-49.6762.239-80.99-5.3057-48.7529-55.3081-28.0569-54.5943,10.9486C354.0067,220.7618,349.4359,222.2949,347.6814,219.2074Z" style="fill:#9358e0"/><path d="M1236.8418,776.7883c3.399,24.2064-32.5113,29.872-36.731,5.7982C1196.7119,758.3808,1232.6223,752.7153,1236.8418,776.7883Z" style="fill:#9358e0"/><path d="M1141.5119,628.0678c-14.3754-43.835,19.8256-86.4927,65.6695-83.3739,60.3121,5.2294,72.9478,82.9459,38.7082,123.8817-16.43,17.6471-31.2015,47.9536-29.8188,69.4805.3686,12.7583-10.1041,11.9891-14.1918.7048-14.6236-52.3775,14.2335-67.0563,25.6955-108.7455,8.1455-67.1678-65.523-55.0259-76.7844-2.3937C1149.5238,632.138,1142.902,632.7659,1141.5119,628.0678Z" style="fill:#9358e0"/><path d="M1480.1107,960.992c-4.19,19.6028-33.4461,13.867-29.9256-5.8645C1454.3749,935.5252,1483.6311,941.2612,1480.1107,960.992Z" style="fill:#3a72aa"/><path d="M1448.5049,819.6163c1.2553-37.8105,39.5991-61.0514,74.0366-45.7548,44.9892,20.9917,32.8642,84.4127-5.0251,106.3163-17.62,8.9728-37.5227,28.1641-42.5123,45.1357-3.3045,9.9317-11.1555,6.3936-11.1305-3.4486,3.4668-44.4609,29.8247-47.6519,50.38-76.5423,25.1663-49.45-34.9974-60.8169-58.4757-23.44C1453.5319,825.0051,1448.2543,823.6263,1448.5049,819.6163Z" style="fill:#3a72aa"/></g><g id="_1" data-name="1"><path d="M864.9607,723.3854c-.409-3.0669-.6616-6.3864-.7941-9.85-.794-20.0244,2.3221-44.8476,3.9461-54.1323.4451-2.5134.77-3.8844.89-3.7163q.2166-.8836.5054-1.7317a18.88,18.88,0,0,1,11.9946-12.6281h.0119a22.7262,22.7262,0,0,1,22.9781,5.5084c.1207.12.229.2524.337.3726a18.7678,18.7678,0,0,1,4.7042,15.9837c-.0481.3005-.0844.6133-.1446.914-.0723.4209-.1561.83-.2524,1.2387-.9628-.6373-3.6575,25.4607-3.6814,44.4029a82.8355,82.8355,0,0,0,1.0225,15.19C945.3369,736.5908,828.4673,774.9113,864.9607,723.3854Z" style="fill:#f99370"/><path d="M824.5913,743.1709c-27.8354,36.2488-40.61,78.2866-68.9446,112.5717-1.9537,1.7172,15.1971-84.9648,23.15-134.4465,5.8718-15.5624-10.1408-20.441-10.1408-20.441-54.6,38.9653-132.8167,191.0513-27.2036,223.54,77.62,17.5258,113.18-84.3118,149.9181-133.2262C921.1524,747.637,856.31,701.1322,824.5913,743.1709Z" style="fill:#f99370"/><path d="M679.1045,875.8856c.6842,24.1838,17.36,59.93,63.8292,59.93h.154c26.5956-.0681,46.2472-19.0016,61.0416-45.8708,27.9124-50.66,38.5337-129.6085,45.7341-163.6612-31.1621,3.4207-73.63,49.9759-86.799,88.3042,3.6258-16.4705,8.791-41.2189,10.8434-58.9379a113.9445,113.9445,0,0,0,.8892-12.6564c-3.2325.1711-21.7211.8723-34.6-15.5467-.5131.6327-3.1813,3.6429-7.1151,8.7054C716.8855,756.9152,679.07,811.9876,679.1045,875.8856Z" style="fill:#1d3f70"/><path d="M835.4449,629.8168s-2.0818-21.52,2.929-37.0926l12.9582,4.6178Z" style="fill:#8e4a35"/><path d="M842.2621,692.6976c21.2611,16.489,63.3592,14.62,76.0739-2.82,47.4416-65.071-45.6925-178.7955-76.4736-75.7381C830.7244,643.8336,807.24,660.7386,842.2621,692.6976Z" style="fill:#f99370"/><path d="M865.3821,633.3719a2.7648,2.7648,0,1,1,3.8319.78A2.7636,2.7636,0,0,1,865.3821,633.3719Z" style="fill:#c16256"/><path d="M841.8413,632.1464a2.7648,2.7648,0,1,1,3.8317.78A2.7636,2.7636,0,0,1,841.8413,632.1464Z" style="fill:#c16256"/><path d="M851.7216,655.1114a11.259,11.259,0,0,0,4.5982-.8723,1.0444,1.0444,0,1,0-.859-1.9039c-3.3624,1.5087-8.4939.33-9.3485-1.1656-.3013-.5274.3826-1.1622,1.01-1.6021,5.524-3.8677,8.2008-15.4724,8.3113-15.9643a1.0475,1.0475,0,0,0-.79-1.25,1.062,1.062,0,0,0-1.2511.79c-.0253.1113-2.6074,11.308-7.47,14.711-2.652,1.8555-2.0216,3.6625-1.6281,4.3512C845.32,654.0077,848.5232,655.0983,851.7216,655.1114Z" style="fill:#c16256"/><path d="M844.4479,606.4194c14.2711-9.6282,41.4625-4.9141,54.8985-6.5713,0,0-.23,23.0211,24.509,36.5753,4.3162,20.6512,8.786,29.3714-9.7375,57.28h.0075a41.86,41.86,0,0,0,4.2106-3.8259l.0225,0C976.9339,615.8706,880.2948,514.213,844.4479,606.4194Z" style="fill:#e57d61"/><path d="M827.8449,563.0142c6.6262-17.8473,30.9408-29.9171,55.213-11.56,18.689,14.1333,36.8793,11.9277,38.4373,28.8839,35.5714,11.5037,23.0371,50.7,23.0371,50.7l-17.1792-.0714c-21.1516-13.47-23.1926-36.5878-23.1926-36.5878l.0046-.004a44.7544,44.7544,0,0,1-13.0055.4708c-12.84-1.7651-31.4762-1.2-44.9548,5.5909S820.4382,582.9625,827.8449,563.0142Z" style="fill:#8e4a35"/><path d="M823.731,668.1457a45.4377,45.4377,0,0,0,.7686,6.8569c3.2634,17.726,16.65,40.02,39.69,39.0793a36.5121,36.5121,0,0,0,5.4175-.627c10.1641-.91,23.7805-3.2837,35.91-8.627,17.3047-7.6191,31.5783-21.2894,28.4768-45.397v-.0033a.3784.3784,0,0,0-.0067-.0606l-2.434-10.42v-.01l-.0236-.091-.27-1.1464v-.0033l-3.9074-16.7281-12.4635-11.3v.01c.1113,2.2416,1.588,6.9715,2.7881,12.814,2.3969,11.6912,3.6815,27.8461-9.3214,37.4709-.1046.0709-.209.1384-.3136.2057-11.1385,7.15-25.274-1.0349-40.4412-7.619-14.1287-6.1288-29.1542-10.8687-43.4989-.536-.0673.3912-.1279.7855-.1785,1.1968v.0034A31.4028,31.4028,0,0,0,823.731,668.1457ZM878.2874,681.84a112.02,112.02,0,0,1-13.1377,1.5373c-12.6218.6675-26.0089-1.3147-31.7568-11.1892,2.1373-17.5168,20.6116-11.6339,33.2471-2.7541C872.5866,673.6137,877.239,678.4582,878.2874,681.84Z" style="fill:#8e4a35"/><path d="M948.5059,644.4367c-.8394,8.9209-7.34,15.605-14.5193,14.93s-12.3191-8.4538-11.48-17.3744,7.34-15.605,14.5191-14.93S949.3451,635.5161,948.5059,644.4367Z" style="fill:#f99370"/><path d="M930.3264,634.7967c.2607-.1382,6.4043-3.3409,10.3954-.4212a6.72,6.72,0,0,1,2.2717,3.2005c.0054.0079.0061.0186.0115.0265.9473,2.5884,1.0059,6.2532.1346,10.9989a1.0505,1.0505,0,0,1-1.0347.8563,1.3416,1.3416,0,0,1-.1854-.0162,1.05,1.05,0,0,1-.84-1.22,23.102,23.102,0,0,0,.2811-8.8029c-5.8883,1.7453-8.0945,8.8765-8.1181,8.953a1.0471,1.0471,0,0,1-1.0061.7479,1.0826,1.0826,0,0,1-.294-.0446,1.0436,1.0436,0,0,1-.7067-1.2966c.1067-.3555,2.5189-8.23,9.4041-10.3342a4.2771,4.2771,0,0,0-1.1507-1.3777c-2.9169-2.1537-8.13.5512-8.1823.579a1.0462,1.0462,0,0,1-.98-1.8487Z" style="fill:#c16256"/><path d="M977.398,929.5671h6.8065c-.1855-1.2508-.2832-1.8914-.2832-1.8914-.28.0844-.5629.1686-.8428.253q-2.4626.7381-4.9489,1.4327C977.8869,929.4323,977.6441,929.5,977.398,929.5671Z" style="fill:#e8c0a6"/><path d="M851.7531,671.2891a.9317.9317,0,0,0,.8556-1.2973c-.1021-.2386-2.593-5.85-10.3864-6.5581a.9319.9319,0,0,0-.1684,1.8562c6.6475.6045,8.7566,5.2425,8.8431,5.44A.935.935,0,0,0,851.7531,671.2891Z" style="fill:#c16256"/><path d="M741.5745,727.4463l33.2225,14.105c.2555-.1353-.4336-14.1388,9.1814-16.82,10.5817-2.9513,20.9771-15.5234,20.7708-16.0652,3.3089,8.4984,19.4486-7.6609,13.9537-10.6849,3.6854-3.4007,1.2039-7.2645-3.4034-9.4976,3.0817-2.9861-.2118-6.5319-4.6467-7.9635a83.4662,83.4662,0,0,1,15.695-6.0909c8.18-2.5282,2.7739-7.2239-2.0664-6.38C784.7613,674.95,768.8813,690.77,741.5745,727.4463Z" style="fill:#f99370"/><path d="M841.3808,622.3984a.9305.9305,0,0,0,.21-.0241,18.3545,18.3545,0,0,0,12.63-9.7778.932.932,0,0,0-1.7144-.7319,16.7955,16.7955,0,0,1-11.3334,8.6931.9322.9322,0,0,0,.2076,1.8407Z" style="fill:#c16256"/><path d="M876.3229,625.3472a.9321.9321,0,0,0,.784-1.4336,19.8943,19.8943,0,0,0-14.0084-7.99.9319.9319,0,0,0-.2311,1.85,18.3709,18.3709,0,0,1,12.6707,7.1472A.9335.9335,0,0,0,876.3229,625.3472Z" style="fill:#c16256"/><path d="M743.0877,935.8151c26.5956-.0681,46.2472-19.0016,61.0416-45.8708l-4.4127-83.5324s-25.7233,52.7808-40.3464,99.9345A77.573,77.573,0,0,1,743.0877,935.8151Z" style="fill:#163356"/><path d="M942.021,1610.8346l1.6685-.87c0,1.1674,1.4442,5.2231,2.6116,5.2231l49.3293,1.0155c1.1674,0,1.8862-2.1983,1.8862-3.3657l4.2074-1.2043c0-7.3875-.6081-10.0651-3.8709-15.7819-12-15.8462,2.33-87.2731,1.91-105.8517,2.9556-5.0935-51.9454-1.0974-52.7131-2.3a2.1166,2.1166,0,0,0-2.1075,2.2829l6.4616,81.4571C953.7353,1590.5591,942.0716,1595.8133,942.021,1610.8346Z" style="fill:#f99370"/><path d="M728.1856,1617.933h98.2585c8.5776-.3438,8.5113-9.0961,6.9307-15.8769-5.41-24.4509,4.1532-80.6011,5.9258-105.7481a7.8111,7.8111,0,0,0-7.7707-8.6072H788.1646a7.8118,7.8118,0,0,0-7.7512,8.7839l7.8874,62.8837c3.0248,29.1049-27.0753,31.5381-46.8813,35.549-7.7732,1.9564-15.9,4.9793-19.6865,10.7861A7.8208,7.8208,0,0,0,728.1856,1617.933Z" style="fill:#f99370"/><path d="M837.1162,1607.74c-.265,4.8172-2.6536,10.3144-8.2344,10.1944H726.9605c-25.4186-7.791,11.78-43.377,57.6812-40.6869,3.625.87,20.5837,3.7692,40.923.9511C836.9739,1577.0251,837.537,1597.7867,837.1162,1607.74Z" style="fill:#103663"/><path d="M993.9083,1617.9341H950.3466c-21.0438-2.39-6.2926-40.41,21.7753-40.6854C1000.3451,1576.9715,1014.9312,1615.5894,993.9083,1617.9341Z" style="fill:#103663"/><path d="M751.2583,1604.14a2.166,2.166,0,0,1-2.0078-1.3527c-3.9582-9.7631-11.199-12.7109-11.2711-12.74-2.6245-.9872-1.0145-5.1,1.5877-4.0289.3668.1444,9.049,3.6759,13.6974,15.1416A2.1774,2.1774,0,0,1,751.2583,1604.14Z" style="fill:#e8c0a6"/><path d="M768.0864,1602.1094a2.1664,2.1664,0,0,1-2.0677-1.5263,29.9753,29.9753,0,0,0-13.3081-16.4152c-2.508-1.2531-.48-5.1783,1.9964-3.8428a34.08,34.08,0,0,1,15.4485,18.9777A2.1758,2.1758,0,0,1,768.0864,1602.1094Z" style="fill:#e8c0a6"/><path d="M787.2385,1599.7546a2.1661,2.1661,0,0,1-2.0452-1.4548,39.0519,39.0519,0,0,0-13.4775-18.0138c-2.354-1.5136.0716-5.1977,2.3923-3.61a42.7645,42.7645,0,0,1,15.1755,20.2007A2.1767,2.1767,0,0,1,787.2385,1599.7546Z" style="fill:#e8c0a6"/><path d="M987.7459,1590.1988c-16.5968-9.3439-31.27,2.922-33.5988-1.2725-1.9422-4.3877,19.7047-10.9612,34.6943-2.7633A2.1791,2.1791,0,0,1,987.7459,1590.1988Z" style="fill:#e8c0a6"/><path d="M719.8285,1607.74H837.1162a26.83,26.83,0,0,1-3.2163,10.1944H726.9605A7.5744,7.5744,0,0,1,719.8285,1607.74Z" style="fill:#0f2e54"/><path d="M993.9083,1617.9341H950.3466a9.653,9.653,0,0,1-9.66-10.1944h62.8831A9.6567,9.6567,0,0,1,993.9083,1617.9341Z" style="fill:#0f2e54"/><path d="M1006.6358,1562.3451s-46.46,11.2855-70.3952-.8411c-12.4592-78.1259-47.0418-295.6592-59.0871-444.7271-.4611,8.692-25.767,359.2443-30.5834,444.7271-16.5261,5.53-49.7537,12.2-68.35-1.1934-8.3526-89.9881-35.1747-386.2578,5.2281-628.2276,0,0,110.72,12.3164,197.1853-13.8118C1004.4343,995.0237,1010.7388,1470.2381,1006.6358,1562.3451Z" style="fill:#3a72aa"/><path d="M796.0949,1552.84c-22.4728-260.0168,4.1066-481.2426,10.76-483.71C811.7339,1070.2481,783.9534,1295.2006,796.0949,1552.84Z" style="fill:#23659b"/><path d="M970.0784,1552.84c-15.4945-266.4368-54.6062-514.8573-49.9913-518.42C926.0292,1034.0659,965.7078,1288.1255,970.0784,1552.84Z" style="fill:#23659b"/><path d="M996.7453,1022.7429q-5.9324,7.2111-12.6377,14.4678s-21.753,4.0914-38.7893-18.5706c69.4269-150.1416-64.44-158.3514-37.8454-291.9578C997.0864,737.2634,1121.75,871.0077,996.7453,1022.7429Z" style="fill:#1d3f70"/><path d="M996.7453,1022.7429q-5.9324,7.2111-12.6377,14.4678s-21.753,4.0914-38.7893-18.5706c2.0325-7.2289,5.064-11.4972,7.1946-17.5383C952.5129,1001.1018,965.48,1016.31,996.7453,1022.7429Z" style="fill:#163356"/><path d="M985.6724,1040.1245c-37.4149,2.2677-55.8993-37.2284-40.7821-27.9792.3822.9945,9.5469,23.725,44.0355,22.225C994.3638,1035.4477,992.1157,1041.3065,985.6724,1040.1245Z" style="fill:#23659b"/><path d="M767.3493,1036.1s6.7628,29.0115,60.8821,43.3205c15.5009,4.0982,24.4586,2.0727,26.7317-8.6743,1.1416-5.3974,4.0876-14.7883,9.505-18.27,0,0,12.109,5.23,16.6782,12.6485,10.0176,16.265,25.1108,1.4875,32.4577-15.5358,9.0876-21.0576,32.1124-38.8976,37.1482-56.56Z" style="fill:#f4d4be"/><path d="M987.8834,1000.2393c-1.7628,3.1167-2.8139,2.6224-4.6165.8148-48.6351-36.3056-66.0213,43.0317-118.41,44.4479-53.3252,5.278-82.9883,8.29-97.5128-9.406-25.358-39.3039,14.9748-214.9988,47.5969-257.5434,14.29-22.1188,36.368-43.6836,50.02-55.1672-.2794,1.1526-5.27,31.4751,41.5175,1.5515,2.3528.9917,18.1825,17.2092,17.2484,24.9534C926.1029,785.462,1010.5,960.28,987.8834,1000.2393Z" style="fill:#1d3f70"/><path d="M959.7434,1011.4112l-10.66-2.2161C991.7,913.2582,941.58,872.7,915.0673,818.648,976.5515,889.7966,985.8437,928.8,959.7434,1011.4112Z" style="fill:#163356"/><path d="M921.8638,729.25c.2532,17.849-45.5365,33.6064-48.1312,33.63l-5.49-16.2408c-7.0463,1.7388-13.2516,11.6039-13.2516,11.6039-19.0041-18.5411-9.8861-29.685-5.1233-31.96,5.5042-2.63,15.104-2.9085,15.0925-2.897-.2821,1.153-1.0248,28.6641,41.5175,1.5515C911.9562,722.4024,921.8638,729.25,921.8638,729.25Z" style="fill:#f4d4be"/><path d="M846.57,1561.504a109.0061,109.0061,0,0,1-14.3427,3.8188s23.3438-347.8853,26.8215-394.3117,18.1046-54.2342,18.1046-54.2342S846.1836,1553.9915,846.57,1561.504Z" style="fill:#23659b"/><path d="M847.49,1544.638c-.6252,10.0356-.9657,16.0364-.92,16.866-16.5261,5.53-49.7537,12.2-68.35-1.1934,0,0-.591-5.512-1.5571-15.6726C776.6632,1544.638,809.2357,1559.6174,847.49,1544.638Z" style="fill:#23659b"/><path d="M1006.6358,1562.3451s-46.46,11.2855-70.3952-.8411c0,0-.9891-6.0463-2.7164-16.866,0,0,32.7254,9.1718,73.674,0C1007.38,1555.185,1006.4882,1561.47,1006.6358,1562.3451Z" style="fill:#23659b"/><path d="M733.0822,736.1517c.1884.2567.3761.513.5816.77,15.29,19.6515,40.244,18.7279,40.244,18.7279a113.9445,113.9445,0,0,0,.8892-12.6564c-3.2325.1711-21.7211.8723-34.6-15.5467C739.6842,728.079,737.016,731.0892,733.0822,736.1517Z" style="fill:#163356"/></g></g></g></svg>