<svg xmlns="http://www.w3.org/2000/svg" viewBox="0 0 2905.2767 1343.3077"><g id="Layer_2" data-name="Layer 2"><g id="_лой_1" data-name="‘лой_1"><path d="M2802.7446,1332.7442c-53.6533,0-163.6,3.8037-164.7666,5.5381H2360.7788l-81.1308-.17h-726.45l-212.1558-.1778H781.75l-233.603-.17H125.707l-2.1-4.1709-.2334-.3476a1.4885,1.4885,0,0,1-.2334-.5176c-.9335-1.39-351.5361-553.3945,227.3306-825.5137,226.49-106.4707,107.1406-319.0713,442.3623-447.86,432.2144-166.0518,550.0171,75.2168,1061.1011,16.8867C2297.813,25.5816,2500.06,186.93,2468.91,426.8922,2454.2769,539.606,2554.74,626.0035,2653.8374,641.5,2927.2359,684.253,2917.44,934.67,2895.09,1118.6573,2881.312,1232.085,2804.6441,1332.7442,2802.7446,1332.7442Z" style="fill:#ebf3fa"/><path d="M1151.2,898.7882a18.5827,18.5827,0,0,0-8.7744-5.5928c-5.2642-1.3223-16.6416-6.8789-15.3188-3.9688s7.6733,6.3506,6.6147,8.4678c0,0-18.0806-5.0283-18.61-1.8525s6.3677,15.3037,14.1119,17.9082c2.5581.86,20.374-2.5615,20.374-2.5615Z" style="fill:#f2a16b"/><path d="M1732.7964,952.3907s-7.0947-7.7314-16.5605-6.5049c-4.8379.6279-11.8321-6.9775-11.4795-2.0381s7.3554,16.3741,9.7382,18.334c4.6758,3.8477,14.959,2.5791,14.959,2.5791l12.6143,7.7744Z" style="fill:#ffb27d"/><path d="M226.8872,742.1876s-52.2246,54.1474-54.6919,74.5273S197.2114,868.91,197.2114,868.91Z" style="fill:#ed7d2b"/><path d="M250.4854,1303.3585s1.8432,28.7217,7.4018,29.1211c.7393.0537,28.187-.0059,28.187-.0059l35.0381-.2793s-.2475-8.4424-10.4936-10.2051-27.4043-8.9228-33.6377-22.4463C270.4229,1285.3165,250.4854,1303.3585,250.4854,1303.3585Z" style="fill:#2358a5"/><path d="M172.4429,1303.5284s1.8432,28.7217,7.4018,29.1211c.7393.0527,28.187-.0059,28.187-.0059l35.0381-.2793s-.2475-8.4423-10.4936-10.205-27.4043-8.9239-33.6377-22.4463C192.38,1285.4864,172.4429,1303.5284,172.4429,1303.5284Z" style="fill:#2358a5"/><path d="M288.62,994.5538s-9.0371,58.63-42.9965,162.7461-38.5206,149.1806-38.5206,149.1806l-36.6752-.9482s-.56-113.7051,15.081-166.0586,2.9907-188.623,2.9907-188.623Z" style="fill:#163560"/><path d="M306.377,953.8057s1.49,88.3184-13.5562,196.795-9.7656,154.498-9.7656,154.498l-36.5967,1.2959s-22.1079-108.4355-15.9551-162.7275-30.3559-186.1885-30.3559-186.1885Z" style="fill:#1c468a"/><path d="M235.0767,747.2755l19.5278,12.7431,28.1709-5.3144c-.395-2.2735-2.2759-11.6992-3.9888-20.2354-.103-.5039-.2065-1.0078-.3037-1.499-1.4668-7.2646-2.7339-13.5039-2.7339-13.5039l-26.3471-11.5566-9.8233-4.3086c.0264.1523.7783,8.0634.8833,9.2177C242.3477,733.3253,235.0767,747.2755,235.0767,747.2755Z" style="fill:#ffb27d"/><path d="M275.5269,740.7364c-.5474-.23-33.959-10.01-37.5835-8.8047s-5.7574,8.2285-5.7574,8.2285L286.8281,752.39S282.5108,743.6583,275.5269,740.7364Z" style="fill:#ed7d2b"/><path d="M186.1006,964.97c5.7158,25.8076,99.917,28.665,124.1465,5.1758,2.7558-2.6777,2.8647-15.1074,1.7871-31.8633-2.1089-32.7363-8.7583-81.9736-9.0679-107.1357a199.2311,199.2311,0,0,0-4.0962-35.8575,291.2547,291.2547,0,0,0-12.041-42.9023s-46.04-14.7744-54.6431-12.2256C190.7383,752.4366,180.3848,939.1632,186.1006,964.97Z" style="fill:#f99746"/><path d="M312.0342,938.2823c-2.1089-32.7363-8.7583-81.9736-9.0679-107.1357a199.2311,199.2311,0,0,0-4.0962-35.8575l-27.6865-4.8242S244.3648,901.047,312.0342,938.2823Z" style="fill:#ed7d2b"/><path d="M296.9478,892.6778a6.5137,6.5137,0,0,0,2.0918,7.5332c3.9682,3.0186,6.5483,7.918,5.6489,11.5049s-9.5772,9.4531-12.5918,8.5166-9.1563-5.6445-8.5-7.5371-4.16-16.583,3.1719-22.2588S296.9478,892.6778,296.9478,892.6778Z" style="fill:#ffb27d"/><path d="M265.6817,745.8077S292.6841,750.8,314.26,782.4483s35.7759,55.1807,31.8393,66.6123-39.9643,51.128-46.19,51.1416-16.2822-4.4931-16.8706-14.6787c0,0,23.7876-39.6,18.7666-45.2959-2.146-2.4336-31.5132-25.9892-35.8955-14.66C258.6587,844.3116,265.6817,745.8077,265.6817,745.8077Z" style="fill:#f99746"/><path d="M242.4385,713.1759c5.8008,9.7793,27.3589,18.1992,36.3481,21.2929-.103-.5039-.2065-1.0078-.3037-1.499-1.4668-7.2646-2.7339-13.5039-2.7339-13.5039l-26.3471-11.5566C243.584,707.8419,240.0449,709.1514,242.4385,713.1759Z" style="fill:#fca56b"/><path d="M285.6675,717.8429s-42.3711,13.3183-50.2588-13.1954-18.6689-42.6518,8.05-52.2763,35.0093-1.0782,39.7944,7.1313S296.4859,713.6954,285.6675,717.8429Z" style="fill:#ffb27d"/><path d="M281.5825,656.95s-2.6367,30.8794-9.0244,29.5527-12.1806-2.3071-11.2256,6.9971,9.8325,20.0322-9.8408,21.7217-48.0708-48.9956-42.686-58.6153C224.3418,628.85,304.0518,623.0821,281.5825,656.95Z" style="fill:#163560"/><path d="M2496.9761,850.6212s-3.6123-5.9639-5.8213-9.2608c-2.209-3.2988-6.6133-7.4092-7.7383-6.3506s3.3819,5.4239,3.1787,6.8789-7.7558-3.4365-8.5713-4.538c-1.6367-2.208-5.9589-4.59-6.4882-1.8125-.5293,2.7793,2.6845,11.5107,4.14,14.0244s7.5508,6.4824,10.92,7.6728,9.1416,3.9688,9.1416,3.9688Z" style="fill:#ffb27d"/><path d="M2650.2007,654.71c-12.8926-6.6879-23.2217-2.4848-23.2217-2.4848-39.4443-4.6318-50.9521,41.3691-50.417,57.1982.5283,15.8262,2.3408,32.8282-15.2754,53.3907-50.8818,59.3974,55.6836,62.0175,55.6836,62.0175.9014-47.457,57.7891-30.1406,55.2959-25.332C2745.1909,817,2679.5171,669.919,2650.2007,654.71Z" style="fill:#163560"/><path d="M2598.3628,855.97a103.89,103.89,0,0,1-10.6094,16.0449c-8.2422,10.3242-20.9521,22.251-36.91,24.6055-7.6211,1.124-15.0762-.5166-21.9278-3.56a.09.09,0,0,0-.0244-.0068c-19.3808-8.6035-33.9531-28.3877-33.9531-28.3877a15.9308,15.9308,0,0,1,2.1738-15.6348s39.1338,8.8018,42.8614,6.9385,25.4677-64.4961,30.6425-72.3672c5.1807-7.87,22.8213-11.957,22.8213-11.957Z" style="fill:#f99746"/><path d="M2587.7534,872.0147c-8.2422,10.3242-20.9521,22.251-36.91,24.6055-7.6211,1.124-15.0762-.5166-21.9278-3.56.7579.0987,20.1143,2.49,27.8291-11.3115,7.87-14.082,16.38-36.4453,28.0713-28.99C2589.8589,855.9757,2589.6362,863.9708,2587.7534,872.0147Z" style="fill:#ed7d2b"/><path d="M2744.3648,1278.4005s11.9414,10.8984,9.6113,18.6406-13.1055,12.9053-14.5615,22.3691-7.2823,14.626-12.5245,14.626H2701.896s-3.8584-6.6592,5.4609-8.667,12.835-13.1279,12.252-23.4521.874-24.09.874-24.09l19.8047-4.5888Z" style="fill:#2358a5"/><path d="M2643.2944,1283.0274s4.2969,46.166-.9462,48.7471l-67.0918-.1377s0-7.7432,10.7763-9.4639,29.7071-8.0293,32.9112-22.082S2643.2944,1283.0274,2643.2944,1283.0274Z" style="fill:#2358a5"/><path d="M2691.106,951.8214c-13.8067-30.9619-22.2549-39.85-20.6416-49.46,1.2-7.1523-3.6553-133.3594-3.6553-133.3594-1.6377-.5068-4.9209-.9619-6.7178-1.36a16.8469,16.8469,0,0,1-12.3008-10.6992c-2.35-6.58-4.2177-16.2979-4.1748-28.4756l-1.7685.3486-29.7363,5.8887s.6757,9.3584.6962,18.1738c0,.0742,0,.1475.001.22a17.1028,17.1028,0,0,1-12.3437,16.5381c-3.7559,1.084-7.0235,2.0117-7.0235,2.0117s-10.92,31.1739-13.0058,63.2,19.8564,45.9385-.1651,109.9375C2559.8286,1010.15,2698.7329,968.9307,2691.106,951.8214Z" style="fill:#ffb27d"/><path d="M2612.1109,734.7042s.6757,9.3584.6962,18.1738c16.6407-.4687,25.4366-15.6484,29.04-24.0625Z" style="fill:#e8945b"/><path d="M2606.5532,743.0518s39.3711.6494,39.3975-23.875,5.1269-40.957-20.0088-42.4087-30.03,7.9009-32.03,16.0845S2596.312,742.2511,2606.5532,743.0518Z" style="fill:#ffb27d"/><path d="M2608.01,676.1671s10.78,28.7724,27.3232,33.0263,23.7188-.1787,23.7188-.1787A46.844,46.844,0,0,1,2643.73,681.338S2616.1421,662.4732,2608.01,676.1671Z" style="fill:#163560"/><path d="M2610.6821,678.503s-7.9931,2.9888-11.2841,8.8179a39.6486,39.6486,0,0,0-5.3213,22.5151s-8.1221-19.5561,1.0049-30.6191C2604.76,667.4864,2610.6821,678.503,2610.6821,678.503Z" style="fill:#163560"/><path d="M2615.12,727.838a9.8947,9.8947,0,0,1-8.1523,3.3174,7.2387,7.2387,0,0,1-6.0664-4.0059S2608.9429,725.2159,2615.12,727.838Z" style="fill:#ebf3fa"/><path d="M2694.9058,824.8311a267.1574,267.1574,0,0,1,0,31.01c-.6651,11.2119-12.0069,26.2305-13.6153,29.9453-4.038,9.3174-8.5918,10.834-8.5918,10.834l-35.2265,8.6338-12.3858,3.0312-39.06-11.665s-17.791-49.6572-10.6465-77.61a214.8394,214.8394,0,0,1,18.0566-47.3642s31.8731,31.208,73.3731-2.6465Z" style="fill:#f99746"/><path d="M2684.5952,860.4171c-.665,11.2129-1.6963,21.6543-3.3047,25.3691-4.038,9.3174-8.5918,10.834-8.5918,10.834l-35.2265,8.6338-15.2988-4.4971s51.0722-7.74,45.414-51.6816Z" style="fill:#f2ccaa"/><path d="M2588.5112,904.1573s-19.3437,60.207-20.5859,80.7061,36.9756,291.2031,38.5137,300.6484c1.4492,8.9033,12.5049,14.5791,12.5049,14.5791a16.7314,16.7314,0,0,0,12.3418.95c10.0693-2.8428,13.2509-6.2471,13.2509-6.2471s15.0567-193.0644,5.7393-262.0312a1092.2108,1092.2108,0,0,1-9.4268-128.6055Z" style="fill:#163560"/><path d="M2670.4644,902.3614S2699.97,941.95,2702.72,968.713s4.3164,120.7666,10.1758,146.8554,27.3916,76.2969,27.3916,157.67c0,0-2.2373,4.664-9.1484,7.1484a75.29,75.29,0,0,1-8.045,2.2246,12.65,12.65,0,0,1-14.1474-6.7148c-14.5567-29.31-60.9258-123.837-63.3027-143.459-1.6827-13.8867-16.3233-105.791-48.2588-159.7188-7.667-12.9463,4.705-64.4336,4.705-64.4336Z" style="fill:#1c468a"/><path d="M2614.2446,728.4942s-.6806,2.89-7.87,2.4444c0,0-6.0371-.3731-5.8515-3.55C2600.523,727.3887,2606.3755,725.129,2614.2446,728.4942Z" style="fill:#fff"/><path d="M2585.4214,894.8624s7.7656,6.1426,23.1914,6.4531c18.4258.3711,64.084-4.6973,64.084-4.6973a37.7465,37.7465,0,0,1,1.9463,11.6534s-55.7637,14.0654-88.0733,2.0537C2586.57,910.3253,2582.4019,902.4845,2585.4214,894.8624Z" style="fill:#233862"/><path d="M2604.1919,917.1944c-4.6357,0-8.4082-4.2685-8.4082-9.5156s3.7725-9.5166,8.4082-9.5166,8.4082,4.2685,8.4082,9.5166S2608.8286,917.1944,2604.1919,917.1944Zm0-16.2451c-3.1,0-5.6211,3.0186-5.6211,6.73s2.5215,6.7285,5.6211,6.7285,5.6211-3.0186,5.6211-6.7285S2607.2915,900.9493,2604.1919,900.9493Z" style="fill:#fff"/><rect x="2632.2366" y="839.6774" width="75.7549" height="103.6975" transform="translate(70.9629 1972.6095) rotate(-41.0479)" style="fill:#afcdfb"/><path d="M2659.811,905.9356s-22.2119,3.4121-22.1474,8.3819c.0664,4.9687,4.5947,13.956,9.082,14.667,5.7.9023,17.0352-13.8057,17.0352-13.8057Z" style="fill:#ffb27d"/><path d="M2659.3433,907.1114s-7.4395-2.7187-12.9-1.5957c-5.459,1.123-10.5059.2959-9.2647,2.28,1.2412,1.9863,8.628,1.248,9.7989,2.0254s1.1894.291,1.1894.291Z" style="fill:#ffb27d"/><path d="M2666.81,768.9991s27.9482,1.96,38.6611,28.002,31.0391,69.7685,31.0391,77.124-11.3545,30.0322-72.3321,43.0693c0,0-6.3066-6.6348-5.9248-11.8808,0,0,38.0645-32.6954,37.9619-36.5157-.1933-7.2285-6.24-16.7705-39.6591-50.2C2647.47,809.5089,2666.81,768.9991,2666.81,768.9991Z" style="fill:#f99746"/><path d="M885.1006,1333.544a248.1159,248.1159,0,0,1-43.8242-3.8818,243.1771,243.1771,0,0,1-38.6-10.252,313.4463,313.4463,0,0,1-58.5562.0635c-59.9717-5.59-115.0947-23.5576-160.81-51.5508a126.9818,126.9818,0,0,1-33.6148,2.6416c-28.0259-1.4511-54.5586-11.9961-78.8608-31.3408-23.1016-18.3887-43.0547-43.7715-59.3042-75.4433-28.4864-55.5225-42.5835-125.293-39.6944-196.462,3.2007-78.8349,26.8042-154.6172,68.2593-219.1552,32.6353-50.8077,68.689-90.2593,107.16-117.2593,33.3154-23.3823,69.4062-38.0825,107.2685-43.6934a251.35,251.35,0,0,1,31.3521-2.64,356.5832,356.5832,0,0,1,110.833-42.56c46.6665-9.5454,117.6274-11.7534,190.6782,31.9365,75.9478,45.4229,136.711,129.9581,180.6021,251.2559q3.7653,10.4047,6.9829,20.7588c10.0688,5.206,20.9409,11.0635,33.08,17.6045l.7949.4287c37.938,20.44,97.123,36.7959,158.32,43.7519,51.0259,5.7979,126.8144,7.8233,198.0947-15.4677,66.6094-21.7666,113.6729-60.6719,139.8819-115.6377l5.7324,2.7324c-26.9873,56.5967-75.3155,96.6143-143.6416,118.9414-72.3672,23.6455-149.1314,21.6113-200.7847,15.7412-61.959-7.042-122.0019-23.667-160.6152-44.4717l-.795-.4277c-9.99-5.3838-19.081-10.2812-27.52-14.7109,17.6446,60.89,21.0591,120.3886,10.127,177.2636-11.0484,57.4776-36.646,109.7237-74.0269,151.0909a274.5034,274.5034,0,0,1-34.8305,32.4746c-.8516,1.8759-1.7256,3.7392-2.6128,5.5713,4.3628,8.3125,6.9653,16.331,6.5063,23.2627-.7534,11.3769-13.6733,21.38-38.4,29.73q-3.0564,1.0327-6.3164,2.0205-30.2343,30.5991-73.0156,44.794A254.5177,254.5177,0,0,1,885.1006,1333.544Zm-67.3423-15.9228a237.6745,237.6745,0,0,0,24.64,5.791,246.4069,246.4069,0,0,0,120.5576-8.7871,176.8464,176.8464,0,0,0,62.0053-35.1875c-33.4,8.3486-78.4179,13.8076-126.9272,15.6748q-2.8476,1.2231-5.7314,2.3945A317.7083,317.7083,0,0,1,817.7583,1317.6212ZM591.97,1265.712c43.8184,25.6592,96.06,42.1553,152.74,47.4394a306.8867,306.8867,0,0,0,44.2524.8965,233.9882,233.9882,0,0,1-45.5224-25.7422,519.5327,519.5327,0,0,1-62.3785-12.1982c-24.23-6.4736-44.11-14.3115-59.4687-23.4229A128.9209,128.9209,0,0,1,591.97,1265.712Zm165.294,24.3613a230.0629,230.0629,0,0,0,46.2212,22.8789,311.8319,311.8319,0,0,0,75.98-17.3047c-23.6821.4551-47.934.0586-71.852-1.2666C790.1953,1293.4161,773.3389,1291.97,757.2637,1290.0733Zm-11.3154-7.8c19.269,2.6074,40.0014,4.5469,62.0166,5.7666,29.6206,1.6426,59.7426,1.8526,88.6132.7842a296.3528,296.3528,0,0,0,49.75-27.457,139.5108,139.5108,0,0,1-24.8789-3.8731c-19.0464-4.7822-34.6577-16.1367-47.4389-34.832a362.8267,362.8267,0,0,1-60.7647-3.4434c-49.289-6.8916-89.6518-21.8535-120.6738-44.6562-5.1309,9.0107-10.2476,17.0058-15.2427,24.0947a216.9646,216.9646,0,0,0,58.96,76.0879Q741.0122,1278.6431,745.9483,1282.2735Zm210.92-20.59a298.4155,298.4155,0,0,1-43.5528,26.3711c47.7017-2.6319,90.9058-8.8106,121.3116-17.8213a180.7181,180.7181,0,0,0,16.7363-19.9268,207.4238,207.4238,0,0,0,16.4878-26.9609,229.1345,229.1345,0,0,1-47.2661,25.5156C999.1074,1257.2794,977.5576,1261.5811,956.8682,1261.6837Zm-329.1514-12.8614c24.6729,13.8233,60.709,24.6065,105.4741,31.5948-.3159-.2578-.6289-.5147-.9433-.7744a223.0865,223.0865,0,0,1-59.1641-75.1338,217.72,217.72,0,0,1-19.0351,22.332A166.6038,166.6038,0,0,1,627.7168,1248.8223Zm444.8857-20.8964a206.18,206.18,0,0,1-25.748,38.27c18.5605-6.8779,28.9814-14.7979,29.4917-22.5059C1076.6338,1239.3448,1075.356,1234.04,1072.6025,1227.9259ZM675.146,591.2784c-6.94.5068-13.4526,1.2895-19.6909,2.2139-36.876,5.4643-72.0523,19.8-104.5518,42.61C513.11,662.6265,477.6265,701.484,445.4385,751.5948c-40.8452,63.5889-64.1026,138.2744-67.2568,215.9814-2.8458,70.0918,11.0048,138.7422,39,193.3057,15.8344,30.8633,35.2172,55.55,57.6088,73.374,23.2452,18.503,48.5577,28.585,75.2339,29.9668a121.7187,121.7187,0,0,0,25.3931-1.2939c-28.7578-18.7959-53.4907-41.7012-72.9741-68.083a254.15,254.15,0,0,1-25.2324-42.0567c-21.5547-11.6035-39.2583-28.4062-52.9009-50.2646-18.88-30.25-28.8306-68.8858-28.7759-111.73a279.2373,279.2373,0,0,1,5.4414-54.0254c-1.9624-51.6064,19.3027-111.3535,60.0708-168.6064,39.0947-54.9024,90.1455-98.9448,140.062-120.835q8.3672-3.6694,16.5069-6.4253A262.6886,262.6886,0,0,1,640.78,617.5,289.2579,289.2579,0,0,1,675.146,591.2784Zm-188.56,566.1221a248.5709,248.5709,0,0,0,20.9654,33.6728c20.2671,27.4434,46.3657,51.0459,76.8559,70.0684a120.9433,120.9433,0,0,0,31.1011-12.292,91.84,91.84,0,0,1-18.187-15.6416,442.5051,442.5051,0,0,1-44.936-61.1035,222.4164,222.4164,0,0,1-31.3511-3.8936A160.356,160.356,0,0,1,486.5859,1157.4005Zm395.0264,64.958c11.4326,15.414,25.08,24.8828,41.3838,28.9765a135.3976,135.3976,0,0,0,31.7944,3.9942,265.1892,265.1892,0,0,0,48.5293-46.3653,241.43,241.43,0,0,0,19.6846-28.2753C981.0552,1205.5792,932.9785,1219.7335,881.6123,1222.3585Zm151.22-46.085a246.1026,246.1026,0,0,1-24.57,36.6768,269.47,269.47,0,0,1-42.6421,42.08,175.0921,175.0921,0,0,0,52.647-12.0811,223.8122,223.8122,0,0,0,48.1352-26.3516c-6.0073-9.5068-14.6411-20.3437-25.6694-32.1269Q1036.9278,1180.4058,1032.8325,1176.2735ZM559.97,1172.3907a438.4029,438.4029,0,0,0,42.1363,56.6416,88.2459,88.2459,0,0,0,19.5132,16.165,157.609,157.609,0,0,0,27.9-22.8086,214.9228,214.9228,0,0,0,20.5059-24.4267q-2.8857-6.4365-5.415-13.1133-2.6331-6.9492-4.8448-14.0859-3.4306-.74-6.791-1.6768a109.2727,109.2727,0,0,1-16.5014-6.07C611.7354,1169.3165,585.9668,1172.9688,559.97,1172.3907Zm141.04.3652c29.5351,20.32,67.3569,33.7754,113.1152,40.1739A358.5752,358.5752,0,0,0,870,1216.4005c-8.1655-13.5909-15.0864-30.5157-20.9468-51.0069q-1.1154-3.8994-2.1669-7.9218-12.6542-1.7461-25.2857-4.4053a250.1721,250.1721,0,0,1-31.1338-8.6162c-19.6206,9.541-39.65,17.6152-59.4448,22.7871A194.2626,194.2626,0,0,1,701.01,1172.7559Zm152.6777-14.4111q.7207,2.6778,1.4707,5.3027c6.1685,21.5694,13.4922,38.9844,22.2007,52.544,54.88-2.1611,106-17.666,149.8188-45.5225-8.6079-8.3847-18.0224-16.9131-28.06-25.4433q-13.826,4.1982-27.7676,7.2734A351.6592,351.6592,0,0,1,853.6875,1158.3448Zm183.5337,13.3359q4.2231,4.2584,8.148,8.45c9.0112,9.628,18.8374,21.21,26.15,32.7168.7164-.54,1.4273-1.081,2.14-1.6289,8.6035-19.3183,15.3457-41.0459,20.1548-65.0029q2.9464-14.6778,4.9482-30.5615a288.7923,288.7923,0,0,1-61.541,56.0263Zm69.0288-65.5439q-2.2742,21.71-6.21,41.3291a327.07,327.07,0,0,1-15.955,55.2832,271.6531,271.6531,0,0,0,24.8232-24.2061c36.0327-39.8759,60.89-90.1,71.9859-145.4023a442.4107,442.4107,0,0,1-59.59,50.9707Q1114.2959,1095.4493,1106.25,1106.1368Zm-439.4087,65.9248q1.7322,5.3247,3.7075,10.5381,1.7835,4.708,3.751,9.2959c3.8076-5.5694,7.6817-11.6875,11.5684-18.3955A128.21,128.21,0,0,1,666.8413,1172.0616Zm-2.0957-6.7822a120.324,120.324,0,0,0,18.3179,1.8027,175.4358,175.4358,0,0,1-14.6084-13.793q-3.1611,1.1148-6.3584,2.1807Q663.3221,1160.4167,664.7456,1165.2794Zm47.1284-29.9815c-4.8965,11.5381-9.9228,21.9795-14.9682,31.4121a182.9228,182.9228,0,0,0,32.51-5.6171c17.5069-4.5733,35.2617-11.4981,52.7754-19.7266a189.2605,189.2605,0,0,1-40.2016-21.6C732.4761,1125.0587,722.4087,1130.294,711.874,1135.2979ZM556.0405,1165.921c24.315.957,48.4908-1.9258,71.8516-7.335-15.9106-9.1074-30.1177-22.3926-42.437-39.7168a234.6566,234.6566,0,0,1-17.8862-29.5371,358.0872,358.0872,0,0,1-43.3184-10.81q-1.5234-.48-3.0562-.9824C525.7764,1104.793,537.7534,1135.1143,556.0405,1165.921Zm450.2168-22.9405c8.8531,7.6172,17.1988,15.2207,24.9161,22.7178a223.7778,223.7778,0,0,0,14.8027-38.0762A395.0331,395.0331,0,0,1,1006.2573,1142.9805Zm-524.2016,5.168a150.1307,150.1307,0,0,0,40.2119,13.834,215.2887,215.2887,0,0,0,26.2016,3.5137,338.36,338.36,0,0,1-16.7207-32.7217c-8.9121-20.1816-14.7417-39.5752-17.3808-57.57-18.6006-6.6416-37.999-15.875-55.3882-28.7022C459.7827,1082.6544,467.5322,1116.8282,482.0557,1148.1485Zm192.9389,2.7744a170.7072,170.7072,0,0,0,15.6089,14.1162c4.2354-7.8359,8.4595-16.3886,12.6128-25.7324C694.1021,1143.419,684.6738,1147.3272,674.9946,1150.9229Zm-28.5595,9.4a104.9742,104.9742,0,0,0,11.2807,3.4639q-.8781-3.16-1.6748-6.3526Q651.2656,1158.9406,646.4351,1160.3233Zm407.104-36.19a229.07,229.07,0,0,1-13.5532,37.8906,282.3176,282.3176,0,0,0,60.1318-58.3105c.189-1.8692.37-3.7578.5405-5.6514q-6.5471,4.1674-13.5249,8.2734Q1070.5367,1116.0807,1053.5391,1124.1329ZM575.4326,1090.671A228.1955,228.1955,0,0,0,590.63,1115.19c13.4165,18.8672,28.8442,32.5606,46.4424,41.1319q8.8491-2.313,17.5083-5.0655-2.18-9.7734-3.6162-19.8418-.55-.8173-1.0918-1.6416a184.644,184.644,0,0,1-18.022-35.4052A303.3156,303.3156,0,0,1,575.4326,1090.671Zm276.541,61.0664a345.437,345.437,0,0,0,118.0088-5.4395q11.69-2.5781,23.31-5.9648a788.2646,788.2646,0,0,0-88.5854-63.36c-6.9449,4.3067-14.2442,8.9366-21.84,13.7539-12.14,7.6993-25.1011,15.92-38.6177,24.0772C846.5215,1127.7442,849.063,1140.1,851.9736,1151.7374Zm-53.4594-11.292a248.5739,248.5739,0,0,0,24.3945,6.4062q11.1364,2.3452,22.2974,3.9678c-2.52-10.3418-4.76-21.21-6.7871-32.5234C825.5073,1125.9727,812.1333,1133.5177,798.5142,1140.4454Zm-139.2115,2.3174q.6308,3.2724,1.3453,6.5156,1.6-.5361,3.1889-1.084Q661.513,1145.5239,659.3027,1142.7628Zm-2.2519-13.6924a164.058,164.058,0,0,0,13.2446,16.834c12.6934-4.6211,24.9561-9.8028,36.669-15.2969q5.9838-14.3291,11.64-30.9873-1.9769-2.061-3.876-4.1875a155.1361,155.1361,0,0,1-10.3413-12.9072q-4.4465,1.3534-8.9326,2.5566a274.7627,274.7627,0,0,1-40.91,7.6973A276.1647,276.1647,0,0,0,657.0508,1129.07ZM403.6489,960.62a268.451,268.451,0,0,0-1.7651,30.1816c-.0527,41.6524,9.5649,79.1221,27.813,108.36a134.9562,134.9562,0,0,0,43.0517,43.67c-13.2553-31.4072-20.0395-65.4453-20.1938-101.3135C429.2793,1022.5294,410.5064,996.4386,403.6489,960.62Zm507.1089,112.63a790.6129,790.6129,0,0,1,89.8013,64.8847,389.3392,389.3392,0,0,0,47.5371-18.4628,230.0928,230.0928,0,0,0,5.8647-72.8858,128.4757,128.4757,0,0,1-30.5146,18.8447c-28.4292,12.2295-54.2734,12.6729-76.812,1.3174a87.7328,87.7328,0,0,1-12.0376-7.3633C927.334,1063.3634,919.3482,1068.0118,910.7578,1073.25Zm-162.63,43.0517a187.5284,187.5284,0,0,0,41.9511,21.2657c16.1226-7.9522,31.9737-16.8838,47.1729-25.97-2.7808-16.4052-5.1553-33.6816-7.3194-51.5742-11.583,9.3819-23.5337,18.416-35.6176,26.8985C781.5005,1095.9161,765.88,1106.1339,748.1275,1116.3018ZM723.61,1104.6134q-3.9632,11.5194-8.1182,21.8935c7.2114-3.5517,14.1973-7.209,20.9028-10.8945A164.2018,164.2018,0,0,1,723.61,1104.6134ZM638.5532,1094.09a181.9772,181.9772,0,0,0,10.7124,22.4932q-.9946-11.4184-1.0693-23.1729Q643.3909,1093.8321,638.5532,1094.09Zm421.3521-52.4365a237.6186,237.6186,0,0,1-4.4361,74.502q14.3622-7.0254,28.4483-15.2959,9.0689-5.3262,17.4-10.7735,3.528-46.8837-.273-102.7617C1089.5342,1009.045,1075.5269,1027.46,1059.9053,1041.6534Zm-334.0488,56.2842a157.5339,157.5339,0,0,0,16.5908,14.2978c18.6059-10.5322,34.9385-21.1894,48.2187-30.5117,13.4619-9.4492,26.3042-19.2461,38.3814-29.1445q-.9683-8.2837-1.89-16.7168-10.5762-4.6041-20.6343-8.3633a314.6126,314.6126,0,0,1-72.7651,44.2627Q729.9578,1085.5167,725.8565,1097.9376Zm109.9-42.6865c2.1762,18.3408,4.5542,36.039,7.3432,52.8242,12.7017-7.7032,24.9038-15.4414,36.3657-22.7119,6.6231-4.2,13.0245-8.26,19.17-12.0918q-2.54-1.5323-5.083-3.04c-15.8355-9.3847-31.2354-17.7226-46.042-24.957Q841.7156,1050.3106,835.7564,1055.2511Zm271.6474,38.4326-.0034.04c.0142-.0205.0342-.0488.0488-.07Zm-396.6367-13.1846q4.1016,5.5547,8.6978,10.7031c.4633.5186.9321,1.0371,1.4023,1.5489q2.78-8.6382,5.4282-17.9014Q718.5911,1077.91,710.7671,1080.4991Zm-138.9478,3.1357a300.125,300.125,0,0,0,57.7364,4.4375q-17.2984-49.95-12.6157-117.91-4.73-4.3066-9.11-9.04-2.6916-2.9106-5.2432-5.9658c-14.4214,6.67-27.1328,13.1026-37.499,18.9a100.3264,100.3264,0,0,0-17.1343,11.9756q.0286,1.046.0659,2.0889A235.1,235.1,0,0,0,571.8193,1083.6348ZM622.9556,975.35q-3.7683,64.809,13.2461,112.4961,6.0336-.2784,12.0215-.8154a327.944,327.944,0,0,1,2.707-37.1329c.0981-2.3584,1.1914-23.4472,9.6606-52.07A151.7025,151.7025,0,0,1,622.9556,975.35Zm43.6347,24.8457c-8.415,28.7861-9.3086,49.7646-9.32,50.085l-.0239.2919a322.0214,322.0214,0,0,0-2.6611,35.8116,268.2487,268.2487,0,0,0,39.2251-7.4356q3.4159-.917,6.8066-1.9209c-14.0928-21.51-23.1577-46.7666-26.5381-74.247Q670.2811,1001.5689,666.59,1000.1954Zm439.9981-24.01q4.7212,59.5063,1.4067,109.4629,4.4-2.9795,8.564-5.9453a291.04,291.04,0,0,0,42.4136-156.8691c-.4219-25.5879-7.9717-42.8145-23.0816-52.6661a48.667,48.667,0,0,0-5.1352-2.9111C1131.0762,903.2511,1122.4712,942.1182,1106.5884,976.1856Zm-586.42,94.3184q2.9611,1.0064,5.9917,1.9619a354.5285,354.5285,0,0,0,37.9306,9.7393,241.4542,241.4542,0,0,1-22.2627-90.27c-11.1679,11.8867-18.2768,26.3838-21.2172,43.3438A120.56,120.56,0,0,0,520.168,1070.504Zm160.5727-65.7471c3.6026,26.09,12.54,50,26.1988,70.3125q10.8677-3.5112,21.5058-7.9541c5.1778-19.1338,9.1817-37.8555,12.1436-55.34q-3.5237-.2007-6.878-.2022A199.4248,199.4248,0,0,1,680.7407,1004.7569Zm449.8355-144.5615a56.2213,56.2213,0,0,1,8.7832,4.6533c16.7744,10.9365,25.51,30.41,25.9629,57.88a297.9581,297.9581,0,0,1-35.982,147.543c31.3746-24,50.251-44.85,53.6695-48.7305,9.041-54.9775,4.5644-112.41-13.3242-171.166-15.608-8.0176-29.1158-14.3242-42.459-19.1182a194.1592,194.1592,0,0,1,3.2246,26.3594C1130.4981,858.4727,1130.54,859.335,1130.5762,860.1954Zm-277.91,180.5478c14.2407,7.0342,28.9971,15.0616,44.1231,24.0254q3.9572,2.3453,7.9038,4.7491c8.7387-5.3731,16.9116-10.2,24.42-14.2168-14.0855-11.8116-26.0918-28.2647-36.5674-47.9307q-3.405.9317-6.7983,1.6787C875.5,1019.6944,864.3784,1030.3409,852.6665,1040.7432Zm88.4151,15.6133a79.0813,79.0813,0,0,0,8.41,4.9209c21.0772,10.62,44.4468,10.1358,71.4448-1.48a124.4349,124.4349,0,0,0,32.314-20.7129,267.3161,267.3161,0,0,0-11.0347-51.9327,162.0524,162.0524,0,0,0-7.7378-19.914c-29.0854,44.2041-60.98,76.2-85.4023,85.6572Q945.28,1054.3654,941.0816,1056.3565Zm-482.167-17.79c15.0512,11.8183,33.2929,21.707,54.5732,29.57a124.91,124.91,0,0,1,.8657-33.9424c3.5342-20.3848,12.6485-37.4414,27.1865-50.9521a265.2563,265.2563,0,0,1,22.4966-111.1446,294.3246,294.3246,0,0,1-6.0522-61.5556q-10-.5157-19.83-.3174c-35.3594,50.9316-60.3814,108.26-72.4189,165.9687A314.2514,314.2514,0,0,0,458.9146,1038.5665Zm288.019-26.2783c-2.7524,16.3593-6.4028,33.7783-11.0591,51.5986a308.8211,308.8211,0,0,0,63.6387-38.9277C780.168,1018.1768,762.4722,1013.8917,746.9336,1012.2882Zm151.9058-6.792c11.1684,20.69,23.2461,36.1386,36.4394,46.6191,4.0654-2.0185,7.9063-3.75,11.5039-5.1426,22.9937-8.9033,54.7119-41.0195,82.7779-83.8154q.8189-1.25,1.63-2.5029a130.2263,130.2263,0,0,0-33.459-40.7989c-8.0278,17.543-20.46,34.3633-36.6084,49.0762A172.3171,172.3171,0,0,1,898.8394,1005.4962Zm-64.9634,33.3525q.4965,4.4723,1.0039,8.8926,3.2454-2.7246,6.4136-5.4561Q837.5559,1040.5187,833.876,1038.8487Zm-.8008-7.3017q6.63,2.9442,13.4277,6.1982c10.2188-9.0039,19.7486-17.9883,28.5049-26.792a108.9251,108.9251,0,0,1-24.4858.6064,36.8117,36.8117,0,0,1-18.0674-7.0185c-.6733.6543-1.3433,1.3-2.0195,1.9473Q831.74,1019.146,833.0752,1031.547ZM1038.52,960.9893a166.8293,166.8293,0,0,1,9.751,24.2481,275.78,275.78,0,0,1,10.7617,48.5459c14.8833-14.3584,28.1744-32.8213,38.9976-54.4756q1.0679-2.1357,2.0957-4.3008-3.0638-37.771-9.3721-79.3a296.4544,296.4544,0,0,0-6.0385-29.5791A457.3354,457.3354,0,0,1,1038.52,960.9893ZM407.35,937.25q.04.933.09,1.8633c1.6308,30.2,11.6269,56.5752,29.71,78.3925a138.892,138.892,0,0,0,15.4829,15.8536,323.4747,323.4747,0,0,1,6.8863-58.4629C471.4229,917.83,495.833,861.1456,530.2608,810.5a244.1831,244.1831,0,0,0-34.6568,4.167c-25.6308,5.01-49.4385,26.54-67.0371,60.625C419.0933,893.64,411.875,914.9239,407.35,937.25Zm404.81,85.62q6.988,2.685,14.2138,5.7607-.89-8.2866-1.7587-16.6894Q818.4528,1017.5943,812.16,1022.87Zm-64.2066-16.8535c16.919,1.8,36.2329,6.6357,57.3487,14.292q8.8908-7.2993,17.519-15.3614.49-.4569.9771-.916-.411-3.996-.8218-8.0156c-8.4649-9.2695-15.9888-22.0781-23.0869-36.89-16.3013,4.6533-29.4834,6.5908-38.3662,4.4326-2.6338-.6407-5.4839-1.4141-8.51-2.3213C752.167,974.5147,750.5171,989.6759,747.9531,1006.0167Zm89.08-5.9951a30.3856,30.3856,0,0,0,14.0781,5.2158,107.5511,107.5511,0,0,0,31.39-1.9707q2.6411-2.7642,5.1719-5.4951a396.1941,396.1941,0,0,1-15.667-37.6045A430.5949,430.5949,0,0,1,837.0332,1000.0216Zm-157.11-2.1055a191.5788,191.5788,0,0,0,53.7875,7.3076q3.8475,0,7.9087.2549c2.6807-16.9766,4.36-32.6475,5.1641-46.2168a273.7744,273.7744,0,0,1-51.2046-23.5068q-4.1192,6.4393-7.86,13.2334c-3.1548,5.7314-5.9829,11.4326-8.521,17.0478A207.63,207.63,0,0,0,679.9234,997.9161Zm215.4233.88c.1694.3359.3413.6758.5112,1.0107,21.395-6.709,42.7715-18.9707,60.9888-35.5693,15.9248-14.5088,28.0713-31.1065,35.7124-48.34a143.4106,143.4106,0,0,0-31.6279-17.2187q-2.0662-.8189-4.1612-1.583-5.0229,1.9789-10.0337,3.9951a207.0124,207.0124,0,0,1-5.042,28.2852C937.4434,945.7979,920.5708,971.0606,895.3467,998.796ZM829.085,993.33c.9521.9746,1.9179,1.9,2.8921,2.7675A426.2763,426.2763,0,0,0,869.48,953.0411q-2.96-8.54-5.7466-17.4082c-13.85,5.708-26.9756,10.9385-39.0586,15.3291,1.457,13.4941,2.836,26.9775,4.2046,40.3584C828.9483,991.9923,829.0161,992.6593,829.085,993.33Zm-160.6343.77q2.4243.9081,4.8984,1.7461-.6006-6.8366-.75-13.7686Q670.3047,988.2393,668.4507,994.1007ZM876.61,954.1368c2.4907,7.0156,5.0927,13.8828,7.8183,20.5439q3.8811,9.485,7.9156,17.9756c23.9047-26.5683,39.36-50.0283,43.2031-64.872a195.4306,195.4306,0,0,0,4.479-23.98c-13.7134,5.5771-27.2627,11.2675-40.3579,16.7841Q888.7066,938.0206,876.61,954.1368Zm-253.125,13.3486A144.9286,144.9286,0,0,0,662.4771,991.72a265.2644,265.2644,0,0,1,10.4506-27.2666,236.5041,236.5041,0,0,1,5.7447-39.5449c-.2075-.1446-.4116-.2881-.6192-.4336-18.4174,6.5605-36.0683,13.501-52.2934,20.4062Q624.3279,956.4225,623.4849,967.4854ZM806.0264,957.294c5.0254,10.4346,10.2334,19.7539,15.7856,27.3457q-1.6077-15.687-3.2886-31.4853Q812.0416,955.4176,806.0264,957.294ZM566.52,882.6007a264.1244,264.1244,0,0,0-18.6518,95.2509,110.3138,110.3138,0,0,1,14.12-9.3379c10.1435-5.6728,22.51-11.9482,36.5137-18.4589C583.9756,931.1358,573.2661,908.4747,566.52,882.6007Zm523.3116-21.958a302.2625,302.2625,0,0,1,7.2,34.1093q5.3841,35.43,8.4185,68.2032c12.895-31.4385,19.62-66.1709,18.9146-98.3409C1114.499,861.22,1102.8242,860.0587,1089.8316,860.6427ZM608.584,952.4141q1.9123,2.2383,3.9082,4.3955,2.4807,2.6821,5.0825,5.2227.6115-7.0312,1.4531-14.2529Q613.6878,950.1056,608.584,952.4141Zm144.7871,2.3008c3.46,1.0635,6.6948,1.9541,9.6528,2.6738,7.59,1.8467,19.4361.0645,34.1407-4.0878-6.7115-14.6788-13.0894-31.0176-19.5787-47.6426q-1.7607-4.51-3.5351-9.041c-9.2944,2.0244-18.2754,4.1943-26.8169,6.4189a80.2019,80.2019,0,0,1,6.061,25.3252A235.4611,235.4611,0,0,1,753.3711,954.7149Zm246.9546-40.9385a135.4178,135.4178,0,0,1,34.7661,40.7442,448.14,448.14,0,0,0,44.5234-93.0977c-21.4877,2.2715-45.9541,8.56-71.4765,16.93A109.1694,109.1694,0,0,1,1000.3257,913.7764Zm-301.272,16.711A267.8078,267.8078,0,0,0,747.1128,952.68a223.9029,223.9029,0,0,0-.1528-23.8809,74.1017,74.1017,0,0,0-5.9287-24.1172c-9.6524,2.6055-19.2974,5.4209-28.8516,8.3955Q705.2334,921.3961,699.0537,930.4874Zm81.2935-35.209q1.5834,4.0429,3.1543,8.0713c6.5849,16.8691,13.0488,33.4287,19.7964,48.1357,4.6147-1.4248,9.4663-3.0449,14.52-4.8291-2.084-19.0351-4.3413-38.0771-6.9634-56.8818C800.4492,891.36,790.24,893.2276,780.3472,895.2784ZM684.314,928.7335q-2.1613,9.7822-3.4693,19.6054.6468-1.2055,1.3111-2.413,3.8027-6.9082,7.9887-13.46Q687.2273,930.6509,684.314,928.7335Zm-113.63-55.9405c6.4458,29.0391,17.7544,54.1172,33.7417,74.5391q7.4876-3.4042,15.5063-6.8584,3.7815-28.8911,11.147-60.5976a158.9354,158.9354,0,0,1-16.25-26.6026,140.2717,140.2717,0,0,1-11.1548-33.0469,213.263,213.263,0,0,0-30.9717,48.2012Q571.6736,870.5958,570.6841,872.793Zm298.9316,60.4063q2.1753,6.9053,4.4761,13.6875,7.8582-10.667,15.2427-21.9453Q879.2908,929.169,869.6157,933.1993ZM817.14,888.8555c2.5639,18.3877,4.78,36.9932,6.8247,55.5889,11.8125-4.3281,24.5859-9.4277,37.8794-14.9053-4.3623-14.2812-8.4307-29.0771-12.3-44.1074C838.6636,886.1837,827.8189,887.3614,817.14,888.8555Zm-181.0132-2.5761q-6.0066,26.688-9.41,51.3066c14.1646-5.959,29.3423-11.92,45.12-17.623A208.4873,208.4873,0,0,1,636.1265,886.2794Zm49.73,35.914q3.8679,2.5987,7.7529,5.0069,3.6966-5.4565,7.665-10.6475-7.7065,2.5122-15.2915,5.1387C685.94,921.8565,685.8975,922.0274,685.856,922.1934Zm170.1186-37.1552c3.6118,14.0029,7.5034,28.166,11.75,42.0673,8.3994-3.4882,16.9736-7.1015,25.6265-10.747.6684-.2813,1.3344-.5625,2.0053-.8448q8.7568-14.0493,16.7085-28.8613A318.4068,318.4068,0,0,0,855.9746,885.0382ZM637.9409,878.422a201.0344,201.0344,0,0,0,41.0518,38.9873c.5683-.2,1.1318-.3985,1.7012-.5977a252.9856,252.9856,0,0,1,18.8208-49.0811q2.0691-4.0737,4.2617-8.0253l-.0274-.0215c-14.6543-11.2432-32.5478-21.0879-52.3842-28.9639q-3.3135,9.0777-5.9932,18.7744Q641.2972,864.2409,637.9409,878.422Zm70.87-14.6954q-1.8626,3.3927-3.6343,6.88a246.9783,246.9783,0,0,0-17.1978,43.6885q10.1623-3.4644,20.5342-6.7236a219.2976,219.2976,0,0,1,21.419-21.92A129.8216,129.8216,0,0,0,708.8106,863.7266Zm209.9541,23.8555q-6.4219,12.0923-13.3921,23.7168c11.5713-4.8623,23.456-9.8184,35.4629-14.68q.2124-2.1665.3935-4.3935A214.0444,214.0444,0,0,0,918.7647,887.5821Zm46.7514,6.1016a149.7806,149.7806,0,0,1,29.5318,16.16,103.1739,103.1739,0,0,0,6.6088-29.3281C989.7427,884.5548,977.6289,889.01,965.5161,893.6837ZM609.5234,650.6749q-2.9164,1.1756-5.8652,2.4682c-48.1772,21.127-99.5561,65.5025-137.4394,118.7027-32.3379,45.414-52.1617,92.3008-57.5337,135.1435a227.4645,227.4645,0,0,1,14.2392-34.6113c18.5078-35.8447,43.8867-58.5537,71.4615-63.9434a252.5114,252.5114,0,0,1,40.3764-4.44q12.1466-17.2515,25.4121-32.9433a236.3117,236.3117,0,0,1,49.3491-120.376ZM733.5986,890.8917q-6.9726,6.2446-13.39,13.1025,9.0036-2.6807,18.0586-5.1435Q736.1744,894.8312,733.5986,890.8917Zm4.8384-4.2031a99.1335,99.1335,0,0,1,6.11,10.4863q13.7965-3.62,27.14-6.5606c-2.8838-7.291-5.8149-14.5634-8.8271-21.6992q-4.5952,2.8726-9.0127,5.9512Q745.8511,880.4415,738.437,886.6886Zm209.481.8105q4.4538,1.314,8.7324,2.81c15.1626-5.9532,30.3735-11.62,45.2271-16.6143a106.7859,106.7859,0,0,0-14.2725-52.0469c-12.3579.918-25.8242,2.0606-40.6069,3.4092-.4463,1.1846-.8921,2.3565-1.3462,3.5371A296.896,296.896,0,0,1,947.918,887.4991ZM768.3516,865.5948c3.2959,7.78,6.49,15.7148,9.6289,23.665q16.371-3.4394,31.9746-5.8291-2.546-17.638-5.5952-34.9023A234.6366,234.6366,0,0,0,768.3516,865.5948ZM921.8833,881.62q10.2678,1.6786,19.7925,4.15a290.1311,290.1311,0,0,0-.94-44.8565Q932.1247,861.7457,921.8833,881.62ZM810.4194,846.338c2.1377,11.9072,4.0606,23.9882,5.8194,36.1689q16.3133-2.2983,31.6889-3.4092c-3.021-11.95-5.9292-24.0351-8.77-36.1123q-.5427-2.3071-1.0146-4.64A274.5656,274.5656,0,0,0,810.4194,846.338Zm-98.43,11.7773A137.4065,137.4065,0,0,1,734.751,881.49q7.4472-6.2432,15.4653-11.833,4.95-3.4512,10.1167-6.6484c-6.5542-15.1035-13.5293-29.4483-21.2734-41.9209A218.6059,218.6059,0,0,0,711.9893,858.1153Zm163.4091,19.958a296.4111,296.4111,0,0,1,39.85,2.5547,531.1247,531.1247,0,0,0,23.8892-52.7959c-.0986-.6758-.1987-1.3447-.3027-2.0225-17.8907,1.668-37.6416,3.6133-59.5713,5.8028a326.6218,326.6218,0,0,0-34.92,5.3564q.4621,2.2954.9956,4.5616c2.8213,11.9931,5.8066,24.4824,9.0127,37.1533q1.4-.0792,2.791-.1485Q866.462,878.0738,875.3984,878.0733ZM609.6865,817.8067a133.5417,133.5417,0,0,0,10.8662,32.7168,151.3489,151.3489,0,0,0,12.4615,21.2276q2.8763-11.7862,6.2363-23.9483,2.7612-9.9932,6.1821-19.3584A290.0671,290.0671,0,0,0,609.6865,817.8067Zm384.8843,3.34a113.0491,113.0491,0,0,1,13.626,50.456c7.7558-2.5224,15.4-4.8457,22.87-6.9111,18.9463-5.2383,35.7412-8.5264,50.4854-9.8633a286.6583,286.6583,0,0,0-13.2149-35.2275C1048.4585,818.4044,1024.9966,819.0294,994.5708,821.1466ZM564.334,810.9386a295.573,295.573,0,0,0,4.2671,51.3867,216.4564,216.4564,0,0,1,30.71-46.711A300.7246,300.7246,0,0,0,564.334,810.9386Zm179.228,5.3759c8.1665,12.9092,15.4531,27.7637,22.2647,43.4A241.7447,241.7447,0,0,1,803.2041,842.18q-3.1883-17.1577-7.0493-33.7344-3.1641-13.4751-6.7217-25.9063A166.8178,166.8178,0,0,0,743.562,816.3145ZM1095.98,854.1427a96.6461,96.6461,0,0,1,28.125,3.7128,186.1583,186.1583,0,0,0-3.8433-28.9658,190.5348,190.5348,0,0,0-23.49-5.9228c-2.1626,10.3-4.9033,20.78-8.187,31.3642Q1092.3813,854.1423,1095.98,854.1427ZM653.6577,824.7012c19.7368,7.834,37.8931,17.7344,53.3,29.4424a223.922,223.922,0,0,1,28.5469-38.5644c-16.85-25.07-35.1753-37.3321-55.897-37.3672A195.7372,195.7372,0,0,0,653.6577,824.7012Zm421.8731-4.5742q5.2287,11.9415,9.3774,24.3057,3.2446-11.38,5.5972-22.5273C1085.7026,821.168,1080.74,820.5792,1075.5308,820.127Zm50.1342,3.8819c13.2847,4.5117,26.5162,10.4433,41.3516,17.8955q-2.3649-7.2612-4.999-14.541c-43.38-119.8858-103.231-203.3135-177.89-247.9659-71.3022-42.6445-140.583-40.4858-186.1464-31.165a352.69,352.69,0,0,0-99.42,36.3647c25.5113.6592,50.1988,4.9053,74.0855,11.0977,30.86-8.5469,62.7109-11.7183,91.8618-8.8076,40.3008,4.0229,71.4438,18.8613,89.98,42.0561,35.2363-8.3266,71.2578,2.6016,104.104,32.2286,29.4448,26.559,44.3384,64.3623,44.001,110.7675q1.4179,1.9761,2.771,4.0166A149.13,149.13,0,0,1,1125.665,824.0089ZM795.2617,779.8331q3.7566,13.0224,7.0752,27.16,3.8071,16.2174,6.9243,33.0254a281.8456,281.8456,0,0,1,27.7491-7.93c-3.4244-21.4013-2.5533-44.2793,2.4546-67.1367A232.3872,232.3872,0,0,0,795.2617,779.8331ZM846.29,763.5587c-5.3565,22.8672-6.4361,45.7851-3.0679,67.1572a332.76,332.76,0,0,1,35.4111-5.4219c21.8413-2.1816,41.4458-4.1035,59.167-5.747a258.2667,258.2667,0,0,0-7.2051-30.1661,222.8962,222.8962,0,0,0-7.7016-21.3662C899.8252,759.9249,873.8823,758.4425,846.29,763.5587ZM611.6157,811.6729a294.3442,294.3442,0,0,1,36.1089,10.753,204.1884,204.1884,0,0,1,23.541-43.628C650.7256,781.5245,630.063,793.1622,611.6157,811.6729Zm486.3955,5.0742a195.7016,195.7016,0,0,1,20.542,4.9854,143.0179,143.0179,0,0,0-16.3115-38.873,262.12,262.12,0,0,1-4.0034,32.67Q1098.1263,816.1372,1098.0112,816.7471ZM959.2549,788.2784c-2.8872,9.958-6.1685,20.0576-9.8325,30.2061,12.4292-1.1172,23.8906-2.0831,34.4951-2.8877A118.8624,118.8624,0,0,0,959.2549,788.2784Zm-28.2266-17.084c2.1656,5.583,4.0332,11.0567,5.6416,16.336a262.9026,262.9026,0,0,1,6.9214,28.4042c3.8555-10.7021,7.2788-21.3369,10.2559-31.7939q-2.7035-1.95-5.5318-3.7588A121.6009,121.6009,0,0,0,931.0283,771.1944Zm141.52,42.3438c4.2221.3086,8.2812.7011,12.2314,1.1816q3.5442.4307,6.97.9609.123-.6517.2432-1.3027a246.7073,246.7073,0,0,0,4.1889-40.4473c-15.5205-20.8339-36.8486-35.5058-63.4946-43.6572-7.4072-2.2656-15.4912-4.6094-24.1284-6.9316Q1049.6377,764.5523,1072.5484,813.5382ZM961.1226,781.6554a125.1437,125.1437,0,0,1,29.9629,33.413c30.9008-2.206,54.3774-2.9326,74.2143-1.9687q-24.4431-50.6763-69.15-92.9756c-7.2446-1.81-14.812-3.5781-22.6338-5.2549C971.8174,735.2247,967.6177,757.9552,961.1226,781.6554Zm-276.6172-9.5938c20.6211,1.7314,38.8589,14.5137,55.4907,38.8271a172.1912,172.1912,0,0,1,47.6245-34.5273c-6.6484-22.1152-14.2949-41.6943-23.0078-58.8828a203.3963,203.3963,0,0,0-29.7612,13.2891A173.8916,173.8916,0,0,0,684.5054,772.0616ZM564.3916,804.5977a308.1225,308.1225,0,0,1,37.5669,5.0147c-3.2847-26.9893,1.35-55.4912,13.8936-85.2256a412.3492,412.3492,0,0,0-49.5865,49.2988q-.4446,4.0357-.7636,8.1143Q564.5922,793.4336,564.3916,804.5977Zm62.4346-89.01q-.8284,1.686-1.6314,3.4062c-14.2695,30.5947-20.0029,59.8242-17.188,87.3682,20.76-20.5059,44.2642-32.8242,67.5152-34.3672.2954-.0195.5918-.0371.8862-.0527a179.999,179.999,0,0,1,55.3867-46.7413,208.8653,208.8653,0,0,1,29.855-13.3994c-9.7275-18.0976-20.7207-33.3872-33.0693-46.0556q-.5244-.5384-1.0547-1.0659c-21.3086,5.14-43.1983,14.165-65.272,27.0092A330.564,330.564,0,0,0,626.8262,715.588Zm-83.2085,88.2675q7.1946,0,14.43.3594.2013-10.7358,1.0454-21.8994-8.4492,10.4268-16.4405,21.541Q543.1355,803.855,543.6177,803.8555Zm384.0337-40.8769a128.4071,128.4071,0,0,1,24.0854,12.0527q1.985,1.27,3.9112,2.6055c6.1337-22.8135,10.081-44.6064,11.645-64.07a557.4569,557.4569,0,0,0-80.3071-10.7158C905.8984,721.418,918.8208,742.669,927.6514,762.9786ZM770.6807,715.4171a365.1849,365.1849,0,0,1,22.7656,58.2734,235.9479,235.9479,0,0,1,47.6431-15.5859,213.1527,213.1527,0,0,1,10.1338-30.0469,208.9919,208.9919,0,0,1,13.0869-25.87c-.3194-.001-.6411-.001-.96-.001C831.7964,702.1871,800.082,705.8907,770.6807,715.4171ZM999.3018,714.37c12.8764,3.2461,24.7275,6.6143,35.2431,9.831,25.127,7.6866,45.7686,20.9229,61.5479,39.4317-1.1807-34.2969-11.4971-70.4546-41.7534-97.7451-30.273-27.3072-63.3291-37.9009-95.7-31.2989a86.4861,86.4861,0,0,1,12.3691,28.1944,136.4256,136.4256,0,0,1,3.35,30.11q9.0872,7.205,17.9453,15.083Q995.8609,711.1481,999.3018,714.37Zm-378.024-67.9961a229.8827,229.8827,0,0,0-53.49,115.8975,406.8139,406.8139,0,0,1,54.0029-50.8155c10.66-21.2216,28.85-47.3623,59.5782-70.9531a95.6767,95.6767,0,0,0-9.5049-1.1992C656.1914,638.107,639.2349,640.4835,621.2778,646.3741ZM877.5786,754.2227a144.4074,144.4074,0,0,1,41.8418,5.9727c-9.3095-19.85-22.7651-40.293-42.2109-57.7764-1.8428-.061-3.6738-.11-5.52-.147a202.4815,202.4815,0,0,0-14.6148,28.2525A207.6088,207.6088,0,0,0,847.9976,756.8,176.3676,176.3676,0,0,1,877.5786,754.2227ZM973.9717,708.48q6.3486,1.3506,12.4546,2.7724-6.003-5.2924-12.1314-10.2671Q974.1961,704.6668,973.9717,708.48ZM734.8154,663.0689c12.2813,12.9551,23.2232,28.4419,32.9131,46.6421,31.8784-10.4751,66.3848-14.2178,100.4947-13.8169q.2137-.3311.4287-.66A174.6236,174.6236,0,0,0,813.89,666.5523C789.2041,658.6129,762.5474,657.5015,734.8154,663.0689Zm144.9815,33.1162a553.1641,553.1641,0,0,1,87.9282,10.9966q.3143-5.7444.3306-11.168A462.7112,462.7112,0,0,0,910.5776,657.87a169.4784,169.4784,0,0,0-33.4018,36.0664Q878.5044,695.0535,879.7969,696.1851Zm-190.249-53.8286c-20.0567,14.6582-40.1763,34.2383-55.5542,60.0264Q646.3518,693.6,659.06,686.2008c21.2-12.3355,42.269-21.2413,62.8681-26.6617A84.7078,84.7078,0,0,0,689.5479,642.3565Zm79.1533,10.8858a153.26,153.26,0,0,1,47.1333,7.2646,181.2075,181.2075,0,0,1,56.3974,29.43,177.35,177.35,0,0,1,32.36-35.3911,553.9529,553.9529,0,0,0-71.688-32.668c-22.7139-8.4692-42.7168-14.8267-60.5317-19.5161a272.14,272.14,0,0,0-43.84,16.6738,256.2925,256.2925,0,0,0-32.413,18.6865,91.64,91.64,0,0,1,33.3208,19.99A180.134,180.134,0,0,1,768.7012,653.2423Zm147.4053.4658a470.942,470.942,0,0,1,51.7959,34.168,123.0075,123.0075,0,0,0-3.0655-23.5992,79.7991,79.7991,0,0,0-12.8589-28.083,110.738,110.738,0,0,0-26.6953,11.5313Q920.63,650.4762,916.1065,653.7081ZM785,599.0836c17.1309,4.9482,33.8379,10.7719,50.1236,16.8442a559.3662,559.3662,0,0,1,74.9018,34.3609,135.1054,135.1054,0,0,1,12.0259-8.03,119.3919,119.3919,0,0,1,25.6675-11.4756c-17.6973-20.6363-46.6416-33.8638-83.84-37.5772C838.8272,590.7052,811.7114,592.82,785,599.0836Zm-96.9956-8.3867a288.3153,288.3153,0,0,0-42.9956,31.541q-8.1855,7.3044-15.5864,15.1147c15.0517-3.9409,29.4131-5.414,42.9253-4.3808a100.1847,100.1847,0,0,1,15.8637,2.4726A259.5581,259.5581,0,0,1,725.7656,613.32a276.4973,276.4973,0,0,1,34.646-13.9365C730.82,592.4493,707.6182,590.3487,688.0039,590.6969Z" style="fill:#2b478b"/><path d="M643.5874,340.0128C661.3482,270.9869,691.3711,210.96,772.6406,210.96c71.274,0,135.92,62.7867,131.2212,140.1607-4.3193,71.1431-66.0991,131.4038-141.726,122.9341C691.3042,466.1217,623.2515,419.0474,643.5874,340.0128Z" style="fill:#afcdfb"/><g style="opacity:0.8"><path d="M753.1509,386.1588a93.2632,93.2632,0,0,1,1.0141-14.7281,44.2853,44.2853,0,0,1,9.3609-21.288,107.93,107.93,0,0,1,9.0649-9.898q4.0511-3.9375,7.5713-7.4546a60.4641,60.4641,0,0,0,6.2022-7.2148,32.7471,32.7471,0,0,0,4.2334-7.8711,26.5477,26.5477,0,0,0,1.55-9.3023q0-11.21-5.544-17.1132-5.5473-5.9056-16.28-5.9043a29.5356,29.5356,0,0,0-8.3481,1.1918,20.6164,20.6164,0,0,0-7.2754,3.8169,19.4152,19.4152,0,0,0-5.1875,6.6792,22.2215,22.2215,0,0,0-1.9668,9.7793h-28.98a47.22,47.22,0,0,1,4.1133-19.7378,40.789,40.789,0,0,1,10.9727-14.311,47.4315,47.4315,0,0,1,16.3383-8.7065,74.0633,74.0633,0,0,1,41.8013.1792,43.7526,43.7526,0,0,1,15.98,9.063,38.549,38.549,0,0,1,9.9585,14.55,52.462,52.462,0,0,1,3.3984,19.44,42.099,42.099,0,0,1-2.5044,14.6694,55.7667,55.7667,0,0,1-6.6777,12.7588,91.1294,91.1294,0,0,1-9.5415,11.45q-5.3664,5.488-11.09,10.8525a29.6,29.6,0,0,0-8.7666,13.0591,56.4281,56.4281,0,0,0-2.3252,16.04ZM751.1235,423.25a17.5545,17.5545,0,0,1,1.0728-6.2022,14.0908,14.0908,0,0,1,8.2881-8.3481,21.01,21.01,0,0,1,13.9546,0,14.35,14.35,0,0,1,5.1274,3.3394,15.0892,15.0892,0,0,1,3.2207,5.0087A16.7231,16.7231,0,0,1,783.92,423.25a15.1057,15.1057,0,0,1-4.2939,10.9712q-4.2935,4.4128-12.1651,4.4126t-12.1045-4.4126A15.2217,15.2217,0,0,1,751.1235,423.25Z" style="fill:#fff"/></g><polygon points="1126.319 178.756 1010.52 212.039 1081.489 147.699 1087.858 164.275 1117.313 165.482 1126.319 178.756" style="fill:#eabe96"/><polygon points="1010.52 212.039 1101.785 147.678 1197.468 129.431 1010.52 212.039" style="fill:#f9ddbf"/><polygon points="1081.489 147.699 1010.52 212.039 1059.598 120.083 1081.489 147.699" style="fill:#f9ddbf"/><polygon points="2143.103 655.604 2263.794 672.791 2183.692 618.221 2179.624 635.722 2150.275 641.044 2143.103 655.604" style="fill:#edcbab"/><polygon points="2263.794 672.791 2163.35 621.034 2064.916 616.106 2263.794 672.791" style="fill:#f9ddbf"/><polygon points="2183.692 618.221 2263.794 672.791 2201.774 587.49 2183.692 618.221" style="fill:#f9ddbf"/><path d="M2079.2886,1255.7481c-113.3262,0-225.6035-49.9736-300.3438-133.6806-64.0019-71.68-93.6386-160.57-83.4521-250.2969l1.5195.1728-1.5195-.1728c13.9326-122.7168,55.4072-217.8086,123.2715-282.6333,64.3691-61.4854,151.9961-95.4658,260.4463-100.9961,126.873-6.4673,224.5048,29.67,290.167,107.4184,28.7236,34.0108,51.3173,76.1695,67.1552,125.3067,14.42,44.7353,23.3535,95.5351,26.5567,150.9892,3.3828,58.5743-1.8037,111.8116-15.417,158.2315-13.8985,47.3926-36.7178,88.1328-67.8242,121.0869C2314.3491,1220.5645,2213.2271,1255.7481,2079.2886,1255.7481Zm28.3193-765.2856q-13.8735,0-28.2422.7329c-107.6972,5.4917-194.665,39.1885-258.4892,100.1533-67.3321,64.3174-108.4951,158.7813-122.3448,280.7676-10.0878,88.8486,19.2793,176.8935,82.6944,247.9141,74.1689,83.0664,185.5937,132.66,298.0625,132.66,133.0625,0,233.4385-34.8613,298.3349-103.6152,30.7725-32.6006,53.3526-72.9239,67.1143-119.8487,13.5147-46.083,18.6621-98.9716,15.2988-157.1953-3.1875-55.1943-12.0742-105.7383-26.414-150.2275-15.7149-48.7549-38.1162-90.5664-66.5821-124.271C2306.98,526.4166,2219.7866,490.4625,2107.6079,490.4625Z" style="fill:#2b478b"/><path d="M2079.2886,1257.8653c-113.919,0-226.7881-50.2392-301.9229-134.3877-63.9091-71.5762-93.7675-160.2226-84.208-249.8418l-.0068-.001.4775-4.207.003.001c14.2236-122.2109,55.8252-217.0156,123.6709-281.8223,64.747-61.8462,152.8291-96.0224,261.8007-101.58,127.5782-6.5039,225.7842,29.89,291.8916,108.167,28.9024,34.2217,51.63,76.6226,67.5528,126.024,14.4736,44.9,23.4414,95.8769,26.6552,151.5156,3.3965,58.8193-1.8173,112.2969-15.499,158.9492-13.9941,47.7168-36.9785,88.7451-68.3164,121.9443C2315.4741,1222.4581,2213.8335,1257.8653,2079.2886,1257.8653Zm28.3193-765.2861c-9.1631,0-18.6289.2456-28.1347.73-107.1748,5.4649-193.6875,38.9649-257.1348,99.57-66.9639,63.9663-107.9111,157.9956-121.7031,279.476-10.02,88.2422,19.1621,175.7012,82.1689,246.2647,73.7744,82.625,184.61,131.9531,296.4844,131.9531,132.458,0,232.3144-34.6377,296.7959-102.9512,30.54-32.3544,52.9551-72.39,66.6211-118.9912,13.4472-45.85,18.5674-98.4961,15.2178-156.4775-3.1768-55.0166-12.0313-105.3828-26.3155-149.7-15.63-48.4927-37.8984-90.0625-66.1845-123.5547C2305.8423,528.35,2219.1011,492.5792,2107.6079,492.5792Z" style="fill:#2b478b"/><path d="M2092.9341,1272.7764c-63.6436,0-133.6846-18.0742-209.4307-54.1523-102.3125-48.7334-182.1884-142.1328-213.6689-249.8457-26.959-92.2344-15.49-185.23,32.291-261.8574,65.35-104.8,143.6846-172.8155,232.83-202.1573,84.5517-27.83,178.2754-20.8271,278.5654,20.8155,117.3311,48.7187,189.9287,123.3291,215.7764,221.7578,11.3066,43.0566,13.5761,90.835,6.7441,142.0078-6.2187,46.5879-19.9971,96.2939-40.9521,147.7354-22.1348,54.3378-49.711,100.17-81.9629,136.2255-32.9258,36.81-71.0469,63.7764-113.3018,80.1534Q2149.9644,1272.7818,2092.9341,1272.7764ZM1703.4224,707.73l1.2968.8095c-47.3134,75.876-58.66,167.9942-31.9492,259.3819,31.2393,106.8886,110.5108,199.5781,212.0489,247.9414,120.1328,57.22,225.7441,68.91,313.9013,34.7441,41.8-16.1992,79.5254-42.8935,112.128-79.3408,32.0185-35.793,59.4082-81.3271,81.4091-135.3389,20.8565-51.2021,34.5684-100.6552,40.753-146.9873,6.7793-50.7744,4.5341-98.1562-6.6709-140.8252-25.5928-97.4565-97.5889-171.3774-213.9912-219.71-99.5938-41.355-192.6006-48.3311-276.4366-20.7354-88.4472,29.1119-166.2314,96.6949-231.1924,200.8706Z" style="fill:#2b478b"/><path d="M2092.9341,1274.8936c-63.8447,0-134.6133-18.289-210.3408-54.3584-102.8487-48.9892-183.1436-142.8818-214.791-251.1621-27.13-92.8213-15.5782-186.4267,32.5273-263.5722,65.6191-105.232,144.3359-173.5469,233.9639-203.0479,85.05-27.9941,179.2685-20.9707,280.039,20.8711C2332.3071,572.61,2405.32,647.6969,2431.3452,746.8c11.377,43.3252,13.6631,91.3789,6.794,142.8252-6.2412,46.7627-20.0664,96.6426-41.09,148.2539-22.2256,54.5605-49.93,100.6-82.3437,136.8379-33.1524,37.0605-71.5459,64.2168-114.1162,80.7158C2167.2691,1268.3458,2131.0484,1274.8936,2092.9341,1274.8936Zm-386.418-565.2343c-46.99,75.3584-58.2539,166.8662-31.7138,257.6679,31.0722,106.3194,109.9238,198.5157,210.9267,246.624,119.5879,56.96,224.6338,68.63,312.2256,34.6817,41.4854-16.0772,78.9375-42.582,111.3164-78.7783,31.8555-35.6114,59.1172-80.9395,81.0264-134.7266,20.789-51.0381,34.4541-100.3174,40.6142-146.4687,6.7432-50.4991,4.5157-97.6045-6.62-140.0069-25.415-96.7837-96.9971-170.228-212.7549-218.2934-99.1123-41.1553-191.623-48.1119-274.9629-20.68C1848.61,538.6319,1771.2075,605.9146,1706.5161,709.6593Z" style="fill:#2b478b"/><path d="M2114.4634,1296.3282c-92.3506.0029-187.2139-44.38-282.3174-132.1523-86.2109-79.5664-136.5391-196.4151-134.6269-312.5713,1.6376-99.4668,41.5019-187.899,112.2509-249.0059l1.0342,1.1978-1.0342-1.1978c96.76-83.5747,195.0772-126.7959,292.22-128.4629,92.1005-1.5849,182.6562,34.0913,269.0439,106.0288,101.0654,84.1612,149.96,180.2,145.3242,285.45-2.0273,46.0391-14.4385,93.9756-36.8906,142.4766-20.4395,44.1572-49.31,89.0762-85.8086,133.5117-38.5518,46.9356-79.876,83.793-122.8252,109.5488-43.8486,26.2959-89.8115,41.2676-136.6133,44.4971Q2124.3677,1296.3268,2114.4634,1296.3282Zm-6.6123-819.0771c-1.9395,0-3.8672.0166-5.8076.05-96.3809,1.6543-194.0205,44.6167-290.2041,127.6933-70.0567,60.51-109.5323,148.1094-111.1543,246.6621-1.8985,115.27,48.0488,231.23,133.6084,310.1934,101.2275,93.4248,202.0547,137.3838,299.708,130.64,46.3-3.1953,91.789-18.0166,135.2041-44.0527,42.6367-25.5684,83.6855-62.1885,122.0068-108.8437,36.3281-44.2276,65.0557-88.919,85.3818-132.8311,22.2784-48.126,34.5918-95.6611,36.6016-141.2871,4.59-104.209-43.9228-199.3828-144.1885-282.877C2285.0435,512.6773,2197.2026,477.2511,2107.8511,477.2511Z" style="fill:#2b478b"/><path d="M2114.4634,1298.4454h0c-92.8633.0039-188.3311-44.6475-283.7529-132.7139-86.6475-79.97-137.2295-197.4131-135.3077-314.1621,1.6348-99.3271,41.1739-187.7309,111.3868-249.1841l-.0049-.0049,3.2041-2.7675.0019.0024c96.6289-83.0039,194.8467-125.9292,291.9629-127.5962,92.6309-1.6059,183.6426,34.2437,270.4346,106.5191,101.6006,84.6069,150.751,181.2246,146.084,287.1689-2.0391,46.3184-14.5166,94.5225-37.084,143.2734-20.5137,44.3174-49.48,89.3907-86.0938,133.9659-38.706,47.123-80.2148,84.14-123.372,110.02-44.1377,26.4687-90.418,41.54-137.5567,44.7929-6.5859.4551-13.2822.6856-19.9023.6856Zm-6.6123-819.0772c-1.9268,0-3.8428.0162-5.7715.0494-95.8711,1.6455-193.0566,44.4345-288.8564,127.1787-69.5948,60.11-108.81,147.1538-110.4219,245.0952-1.8887,114.6758,47.8037,230.041,132.9277,308.6025,94.0879,86.836,187.7617,130.749,278.7412,130.751q9.7164,0,19.3858-.667c45.9638-3.1728,91.1357-17.8945,134.2607-43.7568,42.43-25.4453,83.2949-61.9063,121.46-108.3721,36.2158-44.0908,64.8467-88.6289,85.0967-132.377,22.1611-47.87,34.41-95.1386,36.4082-140.49,4.5585-103.5146-43.6973-198.1089-143.4288-281.1577C2284.1011,514.647,2196.6909,479.3682,2107.8511,479.3682Z" style="fill:#2b478b"/><path d="M2000.4819,1289.5421c-36.2314,0-70.7851-6.0352-103.1416-18.0489-92.6044-34.3837-167.0039-116.5439-221.1328-244.2011-45.7968-108.01-43.541-235.2159,6.0352-340.2784,42.4521-89.9667,115.1963-154.1372,204.831-180.6884,122.5948-36.3125,229.9834-35.2129,319.1934,3.271,84.6143,36.5014,152.4121,106.2856,201.5117,207.4145,57.4414,118.3115,62.4473,225.9649,14.8819,319.9668-20.8067,41.12-51.8584,79.6924-92.2891,114.6445-36.8106,31.82-81.6172,60.8663-133.1758,86.3282-54.459,26.8965-107.2949,43.4668-157.0391,49.2519A343.5085,343.5085,0,0,1,2000.4819,1289.5421ZM1887.523,507.8433l.45,1.5176c-88.7579,26.292-160.8047,89.8633-202.8682,179.0039-49.1963,104.2593-51.4336,230.5-5.9824,337.6909,53.7734,126.8233,127.5644,208.4014,219.3193,242.47,43.5078,16.1543,91.06,21.3789,141.3486,15.5312,49.3829-5.7422,101.87-22.21,156.0039-48.9443,51.3174-25.3438,95.8995-54.24,132.5059-85.8858,40.1182-34.6806,70.916-72.9267,91.5352-113.6787,47.0966-93.0722,42.081-199.7783-14.9063-317.1543-48.7568-100.4267-116.0195-169.6977-199.916-205.8906-88.5117-38.1821-195.1777-39.2407-317.04-3.1421Z" style="fill:#2b478b"/><path d="M2000.4829,1291.6593a297.3709,297.3709,0,0,1-103.8789-18.1817c-93.1728-34.5947-167.9805-117.1455-222.3457-245.3594-46.0283-108.5556-43.7588-236.4091,6.07-342.0078,42.7129-90.52,115.9229-155.09,206.1436-181.8149,123.0849-36.4561,230.96-35.3262,320.6338,3.3569,85.0918,36.708,153.249,106.8355,202.5771,208.4336,57.7451,118.9375,62.7471,227.2227,14.8662,321.8477-20.9316,41.3672-52.1523,80.1562-92.7929,115.29-36.9493,31.9395-81.9063,61.085-133.6231,86.624-54.6758,27.0039-107.7451,43.6436-157.7324,49.4571A346.957,346.957,0,0,1,2000.4829,1291.6593ZM1888.5747,511.3907c-88.1728,26.1187-159.7529,89.29-201.5547,177.8774-48.9443,103.7232-51.1679,229.316-5.9492,335.9615,53.5371,126.2646,126.919,207.4531,218.1074,241.3115,43.1895,16.0361,90.416,21.2217,140.3682,15.4131,49.14-5.7139,101.3936-22.1123,155.3105-48.74,51.1573-25.2636,95.5879-54.0605,132.0586-85.5888,39.9112-34.501,70.5381-72.5313,91.0323-113.0332,46.7812-92.45,41.7607-198.5235-14.9219-315.2735-48.5293-99.956-115.4326-168.8852-198.8516-204.8715C2116.1275,476.4644,2009.9429,475.4361,1888.5747,511.3907Z" style="fill:#2b478b"/><path d="M2101.4468,1255.7481c-113.3242,0-209.2412-59.4941-283.9815-143.2011-64.0029-71.6788-110.0009-151.05-99.8144-240.7764,13.9326-122.7168,55.4072-217.8086,123.2715-282.6333,64.3691-61.4854,151.9951-95.4658,260.4463-100.9961,126.88-6.4673,224.5048,29.67,290.167,107.4184,28.7236,34.0108,51.3173,76.1695,67.1562,125.3067,14.418,44.7353,23.3535,95.5351,26.5566,150.9892,3.3829,58.5743-1.8046,111.8116-15.4179,158.2325-13.8985,47.3916-36.7178,88.1318-67.8252,121.0859C2336.5073,1220.5645,2235.3843,1255.7481,2101.4468,1255.7481ZM1719.17,871.9434l1.52.1729c-10.0879,88.8486,38.457,168.1514,101.871,239.1728,74.17,83.0674,166.418,141.4014,278.8858,141.4014,133.0625,0,233.4375-34.8613,298.3349-103.6152,30.7725-32.6006,53.3526-72.9239,67.1143-119.8487,13.5137-46.083,18.6621-98.9716,15.2988-157.1953-3.1884-55.1943-12.0742-105.7383-26.414-150.2275-15.7158-48.7549-38.1162-90.5664-66.5821-124.271-65.0127-76.98-161.7988-112.7559-287.6748-106.3374-107.6972,5.4917-194.665,39.1885-258.4892,100.1533C1775.7017,655.6661,1734.54,750.13,1720.69,872.1163Z" style="fill:#2b478b"/><path d="M2101.4458,1257.8653c-54.1621,0-107.1387-13.6133-157.456-40.46-45.2881-24.1641-88.3887-58.9688-128.1036-103.4483-35.8261-40.123-61.3652-77.4629-78.0752-114.1533-19.8359-43.5508-27.1181-85.5088-22.2636-128.2725,13.99-123.2226,55.6806-218.7485,123.9131-283.9248,64.747-61.8462,152.8291-96.0224,261.8007-101.58,127.584-6.4946,225.7842,29.89,291.8916,108.167,28.9014,34.2212,51.63,76.6216,67.5538,126.024,14.4736,44.9072,23.4423,95.8847,26.6552,151.5156,3.3965,58.8164-1.8183,112.2959-15.5,158.95-13.9941,47.7168-36.9795,88.7451-68.3174,121.9433C2337.6314,1222.4581,2235.9907,1257.8653,2101.4458,1257.8653Zm-378.6523-385.51c-8.5235,75.0655,23.6806,150.54,101.3466,237.5235,83.3584,93.3584,176.6573,140.6943,277.3057,140.6943,132.458,0,232.3145-34.6377,296.7969-102.9512,30.54-32.3544,52.9551-72.3886,66.6221-118.9912,13.4462-45.8505,18.5664-98.497,15.2168-156.4775-3.1778-55.0166-12.0323-105.3828-26.3155-149.7-15.6318-48.4941-37.8994-90.064-66.1845-123.5547-64.5625-76.4463-160.7588-111.978-285.95-105.5889-107.1748,5.4649-193.6875,38.9649-257.1348,99.57C1777.5327,656.8448,1736.5855,750.8741,1722.7935,872.3555Zm20.8857,130.0313c16.5469,34.9082,41.2412,70.5342,75.3652,108.75a540.7041,540.7041,0,0,0,44.9424,44.8955,559.3459,559.3459,0,0,1-43.0049-43.333C1786.4634,1074.0391,1760.8306,1037.587,1743.6792,1002.3868Z" style="fill:#2b478b"/><path d="M2026.3706,1042.9171c-.1855.332-.3818.6767-.5781,1.0205-4.5986,7.9912-15.1475,27.5771-26.7656,49.0068-5.4961,10.168-11.25,20.7539-16.709,30.7129-9.4053,17.1875-17.9629,32.4951-22.9541,40.585-5.0781,8.2246-8.8154,14.0039-10.3281,16.3154l-.0127.0117a3.8321,3.8321,0,0,0-.4913,2.3858,124.7685,124.7685,0,0,1-.332,21.5527c-7.0078,69.7236-54.0234,107.0869-54.0234,107.0869l-13.98,2.0664s19.7832-73.29,25.61-114.7236c.9834-7.02,1.4141-12.7129,1.07-16.4258-1.0333-10.7939.8847-26.6426,4.5117-44.8389,6.455-32.3349,18.2949-72.0224,28.5849-103.792.6524-2.0293,20.3116-73.1416,20.3116-73.1416,16.499,14.4219,76.6826,20.3721,76.6826,20.3721S2047.1724,1005.922,2026.3706,1042.9171Z" style="fill:#f99746"/><path d="M1850.8579,1331.3487h58.3438s1.3984-8.8926-1.6494-15.6377c-2.92-6.4736-7.0821-6.68-.5313-16.8262-3.707,3.8174-15.625,5.3956-24.06,4.2608-1.0341,1.6758-6.663,12.917-10.1152,15.3974C1869.0337,1321.2823,1852.0317,1320.3057,1850.8579,1331.3487Z" style="fill:#2358a5"/><path d="M2026.3706,1042.9171c-.1855.332-.3818.6767-.5781,1.0205-4.5986,7.9912-29.4668,53.9248-41.085,75.3545,13.4619-55.3887,4.0987-110.7774,4.0987-110.7774Z" style="fill:#ed7d2b"/><path d="M1801.1851,769.3194s-2.31-25.1738,25.8183-25.1738c0,0-8.5234,2.3115-12.9326,6.9355,0,0,17.94-10.5322,37.4639,5.6514s7.3916,56.7715,13.3291,64.4775,29.0556,9.2481,26.23,34.1661-73.375,56.1259-68.8447,76.7421c0,0-27.6474-40.6416-7.8779-59.1894,0,0-9.6367,9.0771-10.6182,19.8662,0,0-2.6142-21.0645,10.7891-27.8018,11.8623-5.9628,21.5791-27.7675,20.5508-31.665S1801.1851,769.3194,1801.1851,769.3194Z" style="fill:#202d4f"/><path d="M1840.8862,875.03s-40.0175,100.9843-48.6425,97.2421c-8.625-3.74-59.4473-19.8818-59.4473-19.8818s1.8145,14.3955,2.6348,15.0459c7.44,5.8975,44.8554,34.7549,67.2705,36.2236,24.8857,1.6309,58.5947-71.6923,58.5947-71.6923Z" style="fill:#ffb27d"/><path d="M1809.1421,765.78c-.3818-1.5333,33.3223,15.2324,35.0313,17.1279,15.8076,17.5342,11.3007,40.415,2.2558,40.6347-5.8008.1407-4.6767,9.7852-4.6767,9.7852L1777.1294,805.99S1784.9107,760.6182,1809.1421,765.78Z" style="fill:#202d4f"/><path d="M1830.8589,877.1339s-8.6064,8.914-8.6064,35.5879c0,0,11.8574,18.7187,42.6113,23.457C1864.8638,936.1788,1838.4224,877.1192,1830.8589,877.1339Z" style="fill:#1c468a"/><path d="M1980.8872,985.4552l-.1972-10.9122c21.74,2.7422,74.9628-25.9794,74.9628-25.9794s22.7452,15.1279,25.8584,58.33c1.52,21.0869,11.1338,110.2657,12.1973,136.8946.3877,9.6513.5166,16.539.5606,19.291a.0489.0489,0,0,0-.003.0273,3.7871,3.7871,0,0,0,.9248,2.2461,124.6435,124.6435,0,0,1,11.78,18.0576c33.1748,61.7237,15.8262,145.5938,15.8262,145.5938l-7.7041-1.959s-28.0508-86.9443-46.3838-124.5527c-3.1123-6.378-5.9385-11.34-8.3037-14.2129-6.8936-8.3721-14.1621-22.5908-21.3262-39.7012C2025.5366,1116.2266,1980.8872,985.4552,1980.8872,985.4552Z" style="fill:#f99746"/><path d="M2076.4019,1331.3487h58.3427s1.3985-8.8926-1.6484-15.6377c-2.9209-6.4736-7.4941-9.416-6.3994-17.248-3.707,3.8174-9.749,8.0918-18.1836,6.957-1.0332,1.6758-6.6719,10.6426-10.1231,13.123C2094.5767,1321.2823,2077.5757,1320.3057,2076.4019,1331.3487Z" style="fill:#2358a5"/><path d="M1868.8023,948.7081c7.8369,1.3369-1.2793,7.5664,9.499,8.7373,15.3408,1.6748,31.1806,2.82,39.4775,6.13,3.0264,1.207,5.0508,2.6972,5.6826,4.6025,3.5967,10.8154,19.4463,27.502,19.4463,27.502,101.5918-4.6241,112.7461-47.1172,112.7461-47.1172-65.9355-64.0362-126.5586-101.8-172.8506-106.7979-7.9218-.8564-17.9394,4.1719-25.0752,7.3477-16.2138,7.2187-26.8691,28.0215-26.8691,28.0215S1839.0249,943.629,1868.8023,948.7081Z" style="fill:#1c468a"/><path d="M1878.3013,957.4454c15.3408,1.6748,31.1806,2.82,39.4775,6.13,3.3916-50.668-20.52-88.7793-20.52-88.7793S1881.6616,938.2716,1878.3013,957.4454Z" style="fill:#163560"/><path d="M1865.0659,866.2188s38.5791-2.1074,45.4346,22.1143-12.8613,120.9023-17.11,130.8808c-7.7353,18.1661-45.3945,70.0157-45.3945,70.0157l-10.3847-5.335s21.6464-78.0918,27.2529-85.93C1873.6636,985.66,1853.5181,876.7569,1865.0659,866.2188Z" style="fill:#ffb27d"/><path d="M1840.353,1076.65s-3.2207,11.3779-9.5136,17.6748c-2.8955,2.8984-5.4805,11.6143-5.6133,16.1055,0,0-.4717,3.7158,1.1474,3.3515s3.43-8.4238,6.3155-8.0244c0,0-1.5391,9.002-3.0664,11.5361s-2.4326,10.375-.2617,11.3311c5.2587,2.3154,13.038-7.6025,17.665-13.8252s.0742-31.4736.0742-31.4736Z" style="fill:#ffb27d"/><path d="M1918.1089,920.7227c-.1016.5684-36.5088,6.6983-59.28-4.8593,0,0-19.0234-59.5967,8.1621-56.7461s43.2842,11.414,43.9688,24.43S1918.1089,920.7227,1918.1089,920.7227Z" style="fill:#1c468a"/><path d="M1857.728,849.1124s-10.7265,40.0215-26.8691,28.0215c.4541-1.93-2.3613-7.5489-5.6807-13.253-4.2422-7.291-9.2949-14.7422-9.2949-14.7422l21.8359-19.13,1.3028-1.1436C1845.7105,840.545,1852.2691,845.129,1857.728,849.1124Z" style="fill:#ffb27d"/><path d="M1815.8853,849.1466s5.0478,7.4345,9.291,14.7343c13.5713-8.3662,13.5869-25.1689,12.541-33.873Z" style="fill:#ed985f"/><path d="M1815.2808,858.7325s32.9531-18.3369,21.2177-38.6826-15.3847-36.416-36.9209-25.5684-21.11,20.9483-18.8457,28.6914S1806.4058,862.9776,1815.2808,858.7325Z" style="fill:#ffb27d"/><path d="M1775.1655,811.3067c1.51-9.0342,6.0987-9.8965,9.2979-9.293,12.17-20.1259,32.0527-12.2714,32.0527-12.2714a44.8644,44.8644,0,0,0,25.9737,15.6006s-3.8252,7.1152-19.58,11.5195c-4.8135,1.3457-10.2754.5312-15.543-1.2422a87.9725,87.9725,0,0,0,22.3613,8.43c-20.7627,1.9-40.5175-17.082-42.5664-19.1133-.958,2.9424-2.6377,9.1006-1.6328,13.6035,1.3672,6.1182,6.7988,17.2,3.4824,18.6348C1789.0112,837.1749,1772.9028,824.8546,1775.1655,811.3067Z" style="fill:#202d4f"/><path d="M1739.9019,956.9835s-5.8887,2.6123-11.878-3.4932c-3.06-3.1191-8.542-4.81-5.708-6.4814s10.3848,1.7636,12.1582,2.3672S1739.9019,956.9835,1739.9019,956.9835Z" style="fill:#ffb27d"/><path d="M1960.5581,287.7711c17.7-68.7925,47.6221-128.6167,128.6172-128.6167,71.0322,0,135.459,62.5742,130.7773,139.6865-4.3056,70.9023-65.8759,130.96-141.247,122.5181C2008.1138,413.4532,1940.2915,366.5387,1960.5581,287.7711Z" style="fill:#afcdfb"/><g style="opacity:0.8"><path d="M2070.07,375.2935a18.7,18.7,0,0,1,1.2735-6.9663,16.888,16.888,0,0,1,3.6152-5.626,16.0855,16.0855,0,0,1,5.7617-3.7509,23.6,23.6,0,0,1,15.6719,0,16.1243,16.1243,0,0,1,5.7588,3.7509,16.9741,16.9741,0,0,1,3.6182,5.626,18.8,18.8,0,0,1,1.2724,6.9663,16.9711,16.9711,0,0,1-4.8232,12.3233q-4.8223,4.9563-13.6641,4.9565-8.8389,0-13.6631-4.9565A16.9736,16.9736,0,0,1,2070.07,375.2935Zm32.0147-42.0615h-27.9971l-3.081-137.5713H2105.3Z" style="fill:#fff"/></g><path d="M1117.6572,429.7911C1157.4009,275.3272,1224.5859,141,1406.4487,141c159.4952,0,304.1573,140.5024,293.6436,313.6474-9.666,159.2022-147.915,294.0523-317.1514,275.0982C1224.4365,711.9942,1072.15,606.6534,1117.6572,429.7911Z" style="fill:#afcdfb"/><path d="M1529.0376,412.023a121.6228,121.6228,0,0,1-27.6943,78.1807,102.1873,102.1873,0,0,0-23.4951,64.7944v34.1358a39.52,39.52,0,0,1-39.3975,39.3916H1375.41a39.5078,39.5078,0,0,1-39.3916-39.3916V555.0567a101.7837,101.7837,0,0,0-23.3775-64.7055,122.1323,122.1323,0,0,1,67.6817-196.78q2.33-.5223,4.6943-.9448c.8389-.1534,1.6772-.295,2.5215-.4312a122.1593,122.1593,0,0,1,141.499,119.8281Z" style="fill:#f9ddbf"/><path d="M1438.23,628.5269l-.1362,1.0493-1.731,13.2779-.456,3.4975v.0293l-.4624,3.521-1.7251,13.272-.4566,3.4971-.0058.03-.4561,3.5268-.2549,1.9444c-.8774,6.7338-8.5776,11.8789-17.7832,11.8789h-20.7461a23.6542,23.6542,0,0,1-6.2422-.8243h-.0058a20.1177,20.1177,0,0,1-4.8311-2.0092l-.1123-.0655a16.0178,16.0178,0,0,1-3.1416-2.3945,11.3677,11.3677,0,0,1-3.438-6.4609l-.7348-5.1455-.4688-3.2422v-.0059l-.0058-.0713v-.0058l-.4561-3.1714-1.7607-12.3057-.4624-3.2305-.0118-.0708-.4565-3.1894-1.9087-13.3311Z" style="fill:#ed7d2b"/><path d="M1429.9961,628.5269h-11.7246c-18.9209,5.4712-37.6875,10.8775-46.3833,13.3311l.4565,3.1894.0118.0708.4624,3.2305c7.042-1.95,23.9472-6.793,65.2744-18.7725l.1362-1.0493Z" style="fill:#f99746"/><path d="M1375.0357,663.8258v.0058l.0058.0713v.0059l.4688,3.2422c8.144-2.2876,24.9428-7.107,59.9336-17.2491l.4624-3.521v-.0293l.456-3.4975c-22.11,6.4018-48.8725,14.1313-61.7827,17.8Z" style="fill:#f99746"/><path d="M1382.8247,681.1519l.1123.0655a20.1177,20.1177,0,0,0,4.8311,2.0092h.0058c9.5967-2.75,23.8409-6.8642,45.0264-12.999l.4561-3.5268.0058-.03.4566-3.4971c-18.9209,5.4771-40.6275,11.7485-54.0357,15.5835A16.0178,16.0178,0,0,0,1382.8247,681.1519Z" style="fill:#f99746"/><rect x="1369.0486" y="471.1968" width="5.5229" height="158.4432" transform="translate(-72.6629 236.8564) rotate(-9.6148)" style="fill:#ed7d2b"/><rect x="1362.286" y="548.8892" width="156.3085" height="5.5223" transform="matrix(0.1799, -0.9837, 0.9837, 0.1799, 638.5966, 1869.3122)" style="fill:#ed7d2b"/><path d="M1421.5068,500.6466a10.777,10.777,0,0,1-2.3847-.2915,3.4247,3.4247,0,0,1-2.7066-2.961c-.63-3.4507,2.0782-9.7822,5.88-15.1465-1.9868-3.4692-4.6343-6.3315-7.4092-7.1714-4.1-1.2436-10.3911,2.542-14.7719,7.378a32.7709,32.7709,0,0,1,2.1548,3.5107c2.2441,4.2383,3.8569,9.6592,1.65,12.1641-.8183.9287-2.4882,1.7715-5.8017.5215-4.1377-1.5606-5.6245-5.066-4.08-9.6167a22.0982,22.0982,0,0,1,3.9219-6.7022c-3.3936-4.4258-7.9278-7.789-12.3955-7.2261a13.6937,13.6937,0,0,0-6.1367,2.3155c2.8579,5.3178,3.5156,12.0664,1.5322,15.6875-1.35,2.4673-3.71,3.247-6.6445,2.2046-2.1075-.75-3.209-3.65-2.8028-7.39a17.0713,17.0713,0,0,1,5.7305-10.93,14.1873,14.1873,0,0,0-3.1763-3.5621c-7.6977-5.9765-14.0649.4361-14.331.7144l-1.2017-1.1636c.0772-.0786,7.6948-7.7534,16.5581-.8711a15.7278,15.7278,0,0,1,3.48,3.8662,15.3588,15.3588,0,0,1,6.7837-2.5293c5.0093-.6294,10.0073,2.9043,13.7173,7.607,4.77-5.18,11.5581-9.0073,16.2968-7.5777,2.9932.9063,5.8174,3.7945,7.9751,7.3526a28.6685,28.6685,0,0,1,6.4263-6.32c3.4883-2.31,5.7617-1.78,7.05-.93a12.6232,12.6232,0,0,1,3.3887,3.3877,18.7832,18.7832,0,0,1,3.2431-2.0894c4.0411-2.0132,7.752-1.8647,10.4493.4156l-1.08,1.2763c-2.9082-2.4614-6.6533-1.1777-8.625-.1958a17.4259,17.4259,0,0,0-3.1074,2.0108c2.6894,4.8515,3.2119,11.1748,1.6709,14.2358a3.5359,3.5359,0,0,1-4.7286,1.855c-3.6513-1.3374-4.5424-3.8526-4.6469-5.7276-.1992-3.5844,2.2851-7.666,5.5317-10.6723a10.9472,10.9472,0,0,0-3.0132-3.1c-1.5786-1.0381-3.705-.0689-5.21.9277a28.215,28.215,0,0,0-6.4619,6.4941c2.5073,4.77,3.8066,10.3282,2.8564,13.9136A5.4066,5.4066,0,0,1,1421.5068,500.6466Zm1.6568-16.7608c-3.3086,4.8247-5.6377,10.2822-5.1045,13.208a1.7961,1.7961,0,0,0,1.4316,1.6309c3.2744.7427,5.2871-.2124,5.98-2.8418C1426.2764,492.8468,1425.2232,488.1026,1423.1636,483.8858Zm-24.169-.1211a19.8548,19.8548,0,0,0-3.374,5.8062c-1.2685,3.7363-.2285,6.2646,3.0884,7.5156,1.3354.5034,3.106.9019,3.9565-.062,1.3125-1.49.542-5.7163-1.874-10.2769A31.8135,31.8135,0,0,0,1398.9946,483.7647Zm-20.8979-5.2959a15.38,15.38,0,0,0-4.9229,9.6348c-.31,2.8516.39,5.1684,1.7022,5.6343,2.1235.7549,3.6826.2749,4.6177-1.4322C1381.1929,489.2017,1380.5747,483.2359,1378.0967,478.4688Zm61.6816,1.0669c-2.9038,2.79-4.8774,6.3648-4.7236,9.1187.1108,1.998,1.3057,3.4277,3.5518,4.25a1.8886,1.8886,0,0,0,2.6606-1.0367C1442.5581,489.3028,1442.0083,483.81,1439.7783,479.5357Z" style="fill:#ed7d2b"/><path d="M1469.9653,337.61c10.0381,9.4565,8.7784,26.8584-4.1337,30.73-9.7344,2.919-24.252-.979-31.4253-13.4038s-3.8658-22.6377,4.9355-27.7192S1459.522,327.7716,1469.9653,337.61Z" style="fill:#fff0e3"/><path d="M1403.0834,211.8057h1.1695a3.8848,3.8848,0,0,1,3.8848,3.8848v48.1142a3.8848,3.8848,0,0,1-3.8848,3.8848h-1.1694a3.8848,3.8848,0,0,1-3.8848-3.8848V215.69A3.8847,3.8847,0,0,1,1403.0834,211.8057Z" style="fill:#fff0e3"/><path d="M1563.9433,296.9093h1.2856a3.8266,3.8266,0,0,1,3.8266,3.8266v27.2422a3.826,3.826,0,0,1-3.826,3.826h-1.2854a3.8275,3.8275,0,0,1-3.8275-3.8275V300.736a3.8267,3.8267,0,0,1,3.8267-3.8267Z" transform="translate(1054.4069 -1197.75) rotate(59.9952)" style="fill:#fff0e3"/><path d="M1565.9155,390.9254h0a4.4823,4.4823,0,0,1,4.4688-4.47h59.66a4.4831,4.4831,0,0,1,4.47,4.47h0a4.4829,4.4829,0,0,1-4.47,4.4692h-59.66A4.4821,4.4821,0,0,1,1565.9155,390.9254Z" style="fill:#fff0e3"/><path d="M1482.5347,287.8575h0a4.4826,4.4826,0,0,1-2.3574-5.8647l31.6679-74.2427a4.4835,4.4835,0,0,1,5.8653-2.3574h0a4.4834,4.4834,0,0,1,2.3574,5.8647L1488.3989,285.5A4.4823,4.4823,0,0,1,1482.5347,287.8575Z" style="fill:#fff0e3"/><path d="M1263.52,323.6368l.6426-1.1128a3.8381,3.8381,0,0,0-1.4009-5.2275L1239.17,303.6759a3.8376,3.8376,0,0,0-5.2275,1.4L1233.3,306.19a3.8382,3.8382,0,0,0,1.4,5.2276l23.5923,13.6206A3.838,3.838,0,0,0,1263.52,323.6368Z" style="fill:#fff0e3"/><path d="M1247.4019,390.9254h0a4.4824,4.4824,0,0,0-4.4693-4.47h-59.66a4.4828,4.4828,0,0,0-4.47,4.47h0a4.4826,4.4826,0,0,0,4.47,4.4692h59.66A4.4822,4.4822,0,0,0,1247.4019,390.9254Z" style="fill:#fff0e3"/><path d="M1330.7827,287.8575h0a4.483,4.483,0,0,0,2.3574-5.8647L1301.4717,207.75a4.4829,4.4829,0,0,0-5.8648-2.3574h0a4.4826,4.4826,0,0,0-2.3574,5.8647L1324.918,285.5A4.4829,4.4829,0,0,0,1330.7827,287.8575Z" style="fill:#fff0e3"/><path d="M1288.89,641.4581c.0616-1.6895,1.3692-19.8926,29.0958-20.8433,0,0-13.6343,1.6255-15.99,7.6192,0,0,9.2837-7.4063,16.8443-5.024s12.0009,15.628,12.0454,19.9844-4.1558,18.4014-8.9541,19.5957a14.6428,14.6428,0,0,1-5.8116.0069,65.3343,65.3343,0,0,1,3.7237,6.6479c11.0639,22.7114-.3457,44.9067-9.7124,42.4546-6.0069-1.5723-7.7066,8.6777-7.7066,8.6777l-58.3608-47.247S1265.5,628.9752,1288.89,641.4581Z" style="fill:#2c3a64"/><path d="M1268.57,1310.5372l12.3965,4.6152s53.8433-74.6767,60.4722-140.38c1.1841-11.73.7895-23.0957-1.771-33.5908,0,0,.5263-3.0058,1.4472-8.3193.4253-2.4795.9512-5.4649,1.5484-8.8858,1.751-10.03,4.16-23.7529,6.9126-39.38,6.3354-35.959,14.5434-81.9268,20.9194-115.7188l-3.34-1.0732-36.1411-11.6592-7.4688-23.7227-26.9111-7.084s-6.0113,11.76-11.3858,67.3125c-.9917,7.2862-1.8921,15.3223-2.5708,24.0362a475.6769,475.6769,0,0,0,2.5611,97.31q1.8515,14.4829,4.726,29.8663c1.417,7.51,1.6294,17.7412,1.0323,29.4921C1288.2857,1227.0655,1268.57,1310.5372,1268.57,1310.5372Z" style="fill:#1c468a"/><path d="M1282.6782,1016.6876l58.437,116.1748c.4253-2.4795.9512-5.4649,1.5484-8.8858,1.751-10.03,4.16-23.7529,6.9126-39.38,6.3354-35.959,14.5434-81.9268,20.9194-115.7188l-3.34-1.0732-36.1411-11.6592-7.4688-23.7227-34.9468-19.3779s-.0073,5.4111-3.0429,64.5127C1284.5645,984.8448,1283.3569,1007.9737,1282.6782,1016.6876Z" style="fill:#163560"/><path d="M1308.3862,940.2471l1.3526-11.6005c22.664,6.0195,85.8457-22.1329,85.8457-22.1329s19.3291,24.6114,16.4463,70.8741c-1.4068,22.58-3.9771,118.5322-6.6612,146.9258-.97,10.291-1.82,17.6142-2.167,20.539a.0518.0518,0,0,0-.0073.0283,4.0587,4.0587,0,0,0,.6587,2.5147,133.2621,133.2621,0,0,1,9.9082,20.8359c26.3467,70.209-4.0581,156.6719-4.0581,156.6719l-7.89-3.1807s-17.3023-96.2216-31.3609-138.7314c-2.3867-7.21-4.6743-12.875-6.771-16.2608-6.1118-9.8662-11.7851-25.9853-16.934-45.1582-9.731-36.247-17.564-83.4013-22.7769-119.7978C1319.5327,970.9434,1308.3862,940.2471,1308.3862,940.2471Z" style="fill:#1c468a"/><path d="M1147.5689,898.4l-1.7613,13.3359s8.0327-1.07,9.3462-1.164c4.1279-.2823,16.3438-1.0733,27.6944-2.294,17.0742-1.6875,29.4472-2.082,37.5151-7.0527,12.29-7.5049,32.4595-30.4893,45.5923-53.4736a14.9516,14.9516,0,0,0,.9385-1.6885c6.8481-12.1963,11.6328-24.2979,12.0078-33.96a48.4857,48.4857,0,0,0-1.5948-15.3847,39.24,39.24,0,0,0-6.9419-13.8848,6.9953,6.9953,0,0,0-1.3134-1.5947,32.4052,32.4052,0,0,0-8.9126-7.5987c-2.251-.9385-9.7315,8.1328-12.2637,10.8535l-2.1167,6.2872c-2.0645,2.1582-24.7256,75.0126-34.9512,86.3632-4.4092,4.878-24.95,12.542-43.6587,17.7276C1155.0044,898.2374,1147.5689,898.4,1147.5689,898.4Z" style="fill:#f2a16b"/><path d="M1265.0889,799.5391a70.5677,70.5677,0,0,0,26.1011,6.1123c38.9648,2.1358,47.81-32.0214,49.4189-54.6914a32.6852,32.6852,0,0,0-13.3691-1.69c-2.2608.124-4.6031.3369-6.6827.57a3.7486,3.7486,0,0,1-2.7475-.77c-4.9053-3.8525-12.3794-15.5137-16.8736-33.8867l-1.68.78-28.1153,13.2177s2.9854,9.1485,5.1919,17.9034a91.6842,91.6842,0,0,1,2.1089,10.4,6.1665,6.1665,0,0,1-3.7275,6.39h-.001a.0816.0816,0,0,1-.01.03A192.9465,192.9465,0,0,0,1265.0889,799.5391Z" style="fill:#ffb27d"/><path d="M1403.72,919.1934c-.3178,14.4151-101.8066,27.1895-119.27,17.5166,0,0-4.53-21.8457-10.2983-46.4-1.7354-7.3876-3.5879-15.0078-5.4507-22.3632-4.3921-17.2832-8.9116-33.043-12.3833-40.5264-.3594-.7832-.6773-1.5342-.9732-2.3174-7.7793-20.6172,6.7842-42.664-3.2705-49.1836,0,0,5.9585-5.4931,22.6387-12.0439a.08.08,0,0,1-.01.0312c-.2646.9737-1.7465,14.6592,1.1109,20.0147,5.6416,10.583,27.688,5.0478,37.7427-8.0127,5.895-7.6416,10.4565-15.3672,12.5312-22.5967.4653-1.63,1.1533-4.043,1.1533-4.043s18.5962-2.5185,29.042,1.7149a80.3038,80.3038,0,0,0-5.6411,18.85c-.1479.9424-.2641,1.8848-.36,2.8262a37.1488,37.1488,0,0,0-.1479,5.9267c.1479,2.5723,1.4819,4.8477,3.5879,7.0811a55.6793,55.6793,0,0,0,7.4936,6.2129c1.9366,1.3964,4.0113,2.8574,6.149,4.455.19,11.6426-.6348,30.7891,1.5239,51.2159a34.4824,34.4824,0,0,0,4.9746,14.5322,35.6482,35.6482,0,0,0,3.6836,4.9629C1388.5322,879.3555,1404.09,917.5108,1403.72,919.1934Z" style="fill:#f99746"/><path d="M1271.14,729.1856s2.9893,9.1406,5.1919,17.9033c16.4336-4.5849,21.4244-21.8593,22.9258-31.12Z" style="fill:#ed985f"/><path d="M1267.68,738.8643s39.3174-9.1,33.2739-33.497-5.039-42.0039-30.3974-37.2256-27.9117,15.2915-27.875,23.9253S1257.2964,740.6026,1267.68,738.8643Z" style="fill:#ffb27d"/><path d="M1240.47,678.2154c4.2266-8.8428,9.2012-8.3711,12.313-6.8032,18.4741-17.0933,36.5952-3.1289,36.5952-3.1289a48.0151,48.0151,0,0,0,22.09,23.7339s-6.04,6.1845-23.5459,6.0483c-5.3477-.0415-10.7237-2.4966-15.6162-5.88a94.1364,94.1364,0,0,0,20.5009,15.29c-21.9145-4.1934-36.6093-29.5635-38.1152-32.2583-1.856,2.7412-5.4072,8.5771-5.706,13.5053-.4063,6.6968,1.8979,19.7012-1.9371,20.1944C1247.0488,708.9171,1234.1309,691.4771,1240.47,678.2154Z" style="fill:#2c3a64"/><path d="M1252.07,775.9132s-3.4887,2.0058-9.8691,21.5048c0,0,7.3066,9.0782,16.22,8.23C1258.42,805.6475,1259.6084,778.1387,1252.07,775.9132Z" style="fill:#f99746"/><path d="M1363.833,1331.3487h62.4351s1.497-9.5156-1.7647-16.7344c-3.1245-6.9277-8.019-10.0761-6.8471-18.458-3.9673,4.085-10.4331,8.6592-19.46,7.4453-1.106,1.793-7.1392,11.3887-10.8335,14.043C1383.2832,1320.5762,1365.0894,1319.5313,1363.833,1331.3487Z" style="fill:#2358a5"/><path d="M1229.7754,1331.3487h62.436s2.334-9.958-1.7651-16.7344c-3.6284-5.9961-2.2378-9.4121.45-14.372a24.2676,24.2676,0,0,1-10.5156,1.98,21.9949,21.9949,0,0,1-9.2852-3.2656c-2.6875,3.0635-14.1938,16.1035-17.789,18.6875C1249.2256,1320.5762,1231.0322,1319.5313,1229.7754,1331.3487Z" style="fill:#2358a5"/><path d="M1173.3843,854.543s-5.4771-7.3808-8.8989-8.9277-6.6612-11.0723-8.5547-8.1611c-1.1543,1.7744,1.7641,8.3711,1.018,9.8594s-8.2973-1.6573-9.62-3.7735c-.8867-1.4189-8.6714-10.8125-8.8476-6.4834s6.6181,20.9473,9.97,23.0645,16.0347,4.97,16.0347,4.97Z" style="fill:#ffb27d"/><path d="M1343.55,814.0528c-14.1186,34.5352-68.4561,77.3154-68.4561,77.3154l-.9423-1.0586c-1.7354-7.3876-3.5879-15.0078-5.4507-22.3632l57.8833-53.8936Z" style="fill:#ed7d2b"/><path d="M1166.2554,855.24l-1.77,9.8506s31.0561,7.1016,37.9047,8.6016l.085.039c11.8291,2.3477,25.1709,4.7735,36.7964,5.9932,8.21.7861,15.5615.97,20.9536.25a11.46,11.46,0,0,0,1.5859-.3037c13.3038-2.6524,34.9571-18.502,54.6749-37.1035,2.73-2.5635,5.3745-5.168,7.98-7.6856a256.5771,256.5771,0,0,0,24.6231-27.91,100.7482,100.7482,0,0,0,9.4023-14.3643,41.6551,41.6551,0,0,0,2.0864-4.3066c11.2066-24.79.5049-33.8487.5049-33.8487-.2158-.2031-.4326-.4062-.7343-.6465-1.9737-1.3222-4.856-.8945-8.4517.8584-4.5054,2.1592-10.2022,6.4571-16.5327,11.9073-9.918,8.7568-69.4082,81.18-83.29,83.9375C1240.0186,852.9034,1166.2554,855.24,1166.2554,855.24Z" style="fill:#ffb27d"/><path d="M1354.7954,750.4386s12.1245,3.4023,13.1826,16.1035-.5918,52.0039-.5918,52.0039-39.6269-11.3633-55.7675-35.6C1311.6187,782.9464,1340.7222,750.753,1354.7954,750.4386Z" style="fill:#f99746"/><path d="M4.0928,1331.3487H2890.997a4.0933,4.0933,0,0,1,4.0933,4.0933v3.7724a4.0933,4.0933,0,0,1-4.0933,4.0933H4.0937A4.0937,4.0937,0,0,1,0,1339.214v-3.7725a4.0928,4.0928,0,0,1,4.0928-4.0928Z" style="fill:#2e3552"/></g></g></svg>