<svg xmlns="http://www.w3.org/2000/svg" viewBox="0 0 2768.9814 1226.9291"><g id="Layer_2" data-name="Layer 2"><g id="_Layer_" data-name="&lt;Layer&gt;"><path d="M2634.6914,1224.2934l-622.6973-.1836-528.7881-.1533-72.8262-.02-1233.26-.3663s-65.0235-160.7773-47.5987-334.622a521.824,521.824,0,0,1,10.6905-65.5537c.0185-.0664.0283-.125.0478-.1914q4.6465-20.1329,11.1514-40.0938C169.8466,726.88,200.1347,672.4125,247.32,624.7944c286.11-288.7373,655.8427-47.3867,794.5781-54.42,138.7246-7.043,146.5478-284.09,561.06-317.1788,229.92-18.3486,476.7353,24.5928,556.4414,217.4112,31.4052,75.9824,36.87,175.23,5.1279,303.17-18.4629,74.4141-2.627,119.9346,32.5889,149.415,73.1533,61.2618,229.9677,53.3428,336.8847,91.4834C2613.6679,1043.0873,2665.6347,1097.0746,2634.6914,1224.2934Z" style="fill:#ebf2f9"/><path d="M1410.39,1223.9565,177.12,1223.5707S94.8164,1020.0629,140.2119,823.395c.0185-.0664.0283-.125.0478-.1914a615.8293,615.8293,0,0,1,333.1992,80.3593c208.1358,118.3672,549.85,31.7617,648.751,98.1514,98.9014,66.3994,121.6084,135.1465,195.1572,146.9619,64.167,10.3047,88,62.1943,93.0127,75.2608C1410.39,1223.9457,1410.39,1223.9457,1410.39,1223.9565Z" style="fill:#c9e0f2"/><path d="M1787.1425,1125.7319c34.1446-10.7071,78.0762-28.128,54.1875-41.2061-25.59-14.01-58.2158,15.7178-75.91,35.39q-1.3727-.23-2.7617-.4317a99.8354,99.8354,0,0,0-13.75-.9677c33.7187-54.0518,71.3359-125.9981,39.3046-135.1475-34.5175-9.8594-59.248,77.6279-71.456,138.9092-33.7305,7.32-70.0156,23.6884-107.8232,34.5986-13.3594-48.5859-44.1182-121.0469-108.5577-119.45-67.6689,1.6758,16.8184,80.3281,73.7383,127.4707a186.4887,186.4887,0,0,1-38.5273,2.4453c-82.7471-3.8486-134.5918,52.2451-134.5918,52.2451l444.4092-.0048C1862.0908,1193.1313,1836.8115,1144.3442,1787.1425,1125.7319Z" style="fill:#a8d29f"/><path d="M1033.9882,34.9633S1003.0146,1.1743,993.4414.0483s-48.9942,17.7573-51.2471,25.21,43.3623-7.4526,45.8975,0,5.35,12.521,18.3017,13.0845,24.2158,7.8838,24.2158,7.8838Z" style="fill:#ffb27d"/><path d="M1071.1474,1219.5844c-9.8418-6.0078-4.2412-50.8223-4.2412-50.8223s45.8613-36.6894,52.167-8.6,43.5693,40.7022,64.78,44.1426c14.6416,2.374,19.1748,10.4834,20.5781,15.2793Z" style="fill:#233862"/><path d="M1062.9336,1191.102c-11.752-4.4336-77.19-161.5166-74.4688-212.5225.3262-6.0517-.8564-55.6845-2.7207-65.9668-1.4541-8.0107-3.3994-17.3418-5.7383-27.6923-3.5781-15.7637-8.039-33.9083-13.0039-53.3721-13.9141-54.6914-31.6367-119.72-43.8642-171.4863,21.9384-49.1973,50.0537-92.2588,75.8408-106.962,18.4033,2.2442,36.14,5.6446,49.2783,8.4873a231.2087,231.2087,0,0,1,24.1016,15.9c2.041,10.2,5.0185,27.2159,7.4267,49.128,1.5508,14.3359,2.8565,30.7793,3.4688,48.7607,4.3652,127.5957-17.94,266.249,38.94,492.5625C1123.7861,1174.25,1081.1318,1197.9711,1062.9336,1191.102Z" style="fill:#2b478b"/><path d="M1079.7851,626.6157c-9.48,47.4423-32.29,148.8261-112.7832,204.9326-13.9141-54.6914-31.6367-119.72-43.8642-171.4863,21.9384-49.1973,50.0537-92.2588,75.8408-106.962,18.4033,2.2442,36.14,5.6446,49.2783,8.4873a231.2087,231.2087,0,0,1,24.1016,15.9C1074.3994,587.6879,1077.3769,604.7036,1079.7851,626.6157Z" style="fill:#233862"/><path d="M980.8183,180.29l-.043,7.958s2.168,24.8887-28.4794,28.5225c-30.6465,3.6445-53.8633-9.7051-53.0323-28.91,2.7608-14.8711,5.79-25.082,5.9951-37.3867a86.6681,86.6681,0,0,0-1.0888-14.9024l59.3838-1.1865,17.4912,2.8584Z" style="fill:#ffb27d"/><path d="M981.0449,137.2426l-.2266,43.0469a50.2156,50.2156,0,0,1-21.4053,4.7226c-27.2929,0-44.9345-20.0136-54.1543-34.539a86.6681,86.6681,0,0,0-1.0888-14.9024l59.3838-1.1865Z" style="fill:#e8945b"/><path d="M984.51,158.1606s-76.0547,15.3633-84.8935-32.1475-24.6084-77.5254,23.5771-89.3437,61.0215,4.5508,67.8281,19.6914S1004.0664,152.9389,984.51,158.1606Z" style="fill:#ffb27d"/><path d="M929.7519,1219.5825s-4.1543-22.7383-10.7373-35.9024-48.4678-4.7861-48.4678-4.7861-8.3769,7.1806-10.1728,40.6885Z" style="fill:#233862"/><path d="M1011.8271,578.2446s-41.69,185.7539-55.0537,269.6c-5,31.3711-15.42,131.88-17.0459,163.6054-2.2334,43.5381-16.59,176.7872-16.59,176.7872s-24.2149-15.3018-60.1456-1.0206c0,0-9.0771-59.7275-14.8486-184.8339-1.6914-36.6739,5.3945-91.76,4.5342-109.65-4.2315-87.9766-32.3359-315.4424-9.9893-330.04C865.0332,548.0942,1011.8271,578.2446,1011.8271,578.2446Z" style="fill:#2b478b"/><path d="M1005.8105,21.0629s-21.21-1.6318-46.2256-12.5083C939.2822-.273,913.666,9.4487,905.3505,13.83a12.371,12.371,0,0,1,2.0284-5.0024s-3.7334,2.647-4.2842,6.3472c-.3838.2836-.5567.4794-.4561.5444,0,0-4.2334-.7739-6.9521.45,0,0,1.9033-.272,2.583.9517a1.1489,1.1489,0,0,0,.3047.3364C866.9023,32.76,863.9775,82.8149,874.17,94.3969c12.2617,13.9346,26.9648,45.3145,26.9648,45.3145s5.3633-7.4131,3.1328-19.6758,8.3614-12.2617,21.7383-17.836,2.23-21.18,13.9336-30.6552c11.7061-9.4756,54.624-3.9024,54.0664-11.148C1009.9365,54.5932,1005.8105,22.6943,1005.8105,21.0629Z" style="fill:#233862"/><path d="M1026.1142,18.5273s-6.4062,2.5981-10.2558,11.6562c-4.9229,11.5889-.9112,17.9136-.9112,17.9136s80.4932,72.999,75.2569,86.2871c-2.7344,6.9424-65.0948,43.51-91.0069,58.4717-10.6562-.8906-18.9023-.8154-19.165-.8154l-.0137.0146s-17.6269,53.711-80.751-4.1894c-11.0859,16.1308-97.0332,55.7382-82.1123,124.0986q5.2647,24.0953,9.1534,45.5107c17.7363,96.8555,16.35,153.9952,12.8945,185.51-2.6934,24.5918-12.8945,27.0664-3.7676,33.6094,0,0,17.75,7.957,50.9648,14.8388,24.6866,5.1143,57.9141,9.6573,98.7325,9.9151,64.9336.4082,89.5107-21.9658,89.5107-21.9658,17.1924-16.8116-16.81-82.9678-14.0908-130.7227,1.3984-24.499-.1377-108.373-.3779-146.9131l.0244-.0234.0547-.0547c3.1142-3.4141,98.1064-107.9277,116.8086-167.2568,0-.0137.0136-.0137.0136-.0274a78.6042,78.6042,0,0,0,2.2168-8.6094C1184.9648,96.5727,1026.1142,18.5273,1026.1142,18.5273Z" style="fill:#ee9849"/><path d="M839.2031,542.9848c3.4551-31.5146,4.8418-88.6543-12.8945-185.51q1.8237-5.78,3.6123-11.0908c5.3818-15.97,28.2324-15.1689,32.4521,1.1465C875.4824,398.2065,887.2832,484.3559,839.2031,542.9848Z" style="fill:#e58638"/><path d="M819.8144,490.0317s39.4785-23.8662,51.7139-20.84c12.2353,3.0244,38.78,14.5625,37.1357,21.6172s-32.4824,11.8672-37.8476,11.0371-14.0264.1446-17.544,3.1768-31.4931,4.165-34.9072-4.0254S819.8144,490.0317,819.8144,490.0317Z" style="fill:#ffb27d"/><path d="M899.2636,187.86s-48.3994,3.5059-74.6953,18.92C807.5537,216.7543,708.955,373.852,708.955,396.9731c0,23.123,103.5381,105.1474,103.5381,105.1474s19.2158,6.3838,19.8955-24.2187c0,0-51.6474-76.3467-48.9267-85.1885,1.708-5.5537,77.8291-66.6162,77.8291-66.6162Z" style="fill:#ee9849"/><path d="M1177.0625,134.4116c-18.7022,59.3291-113.6944,163.8427-116.8086,167.2568l-.0547.0547c-.0137.0127-.0274.0273-.0274.0273a.0406.0406,0,0,0-.0136-.0273c-.2715-1.0479-8.1055-30.9434,10.5957-52.3242C1089.7959,227.6362,1155.5039,173.0942,1177.0625,134.4116Z" style="fill:#e58638"/><path d="M881.0136,196.8061c-.208-4.1934,19.6563-9.9883,19.6563-9.9883s22.7353,31.5234,60.1933,32.0684c0,0-10.6738,20.7744-23.2558,26.1533C937.6074,245.04,882.2509,221.71,881.0136,196.8061Z" style="fill:#e58638"/><path d="M960.8632,218.1489s19.8438-11.7637,19.9121-24.5176c0,0,12.8145-1.6035,18.4131,4.6113,0,0,4.7051,21.8555-1.5361,34.5508C997.6523,232.7934,969.0771,228.4409,960.8632,218.1489Z" style="fill:#e58638"/><path d="M1029.8535,514.2582a41.466,41.466,0,0,1-11.792,27.462l-11.3291,11.5878a6.9787,6.9787,0,0,1-10.2422-.2851l-15.7236-17.9541a24.8974,24.8974,0,0,1-6.1338-17.4639c.6386-14.2412,1.7822-41.6748,2.4619-68.13.5576-21.4355.8154-42.2461.2588-54.8681-1.7823-40.3008-16.4854-168.3448-16.4854-168.3448h9.6846s26.59,48.6114,42.6943,115.8018a449.7,449.7,0,0,1,9.44,52.543S1031.5546,467.7143,1029.8535,514.2582Z" style="fill:#c65447"/><path d="M947.3925,216.2563l26.9082-6.4483s3.5147.3057,3.417,4.6885-7.5781,17.19-10.8916,18.2129S941.0273,225.1254,947.3925,216.2563Z" style="fill:#ba4c43"/><path d="M881.0136,190.685c-.208-4.1934,19.6563-9.9883,19.6563-9.9883s22.7353,31.5235,60.1933,32.0684c0,0-10.6738,20.7744-23.2558,26.1533C937.6074,238.9184,882.2509,215.59,881.0136,190.685Z" style="fill:#ee9849"/><path d="M960.8632,212.7651s19.8438-11.7637,19.9121-24.5176c0,0,12.8145-1.6035,18.4131,4.61,0,0,4.7051,21.8564-1.5361,34.5517C997.6523,227.41,969.0771,223.0561,960.8632,212.7651Z" style="fill:#ee9849"/><path d="M1029.8535,514.2582a41.466,41.466,0,0,1-11.792,27.462l-11.3291,11.5878a6.9787,6.9787,0,0,1-10.2422-.2851l-15.7236-17.9541a24.8974,24.8974,0,0,1-6.1338-17.4639c.6386-14.2412,1.7822-41.6748,2.4619-68.13,25.1221-31.3779,33.7715-73.38,36.1523-107.4111a449.7,449.7,0,0,1,9.44,52.543S1031.5546,467.7143,1029.8535,514.2582Z" style="fill:#ba4c43"/><path d="M623.21,1076.3647H787.789A16.3213,16.3213,0,0,1,804.11,1092.686V1203.26a16.3223,16.3223,0,0,1-16.3223,16.3223H623.2109a16.3223,16.3223,0,0,1-16.3223-16.3223V1092.686A16.3213,16.3213,0,0,1,623.21,1076.3647Z" style="fill:#233862"/><path d="M608.25,1076.3647H772.8262a16.3212,16.3212,0,0,1,16.3212,16.3212v110.58a16.3213,16.3213,0,0,1-16.3213,16.3213H608.249a16.3213,16.3213,0,0,1-16.3213-16.3213V1092.687A16.3223,16.3223,0,0,1,608.25,1076.3647Z" style="fill:#2b478b"/><path d="M654.5791,1076.3647c10.5283-12.44,24.2412-17.3418,33.0127-17.3418,21.46,0,33.4394,16.6973,33.8886,17.3418l-5.2275.3486c-.3838-.5439-8.874-11.2295-27.4151-11.2295-7.62,0-18.8.0323-27.98,10.8809C660.2636,1077.0668,654.4511,1076.5161,654.5791,1076.3647Z" style="fill:#233862"/><path d="M608.249,1080.8989H772.8251a16.3223,16.3223,0,0,1,16.3223,16.3223v32.14a16.3213,16.3213,0,0,1-16.3213,16.3213H608.249a16.3213,16.3213,0,0,1-16.3213-16.3213V1097.22A16.3213,16.3213,0,0,1,608.249,1080.8989Z" style="fill:#233862"/><path d="M608.249,1076.3647H772.8251a16.3223,16.3223,0,0,1,16.3223,16.3223v32.1406a16.3213,16.3213,0,0,1-16.3213,16.3213H608.25a16.3223,16.3223,0,0,1-16.3223-16.3223V1092.686A16.3213,16.3213,0,0,1,608.249,1076.3647Z" style="fill:#2b478b"/><path d="M682.6035,1128.5043a4.9873,4.9873,0,1,1,4.9873,4.9864A4.9881,4.9881,0,0,1,682.6035,1128.5043Z" style="fill:#233862"/><path d="M2634.6914,1224.2934l-622.6973-.1836-.8272-.1533s54.8438-75.55,161.6641-75.28c106.8106.2695,105.4727-55.1523,245.3721-89.6553,41.4219-10.2177,80.832-26.4882,115.7978-44.3457C2613.6679,1043.0873,2665.6347,1097.0746,2634.6914,1224.2934Z" style="fill:#a8d29f"/><path d="M1700.1289,324.933v880.252c0,7.9189-6.042,14.4023-13.4229,14.4023h-13.4219a12.9238,12.9238,0,0,1-9.458-4.2119,14.9067,14.9067,0,0,1-3.9648-10.19V324.933a14.6355,14.6355,0,0,1,6.4082-12.2548,12.5832,12.5832,0,0,1,7.0146-2.1465h13.4219C1694.0869,310.5317,1700.1289,317.0043,1700.1289,324.933Z" style="fill:#f1a34f"/><path d="M1670.2246,322.8686v880.2519a14.6645,14.6645,0,0,1-6.3985,12.2549,14.9067,14.9067,0,0,1-3.9648-10.19V324.933a14.6355,14.6355,0,0,1,6.4082-12.2548A14.9057,14.9057,0,0,1,1670.2246,322.8686Z" style="fill:#e58638"/><polygon points="1516.482 668.454 1442.188 718.53 1509.557 777.594 1676.293 767.079 1676.293 699.728 1516.482 668.454" style="fill:#f1a34f"/><path d="M1665.1562,708.9262a7.69,7.69,0,0,0,.541,6.3858c1.0586,1.4736,2.5313,1.0048,3.293-1.0479a7.6932,7.6932,0,0,0-.541-6.3857C1667.3906,706.4047,1665.916,706.8735,1665.1562,708.9262Z" style="fill:#ce8032"/><path d="M1665.1562,748.7514a7.6891,7.6891,0,0,0,.541,6.3857c1.0586,1.4747,2.5313,1.0049,3.293-1.0468a7.6956,7.6956,0,0,0-.541-6.3867C1667.3906,746.23,1665.916,746.7,1665.1562,748.7514Z" style="fill:#ce8032"/><polygon points="1945.951 532.389 2062.045 582.373 1950.412 641.657 1683.263 632.376 1683.263 548.989 1945.951 532.389" style="fill:#f1a34f"/><polygon points="1945.951 532.389 1962.815 532.389 2078.91 582.373 2062.045 582.373 1945.951 532.389" style="fill:#e89746"/><polygon points="1950.412 641.657 1959.4 641.657 2078.91 582.373 2062.045 582.373 1950.412 641.657" style="fill:#ce8032"/><path d="M1700.7421,561.5034c.9756,2.6337.6651,6.3017-.6933,8.1923s-3.249,1.2891-4.2236-1.3437-.6651-6.3018.6923-8.1924S1699.7675,558.8705,1700.7421,561.5034Z" style="fill:#ce8032"/><path d="M1700.7421,612.5952c.9756,2.6337.6651,6.3017-.6933,8.1923s-3.249,1.2891-4.2236-1.3437-.6651-6.3018.6923-8.1924S1699.7675,609.9614,1700.7421,612.5952Z" style="fill:#ce8032"/><polygon points="1420.574 387.79 1304.48 437.775 1416.112 497.059 1683.263 487.778 1683.263 404.39 1420.574 387.79" style="fill:#f1a34f"/><polygon points="1420.574 387.79 1403.709 387.79 1287.615 437.775 1304.48 437.775 1420.574 387.79" style="fill:#e89746"/><polygon points="1416.112 497.059 1407.124 497.059 1287.615 437.775 1304.48 437.775 1416.112 497.059" style="fill:#ce8032"/><path d="M1665.7832,416.9047c-.9756,2.6338-.6651,6.3018.6923,8.1924s3.2491,1.2891,4.2247-1.3437.665-6.3018-.6934-8.1924S1666.7578,414.2719,1665.7832,416.9047Z" style="fill:#ce8032"/><path d="M1665.7832,467.9965c-.9756,2.6338-.6651,6.3018.6923,8.1924s3.2491,1.2891,4.2247-1.3437.665-6.3018-.6934-8.1924S1666.7578,465.3637,1665.7832,467.9965Z" style="fill:#ce8032"/><polygon points="1516.482 668.454 1506.861 668.454 1427.963 718.972 1442.188 718.972 1516.482 668.454" style="fill:#e89746"/><polygon points="1509.557 777.594 1496.598 777.594 1427.963 718.972 1442.188 718.972 1509.557 777.594" style="fill:#ce8032"/><path d="M1730.0234,1120.2436v99.3437H1629.958V1119.86a35.77,35.77,0,0,1,32.0595-35.582,36.51,36.51,0,0,1,3.7139-.1914h28.1338A36.1572,36.1572,0,0,1,1730.0234,1120.2436Z" style="fill:#f1a34f"/><path d="M1694.4238,1120.2436v99.3437H1629.958V1119.86a35.77,35.77,0,0,1,32.0595-35.582A36.1624,36.1624,0,0,1,1694.4238,1120.2436Z" style="fill:#e58638"/><path d="M1684.6435,282.602v-3.4658h-8.84l.0029.0566a10.1,10.1,0,0,0-6.2568,2.919,10.1614,10.1614,0,0,0,.0732,14.5839,10.1411,10.1411,0,0,0,7.3281,3.0479h7.6924v-3.4649a10.7119,10.7119,0,0,0,0-13.6767Z" style="fill:#e58638"/><path d="M1701.623,198.1577q-9.435-7.9791-23.5107-7.9815a37.26,37.26,0,0,0-17.125,4.1358,30.4066,30.4066,0,0,0-12.626,11.6816,18.0718,18.0718,0,0,0-2.7569,9.2881,8.448,8.448,0,0,0,2.2491,6.0234,7.5233,7.5233,0,0,0,5.7334,2.3945h7.6924s-.0938-2.8857-.0987-4.86l5.3213-7.1846q4.207-4.207,11.1758-4.209a15.19,15.19,0,0,1,9.94,3.2657q3.9888,3.2636,3.9912,9.2148,0,6.8232-4.21,10.5938-3.047,2.76-10.4483,5.08-5.515,1.7418-7.3281,3.5557a7.383,7.383,0,0,0-1.8154,5.4414V259.11a11.231,11.231,0,0,0,2.3232,7.2559,7.8835,7.8835,0,0,0,6.5313,2.9023h7.6914v-4.3965a11.5218,11.5218,0,0,0,.8711-2.2783q.5757-2.3188.5781-11.9014,11.9-2.32,18.7949-10.23,6.8907-7.9088,6.8926-19.9551Q1711.49,206.7221,1701.623,198.1577Z" style="fill:#e58638"/><path d="M1719.1836,220.5063q0,12.05-6.8936,19.9551-6.8935,7.9116-18.7949,10.23,0,9.58-.5791,11.9-1.74,6.6768-8.5625,6.6758a7.8815,7.8815,0,0,1-6.53-2.9023A11.2367,11.2367,0,0,1,1675.5,259.11V244.5971a7.383,7.383,0,0,1,1.8154-5.4414q1.812-1.815,7.3281-3.5557,7.4-2.32,10.4483-5.08,4.2084-3.7721,4.21-10.5938,0-5.9487-3.9912-9.2148a15.192,15.192,0,0,0-9.94-3.2657q-6.9669,0-11.1758,4.209l-5.8037,7.836q-3.0483,4.2114-7.1113,4.2089a7.5218,7.5218,0,0,1-5.7334-2.3945,8.4473,8.4473,0,0,1-2.2481-6.0234,18.08,18.08,0,0,1,2.7559-9.2881,30.4036,30.4036,0,0,1,12.6269-11.6816,37.2543,37.2543,0,0,1,17.125-4.1358q14.0729,0,23.5088,7.9815Q1719.1815,206.7226,1719.1836,220.5063Zm-24.3809,68.9346a10.0917,10.0917,0,0,1-2.9024,7.3281,9.7317,9.7317,0,0,1-7.2568,2.9746,10.1411,10.1411,0,0,1-7.3281-3.0479,10.16,10.16,0,0,1-.0733-14.583,10.2049,10.2049,0,0,1,7.4014-2.9765,9.7259,9.7259,0,0,1,7.2568,2.9765A10.09,10.09,0,0,1,1694.8027,289.4409Z" style="fill:#f1a34f"/><path d="M29.6289,1220.1957l468.1621,3.0616s-43.2891-87.0274-150.709-68.41c-67.7969,11.75-90.2529-5.9687-118.1494-23.3545,51.6494-19.542,128.1631-51.84,92.5459-59.65-33.9873-7.4531-80.3213,25.6553-108.8477,50.2588a139.2428,139.2428,0,0,0-19.8349-8.3721c61.0576-57.0312,175.9707-170.7373,125.2119-173.9775-49.8-3.1787-112.8242,109.3145-142.8106,169.3428-3.4531-.6865-7.0761-1.2881-10.8916-1.792-15.5361-2.0518-30.0273.7607-43.3154,6.6484-6.6162-24.9092-18.8428-53.4013-35.0908-47.5986-16.4,5.8574,2.1425,34.7217,19.1631,56.41C57.9082,1154.102,29.6289,1220.1957,29.6289,1220.1957Z" style="fill:#82b378"/><path d="M3.1367,1219.5844h2762.708a3.1367,3.1367,0,0,1,3.1367,3.1367v1.07a3.1377,3.1377,0,0,1-3.1377,3.1377H3.1367A3.1367,3.1367,0,0,1,0,1223.7924v-1.0713A3.1367,3.1367,0,0,1,3.1367,1219.5844Z" style="fill:#2e3552"/></g></g></svg>