<svg xmlns="http://www.w3.org/2000/svg" xmlns:xlink="http://www.w3.org/1999/xlink" viewBox="0 0 3138.6826 1788.6568"><defs><clipPath id="clip-path"><circle cx="1380.9702" cy="995.7594" r="320.1668" transform="translate(-299.6314 1268.1446) rotate(-45)" style="fill:none"/></clipPath><clipPath id="clip-path-2"><circle cx="774.3286" cy="432.6645" r="380" style="fill:none"/></clipPath><clipPath id="clip-path-3"><circle cx="2219.3457" cy="400.8519" r="351.0254" transform="translate(366.5862 1686.7212) rotate(-45)" style="fill:none"/></clipPath><clipPath id="clip-path-4"><circle cx="2879.8733" cy="1025.1117" r="251.2394" transform="translate(118.6319 2336.6262) rotate(-45)" style="fill:none"/></clipPath><clipPath id="clip-path-5"><circle cx="343.6696" cy="1376.4155" r="315.0945" style="fill:none"/></clipPath><linearGradient id="Безымянный_градиент_37" x1="2673.9424" y1="1237.8892" x2="2134.8963" y2="1877.0642" gradientTransform="translate(-2051.6167)" gradientUnits="userSpaceOnUse"><stop offset="0" stop-color="#ffc34e"/><stop offset="1" stop-color="#fb8627"/></linearGradient><linearGradient id="Безымянный_градиент_37-2" x1="2568.6625" y1="1149.1017" x2="2029.6157" y2="1788.2775" xlink:href="#Безымянный_градиент_37"/><linearGradient id="Безымянный_градиент_37-3" x1="2693.9098" y1="1033.0707" x2="2323.5728" y2="1695.5614" xlink:href="#Безымянный_градиент_37"/><linearGradient id="Безымянный_градиент_37-4" x1="2661.9617" y1="1190.466" x2="2086.6356" y2="1872.6601" xlink:href="#Безымянный_градиент_37"/><clipPath id="clip-path-6"><circle cx="1442.211" cy="279.6645" r="153" style="fill:none"/></clipPath><clipPath id="clip-path-7"><circle cx="157" cy="769.4995" r="153" style="fill:none"/></clipPath><clipPath id="clip-path-8"><circle cx="2971.6565" cy="423.8007" r="163.0255" transform="translate(570.7057 2225.4068) rotate(-45)" style="fill:none"/></clipPath></defs><g id="Layer_2" data-name="Layer 2"><g id="Слой_1" data-name="Слой 1"><path d="M72.3413,1064.7388c-122.33-535.1309,232-955.2491,960-1039.1861,815.356-94.0088,979.271,356.93,747.6353,487.853S1156.9732,1452.56,1106.6573,1610.4438,244.3413,1817.1489,72.3413,1064.7388Z" style="fill:#ddeffe;opacity:0.6000000000000001"/><path d="M2658.7227,487.5386c384.2246,16.79,645.1631,602.7353,357.3906,907.7627s-1355.8926,195.8349-1317.832-25.5694,494.0605-150.2861,690.0605-423.8447S2549.1035,482.7485,2658.7227,487.5386Z" style="fill:#ddeffe;opacity:0.6000000000000001"/><path d="M2782.8555,1652.1255c-299.3428-.7549-968.09,12.0937-1493.6445,39.3847s-80.7183,88.4454,281.2392,62.4112S2185.6114,1810.8,2628.6338,1782.8,3130.1582,1653.0005,2782.8555,1652.1255Z" style="fill:#9bd6e8;opacity:0.5"/><path d="M164.0811,795.9761a2.5013,2.5013,0,0,1-2.3965-1.793l-7.082-23.9756a2.5,2.5,0,0,1,1.3174-2.9629l22.5454-10.8027a2.5,2.5,0,0,1,2.16,4.51l-20.6245,9.8819,6.4785,21.9336a2.5036,2.5036,0,0,1-2.3984,3.209Z" style="fill:#63acc2"/><path d="M323.3174,1335.0913a2.5017,2.5017,0,0,1-2.3965-1.793l-13.27-44.9267a2.5,2.5,0,1,1,4.7949-1.416l13.27,44.9267a2.5034,2.5034,0,0,1-2.3985,3.209Zm-26.54-89.8525a2.5013,2.5013,0,0,1-2.3965-1.793l-13.27-44.9268a2.5,2.5,0,0,1,4.795-1.416l13.27,44.9268a2.5037,2.5037,0,0,1-2.3984,3.209Zm-26.54-89.8526a2.5013,2.5013,0,0,1-2.3965-1.793l-13.2695-44.9257a2.5,2.5,0,1,1,4.7949-1.416l13.27,44.9257a2.5034,2.5034,0,0,1-2.3985,3.209Zm-26.539-89.8525a2.5013,2.5013,0,0,1-2.3965-1.793l-13.27-44.9258a2.5,2.5,0,0,1,4.795-1.416l13.27,44.9258a2.5034,2.5034,0,0,1-2.3984,3.209Zm-26.54-89.8526a2.5012,2.5012,0,0,1-2.3965-1.7929l-13.27-44.9258a2.5,2.5,0,1,1,4.7949-1.416l13.2695,44.9258a2.5033,2.5033,0,0,1-2.3984,3.2089Zm-26.54-89.8525a2.5012,2.5012,0,0,1-2.3964-1.793l-13.27-44.9257a2.5,2.5,0,0,1,4.795-1.4161L193.0186,882.62a2.5034,2.5034,0,0,1-2.3985,3.209Z" style="fill:#63acc2"/><path d="M343.67,1403.9927a2.4985,2.4985,0,0,1-2.3975-1.792l-7.082-23.9766a2.5,2.5,0,1,1,4.7949-1.416l6.3252,21.4121,20.9385-7.748a2.5,2.5,0,1,1,1.7343,4.6894l-23.4463,8.6758A2.5038,2.5038,0,0,1,343.67,1403.9927Z" style="fill:#63acc2"/><path d="M413.3252,1378.2222a2.5006,2.5006,0,0,1-.8672-4.8457l46.209-17.0967a2.5,2.5,0,0,1,1.7344,4.6894l-46.209,17.0967A2.5034,2.5034,0,0,1,413.3252,1378.2222Zm92.419-34.1934a2.5006,2.5006,0,0,1-.8672-4.8457l46.209-17.0967a2.5,2.5,0,1,1,1.7343,4.69l-46.2089,17.0966A2.5038,2.5038,0,0,1,505.7442,1344.0288Zm92.4179-34.1934a2.5006,2.5006,0,0,1-.8671-4.8457l46.21-17.0966a2.5,2.5,0,0,1,1.7344,4.6894l-46.21,17.0967A2.5032,2.5032,0,0,1,598.1621,1309.8354Zm92.419-34.1933a2.5006,2.5006,0,0,1-.8672-4.8457l46.21-17.0967a2.5,2.5,0,1,1,1.7343,4.6894l-46.21,17.0967A2.5038,2.5038,0,0,1,690.5811,1275.6421ZM783,1241.4477a2.5006,2.5006,0,0,1-.8672-4.8457l46.209-17.0966a2.5,2.5,0,0,1,1.7344,4.6894l-46.209,17.0967A2.5032,2.5032,0,0,1,783,1241.4477Zm92.419-34.1933a2.5006,2.5006,0,0,1-.8672-4.8457l46.209-17.0967a2.5,2.5,0,1,1,1.7343,4.69l-46.2089,17.0966A2.5,2.5,0,0,1,875.419,1207.2544Zm92.4179-34.1934a2.5006,2.5006,0,0,1-.8671-4.8457l46.21-17.0967a2.5,2.5,0,0,1,1.7344,4.6895l-46.21,17.0967A2.5056,2.5056,0,0,1,967.8369,1173.061Zm92.419-34.1933a2.5006,2.5006,0,0,1-.8672-4.8457l46.209-17.0967a2.5,2.5,0,1,1,1.7344,4.6894l-46.209,17.0967A2.5038,2.5038,0,0,1,1060.2559,1138.8677Zm92.4189-34.1934a2.5006,2.5006,0,0,1-.8672-4.8457l46.209-17.0967a2.5,2.5,0,0,1,1.7344,4.6895l-46.209,17.0967A2.5056,2.5056,0,0,1,1152.6748,1104.6743Zm92.419-34.1934a2.5006,2.5006,0,0,1-.8672-4.8457l46.209-17.0966a2.5,2.5,0,0,1,1.7344,4.6894l-46.209,17.0967A2.5036,2.5036,0,0,1,1245.0938,1070.4809Z" style="fill:#63acc2"/><path d="M1382.4561,1040.3716a2.4823,2.4823,0,0,1-1.2744-.3506l-20.4727-12.15-22.3291,8.2607a2.5,2.5,0,1,1-1.7344-4.6894l23.4473-8.6748a2.502,2.502,0,0,1,2.1436.1953l21.498,12.76a2.5,2.5,0,0,1-1.2783,4.6494Z" style="fill:#63acc2"/><path d="M2092.2559,1461.66a2.4823,2.4823,0,0,1-1.2744-.3506l-44.3623-26.3311a2.5,2.5,0,1,1,2.5527-4.2988l44.3623,26.331a2.5,2.5,0,0,1-1.2783,4.6495Zm-88.7246-52.6612a2.4823,2.4823,0,0,1-1.2744-.3506l-44.3623-26.33a2.5,2.5,0,0,1,2.5527-4.2989l44.3623,26.33a2.5,2.5,0,0,1-1.2783,4.6494Zm-88.7256-52.6611a2.4823,2.4823,0,0,1-1.2744-.3506l-44.3623-26.33a2.5,2.5,0,1,1,2.5527-4.2988l44.3623,26.33a2.5,2.5,0,0,1-1.2783,4.6494Zm-88.7246-52.6611a2.4823,2.4823,0,0,1-1.2744-.3506l-44.3623-26.33a2.5,2.5,0,1,1,2.5527-4.2988l44.3623,26.33a2.5,2.5,0,0,1-1.2783,4.6495Zm-88.7256-52.66a2.4823,2.4823,0,0,1-1.2744-.3506l-44.3623-26.331a2.5,2.5,0,0,1,2.5527-4.2989l44.3623,26.3311a2.5,2.5,0,0,1-1.2783,4.6494Zm-88.7246-52.6611a2.4823,2.4823,0,0,1-1.2744-.3506l-44.3623-26.33a2.5,2.5,0,1,1,2.5527-4.2988l44.3623,26.33a2.5,2.5,0,0,1-1.2783,4.6494Zm-88.7246-52.6612a2.4823,2.4823,0,0,1-1.2744-.3506l-44.3633-26.33a2.5,2.5,0,0,1,2.5527-4.2989l44.3633,26.33a2.5,2.5,0,0,1-1.2783,4.6494Zm-88.7256-52.6611a2.4823,2.4823,0,0,1-1.2744-.3506l-44.3623-26.33a2.5,2.5,0,1,1,2.5527-4.2988l44.3623,26.33a2.5,2.5,0,0,1-1.2783,4.6494Z" style="fill:#63acc2"/><path d="M2158.1192,1500.7505a2.4962,2.4962,0,0,1-1.2764-.3506l-21.499-12.7608a2.5,2.5,0,1,1,2.5527-4.2988l20.1611,11.9668,19.6407-12.8008a2.5,2.5,0,0,1,2.73,4.1895l-20.9443,13.6494A2.5021,2.5021,0,0,1,2158.1192,1500.7505Z" style="fill:#63acc2"/><path d="M2223.4473,1458.1782a2.5,2.5,0,0,1-1.3672-4.5947l44.3818-28.9219a2.5,2.5,0,1,1,2.7305,4.19l-44.3818,28.9218A2.49,2.49,0,0,1,2223.4473,1458.1782Zm88.7637-57.8437a2.5,2.5,0,0,1-1.3672-4.5948l44.3808-28.9228a2.5,2.5,0,1,1,2.7305,4.1894l-44.3808,28.9229A2.491,2.491,0,0,1,2312.211,1400.3345Zm88.7627-57.8448a2.5,2.5,0,0,1-1.3672-4.5947l44.3818-28.9219a2.5,2.5,0,1,1,2.7305,4.19l-44.3819,28.9219A2.49,2.49,0,0,1,2400.9737,1342.49Zm88.7636-57.8437a2.5,2.5,0,0,1-1.3672-4.5947l44.3819-28.9229a2.5,2.5,0,0,1,2.7305,4.1895l-44.3819,28.9228A2.4907,2.4907,0,0,1,2489.7373,1284.646Zm88.7627-57.8447a2.5,2.5,0,0,1-1.3672-4.5948l44.3819-28.9218a2.5,2.5,0,1,1,2.73,4.1894l-44.3818,28.9219A2.4907,2.4907,0,0,1,2578.5,1226.8013Zm88.7637-57.8438a2.5,2.5,0,0,1-1.3672-4.5947l44.3819-28.9219a2.5,2.5,0,0,1,2.73,4.1895l-44.3818,28.9218A2.4907,2.4907,0,0,1,2667.2637,1168.9575Zm88.7637-57.8447a2.5,2.5,0,0,1-1.3672-4.5947l44.3808-28.9219a2.5,2.5,0,1,1,2.73,4.1894l-44.3808,28.9219A2.491,2.491,0,0,1,2756.0274,1111.1128Z" style="fill:#63acc2"/><path d="M2844.79,1053.2681a2.5,2.5,0,0,1-1.3672-4.5948l20.0342-13.0556,4.1289-23.5547a2.5,2.5,0,1,1,4.9258.8633l-4.3165,24.625a2.5043,2.5043,0,0,1-1.0976,1.663l-20.9443,13.6485A2.491,2.491,0,0,1,2844.79,1053.2681Z" style="fill:#63acc2"/><path d="M2878.8955,964.521a2.5347,2.5347,0,0,1-.4345-.0371,2.5011,2.5011,0,0,1-2.0313-2.8946l8.8447-50.4736a2.5,2.5,0,0,1,4.9258.8633l-8.8447,50.4736A2.5011,2.5011,0,0,1,2878.8955,964.521Zm17.6895-100.9463a2.535,2.535,0,0,1-.4346-.0371,2.5,2.5,0,0,1-2.0312-2.8945l8.8447-50.4737a2.5,2.5,0,0,1,4.9258.8633l-8.8447,50.4736A2.5011,2.5011,0,0,1,2896.585,863.5747Zm17.69-100.9463a2.5339,2.5339,0,0,1-.4345-.0371,2.501,2.501,0,0,1-2.0313-2.8945l8.8447-50.4737a2.5,2.5,0,0,1,4.9258.8633l-8.8447,50.4736A2.5011,2.5011,0,0,1,2914.2754,762.6284Zm17.6895-100.9463a2.5372,2.5372,0,0,1-.4346-.0381,2.5,2.5,0,0,1-2.0312-2.894l8.8447-50.4732a2.5,2.5,0,0,1,4.9258.8633l-8.8448,50.4732A2.5009,2.5009,0,0,1,2931.9649,661.6821Zm17.6894-100.9463a2.5034,2.5034,0,0,1-2.4658-2.9321l8.8447-50.4731a2.5,2.5,0,0,1,4.9258.8632l-8.8447,50.4732A2.5015,2.5015,0,0,1,2949.6543,560.7358Z" style="fill:#63acc2"/><path d="M2967.3448,459.79a2.5029,2.5029,0,0,1-2.4659-2.9321l3.8409-21.917-22.1827-1.7524a2.5,2.5,0,0,1,.3946-4.9844l24.9218,1.9688a2.5,2.5,0,0,1,2.2657,2.9238l-4.3145,24.6245A2.5013,2.5013,0,0,1,2967.3448,459.79Z" style="fill:#63acc2"/><path d="M224.93,739.4516a2.5008,2.5008,0,0,1-1.0825-4.7558L269.2305,712.95a2.5,2.5,0,0,1,2.16,4.5088l-45.3824,21.7471A2.4931,2.4931,0,0,1,224.93,739.4516ZM315.6949,695.96a2.5009,2.5009,0,0,1-1.0816-4.7559l45.3828-21.7461a2.5,2.5,0,1,1,2.16,4.51L316.774,695.7134A2.4927,2.4927,0,0,1,315.6949,695.96Zm90.7661-43.4927a2.5,2.5,0,0,1-1.0821-4.7554l45.3829-21.7456a2.5,2.5,0,1,1,2.16,4.5088l-45.3828,21.7466A2.4917,2.4917,0,0,1,406.461,652.4668Zm90.7656-43.4922a2.5,2.5,0,0,1-1.082-4.7549l45.3828-21.7461a2.5,2.5,0,1,1,2.16,4.5088l-45.3828,21.7461A2.4849,2.4849,0,0,1,497.2266,608.9746Zm90.7656-43.4922a2.5,2.5,0,0,1-1.082-4.7549l45.3828-21.7461a2.5,2.5,0,1,1,2.16,4.5088L589.07,565.2363A2.4881,2.4881,0,0,1,587.9922,565.4824ZM678.7578,521.99a2.5,2.5,0,0,1-1.082-4.7549l45.3828-21.7465a2.5,2.5,0,1,1,2.16,4.51L679.836,521.7441A2.4888,2.4888,0,0,1,678.7578,521.99Zm90.7666-43.4922a2.5,2.5,0,0,1-1.082-4.7548l30.0313-14.39a2.4777,2.4777,0,0,1,.38-.1455l16.3389-4.771a2.5,2.5,0,0,1,1.4024,4.7993L800.45,463.95l-29.8476,14.3017A2.4885,2.4885,0,0,1,769.5244,478.498ZM864.1993,445.23a2.5,2.5,0,0,1-.7-4.9l48.3056-14.1069a2.5,2.5,0,0,1,1.4024,4.8l-48.3057,14.1064A2.4872,2.4872,0,0,1,864.1993,445.23Zm2032.37-15.9971c-.0664,0-.1328-.0024-.2-.0078l-50.168-3.9634a2.5,2.5,0,0,1,.3945-4.9844l50.168,3.9634a2.5,2.5,0,0,1-.1943,4.9922Zm-100.335-7.9263c-.0664,0-.1328-.0024-.2-.0078l-50.167-3.9634a2.5,2.5,0,1,1,.3936-4.9843l50.1679,3.9634a2.5,2.5,0,0,1-.1943,4.9921Zm-1835.4228-4.29a2.5,2.5,0,0,1-.7-4.9l48.3066-14.1074a2.5,2.5,0,1,1,1.4023,4.7993l-48.3066,14.1074A2.5176,2.5176,0,0,1,960.8116,417.0161ZM2695.8985,413.38q-.1,0-.1992-.0078l-50.168-3.9634a2.5,2.5,0,0,1,.3945-4.9844l50.167,3.9634a2.5,2.5,0,0,1-.1943,4.9922Zm-100.335-7.9258c-.0664,0-.1328-.0029-.2-.0083l-50.167-3.9634a2.5,2.5,0,0,1,.3946-4.9844l50.1669,3.9634a2.5,2.5,0,0,1-.1943,4.9927Zm-100.335-7.9268c-.0664,0-.1328-.0024-.2-.0078l-50.168-3.9634a2.5,2.5,0,0,1,.3945-4.9843l50.168,3.9633a2.5,2.5,0,0,1-.1944,4.9922Zm-100.3349-7.9262c-.0664,0-.1328-.0025-.2-.0079l-50.168-3.9633a2.5,2.5,0,0,1,.3936-4.9844l50.1689,3.9634a2.5,2.5,0,0,1-.1943,4.9922Zm-1337.47-.7984a2.5,2.5,0,0,1-.7-4.9l48.3066-14.1069a2.5,2.5,0,0,1,1.4023,4.8l-48.3066,14.1069A2.4993,2.4993,0,0,1,1057.4239,388.8027Zm1237.1337-7.1279c-.0664,0-.1328-.0024-.2-.0078l-50.167-3.9634a2.5,2.5,0,1,1,.3945-4.9844l50.167,3.9634a2.5,2.5,0,0,1-.1944,4.9922Zm-100.2705-8.5772a2.5069,2.5069,0,0,1-.2949-.0175l-49.9795-5.8892a2.5,2.5,0,1,1,.585-4.9658l49.98,5.8891a2.5,2.5,0,0,1-.29,4.9834Zm-99.956-11.7788a2.5112,2.5112,0,0,1-.2959-.0171l-49.9785-5.8891a2.5,2.5,0,0,1,.5849-4.9658l49.9795,5.8891a2.5,2.5,0,0,1-.29,4.9829Zm-940.294-.73a2.5,2.5,0,0,1-.6992-4.9l48.3057-14.1065a2.5,2.5,0,1,1,1.4,4.7993l-48.3057,14.107A2.4961,2.4961,0,0,1,1154.0371,360.5893Zm840.337-11.0488a2.5328,2.5328,0,0,1-.2959-.0171l-49.9776-5.8891a2.5,2.5,0,0,1,.586-4.9659l49.9775,5.8892a2.5,2.5,0,0,1-.29,4.9829Zm-99.9561-11.7783a2.5328,2.5328,0,0,1-.2959-.0171l-49.9766-5.8892a2.5,2.5,0,0,1,.585-4.9658l49.9775,5.8892a2.5,2.5,0,0,1-.29,4.9829Zm-643.7686-5.3867a2.5,2.5,0,0,1-.6992-4.9l48.3057-14.1065a2.5,2.5,0,0,1,1.4,4.8l-48.3057,14.106A2.4934,2.4934,0,0,1,1250.6494,332.3755Zm543.8125-6.3916a2.5353,2.5353,0,0,1-.2959-.0171l-49.9775-5.8892a2.5,2.5,0,0,1,.585-4.9658l49.9775,5.8892a2.5,2.5,0,0,1-.2891,4.9829Zm-99.956-11.7783a2.5328,2.5328,0,0,1-.2959-.0171l-49.9785-5.8892a2.5,2.5,0,0,1,.5859-4.9658l49.9776,5.8891a2.5,2.5,0,0,1-.2891,4.983Zm-347.2441-10.0435a2.5,2.5,0,0,1-.6993-4.9l48.3057-14.1069a2.5,2.5,0,0,1,1.4023,4.8l-48.3066,14.1064A2.5228,2.5228,0,0,1,1347.2618,304.1621Zm247.288-1.7349a2.4834,2.4834,0,0,1-.2949-.0171l-49.9795-5.8891a2.5,2.5,0,1,1,.586-4.9658l49.9785,5.8891a2.5,2.5,0,0,1-.29,4.9829Zm-99.957-11.7783a2.5035,2.5035,0,0,1-.2949-.0171l-49.9785-5.8891a2.5,2.5,0,0,1,.5849-4.9659l49.9785,5.8892a2.5,2.5,0,0,1-.29,4.9829Z" style="fill:#63acc2"/><path d="M201.9219,781.5649a2.5128,2.5128,0,0,1-.5215-.0556l-24.4551-5.1924a2.5,2.5,0,1,1,1.0381-4.8906l24.4551,5.1923a2.5,2.5,0,0,1-.5166,4.9463Z" style="fill:#63acc2"/><path d="M1287.1768,1011.9487a2.52,2.52,0,0,1-.5215-.0556l-49.33-10.4717a2.5,2.5,0,1,1,1.0391-4.8907l49.33,10.4717a2.5005,2.5005,0,0,1-.5176,4.9463Zm-98.6592-20.9443a2.5212,2.5212,0,0,1-.5225-.0547L1138.666,980.477a2.5,2.5,0,0,1,1.0391-4.8906l49.3291,10.4727a2.5,2.5,0,0,1-.5166,4.9453Zm-98.6592-20.9434a2.522,2.522,0,0,1-.5224-.0556l-49.33-10.4717a2.5,2.5,0,1,1,1.0391-4.8906l49.33,10.4716a2.5005,2.5005,0,0,1-.5166,4.9463Zm-98.66-20.9453a2.5205,2.5205,0,0,1-.5225-.0547l-49.3291-10.4717a2.5,2.5,0,1,1,1.0391-4.8906L991.7149,944.17a2.5,2.5,0,0,1-.5166,4.9453Zm-98.6592-20.9433a2.5224,2.5224,0,0,1-.5225-.0557L842.6875,917.645a2.5,2.5,0,0,1,1.0391-4.8906l49.3291,10.4717a2.5005,2.5005,0,0,1-.5166,4.9463Zm-98.66-20.9434a2.5192,2.5192,0,0,1-.5214-.0557l-49.33-10.4726a2.5,2.5,0,0,1,1.039-4.8907l49.33,10.4727a2.5005,2.5005,0,0,1-.5176,4.9463ZM695.22,886.2847a2.5224,2.5224,0,0,1-.5225-.0557l-49.3291-10.4717a2.5,2.5,0,1,1,1.0391-4.8906l49.3291,10.4717a2.5005,2.5005,0,0,1-.5166,4.9463ZM596.56,865.34a2.52,2.52,0,0,1-.5215-.0556l-49.33-10.4717a2.5,2.5,0,0,1,1.0391-4.8906l49.33,10.4716a2.5005,2.5005,0,0,1-.5176,4.9463ZM497.9014,844.396a2.5205,2.5205,0,0,1-.5225-.0547l-49.33-10.4727a2.5,2.5,0,1,1,1.039-4.8906l49.33,10.4727a2.5,2.5,0,0,1-.5166,4.9453Zm-98.66-20.9434a2.522,2.522,0,0,1-.5224-.0556l-49.33-10.4717a2.5,2.5,0,1,1,1.0391-4.8906l49.33,10.4716a2.5005,2.5005,0,0,1-.5166,4.9463Zm-98.66-20.9453a2.5111,2.5111,0,0,1-.5215-.0547l-49.33-10.4717a2.5,2.5,0,1,1,1.0381-4.8906l49.33,10.4717a2.5,2.5,0,0,1-.5166,4.9453Z" style="fill:#63acc2"/><path d="M1360.96,1027.6118a2.4714,2.4714,0,0,1-.52-.0547l-24.4551-5.1914a2.5,2.5,0,1,1,1.039-4.8906l21.76,4.6191,2.4883-22.1045a2.5,2.5,0,0,1,4.9687.5586l-2.7968,24.8428a2.5018,2.5018,0,0,1-2.4844,2.2207Z" style="fill:#63acc2"/><path d="M1369.58,951.0884a2.5,2.5,0,0,1-2.4873-2.7793l5.8193-51.6807a2.5,2.5,0,0,1,4.9688.5586l-5.8193,51.6807A2.5,2.5,0,0,1,1369.58,951.0884Zm11.64-103.36a2.5,2.5,0,0,1-2.4873-2.7793l5.8193-51.6806a2.5,2.5,0,1,1,4.9687.5585l-5.8193,51.6807A2.5,2.5,0,0,1,1381.22,847.728Zm11.64-103.36a2.5,2.5,0,0,1-2.4873-2.7793l5.8193-51.6807a2.5,2.5,0,0,1,4.9688.5586l-5.8193,51.6807A2.5,2.5,0,0,1,1392.8594,744.3677Zm11.6387-103.3609a2.5,2.5,0,0,1-2.4873-2.78l5.82-51.6806a2.5,2.5,0,1,1,4.9687.56l-5.82,51.6807A2.5,2.5,0,0,1,1404.4981,641.0068Zm11.64-103.3608a2.5,2.5,0,0,1-2.4873-2.78l5.82-51.68a2.5,2.5,0,1,1,4.9688.56l-5.82,51.68A2.5,2.5,0,0,1,1416.1377,537.646Zm11.64-103.36a2.5038,2.5038,0,0,1-2.4873-2.78l5.8193-51.6806a2.5,2.5,0,0,1,4.9688.56l-5.8194,51.6806A2.5,2.5,0,0,1,1427.7774,434.2861Z" style="fill:#63acc2"/><path d="M1439.416,330.9248a2.5379,2.5379,0,0,1-.2832-.0156,2.5008,2.5008,0,0,1-2.2041-2.7642l2.7979-24.8428a2.5,2.5,0,0,1,4.9687.56l-2.7978,24.8428A2.5,2.5,0,0,1,1439.416,330.9248Z" style="fill:#63acc2"/><path d="M386.877,1425.7651c-.0391,0-.0791-.001-.1182-.0029l-24.9726-1.1641a2.5,2.5,0,1,1,.2324-4.9941l24.9726,1.1641a2.5,2.5,0,0,1-.1142,4.997Z" style="fill:#63acc2"/><path d="M1919.0869,1497.2046c-.039,0-.0791-.001-.1181-.003l-51.0733-2.3818a2.5,2.5,0,1,1,.2325-4.9941l51.0732,2.3818a2.5,2.5,0,0,1-.1143,4.9971Zm-102.1474-4.7627c-.0391,0-.0791-.001-.1182-.0029l-51.0732-2.3819a2.5,2.5,0,1,1,.2324-4.9941l51.0732,2.3818a2.5,2.5,0,0,1-.1142,4.9971Zm-102.1475-4.7627c-.039,0-.0781-.001-.1181-.0029l-51.0733-2.3809a2.5,2.5,0,0,1,.2324-4.9941l51.0733,2.3808a2.5,2.5,0,0,1-.1143,4.9971Zm-102.1474-4.7627c-.0391,0-.0782-.001-.1182-.0029l-51.0732-2.3809a2.5,2.5,0,1,1,.2324-4.9941l51.0732,2.3808a2.5,2.5,0,0,1-.1142,4.9971Zm-102.1475-4.7627c-.0391,0-.0791-.001-.1182-.0029l-51.0732-2.3809a2.5,2.5,0,1,1,.2324-4.9941l51.0733,2.3808a2.5,2.5,0,0,1-.1143,4.9971Zm-102.1465-4.7627c-.039,0-.0791-.001-.1181-.0029l-51.0743-2.3809a2.5,2.5,0,1,1,.2325-4.9941l51.0742,2.3808a2.5,2.5,0,0,1-.1143,4.9971Zm-102.1474-4.7627c-.0391,0-.0782-.001-.1182-.0029l-51.0742-2.3809a2.5,2.5,0,1,1,.2324-4.9941l51.0742,2.3808a2.5,2.5,0,0,1-.1142,4.9971Zm-102.1475-4.7617c-.0391,0-.0781-.001-.1182-.0029l-51.0742-2.3819a2.5,2.5,0,0,1,.2324-4.9941l51.0743,2.3818a2.5,2.5,0,0,1-.1143,4.9971Zm-102.1475-4.7627c-.039,0-.0791-.001-.1181-.0029l-51.0742-2.3819a2.5,2.5,0,1,1,.2324-4.9941l51.0742,2.3818a2.5,2.5,0,0,1-.1143,4.9971Zm-102.1474-4.7627c-.0391,0-.0791-.001-.1182-.0029l-51.0732-2.3819a2.5,2.5,0,1,1,.2324-4.9941l51.0732,2.3818a2.5,2.5,0,0,1-.1142,4.9971Zm-102.1475-4.7627c-.039,0-.0781-.001-.1182-.0029l-51.0732-2.3809a2.5,2.5,0,1,1,.2324-4.9941l51.0733,2.3808a2.5,2.5,0,0,1-.1143,4.9971Zm-102.1474-4.7627c-.0391,0-.0782-.001-.1182-.0029l-51.0733-2.3809a2.5,2.5,0,1,1,.2325-4.9941l51.0732,2.3808a2.5,2.5,0,0,1-.1142,4.9971Zm-102.1475-4.7627c-.0391,0-.0781-.001-.1182-.0029l-51.0732-2.3809a2.5,2.5,0,1,1,.2324-4.9941l51.0732,2.3808a2.5,2.5,0,0,1-.1142,4.9971Zm-102.1475-4.7627c-.039,0-.0791-.001-.1181-.0029l-51.0733-2.3809a2.5,2.5,0,0,1,.2324-4.9941l51.0733,2.3808a2.5,2.5,0,0,1-.1143,4.9971Zm-102.1474-4.7627c-.0391,0-.0791-.001-.1182-.0029l-51.0732-2.3809a2.5,2.5,0,1,1,.2324-4.9941l51.0732,2.3808a2.5,2.5,0,0,1-.1142,4.9971Z" style="fill:#63acc2"/><path d="M1995.1338,1500.7505c-.039,0-.0791-.001-.1181-.003l-24.9727-1.165a2.4994,2.4994,0,0,1-2.3809-2.6133,2.5347,2.5347,0,0,1,2.6133-2.3808l24.9727,1.165a2.5,2.5,0,0,1-.1143,4.9971Z" style="fill:#63acc2"/><path d="M2916.5391,1125.84a2.4878,2.4878,0,0,1-1.6611-.6328l-18.6768-16.6191a2.5,2.5,0,1,1,3.3242-3.7344l18.6768,16.6191a2.5,2.5,0,0,1-1.6631,4.3672Z" style="fill:#63acc2"/><path d="M2860.5967,1076.064a2.4918,2.4918,0,0,1-1.6611-.6319l-37.2656-33.1572a2.5005,2.5005,0,1,1,3.3242-3.7363l37.2656,33.1572a2.5,2.5,0,0,1-1.6631,4.3682Zm-74.5312-66.3145a2.4919,2.4919,0,0,1-1.6612-.6318L2747.1387,975.96a2.5005,2.5005,0,1,1,3.3242-3.7363l37.2656,33.1572a2.5,2.5,0,0,1-1.663,4.3682Zm-74.5313-66.3145a2.4878,2.4878,0,0,1-1.6611-.6328l-37.2656-33.1572a2.5005,2.5005,0,1,1,3.3242-3.7363l37.2656,33.1582a2.5,2.5,0,0,1-1.6631,4.3681ZM2637.003,877.12a2.4919,2.4919,0,0,1-1.6612-.6318l-37.2656-33.1572a2.5005,2.5005,0,0,1,3.3242-3.7364l37.2656,33.1573a2.5,2.5,0,0,1-1.663,4.3681Zm-74.5313-66.3144a2.4913,2.4913,0,0,1-1.6611-.6319l-37.2666-33.1572a2.5005,2.5005,0,1,1,3.3242-3.7363l37.2666,33.1572a2.5,2.5,0,0,1-1.6631,4.3682ZM2487.94,744.4907a2.4917,2.4917,0,0,1-1.6611-.6318l-37.2657-33.1573a2.5005,2.5005,0,0,1,3.3242-3.7363l37.2657,33.1572a2.5,2.5,0,0,1-1.6631,4.3682Zm-74.5313-66.3144a2.4881,2.4881,0,0,1-1.6611-.6329l-37.2656-33.1572a2.5,2.5,0,1,1,3.3242-3.7353l37.2656,33.1572a2.5,2.5,0,0,1-1.6631,4.3682Zm-74.5312-66.3155a2.4922,2.4922,0,0,1-1.6611-.6323L2299.95,578.0713a2.5,2.5,0,0,1,3.3242-3.7354l37.2657,33.1573a2.5,2.5,0,0,1-1.6631,4.3676Z" style="fill:#63acc2"/><path d="M2264.3457,545.5464a2.492,2.492,0,0,1-1.6611-.6324l-17.2988-15.392-19.8125,11.9858a2.5,2.5,0,0,1-2.5879-4.2783l21.3906-12.9405a2.5011,2.5011,0,0,1,2.9561.2715l18.6767,16.6182a2.5,2.5,0,0,1-1.6631,4.3677Z" style="fill:#63acc2"/><path d="M1483.8828,989.7866a2.5,2.5,0,0,1-1.2959-4.6387l41.1338-24.8838a2.5,2.5,0,1,1,2.5879,4.2774l-41.1338,24.8838A2.4836,2.4836,0,0,1,1483.8828,989.7866Zm82.2666-49.7685a2.5,2.5,0,0,1-1.2959-4.6387l41.1338-24.8848a2.5,2.5,0,1,1,2.5879,4.2774l-41.1338,24.8847A2.4837,2.4837,0,0,1,1566.1494,940.0181ZM1648.416,890.25a2.5,2.5,0,0,1-1.2959-4.6387l41.1338-24.8847a2.5,2.5,0,1,1,2.5879,4.2773l-41.1338,24.8848A2.4836,2.4836,0,0,1,1648.416,890.25Zm82.2666-49.7686a2.5,2.5,0,0,1-1.2958-4.6386l41.1337-24.8848a2.5,2.5,0,1,1,2.5879,4.2774L1731.9746,840.12A2.4836,2.4836,0,0,1,1730.6826,840.4809Zm82.2667-49.7685a2.5,2.5,0,0,1-1.2959-4.6387l41.1328-24.8847a2.5,2.5,0,0,1,2.5879,4.2773l-41.1329,24.8848A2.4835,2.4835,0,0,1,1812.9493,790.7124Zm82.2666-49.7695a2.5,2.5,0,0,1-1.2959-4.6387l41.1328-24.8838a2.5,2.5,0,0,1,2.5879,4.2773l-41.1329,24.8838A2.4836,2.4836,0,0,1,1895.2159,740.9429Zm82.2666-49.7686a2.5,2.5,0,0,1-1.2959-4.6387l41.1328-24.8838a2.5,2.5,0,0,1,2.5879,4.2774l-41.1329,24.8838A2.4835,2.4835,0,0,1,1977.4825,691.1743Zm82.2666-49.7681a2.5,2.5,0,0,1-1.2959-4.64l41.1328-24.8843a2.5,2.5,0,0,1,2.5879,4.2783l-41.1329,24.8843A2.488,2.488,0,0,1,2059.7491,641.4062Zm82.2666-49.7685a2.5006,2.5006,0,0,1-1.2959-4.64l41.1328-24.8842a2.5,2.5,0,0,1,2.5879,4.2783l-41.1329,24.8843A2.488,2.488,0,0,1,2142.0157,591.6377Z" style="fill:#63acc2"/><path d="M1421.3594,1027.6118a2.5,2.5,0,0,1-1.2959-4.6387l21.3906-12.94a2.5,2.5,0,1,1,2.5879,4.2773l-21.3906,12.9405A2.4839,2.4839,0,0,1,1421.3594,1027.6118Z" style="fill:#63acc2"/><path d="M2917.9287,486.602a2.5,2.5,0,0,1-1.85-4.1811L2932.89,463.917a2.5,2.5,0,0,1,3.7012,3.3623L2919.78,485.7832A2.4934,2.4934,0,0,1,2917.9287,486.602Z" style="fill:#63acc2"/><path d="M2158.5889,1322.4194a2.5,2.5,0,0,1-1.85-4.1806l34.5156-37.9922a2.5,2.5,0,1,1,3.7012,3.3613L2160.4405,1321.6A2.4906,2.4906,0,0,1,2158.5889,1322.4194Zm69.0312-75.9834a2.5,2.5,0,0,1-1.85-4.1806l34.5157-37.9922a2.5,2.5,0,1,1,3.7011,3.3613l-34.5156,37.9922A2.4906,2.4906,0,0,1,2227.62,1246.436Zm69.03-75.9834a2.5,2.5,0,0,1-1.85-4.1806l34.5156-37.9922a2.5,2.5,0,0,1,3.7012,3.3613l-34.5156,37.9922A2.4939,2.4939,0,0,1,2296.65,1170.4526Zm69.0313-75.9834a2.5,2.5,0,0,1-1.85-4.1806l34.5156-37.9922a2.5,2.5,0,0,1,3.7012,3.3613l-34.5157,37.9922A2.4937,2.4937,0,0,1,2365.6817,1094.4692Zm69.0312-75.9834a2.5,2.5,0,0,1-1.85-4.1806l34.5147-37.9912a2.5,2.5,0,1,1,3.7011,3.3613l-34.5146,37.9912A2.4939,2.4939,0,0,1,2434.7129,1018.4858Zm69.03-75.9834a2.5,2.5,0,0,1-1.85-4.1806l34.5156-37.9912a2.5,2.5,0,1,1,3.7012,3.3613l-34.5156,37.9912A2.4939,2.4939,0,0,1,2503.7432,942.5024Zm69.0312-75.9834a2.5,2.5,0,0,1-1.85-4.1806l34.5157-37.9912a2.5,2.5,0,1,1,3.7011,3.3613L2574.626,865.7A2.4939,2.4939,0,0,1,2572.7744,866.519Zm69.03-75.9834a2.5,2.5,0,0,1-1.85-4.1806l34.5156-37.9922a2.5,2.5,0,0,1,3.7012,3.3613l-34.5156,37.9922A2.4939,2.4939,0,0,1,2641.8047,790.5356Zm69.0313-75.9834a2.5,2.5,0,0,1-1.85-4.1806L2743.502,672.38a2.5,2.5,0,1,1,3.7012,3.3613l-34.5157,37.9912A2.4937,2.4937,0,0,1,2710.836,714.5522Zm69.0312-75.9834a2.5,2.5,0,0,1-1.85-4.1811l34.5147-37.9917a2.5,2.5,0,0,1,3.7011,3.3623L2781.7188,637.75A2.4934,2.4934,0,0,1,2779.8672,638.5688Zm69.03-75.9834a2.5,2.5,0,0,1-1.85-4.1811l34.5156-37.9917a2.5,2.5,0,0,1,3.7012,3.3623l-34.5156,37.9917A2.4934,2.4934,0,0,1,2848.8975,562.5854Z" style="fill:#63acc2"/><path d="M2107.2627,1378.9155a2.5,2.5,0,0,1-1.85-4.1806l16.8106-18.504a2.5,2.5,0,1,1,3.7011,3.3614l-16.81,18.5039A2.4943,2.4943,0,0,1,2107.2627,1378.9155Z" style="fill:#63acc2"/><g style="clip-path:url(#clip-path)"><circle cx="1380.9702" cy="995.7594" r="320.1668" transform="translate(-299.6314 1268.1446) rotate(-45)" style="fill:#d5ebfe"/><path d="M1329.2437,737.8525c48.6352-43.3154,84.3511-17.478,110.9487,11.399,21.2012,23.0185,24.1592,28.121,41.6738,51.9692,2.6,3.54,4.6,7.4726,4.6812,11.8642.4917,26.3638,13.9819,137.8365-1.0132,176.3013-17.4785,44.836-233.0425,65.3535-233.0425,65.3535Z" style="fill:#303c60"/><path d="M1467.294,1015.1274a2.4366,2.4366,0,0,1-.1211-4.87c6.3291-.3213,11.4834-3.17,15.7588-8.708,24.122-31.2529,10.5312-135.7246-1.3018-192.5273a2.436,2.436,0,1,1,4.77-.9942c2.587,12.416,11.2364,56.4942,13.9366,102.4043,2.7763,47.1934-1.7813,78.8506-13.5469,94.0938-5.125,6.6406-11.6426,10.206-19.37,10.5986C1467.377,1015.1265,1467.335,1015.1274,1467.294,1015.1274Z" style="fill:#303c60"/><path d="M1347.482,724.9341c-93.47,51.6748-36.4761,226.456-155.024,288.77-32.8432,17.2637-133.7461,104.8691-67.6328,220.377,43.2456,75.5566,172.502,59.2744,215.0576-7.5987S1347.482,724.9341,1347.482,724.9341Z" style="fill:#303c60"/><path d="M1098.7373,1122.53a2.4378,2.4378,0,0,1-2.4179-2.7578c.082-.6182,2.1211-15.3614,11.457-34.8946a153.0189,153.0189,0,0,1,56.0166-63.0967c54.8076-34.8769,91.1914-67.75,134.22-229.8388a2.436,2.436,0,0,1,4.709,1.25c-20.8076,78.3847-41.4424,131.3789-64.9385,166.7754-21.8291,32.8867-44.2861,48.6865-71.375,65.9248-56.8974,36.208-65.1816,93.9433-65.2588,94.5224A2.4367,2.4367,0,0,1,1098.7373,1122.53Z" style="fill:#303c60"/><path d="M1100.78,1077.2671a2.4373,2.4373,0,0,1-2.0576-3.7383,169.5082,169.5082,0,0,1,51.376-52.3721c76.9726-49.7783,89.7138-78.4052,153.3164-242.39a2.4363,2.4363,0,1,1,4.5429,1.7617c-31.8144,82.0264-50.8271,130.0947-71.63,164.1709-22.3536,36.6162-47.5743,57.2617-83.5831,80.5488a164.6765,164.6765,0,0,0-49.9033,50.8838A2.4347,2.4347,0,0,1,1100.78,1077.2671Z" style="fill:#303c60"/><path d="M1344.253,834.0049c-32.1817,66.8393-27.23,127.49-27.23,127.49s3.7134,23.5176,18.5664,28.4688,35.895-9.9024,34.6572-29.7071,4.9512-68.0766,12.378-85.4052S1344.253,834.0049,1344.253,834.0049Z" style="fill:#f09959"/><path d="M1174.22,1298.4214c2.0263,18.2373-2.5332,16.7177,13.6787,19.7578s45.0888-8.1065,45.0888-8.1065l-32.4238-60.2871Z" style="fill:#6791c9"/><path d="M1320.9048,925.5991c-9.1186,29.6358-77.5083,6.8389-101.4443,13.6777s-44.4531,107.1436-47.8726,197.1905,1.14,161.8545,10.2583,173.2529,159.5757,15.958,173.2534,11.3984-113.9824-61.5507-113.9824-61.5507-7.979-104.8633,2.2793-158.4356,102.5845-124.24,102.5845-124.24Z" style="fill:#f09959"/><path d="M1352.82,934.7182c23.936,36.4737,86.6264,31.9151,108.2836,61.5508s67.2491,192.63,67.2491,192.63l47.873-165.2744s38.8233-6.52,26.2158,20.5166c-22.4238,48.0879-30.7832,203.2383-55.1005,225.2764-27.0411,24.5068-53.9541,4.56-69.14-38.3448-14.69-41.5048-51.292-131.08-77.5083-165.2744s-54.7114-88.9062-54.7114-88.9062Z" style="fill:#f09959"/><path d="M1249.0957,939.2768c47.8731,55.8516,141.3384,53.5723,161.8555,46.7334l20.5166-6.8388s15.9575-5.6992,29.6357,10.2578,46.7325,116.2627,52.4317,139.0586,14.8174,60.4111,14.8174,60.4111-24.4536,29.3516-24.4536,58.9873,10.3852,29.8906,10.3852,29.8906-30.3848-6.8105-37.2236-25.0478-68.3892-183.5117-68.3892-183.5117l-169.834,3.42,2.28,186.9307s-14.8179-13.6778-35.3345,0-27.3559,45.5927-23.9365,50.1523-6.8388,4.56-6.8388,1.14-19.377-86.626-5.6993-223.4053,39.8941-151.5967,54.7115-152.7364S1249.0957,939.2768,1249.0957,939.2768Z" style="fill:#75a1de"/><path d="M1507.3277,1275.4175a1.8075,1.8075,0,0,0,.5083.1084S1507.65,1275.49,1507.3277,1275.4175Z" style="fill:#6791c9"/><path d="M1513.9043,1193.0454c-9.8789,3.0391-26.5967,37.9961-26.5967,37.9961s-37.996-82.832-49.395-197.5791l-13.5644,77.8467c18.7241,50.2685,48.11,129.1455,52.7124,141.42,6.2563,16.6826,31.4844,23.6426,34.9443,24.4141-.9458-.3184-3.0361-1.5821-4.7666-6.59-.9966-.9092-6.7056-3.5781-7.7724-4.5557-9.1192-8.3593-5.3194-28.1171.76-50.1543S1523.7837,1190.0054,1513.9043,1193.0454Z" style="fill:#6791c9"/><path d="M1247.0118,1072.4722l-18.8375-86.125c-20.518,28.8769-22.7978,127.6669-14.4384,195.3,6.855,55.4658,17.11,69.8584,24.1557,75.6416a20.6547,20.6547,0,0,1,3.2256,2.2793l-2.28-186.9307Z" style="fill:#6791c9"/><path d="M1192.458,985.5864c34.9561,94.2305,17.4781,113.2285,63.4766,223.8291,25.6909,61.7715,75.2285,108.2832,75.2285,108.2832s39.8941,10.2588,90.0464,6.8389,86.8691-6.8652,86.8691-6.8652-52.6743-31.8887-54.9541-53.545-12.1723-107.5586.7461-168.3515c10.0884-47.4737-31.5214-94.9483-31.5214-94.9483l-69.5293-3.4189Z" style="fill:#75a1de"/><path d="M1254.0118,1129.9722c-6.08-22.0381,25.8369,6.8388,78.2719,12.1582s110.9483-3.0391,82.0713,6.0791-107.9087-4.5586-93.47,24.3183c16.9922,33.9844,37.0566,66.8721,66.1128,86.6309,18.998,12.9179,64.5933,25.0771,20.5181,18.2383s-91.19-58.5147-111.7085-91.9512S1255.3672,1134.8862,1254.0118,1129.9722Z" style="fill:#6791c9;opacity:0.5"/><path d="M1370.1187,951.58c.4614-22.7481,6.01-61.5728,12.5054-76.7285,5.32-12.4151-16.6773-28.0059-29.5806-35.85l-10.9131-.4678q-2.4939,5.436-4.6777,10.7988c-11.5215,75.6524,22.9585,106.9121,39.4126,113.2031,7.101,2.7149,15.06,3.0176,21.8593,2.4014C1388.5689,961.3257,1378.67,957.2182,1370.1187,951.58Z" style="fill:#e38540"/><path d="M1349.2354,985.3374a51.51,51.51,0,0,1-12.1563-1.4717c-9.5341-2.3242-32.28-11.1572-37.5683-42.8867a1.3812,1.3812,0,1,1,2.7246-.4551c5.0185,30.1074,26.4971,38.4629,35.498,40.6582,13.9746,3.4092,28.7979.2627,34.48-7.3164,4.5547-6.0713,1.8105-19.0127,1.7822-19.1426a1.381,1.381,0,0,1,2.6992-.5859c.127.581,3.0323,14.3154-2.2705,21.3867C1369.7315,981.78,1360.0567,985.3374,1349.2354,985.3374Z" style="fill:#f5ce5c"/><path d="M1456.501,863.7412c-7.73,40.8286-25.5889,73.7651-55.8086,67.5571s-61.9873-49.334-53.6255-90.0376,39.6372-68.6684,69.857-62.46S1466.8023,809.3374,1456.501,863.7412Z" style="fill:#f09959"/><path d="M1564.0591,1065.3784s-55.854,150.085-58.5137,165.6631,2.66,25.457,4.1792,25.457,49.0152-81.3115,49.0152-81.3115Z" style="fill:#f09959"/><path d="M1566.3389,1058.7925c4.56-15.1983-2.5327-34.4493-2.5327-34.4493l20.2641,2.5323Z" style="fill:#f09959"/><path d="M1588.6065,1032.8677H1532.062a5.1289,5.1289,0,0,1-4.9155-6.5948l35.6944-119.6816a5.13,5.13,0,0,1,4.9155-3.6631H1624.3a5.13,5.13,0,0,1,4.9161,6.5957l-35.6944,119.6807A5.1291,5.1291,0,0,1,1588.6065,1032.8677Z" style="fill:#4381db"/><path d="M1595.6983,1032.8677h-56.544a5.1293,5.1293,0,0,1-4.9155-6.5948l35.6943-119.6816a5.13,5.13,0,0,1,4.9156-3.6631h56.5439a5.13,5.13,0,0,1,4.916,6.5957l-35.6943,119.6807A5.13,5.13,0,0,1,1595.6983,1032.8677Z" style="fill:#2e5b9a"/><path d="M1554.7593,946.1206c-6.0278,21.72-10.0854,39.5576-9.062,39.8408s6.7393-17.0928,12.7671-38.8125,10.0849-39.5576,9.062-39.8408S1560.7871,924.4009,1554.7593,946.1206Z" style="fill:#9cbeed"/><path d="M1593.19,1068.4184c1.6728-19.7363,18.7676-38.2363,25.2724-44.14a9.339,9.339,0,0,0,3.0684-7.0088c-.0937-9.8369-.53-33.0625-2.5654-35.7754-2.59-3.4531-9.0655-47.92-12.0879-46.1933s.8642,40.581.8642,40.581-7.34-3.4531-11.2255-5.1807-19.8584,15.9737-19.8584,15.9737-7.49,18.9219,12.9863,10.8174c24.3174-9.626,6.0791,17.2246-10.1328,34.4492-13.3574,14.1924-1.99,17.332-1.99,17.332l10.793-.4316Z" style="fill:#f09959"/><path d="M1587.0528,1084.0649a20.0166,20.0166,0,0,1-5.8828-.915c-5.2862-1.6475-14.52-6.96-16.9581-24.0352a1.3811,1.3811,0,1,1,2.7344-.3906c2.041,14.2871,8.9121,19.6016,14.3164,21.544,4.5039,1.6181,8.3438.958,9.3653.4384a1.3814,1.3814,0,0,1,2.6406-.2627,1.8947,1.8947,0,0,1-.4238,2.0186C1591.9444,1083.437,1589.7618,1084.0649,1587.0528,1084.0649Z" style="fill:#f5ce5c"/><path d="M1584.91,1079.1782a35.7984,35.7984,0,0,1-5.0762-.3662c-9.8262-1.4268-16.4131-6.418-18.0713-13.6963a1.3812,1.3812,0,0,1,2.6934-.6133c1.5117,6.6319,7.4531,9.5508,12.1709,10.833,7.0517,1.9161,13.8887.8819,14.7656-.0537a1.35,1.35,0,0,1,1.8613-.498,1.409,1.409,0,0,1,.5069,1.91C1592.8,1078.4028,1589.0694,1079.1782,1584.91,1079.1782Z" style="fill:#f5ce5c"/><path d="M1421.8164,885.2026a12.5084,12.5084,0,0,1-1.8916-.1445c-9.708-1.4863-15.58-13.9658-13.3681-28.41s11.5615-24.583,21.2578-23.1064c9.707,1.4863,15.5791,13.9658,13.3672,28.41C1439.1143,875.4516,1430.8194,885.2026,1421.8164,885.2026Zm4.1543-46.9287c-6.4316,0-12.9531,8.376-14.5976,19.1123-1.7383,11.3516,2.5156,21.8184,9.289,22.8555,6.7774,1.04,13.9649-7.6777,15.7032-19.0283s-2.5157-21.8184-9.2891-22.8555A7.251,7.251,0,0,0,1425.9707,838.2739Z" style="fill:#fff"/><path d="M1453.4649,885.2124a6.4223,6.4223,0,0,1-.9746-.0742c-6.4737-.9912-9.8653-11.4805-7.8877-24.3975s8.3564-21.9062,14.8281-20.92c6.4756.9912,9.8662,11.4805,7.8877,24.3984a38.6927,38.6927,0,0,1-5.3311,15.0391C1459.4414,883.1343,1456.4493,885.2124,1453.4649,885.2124Zm5.0039-41.7813c-3.624,0-8.5713,7.0664-10.2256,17.8672-1.7158,11.2071,1.1553,19.6407,4.8047,20.1992,1.7764.2715,3.9043-1.2822,5.86-4.2607a34.9766,34.9766,0,0,0,4.77-13.5762c1.7168-11.207-1.1543-19.64-4.8047-20.1992A2.6379,2.6379,0,0,0,1458.4688,843.4311Z" style="fill:#fff"/><path d="M1411.3164,847.438a2.4475,2.4475,0,0,1-.67-.0938l-74.4726-21.2773a2.4364,2.4364,0,1,1,1.3379-4.6856l74.4726,21.2774a2.4365,2.4365,0,0,1-.668,4.7793Z" style="fill:#fff"/><path d="M1464.51,800.9263c-115.2549,67.8862-121.5874,22.291-121.5874,22.291l6.8394-64.8467,68.3925,3.8Z" style="fill:#303c60"/><path d="M1351.84,838.2832c2.6816,11.4761-.98,22.1426-8.1787,23.8242s-15.208-6.2573-17.8892-17.7334.9805-22.1426,8.1792-23.8242S1349.1587,826.8071,1351.84,838.2832Z" style="fill:#f09959"/><path d="M1343.9434,853.3569a4.5386,4.5386,0,1,1-4.5386-4.539A4.5389,4.5389,0,0,1,1343.9434,853.3569Z" style="fill:#f5ce5c"/><path d="M1377.1187,1286.2622s31.1567-13.6787,40.2759-7.6,35.4629,33.9433,35.4629,33.9433Z" style="fill:#f09959"/><path d="M1451.14,1315.0874c-.5933.7412-1.4756,1.0527-1.9722.6826l-64.11-47.7285c-3.4541-2.5713-5.0957-6.5029-3.435-8.5781s5.8569-1.336,9.123,1.47l60.6275,52.081C1451.8428,1313.4175,1451.7334,1314.3462,1451.14,1315.0874Z" style="fill:#2e5b9a"/><path d="M1282.8887,1280.436s51.6743,20.5176,57.7539,20.5176,40.0225-22.7969,51.4214-19.7578,67.1265,31.1572,65.6064,33.4365-17.478,7.6-64.5932,6.08-123.8672-8.3594-123.8672-8.3594Z" style="fill:#f09959"/></g><path d="M2109.9844,1642.5083s-270.9678-188.209-385.5879-79.6895c-91.5224,86.6514,70.9356,188.4512,278.7656,161.0782,146.2862-19.2666,162.8663,8.7168,188.49,8.1142,190.67-14.6123,447.5859-71.6562,322.5566-161.2793-170.3222-122.0888-285.5322,7.3438-344.8789,39.56Z" style="fill:#232e4f"/><path d="M2460.3243,1566.21c-71.2188-14.6963-342.5284,85.9151-342.5284,85.9151s-236.2666-71.2188-292.789-78.002-82.5235,14.6963-82.5235,14.6963,26.669-30.0537,57.6534-32.7832,75.7412-10.1748,75.7412-10.1748,452.1826-21.4785,512.0966-7.9131S2460.3243,1566.21,2460.3243,1566.21Z" style="fill:#1b243d"/><path d="M2076.0723,1199.9565c-10.7451,1.6953-177.7764,74.5547-179.8262,105.0752s45.7617,278.1309,138.2285,310.3467,195.8975,0,195.8975,0,108.5186-267.9043,76.3018-318.7725-178.0381-96.6494-178.0381-96.6494Z" style="fill:#ffd24f"/><path d="M1953.3057,1257.6274c-159.5752,85.5059-198.7637,239.8867-156.56,273.916,29.5723,23.8438,141.0791,76.5831,237.7285,73.1924s187.42,5.708,187.42,5.708,165.7968-33.7353,198.8632-83.4228-58.6709-211.0918-140.93-257.7442S1953.3057,1257.6274,1953.3057,1257.6274Z" style="fill:#ffd24f"/><path d="M2105.46,1296.6059a40.2505,40.2505,0,0,1-40.1328-40.1328V1121.397a40.1323,40.1323,0,1,1,80.2646,0v135.0761A40.25,40.25,0,0,1,2105.46,1296.6059Z" style="fill:#f09959"/><path d="M2105.46,1081.2641a40.2506,40.2506,0,0,0-40.1328,40.1329V1231.85c23.6631,19.7724,46.5722,9.4121,80.2646-16.6983V1121.397A40.25,40.25,0,0,0,2105.46,1081.2641Z" style="fill:#e38540"/><path d="M2193.543,1126.8559c-6.5947,13.4639-17.3057,20.93-23.9229,16.6768s-6.6357-18.6143-.041-32.0781,17.3047-20.93,23.9219-16.6768S2200.1368,1113.3931,2193.543,1126.8559Z" style="fill:#f09959"/><path d="M2038.2676,1112.4565c7.626,12.25,9.09,27.0537,3.2705,33.0635s-16.7207.9531-24.3467-11.2969-9.0908-27.0537-3.27-33.0644S2030.6407,1100.2065,2038.2676,1112.4565Z" style="fill:#f09959"/><ellipse cx="2107.2639" cy="1125.9917" rx="69.0188" ry="88.8721" style="fill:#f09959"/><path d="M2257.7578,1345.9526c45.2178,24.1162,84.6221,115.502,84.6221,115.502s-101.7412,15.8261-122.8437,31.6533,3.0146-6.0293,15.0732-49.74S2257.7578,1345.9526,2257.7578,1345.9526Z" style="fill:#edc055"/><path d="M1942.9512,1339.3657c10.5508,48.2324,61.0449,182.8906,61.0449,182.8906s-46.7685-53.2656-96.4658-56.2793-68.1416-3.7685-67.8271,8.2891c.0615,2.3828,8.29-53.5078,46.7255-88.1748S1942.9512,1339.3657,1942.9512,1339.3657Z" style="fill:#edc055"/><path d="M2246.0528,1643.021h-273.041a22.52,22.52,0,0,1-22.21-18.7979l-32.9219-196.49a22.5188,22.5188,0,0,1,22.21-26.24h338.8847a22.52,22.52,0,0,1,22.211,26.24l-32.9229,196.49A22.5192,22.5192,0,0,1,2246.0528,1643.021Z" style="fill:#2a66c6"/><path d="M2246.0528,1643.021h-273.041c-11.001,0-20.3917-7.6611-22.21-18.12L1917.88,1435.5015c-2.3008-13.2364,8.2861-25.294,22.21-25.294h338.8847c13.9239,0,24.5118,12.0576,22.211,25.294l-32.9229,189.3994C2266.4453,1635.36,2257.0537,1643.021,2246.0528,1643.021Z" style="fill:#63acc2"/><path d="M2145.5918,1720.4282c-1.6328-.2822-176.3418-44.0078-215.3408-11.791s130.5615,32.7656,161.082,25.708S2145.5918,1720.4282,2145.5918,1720.4282Z" style="fill:#1b243d"/><path d="M2184.5909,1728.2671s37.3037-28.1084,86.4755-23.0215,91.5625,15.81,49.1719,29.1-86.4746,14.9863-106.8223,13.29S2184.5909,1728.2671,2184.5909,1728.2671Z" style="fill:#1b243d"/><path d="M2085.2364,1000.7143c-44.8321,13.6006-29.2286,139.8125,22.0273,135.6543s53.3359-58.7314,49.6982-94.0742S2131.4942,986.6811,2085.2364,1000.7143Z" style="fill:#0f2d5c"/><path d="M2069.1241,1094.269c-12.4737-11.9541-29.626,25.669-22.8692,42.2s-2.6943,26.1543,6.4492,43.9522-16.8437-11.3086-20.4824-32.6182-5.7168-58.2119-10.915-74.8437.2636-45.4707,23.4238-51.4551,28.5518-16.6319,37.3867-17.1514,50.9356,3.6377,71.7256,15.0723,32.2246,28.5859,30.665,54.5732-8.3154,92.5156-14.5527,103.4307-9.4648,8.3291-7.5908,2.0849,8.6308-43.665,3.4326-57.1787-2.5986-46.7773-16.1113-49.3759-10.3955,20.4453-26.5078,22.1767S2069.1241,1094.269,2069.1241,1094.269Z" style="fill:#0f2d5c"/><path d="M1823.4043,813.0073H1577.2129a14.0969,14.0969,0,0,1-14.0913-14.272l1.2954-102.2822a14.5354,14.5354,0,0,1,14.4522-14.272h246.1924a14.0965,14.0965,0,0,1,14.0908,14.272l-1.2949,102.2822A14.536,14.536,0,0,1,1823.4043,813.0073Z" style="fill:#9ec8ff"/><path d="M1811.2979,802.3032h-221.707a12.21,12.21,0,0,1-12.2051-12.3613l1.0732-84.6953a12.5891,12.5891,0,0,1,12.5176-12.3614h221.707a12.21,12.21,0,0,1,12.2051,12.3614l-1.0732,84.6953A12.59,12.59,0,0,1,1811.2979,802.3032Z" style="fill:#fff"/><path d="M1672.8311,807.061c-1.4756,53.916-27.06,70.5669-27.06,70.5669s11.4922-30.9228,2.9619-45.9878a54.8011,54.8011,0,0,0-22.7226-21.4077Z" style="fill:#9ec8ff"/><path d="M1801.253,723.0146H1658.335a4.21,4.21,0,0,1-4.208-4.2617l.0029-.1982a4.34,4.34,0,0,1,4.3154-4.2617h142.918a4.2086,4.2086,0,0,1,4.208,4.2617l-.0029.1982A4.3391,4.3391,0,0,1,1801.253,723.0146Z" style="fill:#9ec8ff"/><path d="M1801.0225,741.251h-142.919a4.2083,4.2083,0,0,1-4.207-4.2613l.002-.1987a4.3409,4.3409,0,0,1,4.3164-4.2617h142.9179a4.21,4.21,0,0,1,4.2081,4.2617l-.003.1987A4.34,4.34,0,0,1,1801.0225,741.251Z" style="fill:#9ec8ff"/><path d="M1800.7618,761.8662h-142.919a4.21,4.21,0,0,1-4.208-4.2617l.0029-.1983a4.3405,4.3405,0,0,1,4.3155-4.2617h142.9179a4.2086,4.2086,0,0,1,4.208,4.2617l-.0019.1983A4.3405,4.3405,0,0,1,1800.7618,761.8662Z" style="fill:#9ec8ff"/><path d="M1641.2012,737.6831c-.1963,15.5454-10.6514,28.1475-23.35,28.1475s-22.835-12.6021-22.6377-28.1475,10.6514-28.1475,23.3506-28.1475S1641.3985,722.1377,1641.2012,737.6831Z" style="fill:#9ec8ff"/><path d="M2029.1494,999.29H1779.8028a14.277,14.277,0,0,1-14.2725-14.4541l1.3125-103.5937a14.7216,14.7216,0,0,1,14.6377-14.4551h249.3477A14.2781,14.2781,0,0,1,2045.1,881.2417l-1.3125,103.5937A14.7206,14.7206,0,0,1,2029.1494,999.29Z" style="fill:#9ec8ff"/><path d="M2016.8868,988.4487H1792.3389a12.3665,12.3665,0,0,1-12.3613-12.5195l1.0869-85.7813a12.75,12.75,0,0,1,12.6787-12.52H2018.291a12.3666,12.3666,0,0,1,12.3614,12.52l-1.0869,85.7813A12.75,12.75,0,0,1,2016.8868,988.4487Z" style="fill:#fff"/><path d="M1910.6407,993.2671c.1113,54.6074,25.5947,71.4717,25.5947,71.4717s-10.8457-31.3194-1.8194-46.5772A57.5714,57.5714,0,0,1,1957.98,996.479Z" style="fill:#9ec8ff"/><path d="M1930.2725,915.3716H1808.1289a3.9268,3.9268,0,0,1-3.9248-3.9756l.0108-.8838a4.0493,4.0493,0,0,1,4.0254-3.9746h122.1445a3.9272,3.9272,0,0,1,3.9248,3.9746l-.0117.8838A4.0484,4.0484,0,0,1,1930.2725,915.3716Z" style="fill:#9ec8ff"/><path d="M1930.0391,933.8413H1807.8946a3.9267,3.9267,0,0,1-3.9248-3.9756l.0117-.8828a4.0474,4.0474,0,0,1,4.0254-3.9746H1930.15a3.9253,3.9253,0,0,1,3.9248,3.9746l-.0107.8828A4.05,4.05,0,0,1,1930.0391,933.8413Z" style="fill:#9ec8ff"/><path d="M1929.7744,954.72H1807.6309a3.9268,3.9268,0,0,1-3.9258-3.9746l.0117-.8838a4.0482,4.0482,0,0,1,4.0254-3.9746h122.1436a3.926,3.926,0,0,1,3.9248,3.9746l-.0108.8838A4.0481,4.0481,0,0,1,1929.7744,954.72Z" style="fill:#9ec8ff"/><path d="M1989.0684,961.9477h-17.667a14.2779,14.2779,0,0,1-14.2725-14.455l.458-36.1368a14.7221,14.7221,0,0,1,14.6377-14.455h17.668a14.2775,14.2775,0,0,1,14.2715,14.455l-.458,36.1368A14.7209,14.7209,0,0,1,1989.0684,961.9477Z" style="fill:#9ec8ff"/><g style="clip-path:url(#clip-path-2)"><circle cx="774.3286" cy="432.6645" r="380" style="fill:#d5ebfe"/><path d="M598.72,372.7148c50.2681,36.3047,158.251,52.13,192.6939,53.9917s-19.12,96.8125-19.12,96.8125-92.5869,11.17-136.3389,0S598.72,372.7148,598.72,372.7148Z" style="fill:#d54a41"/><path d="M512.458,1314.1538c.6206,24.8232,14.7691,39.5947,37.856,56.7842,24.2031,18.0215,25.4443,19.998-8.0679,24.4277s-42.8208-10.7744-65.1621-17.291-8.0674-22.3418-9.3086-37.2363-3.3589-39.0967-3.3589-39.0967Z" style="fill:#303c60"/><path d="M707.9444,1301.7417a374.8663,374.8663,0,0,0,34.7534,34.376c19.8589,17.1328,70.1269,22.9726,45.9233,29.3613s-51.3154,2.9414-76.2358,6.5273-46.6411.1172-48.5029-6.5273c-1.8619-6.6426,0-53.8076,0-53.8076Z" style="fill:#303c60"/><path d="M776.5308,215.6636c31.1533-29.5777,88.418,8.1289,93.8179,33.1977,13.8906,64.4868,20.0366,131.1685,3.1352,157.3657s-156.1118,33.6089-165.5845,33.3809c-12.7426-.3071-20.1723-43.4971,4.7574-71.8071s36.0317-79.3389,40.6-105.4854C758.75,230.875,771.543,220.3994,776.5308,215.6636Z" style="fill:#58556e"/><path d="M887.1592,390.3008a1.4995,1.4995,0,0,1-1.4873-1.7061c7.3047-52.7-2.4639-112.9932-24.3066-150.0317a1.5,1.5,0,0,1,2.584-1.5244c22.1611,37.5776,32.0849,98.6484,24.6933,151.9682A1.4992,1.4992,0,0,1,887.1592,390.3008Z" style="fill:#58556e"/><path d="M896.1582,355.8008c-.0312,0-.0625-.001-.0947-.003a1.5,1.5,0,0,1-1.4033-1.5908c2.9824-47.7246-20.7852-107.5342-42.4522-125.2348a1.5,1.5,0,1,1,1.8985-2.3233c22.207,18.1421,46.584,79.17,43.5478,127.7456A1.5,1.5,0,0,1,896.1582,355.8008Z" style="fill:#58556e"/><path d="M712.1934,404.1577c-10.61,75.144-20.85,216.6392-51.5693,251.082s-47.8184,116.5835-47.8184,116.5835,99.2773-54.2143,139.91-187.51c12.7461-41.815-18.3575-139.4546-25.9014-148.7637S712.1934,404.1577,712.1934,404.1577Z" style="fill:#7ec1d6"/><path d="M927.3238,610.5571c-6.1343,7.45-22.5743,43.5479-30.91,43.5479-28.3916,0-30.4863,11.1328-45.8887,19.2871-19.7812,10.4721-15.5923,26.53-14.1963,27.4609s43.4873-6.4429,57.6187-15.6489c11.7329-7.6431,20.0679-11.812,25.791-20.19s38.106-32.5811,38.106-32.5811Z" style="fill:#f09959"/><path d="M898.6011,387.6343c28.7227,17.3515,33.9976,33.4868,62.2349,82.5136s33.2011,66.7139,44.372,84.4,14.8946,38.1665-8.6884,60.5078c-22.5259,21.34-33.042,30.0528-45.4058,26.7154-8.3276-2.2481-14.9077-26.5083-26.4858-22.1123s8.9018-29.7368,19.4516-39.356c5.7461-5.2392,8.0679-4.8384,6.2061-7.229s-37.2359-28.7656-66.7139-66.9321S898.6011,387.6343,898.6011,387.6343Z" style="fill:#8ddaf2"/><path d="M988.7622,570.9941c-13.977-6.2754-31.4419-5.3808-44.269-2.9492,3.2978,2.772,5.3779,4.4976,5.7925,5.0293,1.8618,2.3906-.46,1.99-6.2061,7.229a62.6819,62.6819,0,0,0-6.917,7.8584c9.7754-5.1807,20.4839-9.8369,29.2583-11.1167,22.3413-3.2583,23.7378,2.7925,35.3741,10.24S1011.5694,581.2339,988.7622,570.9941Z" style="fill:#7ec1d6"/><path d="M927.4839,413.6079c-7.6938-10.5112-15.8877-18.123-28.8828-25.9736,0,0-44.5073,80.3413-15.0293,118.5078A350.1572,350.1572,0,0,0,912.1651,538.53C912.7681,512.8144,915.4717,455.334,927.4839,413.6079Z" style="fill:#7ec1d6"/><path d="M789.293,361.0791c-38.4766,8.688-69.5264,20.0376-77.47,42.355-3.8555,10.832,18.4624,189.59,40.8037,209.4487,43.1191,38.3286,114.1889,2.4824,114.1889,2.4824S899.0869,534.9985,911.89,400.09c3.3325-12.1714-73.6211-36.0644-86.0327-38.5464S789.293,361.0791,789.293,361.0791Z" style="fill:#8ddaf2"/><path d="M802.2486,1309.3335s-52.7246,72.9746-21.0743,70.3926,52.316-35.1631,52.316-35.1631,10.9843,36.9472,42.6347,35.2295,13.7979-21.0772,0-43.6748a99.1735,99.1735,0,0,1-13.7256-43.7334Z" style="fill:#f09959"/><path d="M806.7735,395.9873A23.8073,23.8073,0,0,1,783.0362,372.25V283.8149a23.7376,23.7376,0,0,1,47.4751,0V372.25A23.8078,23.8078,0,0,1,806.7735,395.9873Z" style="fill:#f09959"/><path d="M806.7735,260.0776a23.8069,23.8069,0,0,0-23.7373,23.7373v40.0362a147.64,147.64,0,0,0,47.4751,43.7954V283.8149A23.8071,23.8071,0,0,0,806.7735,260.0776Z" style="fill:#e38540"/><ellipse cx="825.5576" cy="281.7312" rx="42.786" ry="58.8308" transform="translate(-42.5243 195.9898) rotate(-13.2019)" style="fill:#f09959"/><path d="M757.9668,602.2407s-74.0019,55.8506-50.2651,238.7608,48.8691,177.3251,50.2651,265.29,39.0957,209.4394,61.4356,233.1758,77.2021-103.5088,77.2021-216.4561c0-65.9951.0313-97.7031,15.39-201.0263s12.1274-254.12-49.3081-319.7442S757.9668,602.2407,757.9668,602.2407Z" style="fill:#f09959"/><path d="M817.9048,1011.2993c-.061-43.2842-14.3891-135.2842-11.1313-262.4512L712.3853,874.6465c22.249,148.9282,44.2768,149.4526,45.5815,231.645,1.0581,66.6533,22.959,152.5351,43.2285,200.5684,13.1729,4.7285,22.0215,10.2763,24.3623,17.249,3.1338,9.333,5.2115,14.499,6.4522,15.999.4443-.2871.8921-.5977,1.3442-.9385,1.0816-7.791-4.5688-47.5449-10.7553-105.3828C812.1407,1136.0122,817.9659,1054.5835,817.9048,1011.2993Z" style="fill:#e38540"/><path d="M724.7168,536.9077c12.3062,72.3145,4.9185,82.0884-12.3315,142.1274s-17.4785,219.2134-17.4785,219.2134,46.7754,19.5479,137.2973,11.17,103.0884-18.1513,103.0884-18.1513S925,736.2817,911.9947,690.2056s-33.3438-77.5884-34.3448-107.211S724.7168,536.9077,724.7168,536.9077Z" style="fill:#8ddaf2"/><path d="M781.1743,1379.7261c31.65-2.583,52.316-35.1631,52.316-35.1631s10.9843,36.9472,42.6347,35.2295c27.1807-1.4756,17.8526-15.9619,5.937-34.3369-1.0854,4.1289-4.4516,7.9921-13.3842,7.6464-18.6953-.7216-36.2578-23.4336-36.2578-23.4336s-32.628,25.1338-44.7295,23.3428c-12.0967-1.791,5.8877-30.89,5.9023-30.914C780.1206,1342.895,757.9678,1381.6186,781.1743,1379.7261Z" style="fill:#3e6bab"/><path d="M561.0689,313.189c-14.7036-20.6529-29.4722-76.8565-16.3447-82.6s9.8461-14.769,22.9736-31.5888,66.05-23.3843,81.6391,4.9228,22.2725,31.1787,22.8282,46.3574-36.7769,52.9219-36.7769,52.9219Z" style="fill:#58556e"/><path d="M907.8262,642.9136c-4.2852,6.4248-8.3833,11.1914-11.4116,11.1914-28.3921,0-30.4868,11.1328-45.8892,19.2871-19.7812,10.4721-15.5923,26.53-14.1963,27.4609s43.4873-6.4429,57.6187-15.6489c11.7329-7.6431,20.0679-11.812,25.791-20.19a44.7574,44.7574,0,0,1,5.792-6.2579A130.4133,130.4133,0,0,1,907.8262,642.9136Z" style="fill:#f09959"/><path d="M570.7935,240.5288S561.4844,355.13,541.0049,367.6465s-59.5766,59.06-53.9912,159.5957,13.0322,143.9013,20.48,182.7265,147.08,15.1661,161.9746,0,31.65-153.8657,0-224.1494S602.4439,375.8159,598.72,358.44,619.2,271.248,619.2,271.248Z" style="fill:#f09959"/><path d="M598.3394,354.6811c-.4663-21.913,20.86-83.4331,20.86-83.4331l-48.4062-30.7192s-2.03,24.9824-6.2778,52.8921C570.7935,332.2212,583.36,347.1157,598.3394,354.6811Z" style="fill:#e38540"/><path d="M659.1734,272.7217c4.664,33.6645-6.9312,60.0205-31.1695,63.3784s-51.9409-17.5532-56.6045-51.2173,11.2037-63.6768,35.4419-67.0352S654.51,239.0576,659.1734,272.7217Z" style="fill:#f09959"/><path d="M924.9229,401.5727c14.2539,8.8584,25.1157,31.0293,18.8779,49.0264s-14.8828-5.0952-24.38-18.3071S914.2622,394.9473,924.9229,401.5727Z" style="fill:#f09959"/><path d="M671.3985,642.4629c-9.7735,117.5556,23.28,382.8452,23.5083,442.8852s24.2085,224.211,24.2085,224.211-39.0957,11.2343-54.4546,12.5381-59.7188-148.7852-66.2837-228.3721S550.2979,872.9,550.2979,872.9l14.2178-242.314Z" style="fill:#3e6bab"/><path d="M671.3985,642.4629l-106.8828-11.877L550.2979,872.9s41.5137,141.2378,48.0791,220.8247c.0854,1.0361.1792,2.0908.2783,3.1572.7974-122.666,36.4619-175.9141,74.1494-305.7939C669.56,734.0488,668.2349,680.5151,671.3985,642.4629Z" style="fill:#2e5b9a"/><path d="M667.21,681.8276c-50.2656,170.3443-96.3423,330.9141-127.06,437.03s-21.4863,215.1992-21.4863,215.1992l-51.6616,4.12s-58.1006-174.9131-19.0054-269.5849,20.499-151.7051,27.9253-240.1573c8.3774-99.7793,22.4639-172.69,22.4639-172.69Z" style="fill:#3e6bab"/><path d="M669.4678,485.8193c-16.9985-37.7475-35.0644-66.667-48.7305-88.0561a188.8642,188.8642,0,0,0-22.3432-1.7759c-14.4063-.2852-39.4907-18.7686-54.4492-30.9111a13.15,13.15,0,0,1-2.94,2.57c-20.48,12.5156-59.5766,59.06-53.9912,159.5957s-15.5146,134.8652-8.0679,173.69,175.6275,24.2022,190.522,9.0361S701.1177,556.103,669.4678,485.8193Z" style="fill:#f37168"/><path d="M538.5225,343.5469l-15.1187,39.874L619.2,422.3623l11.0625-9.4966S615.4761,391.3325,619.2,378.3s8.0679-16.7583,0-19.86-36.7588-8.0669-54.684-14.8935S541.6368,335.334,538.5225,343.5469Z" style="fill:#f37168"/><path d="M687.4551,604.7978c-1.9038-29.9277-7.95-96.69-17.9873-118.9785-3.6987-8.2134-7.4473-15.9834-11.1909-23.374L646.1953,457.2S579.1714,403.6919,535.42,413.6738s-45.6138,172.9668-20.48,190.8325,35.3579-29.8984,128.3076-15.0732C658.3843,591.8476,675.06,605.9775,687.4551,604.7978Z" style="fill:#d54a41"/><path d="M844.1216,652.8779a4.64,4.64,0,0,0,6.4688-.9824l197.4741-268.207a4.627,4.627,0,0,0-7.4522-5.4864L843.1387,646.4087A4.64,4.64,0,0,0,844.1216,652.8779Z" style="fill:#3e6bab"/><path d="M1059.4034,387.6343h-32.9209a9.97,9.97,0,1,1,0-19.94h32.9209a9.97,9.97,0,0,1,0,19.94Z" style="fill:#2e5b9a"/><path d="M1049.6787,289.2275l31.712,5.3491a9.2733,9.2733,0,0,1,6.9116,12.9541l-30.7354,68.1944a9.273,9.273,0,0,1-11.5146,4.9433l-27.918-9.7612a9.2735,9.2735,0,0,1-5.4819-12.3618l26.9414-63.7822A9.2742,9.2742,0,0,1,1049.6787,289.2275Z" style="fill:#58556e"/><path d="M1047.752,294.6909l26.2358,4.7124c4.9571.8906,7.7837,6.5327,5.7183,11.4131l-25.4282,60.08a7.5154,7.5154,0,0,1-9.5264,4.355l-23.0972-8.6a8.3356,8.3356,0,0,1-4.5351-10.8911l22.2895-56.1928A7.5943,7.5943,0,0,1,1047.752,294.6909Z" style="fill:#3e6bab"/><path d="M1027.5625,288.5454a1.4946,1.4946,0,0,1-.6933-.1709l-35.12-18.3267a1.5,1.5,0,1,1,1.3886-2.6591l35.12,18.3266a1.5,1.5,0,0,1-.6953,2.83Z" style="fill:#ffcb30"/><path d="M1034.0743,281.1645a1.4974,1.4974,0,0,1-1.21-.6123L1008.0977,246.83a1.5,1.5,0,1,1,2.418-1.7754l24.7666,33.7226a1.5,1.5,0,0,1-1.208,2.3877Z" style="fill:#ffcb30"/><path d="M982.1084,325.7729a1.5,1.5,0,0,1-.456-2.9292l42.9385-13.7075a1.5,1.5,0,0,1,.9121,2.8579l-42.9385,13.7075A1.499,1.499,0,0,1,982.1084,325.7729Z" style="fill:#ffcb30"/><path d="M1027.252,301.3432a1.5039,1.5039,0,0,1-.2139-.0151c-32.7012-4.6753-50.5937-7.5078-53.1826-8.4184a1.5,1.5,0,1,1,.9961-2.83c1.3525.4761,9.9863,2.1845,52.61,8.2788a1.5,1.5,0,0,1-.21,2.9848Z" style="fill:#ffcb30"/><path d="M1017.1192,355.7607a8.3356,8.3356,0,0,0,4.5351,10.8911l2.7993,1.042,39.73-20.2011,15.5225-36.6763a8.5608,8.5608,0,0,0,.4848-5.1318l-60.87,44.5263Z" style="fill:#4578bf"/><path d="M1025.5332,368.0957l19.2183,7.1558a7.5154,7.5154,0,0,0,9.5264-4.355l6.6611-15.7383C1049.5313,359.0932,1034.4131,364.7412,1025.5332,368.0957Z" style="fill:#4578bf"/><path d="M854.4356,528.4839l53.061-2.4248s27.1372-33.7315,38.105-26.8609,29.9648-5.3686,29.85,6.8706-15.5166,44.0611-33.9258,47.3247-60.519,0-60.519,0Z" style="fill:#f09959"/><path d="M550.8413,404.1577c31.0821,2.1807,136.8492,95.0962,184.9439,129.7974,66.0776-10.7515,145.2212-9.9356,145.2212-9.9356s16.4487,31.0059,15.4077,33.4536S789.2,596.7768,726.4737,594.19s-91.6421-22.271-139.5093-27.9824c-31.17-3.72-46.3257,9.2158-63.5606-8.7349S500.09,447.3974,509.5083,428.8218,537.5054,403.2217,550.8413,404.1577Z" style="fill:#f37168"/><path d="M561.0689,313.189c16.4419-8.1236,8.272-23.9161,9.707-34.3868s-3.1377-18.8564.79-18.15,3.0454,40.1934,7.999,39.9361,3.1123-29.7949,8.3408-30.6153,7.2793-8.1723,3.1768-21.1113-.82-24.4258,10.2558-14.17,35.6914,34.05,50.05,30.7685,13.5381-18.0507,12.3076-19.6918-38.1528-43.0757-38.1528-43.0757l-73.0234,41.8452L550.4678,282.69Z" style="fill:#58556e"/><path d="M574.1773,268.3931c.9844,9.92,1.3154,24.9633,2.18,27.123-6.5059,2.6538-14.8326-2.6777-18.5977-11.9087s-3.4175-21.3423,3.1694-23.7876C565.0313,258.2964,573.0313,256.8447,574.1773,268.3931Z" style="fill:#f09959"/><path d="M863.208,246.1142c-10.3554,33.5118-68.07,33.9776-70.8632,43.2862s-3.4771,45.4721-11.9244,68.5c-13.498,36.7949-19.5542,48.9477-38.3432,54.5332s-26.6992-25.5454-26.6992-25.5454S749.0586,342.4609,750.92,341.53s19.5874-114.5,19.5874-114.5,45.1094-8.2749,47.4366-9.49,34.9082,13.2139,34.9082,13.2139Z" style="fill:#58556e"/></g><g style="clip-path:url(#clip-path-3)"><circle cx="2219.3457" cy="400.8519" r="351.0254" transform="translate(366.5862 1686.7212) rotate(-45)" style="fill:#d5ebfe"/><path d="M2161.3213,415.38s-12.292,11.4443-27.6553,4.0464-71.4589-47.04-69.7519-56.7139,27.9209-11.9893,27.9209-11.9893S2173.041,414.9233,2161.3213,415.38Z" style="fill:#255096"/><path d="M2146.5391,413.8867c10.5195-1.6816-24.0928-29.2109-35.41-40.5913s-18.6171-16.6919-18.6171-16.6919-19.3477,2.355-19.3477,6.1089,55.4844,48.0625,55.4844,48.0625S2141.794,414.6455,2146.5391,413.8867Z" style="fill:#ffc34e"/><path d="M2214.4629,463.4067s-20.2011-34.1426-29.875-43.2475-42.3359-26.7539-47.291-26.8618c-8.4746-.1851,29.082,25.1547,29.082,25.1547s-5.1211,33.0044-.5683,44.9546,52.3515,27.8828,52.3515,27.8828Z" style="fill:#f09959"/><path d="M2252.02,499.2432s-33.0039-49.5069-40.4014-46.0923-27.3145,46.0923-27.3145,46.0923,58.042,60.3183,58.042,48.9375S2252.02,499.2432,2252.02,499.2432Z" style="fill:#a1a654"/><path d="M2343.29,234.1089s34.1425,120.6367,56.9043,170.7124,34.1425,143.3984,29.59,307.2822,27.3135,159.3315-20.4853,179.8169-218.5118-13.6567-241.2735-66.0088,15.24-265.49,71.6992-343.7007c55.74-77.2153,80.8038-104.7036,80.8038-122.9126s-22.03-95.5991-22.03-95.5991Z" style="fill:#f09959"/><path d="M2168.0254,825.9116c-22.7617-52.3516,15.24-265.49,71.6992-343.7007,25.958-35.9585,45.26-61.1294,58.4786-79.6045,27.0253-16.1308,56.8671-31.1577,85.5-39.894,5.7265,16.1416,11.3945,30.8965,16.4912,42.1089,22.7617,50.0757,34.1425,143.3984,29.59,307.2822s27.3135,159.3315-20.4853,179.8169S2190.7871,878.2637,2168.0254,825.9116Z" style="fill:#c1c765"/><path d="M2403.9873,341.0889c-.5673-9.3677-122.1533,38.6948-122.913,47.7993-.7579,9.1045-7.9307,43.0678-18.002,61.3667S2432.3418,570.7641,2425.7471,521,2405.5049,366.1265,2403.9873,341.0889Z" style="fill:#c1c765"/><path d="M2320.4239,361.33c.0664-.69.1045-1.3677.1045-2.0313,0-18.2094-22.03-95.5991-22.03-95.5991l44.792-29.59s7.9267,28.0073,18.6865,62.6313C2348.0655,338.2988,2335.045,352.4668,2320.4239,361.33Z" style="fill:#e38540"/><path d="M2217.6856,293.1728c9.4658,42.8975,39.0937,73.4053,73.3408,65.0152,25.1152-6.1529,63.7227-41.28,51.3437-92.5288-10.3144-42.7012-45.0507-71.5137-79.4824-63.916S2208.2188,250.2754,2217.6856,293.1728Z" style="fill:#f09959"/><path d="M2178.8125,572.4429c-31.08-53.6724-34.5527-103.8052-56.5722-119.461-30.9746-22.0239-56.42-71.2778-45.2012-73.2192s56.6269,39.6636,56.6269,39.6636-11.8173-16.1739-8.9951-17.524,25.6973,15.2549,29.2451,34.87,47.4893,109.7685,84.3526,138.6445S2209.8916,626.1157,2178.8125,572.4429Z" style="fill:#f09959"/><path d="M2380.1485,437.2056c55.0742,13.71,29.8808,180.0185-16.5469,278.6523s-133.68,13.4219-166.3047-10.74c-12.3877-9.1744-20.5478-18.4717-25.9141-26.48,10.4717-58.8575,28.4307-121.9951,50.5938-166.4278C2273.9532,573.2182,2298.668,416.9219,2380.1485,437.2056Z" style="fill:#a1a654"/><path d="M2363.6016,425.2676c69.2539,6.9419,31.332,179.8169-19.3066,249.62-50.6407,69.8022-122.7188,2.2759-145.4805-37.9365s-68.8535-108.5869-68.8535-153.0718c0-8.3462,17.07-10.0532,37.5566-8.5357,19.291,1.4288,106.4356,121.3956,106.4356,121.3956S2303.05,419.1977,2363.6016,425.2676Z" style="fill:#c1c765"/><path d="M2196.5381,203.7212c-42.3447,17.8266-16.9785,74.22,5.3487,76.333s48.1435-39.0532,61.4-40.4487-2.6767,23.0249,9.128,28.6069,22.8164,14.8545,26.2529,29.5068,12.8682,46.5459-2.5352,47.9414-32.1484-15.35-42.6142-16.0478a57.134,57.134,0,0,0-19.5557,2.3291s26.58,36.7436,46.0928,38.8369,40.8057-26.4341,55.9756-50.5459,8.7246-40.1787,8.7246-40.1787,15.5156,17.4629,25.2832,16.0674c9.7695-1.3955-14.6514-15.35-15.35-56.5161s-18.8389-62.7959-41.166-62.7959-19.5362-11.3628-53.6377-10.4659C2229.1582,167.1518,2206.4746,199.5376,2196.5381,203.7212Z" style="fill:#0f2d5c"/><path d="M2289.6485,287.8354c-.9873,10.6285,4.47,19.8262,12.1884,20.543s14.7764-7.3184,15.7637-17.9468-4.47-19.8261-12.1885-20.5429S2290.6358,277.2065,2289.6485,287.8354Z" style="fill:#f09959"/></g><g style="clip-path:url(#clip-path-4)"><circle cx="2879.8733" cy="1025.1117" r="251.2394" transform="translate(118.6319 2336.6262) rotate(-45)" style="fill:#d5ebfe"/><path d="M2840.3057,905.4009c-19.1475,38.2881-3.2979,82.3779,34.3613,97.956,37.9053,15.68,79.3526,6.7744,98.5-31.5137s4.9268-84.2-31.7617-102.5468S2859.4532,867.1138,2840.3057,905.4009Z" style="fill:#303c60"/><path d="M2943.4971,1008.4214a12.3262,12.3262,0,0,1-3.1455-.333,2.4365,2.4365,0,0,1,1.332-4.6875c.0567.0146,8.8633,2.082,22.0615-9.627,14.8975-13.2168,25.3165-43.2422,9.8809-87.8721a2.4364,2.4364,0,0,1,4.6055-1.5918c20.4121,59.0215-3.4522,86.1885-11.252,93.1084C2956.291,1006.9018,2947.8243,1008.4214,2943.4971,1008.4214Z" style="fill:#303c60"/><path d="M2884.9668,1054.3911c-21.791,4.8838-49.3027,65.4385-62.7754,104.23-13.5888,39.13-36.625,87.6689-51.706,102.75s-114.1836,50.0449-114.1836,50.0449,244.8642.4736,239.8476-.01S2884.9668,1054.3911,2884.9668,1054.3911Z" style="fill:#a8ceff"/><path d="M2754.97,1291.9634c13.4062-1.916,61.7636,4.3086,41.1757-4.31s-17.7148-19.63-17.7148-19.63,29.2061,24.418,34.4717,3.0654c4.542-18.4111,6.2793-83.4121,23.5146-148.5634,14.24-32.3037,32.875-64.6221,48.55-68.1348,0,0,.5518,22.9375,1.459,55.1025-6.0127,71.18-16.22,175.752-18.8086,202.1094-32.4551.0508-86.7754.001-132.2168-.06l-30.2236-1.44S2741.5645,1293.8784,2754.97,1291.9634Z" style="fill:#93bbf0"/><path d="M2965.084,1040.9722s69.3174,38.7314,85.4756,46.9687-45.2705,250.0068-58.9307,260.3662c-13.6611,10.3613-133.9345,1.7842-147.6279-11.2715s10.5068-53.1172-1.3428-133.332,36.1436-149.4687,42.3086-149.3125,46.4053-13.4189,46.4053-13.4189Z" style="fill:#a8ceff"/><path d="M2991.6289,1348.3071c-13.6611,10.3613-99.7265,10.5938-136.3613-.8056-4.1357-1.2862-22.9082-8.7676-23.3476-15.8,4.4209-.831,21.9746,1.2784,29.1005-.3593,24.7774-5.6924,38.4229-36.3867,38.4229-36.3867s13.6445-4.9082,44.167-17.835,17.9541-52.0674,18.6728-69.3037,30.1631-73.6133,85.4629-116.3438l5.0723,2.2705C3056.7637,1133.0366,3004.2676,1338.7222,2991.6289,1348.3071Z" style="fill:#93bbf0"/><path d="M2922.544,1288.1323c-43.5694,8.14-54.2832,18.1416-78.0332,21.9707-26.9248,4.34-23.7217,10.2891-3.7256,10.2891s70.2461.7763,87.4932-3.0537S2922.544,1288.1323,2922.544,1288.1323Z" style="fill:#f09959"/><path d="M3056.0049,1092.479c33.3936,106.7646,80.7315,227.9131,73.19,227.9131s-199.28,7.751-206.8222,1.2949-5.3877-31.2314-4.3106-34.4629,109.0078-22.3857,109.0078-22.3857-14.2128-27.6983-19.6-81.8311S3049.6719,1072.2309,3056.0049,1092.479Z" style="fill:#a8ceff"/><path d="M2939.6963,948.1977l26.8985,98.295s-45.4522,70.9472-57.9493,64.6445,6.9854-57.666,6.9854-64.6445-19.4815-78.9942-19.4815-78.9942Z" style="fill:#f09959"/><path d="M2914.6973,1051.5024a26.2406,26.2406,0,0,0,.9336-5.01c0-6.9786-19.4815-78.9942-19.4815-78.9942l43.5469-19.3008,8.9,32.5264C2940.8223,1014.3257,2926.795,1036.7056,2914.6973,1051.5024Z" style="fill:#e38540"/><path d="M2839.0479,946.5718c-5.124,28.5039-1.749,66.36,23.5625,75.9853s55.8-8.789,68.0986-41.13c12.2969-32.34,1.7481-66.36-23.5635-75.9853S2845.169,912.5181,2839.0479,946.5718Z" style="fill:#f09959"/><ellipse cx="2938.0147" cy="967.3491" rx="19.1512" ry="14.1238" transform="translate(1041.4119 3410.8287) rotate(-70.406)" style="fill:#f09959"/><path d="M2838.752,910.7632c8.6172,66.8867,89.8818,58.2695,89.8818,58.2695s16.7608-22.0332,24.3018-10.4785-10.461-67.8115-57.0918-70.3125C2880.5215,887.42,2838.752,910.7632,2838.752,910.7632Z" style="fill:#303c60"/><ellipse cx="2965.3623" cy="882.4839" rx="44.0147" ry="41.2949" style="fill:#303c60"/></g><g style="clip-path:url(#clip-path-5)"><circle cx="343.6696" cy="1376.4155" r="315.0945" style="fill:#d5ebfe"/><path d="M496.8159,1351.0356s9.8765,9.1953,22.2217,3.251,57.418-37.7969,56.0464-45.5693-22.4346-9.6338-22.4346-9.6338S487.3994,1350.6684,496.8159,1351.0356Z" style="fill:#255096"/><path d="M508.6934,1349.8364c-8.4522-1.3515,19.3594-23.4717,28.4521-32.6162a140.3113,140.3113,0,0,1,14.96-13.4121s15.5459,1.8926,15.5459,4.9092-44.583,38.6181-44.583,38.6181S512.5064,1350.4458,508.6934,1349.8364Z" style="fill:#ffc34e"/><path d="M454.1162,1389.6255s16.232-27.4336,24.0049-34.75,34.0176-21.4961,37.999-21.584c6.8091-.1484-23.3681,20.2129-23.3681,20.2129s4.1152,26.5195.4575,36.1211-42.0649,22.4043-42.0649,22.4043Z" style="fill:#f09959"/><path d="M423.94,1418.42s26.519-39.7793,32.4629-37.0361S478.35,1418.42,478.35,1418.42s-46.6377,48.4658-46.6377,39.3213S423.94,1418.42,423.94,1418.42Z" style="fill:#fb8627"/><path d="M350.6031,1205.3833s-27.4341,96.9326-45.7232,137.168-27.4336,115.2226-23.7759,246.9043S259.1573,1717.479,297.5645,1733.94s175.5757-10.9736,193.8647-53.039-12.2456-213.3233-57.6108-276.166c-44.7876-62.043-64.9263-84.13-64.9263-98.7618s17.7017-76.8144,17.7017-76.8144Z" style="fill:#f09959"/><path d="M491.4292,1680.9009c18.29-42.0645-12.2456-213.3233-57.6108-276.166-20.8574-28.8936-36.3662-49.1182-46.9878-63.9629-21.7148-12.961-45.6934-25.0352-68.7-32.0547-4.6016,12.97-9.1553,24.8252-13.25,33.834-18.289,40.2363-27.4336,115.2226-23.7759,246.9043S259.1573,1717.479,297.5645,1733.94,473.14,1722.9663,491.4292,1680.9009Z" style="fill:url(#Безымянный_градиент_37)"/><path d="M301.8316,1291.3423c.4565-7.5274,98.1518,31.0918,98.7617,38.4072s6.3726,34.6055,14.4648,49.3086-136.01,96.83-130.71,56.8447S300.6123,1311.46,301.8316,1291.3423Z" style="fill:url(#Безымянный_градиент_37-2)"/><path d="M368.9756,1307.6059c-.0537-.5546-.0835-1.1-.0835-1.6328,0-14.6308,17.7017-76.8144,17.7017-76.8144l-35.9907-23.7754s-6.37,22.5039-15.0152,50.3242C346.7661,1289.1,357.2276,1300.4849,368.9756,1307.6059Z" style="fill:#e38540"/><path d="M441.1729,1252.6831c-6.6485,30.1289-27.458,51.5566-51.5117,45.6641-17.64-4.3213-44.7564-28.9942-36.062-64.9893,7.2441-29.9912,31.642-50.2275,55.8251-44.8916S447.8213,1222.5532,441.1729,1252.6831Z" style="fill:#f09959"/><path d="M482.7622,1477.2368c24.9727-43.126,27.7632-83.4082,45.4556-95.9883,24.8887-17.6953,45.334-57.2715,36.3193-58.832s-45.5,31.87-45.5,31.87,9.4951-12.9951,7.2271-14.08-20.6475,12.2569-23.4986,28.0176-38.1577,88.2-67.7778,111.4024S457.79,1520.3638,482.7622,1477.2368Z" style="fill:#f09959"/><path d="M320.9864,1368.5727c-44.2525,11.0157-24.0088,144.6465,13.2959,223.9s107.4126,10.7841,133.6269-8.63a86.929,86.929,0,0,0,20.8223-21.2764c-8.4141-47.292-22.8443-98.0244-40.6524-133.7266C406.3155,1477.86,386.4576,1352.2739,320.9864,1368.5727Z" style="fill:url(#Безымянный_градиент_37-3)"/><path d="M334.2823,1358.9809c-55.6465,5.5772-25.1758,144.4834,15.5136,200.57s98.605,1.8291,116.8941-30.4815,55.3247-87.251,55.3247-122.9951c0-6.7061-13.7168-8.0772-30.1768-6.8584-15.5,1.1484-85.5224,97.542-85.5224,97.542S382.9366,1354.103,334.2823,1358.9809Z" style="fill:url(#Безымянный_градиент_37-4)"/><path d="M419.0059,1159.1509c58.083,3.9736,50.668,93.9863,50.668,93.9863s-47.9,1.3877-62.1856-2.7588-28.8306-15.3271-28.8306-15.3271-8.788,34.0957-32.7944,35.997l-24.0063,1.9024s-15.8365-64.7266-3.3145-93.9121C344.5064,1118.5229,396.3565,1148.8208,419.0059,1159.1509Z" style="fill:#0f2d5c"/><path d="M355.647,1246.314c3.439,8.8476,11.5747,13.9414,18.1719,11.3769s9.1577-11.8144,5.7192-20.6621-11.5742-13.9414-18.1719-11.3779S352.2085,1237.4663,355.647,1246.314Z" style="fill:#f09959"/><path d="M326.9585,1235.9565a1.7342,1.7342,0,0,0-3.33-.6787c-5.2387,12.2266-16.2338,33.4512-29.9433,34.95-19.3364,2.1143-157.2837,13.3623-111.3726,119.81,29.0108,67.2627,50.0108,94.0967,21.4873,118.9951-26.2392,22.9053-60.8608,1.3369-69.4956-4.4395a1.7306,1.7306,0,0,0-2.6772,1.1534c-2.4321,14.8222-10.5025,85.8086,58.2695,84.79,76.7818-1.1377,113.439-70.5342,82.1572-134.21s30.6963-79.9648,33.231-115.7353c2.4414-34.4561.6133-51.8623.1152-55.69a1.7285,1.7285,0,0,1,.4795-1.4278l20.586-21.0908a1.7364,1.7364,0,0,0,.4931-1.2119Z" style="fill:#0f2d5c"/><path d="M175.0288,1516.3286c-15.6323,0-40.2129-6.3809-41.3217-6.6709a2.4367,2.4367,0,0,1,.8344-4.7842c.3316.0293,33.3643,2.8555,46.274-7.3193,16.3061-12.8516,7.1972-33.8594-7.8941-68.6631-6.3745-14.7012-13.6-31.3643-20.2348-50.6309-12.5782-36.5234.9331-61.6269,14.4829-76.2529,28.4423-30.7041,83.8613-43.916,131.77-31.4141a2.4364,2.4364,0,0,1-1.2305,4.7149q-1.6772-.438-3.3686-.833c-60.95,1.0264-100.2749,15.1719-116.8814,42.0449-14.5288,23.5107-11.5361,57.0078,8.8946,99.56,19.9379,41.5263,25.2885,70.7353,15.9033,86.8164-4.66,7.9834-12.9946,12.5947-24.104,13.3349C177.1621,1516.2974,176.1167,1516.3276,175.0288,1516.3286Zm-17.9238-6.6963c7.3506,1.2256,15.0874,2.1123,20.7232,1.7373,9.5561-.6377,16.3588-4.3144,20.22-10.93,5.8579-10.0371,7.8222-32.4541-16.0874-82.2509-21.1963-44.1465-24.106-79.2149-8.647-104.2305,15.0078-24.2871,46.9824-38.7188,95.2075-43.0361-37.9663-1.7647-76.1006,10.997-97.7773,34.3955-18.1338,19.5761-22.7847,44.25-13.45,71.3564,6.5732,19.0869,13.7588,35.6582,20.0981,50.2783,15.4717,35.6817,25.6929,59.2539,6.44,74.4278C177.3018,1506.5278,166.7886,1508.7515,157.105,1509.6323Z" style="fill:#0f2d5c"/></g><g style="clip-path:url(#clip-path-6)"><circle cx="1442.211" cy="279.6645" r="153" style="fill:#c6e0f7"/><path d="M1394.8711,265.5459c-.3794-1.1372-9.8877-55.72-11.0249-76.9473s34.1143-24.2593,34.1143-24.2593,28.8081-15.541,49.6557-7.581,35.0357,21.3535,44.5122,38.0317-8.3374,68.6553-8.3374,68.6553Z" style="fill:#2e2d3d"/><path d="M1329.5157,440.92c-.1324-.896,2.4345-22.3779,2.5268-23.2485,4.8013-45.2329,60.5571-57.9546,116.1958-57.9546,65.3706.0005,109.7183,11.9634,116.794,58.9658.2075,1.377,3.9785,22.9126,3.79,24.3618C1447.666,444.7041,1329.5157,440.92,1329.5157,440.92Z" style="fill:#fff"/><path d="M1459.4639,394.8257c-6.4771,9.5615-11.2256,9.958-18.2563,0-5.59-7.9175-24.2579-25.9805-24.2579-35.1089l7.6612-91.0269a16.6455,16.6455,0,0,1,16.5967-16.5967h18.2563a16.6456,16.6456,0,0,1,16.5972,16.5967l3.5586,91.0269C1479.62,368.8452,1465.273,386.2505,1459.4639,394.8257Z" style="fill:#f09959"/><path d="M1459.4639,252.0932h-18.2563a16.6455,16.6455,0,0,0-16.5967,16.5967l-6.65,80.7525c20.499,6.5263,48.18-6.7378,60.4223-21.354l-2.3217-59.3985A16.6456,16.6456,0,0,0,1459.4639,252.0932Z" style="fill:#e38540"/><path d="M1387.6831,366.354l29.2666,54.0972s15.6675-12.8877,17.1841-10.36-2.78,34.417-2.78,34.417,34.8731.4736,36.3892-1.0425-7.0757-34.6382-3.5381-34.6382,14.1782,9.6026,14.1782,9.6026l32.6788-52.0757-7.1827-1.75-53.5429,28.8081-57.2666-28.1763Z" style="fill:#bdccd4"/><polygon points="1421.154 391.28 1442.89 405.866 1436.155 444.578 1465.468 442.942 1458.147 407.73 1476.163 391.28 1467.699 383.304 1429.618 383.304 1421.154 391.28" style="fill:#d54a41"/><path d="M1418.4659,339.84l-26.8838,25.5821s27.3891,48.7119,28.9052,48.7119,23.2432-26.8565,23.2432-26.8565l13.9121-.2436,21.9771,23.0571,25.5366-45.1753-26.042-27.6025s-22.2378,42.959-26.2813,43.97-4.0712,1.5161-7.3422-1.0107S1418.4659,339.84,1418.4659,339.84Z" style="fill:#fff"/><ellipse cx="1450.336" cy="253.0155" rx="55.1846" ry="75.193" style="fill:#f09959"/><path d="M1400.8008,251.8564c5.1616,10.8672,3.4727,22.4663-3.7724,25.9073s-17.3018-2.5791-22.4629-13.4463-3.4727-22.4663,3.7719-25.9073S1395.64,240.9892,1400.8008,251.8564Z" style="fill:#f09959"/><path d="M1497.3819,251.8564c-5.1617,10.8672-3.4727,22.4663,3.7719,25.9073s17.3018-2.5791,22.4634-13.4463,3.4727-22.4663-3.7724-25.9073S1502.543,240.9892,1497.3819,251.8564Z" style="fill:#f09959"/><path d="M1474.8184,283.8677s-10.9614,17.7544-24.4824,17.7544-24.4825-17.7544-24.4825-17.7544Z" style="fill:#fff"/><path d="M1417.9605,201.8657c22.7431-15.92,32.9775-13.2671,50.0346,12.8877s37.5254,26.6152,37.5254,26.6152l2.6543-27.1206s-25.4072-49.15-59.5166-42.7065-53.5068,37.147-53.5068,37.147-1.6606,57.5483,3.0986,59.5107,5.3067-18.5732,8.7183-22.7427-3.4116-23.88,1.1372-32.9775S1417.9605,201.8657,1417.9605,201.8657Z" style="fill:#2e2d3d"/><path d="M1491.1172,231.4316c7.94,8.6939,4.9278,43.2115,9.0972,42.8325s5.686-32.9775,4.5488-36.3886S1491.1172,231.4316,1491.1172,231.4316Z" style="fill:#2e2d3d"/></g><g style="clip-path:url(#clip-path-7)"><circle cx="157" cy="769.4995" r="153" style="fill:#c6e0f7"/><path d="M35.8868,911.7788c18.5078-39.8145,49.83-52.5659,101.268-52.5659,61.2446,0,101.8106,37.813,110.8247,70.1157C138.3028,930.8306,35.8868,911.7788,35.8868,911.7788Z" style="fill:#3e6bab"/><path d="M115.7661,665.57c-25.9267,7.2778-24.79,21.8457-33.4292,35.3677s-27.4194,22.5366-29.6728,31.5513,5.7827,27.7949-3.7564,38.312-12.77,15.7754-9.0146,26.2924,12.02,27.0435,12.771,29.2974,11.2681,18.0288,24.0386,20.2827,36.81,6.01,48.8291,11.2681,50.665-6.7319,72.1167-5.981,36.0581-15.0527,34.5556-25.57S248.0225,794.8393,247.98,776.81c-.0459-19.3608-22.5361-33.8042-28.5459-46.5751s.751-35.3067-21.7851-48.6558c-14.2417-8.436-24.0391-7.6851-35.3072-11.4414S132.2925,660.9307,115.7661,665.57Z" style="fill:#3a384d"/><path d="M147.3169,890.9946c-5.8637,8.6563-10.1621,9.0147-16.5268,0-5.06-7.167-15.024-23.4521-15.024-31.7153V776.81a15.0681,15.0681,0,0,1,15.024-15.0239h16.5268A15.0685,15.0685,0,0,1,162.3413,776.81v82.4693C162.3413,867.5425,152.5757,883.2324,147.3169,890.9946Z" style="fill:#f09959"/><path d="M147.3169,761.7861H130.79a15.0681,15.0681,0,0,0-15.024,15.0239v73.5816c18.5562,5.9077,35.4922-5.8364,46.5752-19.0679V776.81A15.0685,15.0685,0,0,0,147.3169,761.7861Z" style="fill:#e38540"/><ellipse cx="139.0536" cy="762.6209" rx="49.9559" ry="68.0685" style="fill:#f09959"/><path d="M162.3413,708.45c-31.5512,53.3364-78.1264,48.0781-78.1264,48.0781s1.1269-70.6142,38.124-74.3706,58.7827,11.0923,66.2949,35.5947,0,40.6538,0,40.6538-12.02-9.3906-18.0293-24.4145A175.3386,175.3386,0,0,1,162.3413,708.45Z" style="fill:#3a384d"/><path d="M94.2119,761.5718c4.6724,9.8379,3.1436,20.3379-3.415,23.4526s-15.6626-2.335-20.335-12.1724S67.3184,752.5146,73.877,749.4,89.54,751.7344,94.2119,761.5718Z" style="fill:#f09959"/><path d="M181.6416,761.5718c-4.6723,9.8379-3.1435,20.3379,3.4151,23.4526s15.6626-2.335,20.3349-12.1724,3.1436-20.3374-3.415-23.4521S186.314,751.7344,181.6416,761.5718Z" style="fill:#f09959"/><path d="M157.834,799.5381s-8.4082,10.9-18.78,10.9-18.78-10.9-18.78-10.9Z" style="fill:#fff"/></g><g style="clip-path:url(#clip-path-8)"><circle cx="2971.6565" cy="423.8007" r="163.0255" transform="translate(570.7057 2225.4068) rotate(-45)" style="fill:#c6e0f7"/><path d="M2886.8125,399.6557c0,44.7984,26.9727,117.0772,90.6,114.7579s77.7-71.2178,80.1641-90.6612S2886.8125,399.6557,2886.8125,399.6557Z" style="fill:#7a4e34"/><path d="M2860.2989,574.0757c21.01-45.1963,56.5664-59.6719,114.957-59.6714,69.5244,0,105.624,25.1855,115.8574,61.8545-40.9062.56-79.8486,41.2334-113.7012,40.9223C2908.2276,616.5454,2860.2989,574.0757,2860.2989,574.0757Z" style="fill:#d54a41"/><path d="M2986.792,550.4824c-6.6562,9.8262-11.5361,10.2334-18.7607,0-5.7442-8.1357-17.0547-26.6221-17.0547-36.0024V420.8628a17.1045,17.1045,0,0,1,17.0547-17.0552h18.7607a17.106,17.106,0,0,1,17.0557,17.0552V514.48C3003.8477,523.86,2992.7618,541.6709,2986.792,550.4824Z" style="fill:#f09959"/><path d="M2986.792,403.8076h-18.7607a17.1045,17.1045,0,0,0-17.0547,17.0552v83.5278c21.0644,6.7066,40.29-6.625,52.8711-21.6455V420.8628A17.106,17.106,0,0,0,2986.792,403.8076Z" style="fill:#e38540"/><path d="M3034.12,404.7554c0,42.6748-25.39,77.27-56.708,77.27-31.32,0-56.7089-34.5952-56.7089-77.27s25.3886-77.2705,56.7089-77.2705C3008.7305,327.4849,3034.12,362.08,3034.12,404.7554Z" style="fill:#f09959"/><path d="M3008.5821,346.0224c-6.7383,23.7642-21.5069,23.4888-42.0977,31.2916s-30.4326,15.6552-37.1709,30.8574c-8.5928,19.3838,3.9014,75.9028,3.9014,75.9028s-52.1387-39.0156-46.1094-100.376,42.208-85.124,76.2578-85.124,46.9951,20.749,46.9951,20.749,18.14.0762,35.291,20.3946c23.0547,27.31,15.961,93.6362,0,117.4s-26.6015,31.2119-26.247,30.1479,14.8974-55.6362,7.0937-89.38S3008.5821,346.0224,3008.5821,346.0224Z" style="fill:#7a4e34"/><path d="M2998.7305,446.6626s-9.5449,12.3735-21.3184,12.3735-21.3193-12.3735-21.3193-12.3735Z" style="fill:#fff"/></g><path d="M774.3282,816.6645A384.1,384.1,0,0,1,624.8565,78.8428,384.0988,384.0988,0,0,1,923.8,786.4868,381.6106,381.6106,0,0,1,774.3282,816.6645Zm0-760c-207.3272,0-376,168.6729-376,376s168.6728,376,376,376,376-168.6728,376-376S981.6553,56.6645,774.3282,56.6645Z" style="fill:#9bd6e8"/><path d="M2219.3457,755.8774a355.1181,355.1181,0,0,1-138.1933-682.15,355.1166,355.1166,0,0,1,276.3867,654.2486A352.8143,352.8143,0,0,1,2219.3457,755.8774Zm0-702.0512c-191.3506,0-347.0254,155.6748-347.0254,347.0253s155.6748,347.0259,347.0254,347.0259,347.0254-155.6753,347.0254-347.0259S2410.6963,53.8262,2219.3457,53.8262Z" style="fill:#9bd6e8"/><path d="M2879.8741,1280.3511a255.2393,255.2393,0,1,1,180.4814-74.7579A253.5732,253.5732,0,0,1,2879.8741,1280.3511Zm0-502.48c-136.3291,0-247.24,110.9111-247.24,247.24s110.9112,247.2393,247.24,247.2393,247.2392-110.9112,247.2392-247.2393S3016.2022,777.8716,2879.8741,777.8716Z" style="fill:#9bd6e8"/><path d="M343.67,1695.51a319.0939,319.0939,0,1,1,225.6337-93.4609A317.0025,317.0025,0,0,1,343.67,1695.51Zm0-630.1884c-171.5381,0-311.0948,139.5556-311.0948,311.0937S172.1319,1687.51,343.67,1687.51s311.0937-139.5566,311.0937-311.0947S515.208,1065.3218,343.67,1065.3218Z" style="fill:#9bd6e8"/><path d="M1442.211,436.6645c-86.57,0-157-70.43-157-157s70.43-157,157-157,157,70.43,157,157S1528.7813,436.6645,1442.211,436.6645Zm0-306c-82.1592,0-149,66.8413-149,149s66.8408,149,149,149,149-66.8413,149-149S1524.37,130.6645,1442.211,130.6645Z" style="fill:#9bd6e8"/><path d="M157,926.5c-86.57,0-157-70.43-157-157s70.43-157,157-157,157,70.43,157,157S243.57,926.5,157,926.5Zm0-306C74.8413,620.5,8,687.34,8,769.5s66.8413,149,149,149,149-66.8408,149-149S239.1587,620.5,157,620.5Z" style="fill:#9bd6e8"/><path d="M2971.6573,590.8262c-92.0987,0-167.0264-74.9273-167.0264-167.0254s74.9277-167.0259,167.0264-167.0259,167.0253,74.9277,167.0253,167.0259S3063.7549,590.8262,2971.6573,590.8262Zm0-326.0513c-87.6875,0-159.0264,71.3389-159.0264,159.0259s71.3389,159.0254,159.0264,159.0254,159.0253-71.3384,159.0253-159.0254S3059.3438,264.7749,2971.6573,264.7749Z" style="fill:#9bd6e8"/><circle cx="2038.2451" cy="229.0357" r="74.5463" transform="translate(1516.172 2212.5529) rotate(-81.6653)" style="fill:#f37168"/><path d="M2037.5186,202.8306s-26.0322-22.9581-44.458-.9c-25.293,30.2783,44.458,68.7934,44.458,68.7934s71.0039-39.7485,46.165-70.3774C2064.8994,177.1846,2037.5186,202.8306,2037.5186,202.8306Z" style="fill:#fff"/><circle cx="2337.6312" cy="1276.3513" r="74.5466" transform="translate(535.4286 3237.3863) rotate(-76.0514)" style="fill:#f37168"/><path d="M2336.9043,1250.146s-26.0312-22.958-44.458-.8994c-25.2929,30.2783,44.458,68.7929,44.458,68.7929s71.0039-39.748,46.1651-70.3769C2364.2862,1224.5005,2336.9043,1250.146,2336.9043,1250.146Z" style="fill:#fff"/><circle cx="584.2178" cy="1185.5275" r="74.5461" transform="translate(-734.7976 1269.1006) rotate(-67.3917)" style="fill:#f37168"/><path d="M583.4912,1159.3227s-26.0322-22.958-44.458-.9c-25.2929,30.2783,44.458,68.7929,44.458,68.7929s71.0039-39.748,46.1646-70.3769C610.8726,1133.6763,583.4912,1159.3227,583.4912,1159.3227Z" style="fill:#fff"/><path d="M554.0459,980.91a44.3745,44.3745,0,1,1-44.3745-44.375A44.3745,44.3745,0,0,1,554.0459,980.91Z" style="fill:#f37168"/><path d="M509.2388,965.31s-15.4956-13.666-26.4639-.5351c-15.0561,18.0234,26.4639,40.95,26.4639,40.95s42.2661-23.6611,27.48-41.8936C525.5381,950.0444,509.2388,965.31,509.2388,965.31Z" style="fill:#fff"/><path d="M1957.98,52.6645A52.6646,52.6646,0,1,1,1905.3145,0,52.6647,52.6647,0,0,1,1957.98,52.6645Z" style="fill:#f37168"/><path d="M1904.8018,34.1514s-18.3906-16.2193-31.4082-.6358c-17.8682,21.3906,31.4082,48.6,31.4082,48.6s50.1621-28.081,32.6142-49.7192C1924.1455,16.0337,1904.8018,34.1514,1904.8018,34.1514Z" style="fill:#fff"/><path d="M2495.6241,996.228a52.6641,52.6641,0,1,1-52.6641-52.664A52.6645,52.6645,0,0,1,2495.6241,996.228Z" style="fill:#f37168"/><path d="M2442.4463,977.7153s-18.3906-16.2187-31.4072-.6357c-17.8691,21.3906,31.4072,48.6006,31.4072,48.6006s50.1621-28.0811,32.6143-49.72C2461.79,959.5972,2442.4463,977.7153,2442.4463,977.7153Z" style="fill:#fff"/><circle cx="1322.6572" cy="326.3057" r="74.5463" transform="translate(-39.5873 312.6139) rotate(-13.2825)" style="fill:#3e6bab"/><path d="M1320.99,277.2021c9.6665-1.3335,18,22.6665,17.333,30.333s18-1,27,5.6665,6.3335,41.3335,0,43.667-31.878,2.6665-40.1055-1.667-13.7822-3.5234-13.7822-3.5234l-4.2388-36.2646a32.3367,32.3367,0,0,0,10.7935-6.545C1323.6568,303.8686,1320.99,277.2021,1320.99,277.2021Zm-43,85c2.333,2,28.6665,8.3335,30-5s-5.3335-41.6665-5.3335-41.6665-18.3228-.9243-24.6665,2.3194C1275.545,319.105,1275.6568,360.2016,1277.99,362.2016Z" style="fill:#fff"/><circle cx="658.7641" cy="1460.1755" r="74.5467" transform="translate(-929.4173 1669.3709) rotate(-73.2211)" style="fill:#3e6bab"/><path d="M657.0967,1411.0718c9.667-1.333,18,22.667,17.3335,30.333s18-1,27,5.667,6.3335,41.333,0,43.667-31.8779,2.666-40.1055-1.667-13.7827-3.5235-13.7827-3.5235l-4.2383-36.2646a32.3308,32.3308,0,0,0,10.793-6.5449C659.7637,1437.7388,657.0967,1411.0718,657.0967,1411.0718Zm-43,85c2.3335,2,28.667,8.333,30-5s-5.333-41.667-5.333-41.667-18.3228-.9239-24.667,2.32C611.6519,1452.9751,611.7637,1494.0718,614.0967,1496.0718Z" style="fill:#fff"/><circle cx="2686.6571" cy="877.6279" r="68.3326" style="fill:#3e6bab"/><path d="M2685.1289,832.6172c8.8614-1.2222,16.5,20.7773,15.8887,27.8052s16.5-.917,24.75,5.1943,5.8047,37.8877,0,40.0264-29.2217,2.4443-36.7637-1.5274-12.6328-3.23-12.6328-3.23l-3.8857-33.2417a29.6334,29.6334,0,0,0,9.8935-6C2687.5733,857.061,2685.1289,832.6172,2685.1289,832.6172Zm-39.416,77.9145c2.1387,1.834,26.2774,7.6387,27.5-4.583s-4.8886-38.1933-4.8886-38.1933-16.7959-.8472-22.6114,2.1259C2643.4717,871.0273,2643.5743,908.6987,2645.7129,910.5317Z" style="fill:#fff"/><circle cx="1106.6572" cy="634.9893" r="57.8666" transform="translate(-124.8729 968.5089) rotate(-45)" style="fill:#3e6bab"/><path d="M1105.3633,596.8725c7.5034-1.0346,13.9727,17.5953,13.4551,23.5464s13.9722-.7763,20.9585,4.399,4.9165,32.0849,0,33.896-24.7456,2.07-31.1323-1.2935-10.6983-2.7354-10.6983-2.7354l-3.2905-28.1508a25.0872,25.0872,0,0,0,8.3784-5.08C1107.4331,617.5727,1105.3633,596.8725,1105.3633,596.8725Zm-33.3789,65.9815c1.8115,1.5527,22.2524,6.4687,23.2876-3.8814s-4.14-32.3437-4.14-32.3437-14.2227-.7173-19.1475,1.8C1070.0865,629.4,1070.1729,661.3013,1071.9844,662.854Z" style="fill:#fff"/><circle cx="270.4479" cy="692.8851" r="74.546" transform="translate(-410.7314 394.1769) rotate(-45)" style="fill:#c1c765"/><path d="M234.8863,732.39c-11.0059-65.8672,39.4111-67.4936,39.4111-67.4936V645.38l39.95,39.9507-38.4912,38.4907V701.4892s-19.3491.813-26.6675,11.3843S234.8863,732.39,234.8863,732.39Z" style="fill:#fff"/><circle cx="1495.9038" cy="1450.9616" r="74.5467" transform="translate(-359.4667 2399.9707) rotate(-71.2157)" style="fill:#c1c765"/><path d="M1460.3423,1490.4673c-11.0063-65.8682,39.4107-67.4942,39.4107-67.4942v-19.5156l39.95,39.9492-38.4908,38.4912v-22.332s-19.3491.8135-26.6674,11.3848S1460.3423,1490.4673,1460.3423,1490.4673Z" style="fill:#fff"/><circle cx="1181.7735" cy="109.4897" r="20" style="fill:#9bd6e8"/><circle cx="1181.7735" cy="199.4897" r="20" style="fill:#9bd6e8"/><circle cx="1106.7735" cy="156.0176" r="20" transform="translate(539.0879 1118.8375) rotate(-67.5)" style="fill:#9bd6e8"/><path d="M1181.77,203.49a3.98,3.98,0,0,1-2.002-.54l-75-43.4722a3.9991,3.9991,0,0,1-.1025-6.8594l75-46.5278a4,4,0,1,1,4.2168,6.7979l-69.333,43.0122,69.23,40.1284a4,4,0,0,1-2.01,7.4609Z" style="fill:#9bd6e8"/><circle cx="3111.1133" cy="637.1811" r="20" style="fill:#9bd6e8"/><circle cx="3111.1133" cy="727.1811" r="20" style="fill:#9bd6e8"/><circle cx="3036.1133" cy="683.709" r="20" style="fill:#9bd6e8"/><path d="M3111.1094,731.1821a3.98,3.98,0,0,1-2.0019-.54l-75-43.4717a4,4,0,0,1-.1026-6.86l75-46.5278a4,4,0,1,1,4.2168,6.7979l-69.333,43.0131,69.2305,40.127a4.0008,4.0008,0,0,1-2.01,7.4619Z" style="fill:#9bd6e8"/><rect x="2625.794" y="101.5854" width="55.7314" height="50.1582" rx="12.0752" style="fill:#9ec8ff"/><rect x="2727.1241" y="101.5854" width="55.7314" height="50.1582" rx="12.0752" style="fill:#9ec8ff"/><path d="M2840.5284,101.5854H2872.11a12.0761,12.0761,0,0,1,12.0761,12.0761v26.0069a12.0752,12.0752,0,0,1-12.0752,12.0752h-31.582a12.0752,12.0752,0,0,1-12.0752-12.0752V113.6606A12.0752,12.0752,0,0,1,2840.5284,101.5854Z" style="fill:#9ec8ff"/></g></g></svg>