<svg xmlns="http://www.w3.org/2000/svg" viewBox="0 0 2356.3829 1814.5107"><g id="Layer_2" data-name="Layer 2"><g id="Ñëîé_1" data-name="Ñëîé 1"><g id="_5" data-name="5"><path d="M1.3413,1486.1564s-14.7569,74.05,53.6258,93.2889c93.5341,26.3152,642.566,95.455,509.187,147.994-75.2926,29.6583,38.4362,69.931,405.167,84.76s996.012-43.2755,784.394-129.248,652.8814-17.9677,600.3629-196.7952Z" style="fill:#cfddf9"/><path d="M416.5588,1482.0663s-276.9939-679.3807-77.66-830.6616c133.2358-101.117,274.4591,121.79,443.0187,3.8673C931.9836,550.2877,722.7653,285.82,973.1541,216.6342c263.1813-72.72,478.7938,516.1974,699.6227,434.7705,267.9609-98.8064,534.5113,101.7719,304.1628,831.9587Z" style="fill:#d4e8ff"/><path d="M199.831,1423.82c-4.65-13.5046-9.2508-27.4979-13.6739-41.59l10.9014-3.0728c4.3946,14.0015,8.9651,27.9035,13.5844,41.3175Zm1950.2074-17.44-11.2873-1.3211c1.8741-14.3753,3.6537-28.8534,5.29-43.0307l11.3056,1.1725C2153.7051,1377.428,2151.9189,1391.9557,2150.0384,1406.38ZM173.6015,1340.3375c-3.9808-13.9273-7.841-28.1138-11.4745-42.1651l11.0461-2.5657c3.612,13.9668,7.4492,28.068,11.4059,41.912Zm1986.4013-20.3869-11.3217-1.0141c1.4389-14.4335,2.7714-28.9522,3.96-43.1518l11.3367.8515C2162.786,1290.8907,2161.448,1305.4632,2160.0028,1319.9506ZM151.7349,1255.7593c-3.2849-14.1894-6.41-28.5364-9.29-42.6445l11.1662-2.0466c2.8615,14.02,5.968,28.2794,9.2322,42.38Zm2015.5079-22.4964-11.3505-.6808c.9627-14.4232,1.8075-28.9724,2.5087-43.2411l11.36.5019C2169.0569,1204.1716,2168.21,1218.78,2167.2428,1233.2629ZM134.2947,1170.2587c-2.5292-14.3632-4.8708-28.8463-6.9592-43.0491l11.2638-1.4876c2.075,14.1072,4.401,28.4939,6.9129,42.7625Zm2037.2033-23.8754-11.3688-.313c.4438-14.4871.75-29.0517.9093-43.2888l11.3729.1137C2172.2508,1117.1985,2171.9441,1131.83,2171.498,1146.3833Zm-2049.87-62.3965c-1.6955-14.5076-3.1713-29.0984-4.3865-43.3671l11.336-.8679c1.2067,14.163,2.6713,28.6461,4.3545,43.0481ZM2161.0855,1059.49c-.1339-14.4984-.4245-29.0579-.8641-43.2757l11.3689-.3151c.4406,14.2911.7334,28.9248.8684,43.4963ZM114.26,997.1387c-.7545-14.593-1.2546-29.2438-1.4872-43.547l11.3722-.1667c.23,14.1834.7262,28.7133,1.474,43.1863Zm2044.134-24.1621c-.7806-14.479-1.7412-29.0068-2.853-43.18l11.3409-.8c1.1194,14.2555,2.0844,28.8677,2.87,43.4292ZM124.252,910.2224l-11.3709-.2215c.3169-14.6315.9274-29.2874,1.8156-43.5582l11.3539.6341C125.1705,881.2114,124.5652,895.7271,124.252,910.2224Zm2027.3432-23.52c-1.5193-14.4761-3.24-28.9349-5.113-42.975l11.283-1.352c1.8859,14.1341,3.6173,28.6894,5.1473,43.26ZM129.6567,824.0456,118.34,822.9684c1.5452-14.5767,3.4282-29.1457,5.5982-43.3032l11.2551,1.55C133.0473,795.2159,131.1845,809.6263,129.6567,824.0456Zm2010.4581-23.1282c-2.3661-14.3851-4.964-28.7158-7.72-42.5939l11.1759-1.9947c2.78,13.9889,5.3981,28.4319,7.7825,42.9283ZM795.0435,799.3963c-15.8034-2.3616-27.2343-9.18-43.0685-20.954l7.1886-8.3528c13.8714,10.2876,23.89,16.459,37.0912,18.5885Zm39.4584-25.646-10.1283-4.9025c5.2062-9.6624,9.8083-23.0711,13.68-39.8533l11.11,2.3016C845.0275,749.2307,840.2313,763.1174,834.5019,773.75ZM718.5965,747.527c-9.06-9.5624-18.7423-20.5678-29.6-33.6452l8.9374-6.6659c10.7041,12.892,20.2309,23.722,29.1248,33.1092ZM142.79,738.6865l-11.1651-2.0536c2.9463-14.3871,6.28-28.7331,9.9087-42.64l11.0408,2.5882C148.9915,710.3116,145.7,724.4777,142.79,738.6865ZM2123.202,716.01c-3.3675-14.2367-7.001-28.35-10.7984-41.95l10.9957-2.7579c3.8339,13.7308,7.5006,27.98,10.8993,42.35ZM856.816,687.9148l-11.28-1.3758c1.7466-12.8666,3.3124-26.956,4.7855-43.0746l11.3308.9308C860.1655,660.6637,858.5835,674.8988,856.816,687.9148Zm-195.6745-8.7613c-9.245-11.8331-18.8336-24.3413-27.096-35.1359l9.2064-6.33c8.2462,10.7742,17.8156,23.2565,27.03,35.0509Zm832.65-.8867a49.94,49.94,0,0,1-25.8286-7.4539l6.064-9.12c12.44,7.4433,24.6789,7.46,37.8933,1.5233l4.8931,9.73A55.9329,55.9329,0,0,1,1493.7915,678.2668Zm-1329.12-23.225L153.7956,651.89c4.5189-14.0055,9.4764-27.9348,14.7357-41.4013l10.6656,3.7414C174.0137,627.5027,169.1269,641.2339,164.6718,655.0418Zm1389.3313-10.2763-8.3561-7.3122a367.7074,367.7074,0,0,0,28.26-33.3809l9.2139,6.3205A378.2928,378.2928,0,0,1,1554.0031,644.7655Zm-118.3786-7.4118a328.2829,328.2829,0,0,1-22.2982-38.7431l10.28-4.6113a317.8581,317.8581,0,0,0,21.5626,37.4912Zm664.2137-4.7728c-4.5811-13.9665-9.47-27.7149-14.53-40.8639l10.6848-3.6937c5.1225,13.3111,10.07,27.2258,14.7062,41.3578ZM607.0928,608.8752c-10.4055-13.4777-19.0768-24.543-27.29-34.8219l9.0668-6.5074c8.2517,10.3271,16.9585,21.4372,27.4022,34.9641Zm257.9813-8.0113-11.35-.6961c.8619-12.6291,1.7394-26.8232,2.6814-43.3946l11.3565.58C866.8185,573.9634,865.9388,588.1956,865.0741,600.8639ZM196.2448,574.3288,185.84,569.9766q9.3646-20.1026,19.9661-39.4307l10.0848,4.9832Q205.4559,554.5218,196.2448,574.3288Zm1412.931-.0027-9.5033-5.9226c8.0821-11.6455,16.4305-23.9846,24.8808-36.4491l9.5677,5.827C1625.6505,550.2784,1617.2931,562.6276,1609.1758,574.3261Zm-214.157-15.9413c-5.1516-12.2466-10.4747-25.6078-16.2738-40.8475l10.6977-3.6572c5.7573,15.126,11.0364,28.378,16.1409,40.5128Zm673.5584-6.7228c-6.1143-13.499-12.5824-26.6119-19.2242-38.9744l10.1358-4.8907c6.7533,12.5709,13.3276,25.8987,19.54,39.6126ZM551.7218,539.8975c-10.32-12.1409-19.9253-22.9466-29.3665-33.0348l8.5084-7.1528c9.5611,10.2169,19.2811,21.15,29.7151,33.4252Zm318.4073-26.0261-11.359-.5426c.7662-14.4008,1.5272-28.809,2.3394-43.47l11.3574.565C871.6553,485.0771,870.894,499.4778,870.1291,513.8714Zm788.9263-12.496-9.4883-5.9435c9.5023-13.627,18.001-25.4154,25.9829-36.0371l9.2632,6.2528C1676.9094,476.1663,1668.4836,487.8529,1659.0554,501.3754Zm-1420.61-3.0424-9.5858-5.8012a335.1946,335.1946,0,0,1,27.3886-35.61l8.6883,6.9555A324.4284,324.4284,0,0,0,238.4457,498.333Zm1125.1137-21.9294c-5.2159-14.4862-10.3331-28.9805-14.6506-41.2485l10.7888-3.4107c4.3121,12.2506,9.4209,26.7222,14.6259,41.1773Zm-872.4743-.7546a386.7338,386.7338,0,0,0-33.9713-28.164l6.9357-8.5427a398.0584,398.0584,0,0,1,34.9694,28.983Zm1536.1863-.4607c-8.1492-12.6038-16.6939-24.5242-25.3965-35.43l9.07-6.5023c8.9255,11.1852,17.6816,23.3984,26.0226,36.3ZM296.8365,434.551l-6.8982-8.57a137.3876,137.3876,0,0,1,42.0133-21.0474l3.328,10.3077A125.8363,125.8363,0,0,0,296.8365,434.551Zm1415.408-3.297-8.8353-6.7868a430.13,430.13,0,0,1,30.8977-32.8118l8.0451,7.6179A419.8387,419.8387,0,0,0,1712.2445,431.254Zm-837.229-4.2382-11.3529-.6412c.9849-15.668,1.9625-29.8966,2.9892-43.4987l11.3441.7692C876.9725,397.204,875.9975,411.391,875.0155,427.0158Zm-455.5028-2.2569c-14.1917-6.6934-28.1508-10.9658-41.4891-12.6978l1.5439-10.68c14.5664,1.8921,29.7107,6.51,45.012,13.7271Zm1553.1051-17.4244a264.2717,264.2717,0,0,0-33.6948-27.8927l6.6965-8.713a275.5225,275.5225,0,0,1,35.1378,29.0765ZM1334.402,393.9082c-5.6577-16.0379-10.32-29.1147-14.6732-41.154l10.7577-3.4946c4.3636,12.0652,9.0348,25.1664,14.7009,41.23Zm441.9878-22.15-6.5185-8.8324a163.8648,163.8648,0,0,1,41.9909-20.4144l3.5122,10.2519A152.3552,152.3552,0,0,0,1776.39,371.7582Zm124.0943-13.2054a149.9936,149.9936,0,0,0-42.3779-10.3586l1.0571-10.7326a161.85,161.85,0,0,1,45.74,11.1593Zm-1018.85-18.184-11.3287-.9536c1.4173-15.1239,2.959-29.73,4.583-43.4129l11.3023,1.2051C884.5767,310.807,883.0435,325.3284,881.6342,340.3688Zm422.9626-28.6127c-5.4957-14.5384-10.674-27.8282-15.8332-40.6276l10.6248-3.8461c5.1869,12.87,10.3921,26.2283,15.9146,40.838Zm-412.6159-57.53-11.2564-1.5415c2.3-15.0918,4.8289-29.6054,7.5155-43.1375l11.177,1.9927C896.76,224.9227,894.258,239.284,891.9809,254.2259Zm379.8872-23.3439c-6.1112-13.9319-12.27-27.2618-18.31-39.6187l10.32-4.53c6.1014,12.4854,12.3229,25.9473,18.4919,40.0107ZM909.0748,169.3588,898.04,166.7463c3.967-15.0522,8.34-29.23,12.9979-42.1406l10.7609,3.4872C917.2455,140.7167,912.964,154.6,909.0748,169.3588ZM1233.36,152.5781c-7.48-13.3521-15.1211-25.8869-22.7108-37.2555l9.6106-5.7637c7.7428,11.5989,15.53,24.3714,23.1461,37.9639ZM938.88,88.601,928.6812,83.83a212.7935,212.7935,0,0,1,24.6145-37.6889l8.934,6.67A202.0973,202.0973,0,0,0,938.88,88.601Zm245.7032-8.2389a269.75,269.75,0,0,0-30.4857-31.0871l7.6292-7.995a280.8284,280.8284,0,0,1,31.7478,32.36ZM993.96,24.8728l-6.1314-9.0788A117.2322,117.2322,0,0,1,1031.9473,0l1.7315,10.6533A105.5459,105.5459,0,0,0,993.96,24.8728Zm124.2539-.0067a142.2128,142.2128,0,0,0-41.0178-13.7546L1079.19.4989a153.9974,153.9974,0,0,1,44.4208,14.8789Z" style="fill:#dce6ff"/><path d="M2228.9714,1180.3886c-94.378-13.2587-85.8345,186.0011-220.364,186.0011-123,0-188.8189-445.187-323.7942-354.642-542.6307,364.011-120.4291-255.4189-485.3-267.5265-164.9842-5.4748-274.9215,161.2606-315.4626,456.4727-58.7668,266.8821-195.0539-203.5552-335.3087-159.8151-89.139,27.7989-78.93,325.5109-201.93,325.5109-134.5293,0-125.6667-167.5556-220.0449-154.2968C25.1536,1226.3679,1.3413,1486.1564,1.3413,1486.1564H2354.078S2330.5848,1194.6636,2228.9714,1180.3886Z" style="fill:#eef7ff"/><path d="M2138.5364,1389.526c-86.8255-5.6616-72.6572,45.4884-196.421,45.4884-113.1565,0-110.0473-114.6341-185.7706-138.9973-139.4481-44.8659-254.4122,182.2052-308.4757,68.2431-102.6817-302.3909-402.1591-454.0378-540.3188,0-54.0638,113.9621-180.4914-89.3867-308.4757-68.2431-78.78,13.0148-72.6141,138.9973-185.7709,138.9973-123.7637,0-109.5954-51.15-196.4209-45.4884-93.482,6.0958-121.4037,96.63-121.4037,96.63H2259.94S2232.0185,1395.6218,2138.5364,1389.526Z" style="fill:#dce6ff"/></g><g id="_4" data-name="4"><polygon points="1361.139 1008.01 1354.646 1093.831 885.068 1093.831 884.666 1332.147 311.086 1332.55 309.426 1550.106 336.824 1577.503 2003.333 1577.503 2003.333 1027.255 1977.595 1001.517 1361.139 1008.01" style="fill:#23659b"/><polygon points="285.348 1306.812 336.824 1358.288 336.824 1577.503 285.348 1526.027 285.348 1306.812" style="fill:#1d3f70"/><polygon points="859.33 1068.093 910.806 1119.569 910.806 1358.288 859.33 1306.812 859.33 1068.093" style="fill:#1d3f70"/><polygon points="1328.908 975.779 1380.384 1027.255 1380.384 1119.569 1328.908 1068.093 1328.908 975.779" style="fill:#1d3f70"/><polygon points="1951.857 975.779 2003.333 1027.255 1380.384 1027.255 1328.908 975.779 1951.857 975.779" style="fill:#3a72aa"/><polygon points="859.33 1068.093 910.806 1119.569 1380.384 1119.569 1328.908 1068.093 859.33 1068.093" style="fill:#3a72aa"/><polygon points="285.348 1306.812 336.824 1358.288 910.806 1358.288 859.33 1306.812 285.348 1306.812" style="fill:#3a72aa"/></g><g id="_3" data-name="3"><path d="M1440.2354,539.8494c2.2365,3.4362-4.3963,7.484-6.129,10.3633a65.0469,65.0469,0,0,0,11.9214-1.32c6.9461-3.5067,13.6895-7.3825,20.26-11.5647,11.6143-.0885,8.0847,26.3817-15.2757,33.8624-8.4014,2.6905-16.5906,6.0331-30.33,3.91-4.5026-.6958-5.7621-13.3751-3.0029-16.8975C1422.5079,554.4186,1436.8947,536.6227,1440.2354,539.8494Z" style="fill:#f99370"/><path d="M919.2776,674.4483c1.5084,3.8124,8.8822.1482,12.4446,1.29a46.4473,46.4473,0,0,1-8.42,8.6674c-6.8791,3.6361-13.9421,6.8933-21.1552,9.8325-6.7925,9.4214,16.8387,21.8589,36.4569,7.1349,7.0556-5.2953,14.52-10.04,20.7389-22.4748,2.0378-4.0749-4.3342-13.0274-8.8087-13.03C943.5319,665.8649,918.579,669.8567,919.2776,674.4483Z" style="fill:#e57d61"/><path d="M1227.5248,542.6789c32.362,15.0933,65.9955,32.36,102.128,34.65,21.1194-.3433,42.3531-5.4389,62.66-11.4934,8.4368-2.5377,16.9027-5.4023,25.2029-8.3917,11.42-4.4448,19.8935,12.3788,9.67,18.93-28.2933,19.2862-60.6493,34.0759-94.811,38.8605-25.0075,2.4833-49.4211-3.1721-72.8779-10.2975a357.11,357.11,0,0,1-53.0321-21.3454C1179.3856,569.4336,1200.1585,528.8487,1227.5248,542.6789Z" style="fill:#f99370"/><path d="M1424.5,578.1814s-2.5566,2.2135-7.1637,5.6795c-16.4723,12.3629-59.1631,40.5975-104.7881,40.1256a335.9353,335.9353,0,0,1-57.4214-5.5508c-2.3593-.4375-4.6243-.8837-6.812-1.3384-4.35-.9008-8.3477-1.8188-11.9682-2.72q-4.8-1.184-8.6565-2.2993c-9.1628-2.591-14.25-4.5814-14.25-4.5814,9.48-42.6221,2.9856-67.9913-2.7368-80.5514-2.9855-6.5546-5.7652-9.6174-5.954-9.8147v-.0086l.0772.0257a.7912.7912,0,0,1,.12.06c.6949.266,3.08,1.2355,6.7948,2.8055,10.8358,4.5985,32.9361,14.3876,56.984,27.3852,25.3691,13.7184,64.0963,32.55,137.7842,13.2637q4.015-1.0424,8.1933-2.2135S1413.2265,569.9367,1424.5,578.1814Z" style="fill:#3a72aa"/><path d="M1429.0976,998.9871l-65.1619,2.35a5.1892,5.1892,0,0,1-5.3707-5.2761,41.6569,41.6569,0,0,1,.3946-5.0741,87.05,87.05,0,0,0,.6431-16.4775q-.21-3.95-.76-7.8793l-6.34-45.5427a5.18,5.18,0,0,1,4.9479-5.8876l28.7585-1.0373a5.18,5.18,0,0,1,5.35,5.6326l-3.7282,41.84a18.1369,18.1369,0,0,0,14.3712,19.3378c6.4154,1.3516,12.9067,2.066,17.5676,3.0874.6013.1366,1.2023.2731,1.7812.4181l.0074,0c4.9474,1.2195,9.0612,2.9039,11.5254,6.2544A5.1833,5.1833,0,0,1,1429.0976,998.9871Z" style="fill:#f99370"/><path d="M1356.6146,994.8413c.2906,3.1852,2.0064,6.7678,5.7043,6.5552l67.5911-2.4379a5.0212,5.0212,0,0,0,4.4861-6.923c-2.89-7.2748-12.6058-17.9221-44.61-18.5713a114.4474,114.4474,0,0,1-30.1839,1.0455A32.79,32.79,0,0,0,1356.6146,994.8413Z" style="fill:#eb5648"/><path d="M1434.3961,992.0356l-77.7815,2.8057a17.7687,17.7687,0,0,0,2.3764,6.6754l70.919-2.5581a5.02,5.02,0,0,0,4.5316-6.8084Z" style="fill:#ce3932"/><path d="M1412.977,943.2245c.336,8.8058.376,14.0289.376,14.0289s-32.4392,14.1661-65.8554,5.18a76.0579,76.0579,0,0,1-7.4863-2.4095c-.9344-3.7454-1.8192-8.0029-2.6893-12.6359-7.392-39.3736-13.5266-106.1383-36.56-123.6791-23.8888-17.1545-68.1293-14.8119-95.452-16.1155-.7655-.0356-1.5241-.0717-2.2619-.1159-40.9366-2.3788-72.984-31.8471-98.41-76.9315-3.7522-6.638,43.9477-12.9327,43.9477-12.9327l110.3008-9.195c28.39,7.0783,78.5214,17.2169,110.8247,52.2359C1404.2789,798.136,1411.484,904.7847,1412.977,943.2245Z" style="fill:#1d3f70"/><path d="M1347.5046,962.4325l-.007,0a76.0579,76.0579,0,0,1-7.4863-2.4095c-8.8755-35.6222-13.5073-116.71-39.2491-136.315-23.8888-17.1545-68.1293-14.8119-95.452-16.1155l8.8879-19.2763s74.9909.8584,99.9306,34.1542C1339.075,855.7593,1347.5046,962.4325,1347.5046,962.4325Z" style="fill:#103663"/><path d="M1196.09,1110.9881l-64.7983-7.2651a5.1894,5.1894,0,0,1-4.5357-6.0094,41.6527,41.6527,0,0,1,1.137-4.9605,87.0562,87.0562,0,0,0,3.0613-16.2033c.2488-2.6251.8271-29.0248.85-31.6674,0,0,33.3982-3.3442,32.668-.3158l-2.3893,35.5865c3.0164,8.0257,1.43,5.8577,10.0562,9.0587,6.1465,2.2812,12.4621,3.9432,16.9219,5.6394.5745.2236,1.1489.4472,1.7.6758l.0074.0008c4.714,1.9343,8.5351,4.2058,10.4795,7.8825A5.1832,5.1832,0,0,1,1196.09,1110.9881Z" style="fill:#f99370"/><path d="M1125.0061,1096.22c-.1813,3.1934.9885,6.9895,4.6774,7.3234l67.214,7.5361a5.0211,5.0211,0,0,0,5.4561-6.1873c-1.7877-7.6209-9.831-19.5822-41.3907-24.9344a114.443,114.443,0,0,1-30.0089-3.4079A32.7894,32.7894,0,0,0,1125.0061,1096.22Z" style="fill:#eb5648"/><path d="M1202.3536,1104.8921l-77.3475-8.6722a17.7691,17.7691,0,0,0,1.3682,6.9526l70.5232,7.9069a5.02,5.02,0,0,0,5.4842-6.0673Z" style="fill:#ce3932"/><path d="M1204.7251,517.1019c3.05-13.718,2.9659-34.0288,1.8915-42.4341-1.7953-16.6259-28.271-13.0344-25.6526,3.3978.8871-.4357.469,29.308-2.2258,37.2946-16.15,3.0538,26.647,30.0292,38.9431,24.3557C1225.4343,536.1385,1204.7251,517.1019,1204.7251,517.1019Z" style="fill:#f99370"/><path d="M1180.8568,476.6987c.01.1905.0125.3876.0305.5788.0176.2669.0432.5272.0767.7881.6417-.3342.6211,16.0985-.5982,27.8992,10.5739,6.2033,23.1825,5.2806,25.4964,5.0531,1.8-12.4218,1.4747-28.0878,1.0673-33.9772-.1584-1.3873-.2926-2.2043-.3129-2.3729q-.0777-.5651-.2023-1.1118a12.9083,12.9083,0,0,0-6.6555-8.6486l-.0075-.0008a12.9556,12.9556,0,0,0-14.6856,1.9324c-.083.067-.1592.1424-.2344.21A12.9136,12.9136,0,0,0,1180.8568,476.6987Z" style="fill:#e57d61"/><path d="M1163.4821,454.0705s.2331-13.9717,4.5908-23.606l7.9919,3.9127Z" style="fill:#8e4a35"/><path d="M1214.6645,708.6453c2.6618,69.5718-5.0255,167.2045-10.6336,212.6744-5.4811,44.4378-14.9465,103.59-19.2589,129.9467l-.0069,0c-1.4019,8.5763-2.26,13.6791-2.26,13.6791s-33.7044,16.1023-65.7049-4.035c0,0,.1741-5.0581.39-13.6045.7053-27.2756,1.8606-90.0573-.7155-136.8729-2.5133-45.6736-33.26-124.3628-11.8363-179.8879Z" style="fill:#1d3f70"/><path d="M1163.2729,494.949c12.4619,12.1422,32.0145,13.9649,46.113,5.8977l.0047,0a27.0771,27.0771,0,0,0,2.9859-2.1489l.0142.0017c44.574-44.9156-16.0337-118.3721-43.6393-54.2278C1159.4187,462.5351,1143.16,472.2222,1163.2729,494.949Z" style="fill:#f99370"/><path d="M1182.4651,458.5414a1.7881,1.7881,0,1,1,2.406.7809A1.785,1.785,0,0,1,1182.4651,458.5414Z" style="fill:#c16256"/><path d="M1167.4233,456.0341a1.7881,1.7881,0,1,1,2.4061.7808A1.7853,1.7853,0,0,1,1167.4233,456.0341Z" style="fill:#c16256"/><path d="M1172.0972,471.5045a7.3,7.3,0,0,0,3.0213-.2254.6758.6758,0,1,0-.4139-1.2867c-2.2674.7276-5.4825-.4035-5.925-1.43-.155-.3611.33-.7193.7656-.9546,3.8348-2.08,6.4-9.3383,6.5072-9.6456a.677.677,0,0,0-1.2785-.4457c-.0248.07-2.4995,7.0709-5.8745,8.9018-1.84.9981-1.5661,2.2041-1.3639,2.6767C1168.0639,470.3268,1170.0419,471.2622,1172.0972,471.5045Z" style="fill:#c16256"/><path d="M1170.8205,440.0378c9.6967-5.1155,27.2877-.47,35.9232-.5422,0,0-1.8285,14.7669,13.0831,25.2789,1.2666,13.577,3.503,19.5036-10.4409,36.0722l.0047,0a27.0771,27.0771,0,0,0,2.9859-2.1489l.0142.0017C1255.3149,455.8721,1199.351,382.8266,1170.8205,440.0378Z" style="fill:#e57d61"/><path d="M1163.474,410.6166c5.5626-10.9774,22.072-16.951,36.3337-3.389,10.98,10.4421,22.8331,10.3551,22.597,21.3575,22.0241,9.9875,11.1058,34.2422,11.1058,34.2422l-11.0368-1.3014c-12.6127-10.1957-12.2359-25.1907-12.2359-25.1907l.0029-.0021a28.9655,28.9655,0,0,1-8.394-.6485c-8.1241-2.072-20.1444-3.0707-29.3034.305S1157.257,422.8852,1163.474,410.6166Z" style="fill:#8e4a35"/><path d="M1235.0861,471.722c-1.1908,5.6673-5.857,9.4849-10.4225,8.5266s-7.301-6.3294-6.11-11.9964,5.8572-9.4849,10.4226-8.5266S1236.2769,466.0548,1235.0861,471.722Z" style="fill:#f99370"/><path d="M1224.2472,464.2205c.1765-.0686,4.36-1.6857,6.7138.49a4.3449,4.3449,0,0,1,1.2255,2.2185l.0015.0059c.0209.0856.0509.1624.0686.2511l.001.0037v.0011a14.7053,14.7053,0,0,1-.7821,6.8279.6805.6805,0,0,1-.7278.475.8167.8167,0,0,1-.1178-.0242.6782.6782,0,0,1-.4516-.8447,15.0123,15.0123,0,0,0,.8267-5.59c-3.9011.7-5.8553,5.0686-5.8745,5.1157a.6789.6789,0,0,1-.7031.4074.69.69,0,0,1-.1853-.051.6753.6753,0,0,1-.3594-.8858c.0945-.2178,2.22-5.1,6.7993-5.9481a2.7558,2.7558,0,0,0-.6367-.9672c-1.729-1.6-5.2691-.2389-5.3017-.2262a.6767.6767,0,0,1-.4963-1.2591Z" style="fill:#c16256"/><path d="M1258.884,708.4244s-42.3646,40.8205-154.2478,22.1175c0,0,1.4928-40.9063,3.2686-80.5257q.2317-5.109.4634-10.1579v-.0172c1.4327-30.8684,2.977-58.6826,4.0408-62.6377,10.6471-39.8339,43.9091-54.9249,58.88-59.8066a66.5744,66.5744,0,0,1,7.4468-2.0333c0,9.8748,17.09,16.3351,22.9927,12.0626,4.9245-3.5605,3.1228-9.9435,3.02-10.2952v-.0086l.0772.0257a.7912.7912,0,0,1,.12.06,53.9245,53.9245,0,0,1,6.7862,3.509c15.1,9.2743,25.0432,26.004,30.5,49.9918a200.8777,200.8777,0,0,1,4.1525,28.226c.1458,1.7931.283,3.62.3946,5.4737a126.6912,126.6912,0,0,0,1.5272,12.6287.3637.3637,0,0,1,.0085.06C1252.9558,645.4435,1265.31,684.5052,1258.884,708.4244Z" style="fill:#3a72aa"/><path d="M1191.6558,456.0517a.7942.7942,0,0,0,.8058-1.1307,14.1664,14.1664,0,0,0-10.2344-7.1807.7946.7946,0,1,0-.2684,1.5663,12.57,12.57,0,0,1,9.0693,6.3A.795.795,0,0,0,1191.6558,456.0517Z" style="fill:#c16256"/><path d="M1166.836,450.4237a.7944.7944,0,0,0,.6778-.255c2.044-2.2458,6.392-2.0419,6.4357-2.04a.7945.7945,0,0,0,.087-1.5867c-.2084-.0115-5.1419-.2516-7.6984,2.5567a.7953.7953,0,0,0,.4979,1.3246Z" style="fill:#c16256"/><path d="M1102.909,571.5666c-25.2684,25.4459-50.6778,40.9253-73.6762,54.8573-18.0659,10.9439-36.255,22.5595-55.8172,30.7056-8.1415,3.3669-16.512,6.4991-24.8331,9.43-11.6586,3.7754-7.589,22.1675,4.4736,20.78,34.1147-2.942,70.2233-10.2046,99.5231-28.41,23.5282-14.6192,52.3318-30.0393,69.455-47.5833,16.0974-16.493,31.6977-42.8773,39.51-60.3276C1173.5765,522.93,1127.66,534.047,1102.909,571.5666Z" style="fill:#e57d61"/><path d="M1178.7359,515.3635s-.8751,3.7578-3.0285,10.4668c-5.07,15.7688-17.2187,47.8384-41.6956,85.7848a122.56,122.56,0,0,1-25.6436,28.226c-38.77,31.7779-96.9637,46.3885-139.98,46.92-2.7368.0344-5.4823-.0086-8.21-.12,0,0,3.02-13.7869-5.8769-22.1261,0,0,2.4881-1.2182,6.5718-3.3116,14.7221-7.5756,50.2149-26.57,65.0914-41.2924,18.3855-18.1968,68.12-99.5718,144.8536-104.3248.4719-.0343.9437-.06,1.4155-.0857Q1175.45,515.3334,1178.7359,515.3635Z" style="fill:#3a72aa"/><path d="M1412.977,943.2245c.336,8.8058.376,14.0289.376,14.0289s-32.4392,14.1661-65.8554,5.18a76.0579,76.0579,0,0,1-7.4863-2.4095c-.9344-3.7454-1.8192-8.0029-2.6893-12.6359,0,0,38.3,10.3582,75.6479-4.1628Z" style="fill:#103663"/><path d="M1184.7651,1051.2668c-1.4019,8.5763-2.26,13.6791-2.26,13.6791s-33.7044,16.1023-65.7049-4.035c0,0,.1741-5.0581.39-13.6045C1117.19,1047.3064,1140.6719,1064.5115,1184.7651,1051.2668Z" style="fill:#103663"/><path d="M960.8731,661.2018c-4.0889,2.0962-6.5752,3.3115-6.5752,3.3115,8.8971,8.3417,5.877,22.1247,5.877,22.1247,2.73.1182,5.4747.1617,8.2162.12C968.43,686.4474,970.4557,669.299,960.8731,661.2018Z" style="fill:#23659b"/><path d="M1424.5019,578.184s-2.5584,2.2151-7.1658,5.6746l-.0066-.0025c-13.1754-9.8432-10.8471-22.8707-10.8471-22.8707l.0284-.3208q4.0113-1.045,8.19-2.2166S1413.2267,569.94,1424.5019,578.184Z" style="fill:#23659b"/><path d="M1172.0185,478.8557a13.5242,13.5242,0,0,1-3.1719-.3476.6433.6433,0,0,1,.3389-1.2412c.34.0927,8.374,2.1694,12.5224-5.2432a.6436.6436,0,0,1,1.1231.6289A11.834,11.834,0,0,1,1172.0185,478.8557Z" style="fill:#c16256"/><path d="M1149.8494,584.9505c-.5749,1.3641-18,42.0817-41.9446,65.0657q.2317-5.109.4634-10.1579a.0268.0268,0,0,0,.0085-.0172S1133.36,613.6141,1149.8494,584.9505Z" style="fill:#23659b"/><path d="M1255.1264,618.4357c-2.3593-.4375-4.6243-.8837-6.812-1.3384a.3637.3637,0,0,0-.0085-.06c-.0516-.712-.6349-7.627-1.9218-18.0595v-.0429c-.97-7.8071-2.3251-17.5876-4.1525-28.2088v-.0172l-.0257-.1544S1248.3829,590.99,1255.1264,618.4357Z" style="fill:#23659b"/><path d="M1211.7406,520.0135c0,.2317,0,.4633-.0086.7035a19.2577,19.2577,0,0,1-1.0295,6.2286c-1.6729,4.6929-5.7824,8.708-15.0653,8.3305-10.2265-.4118-16.335-4.873-19.93-9.4458a26.412,26.412,0,0,1-4.4183-8.4335,17.2771,17.2771,0,0,1-.4719-1.81v-.0085l1.4155-.0772q3.2172-.1674,6.5032-.1373c0,9.8748,17.09,16.3351,22.9927,12.0626,4.9245-3.5605,3.1228-9.9435,3.02-10.2952-.0086,0,0-.0086,0-.0086l.0772.0257C1205.3061,517.3453,1207.7685,518.3319,1211.7406,520.0135Z" style="fill:#23659b"/></g><g id="_2" data-name="2"><path d="M932.1354,675.1783s-18.1356-1.0793-29.2,8.094-18.27,24.4451-18.27,24.4451,12.461,2.66,13.58,8.85c0,0,14.5592-12.1414,19.6317-20.3161S932.1354,675.1783,932.1354,675.1783Z" style="fill:#f99370"/><path d="M694.54,665.6053s-27.223-27.2626-64.6615,15.1658-14.0746,42.3726-73.0489,63.9968c-49.0561,17.9873-63.518,73.0475,1.3628,89.1037,62.0285,15.35,101.484-34.3828,138.6007-31.8371s41.64-76.95,29.8206-97.0009S694.54,665.6053,694.54,665.6053Z" style="fill:#c92828"/><path d="M709.3881,832.0786c39.3237,4.3219,81.3345-.6754,115.701-21.74,37.5131-25.155,68.6022-61.9439,82.61-105.2136,1.939-5.6249-3.89-11.4048-9.4681-9.4893-.1768.2051-7.7641,2.1066-7.74,2.5614-2.4188,3.5207-4.9843,6.9378-7.66,10.2814-34.5874,42.27-84.4631,77.18-141.3475,72.8157a238.1678,238.1678,0,0,1-25.4157-1.8981C681.5448,775.688,674.94,827.0082,709.3881,832.0786Z" style="fill:#f99370"/><path d="M821.2433,812.0628a20.7509,20.7509,0,0,1-2.4536,7.9959h-.0086c-8.588,13.4009-41.7985,21.0537-72.6156,20.7449-3.2515-.0258-6.4688-.1459-9.6346-.3518-4.0751-.2745-8.056-.6949-11.8652-1.2783-1.9389-14.9538-13.5639-51.1844-15.4685-66.0094,10.45-1.2526,28.4834,2.8054,46.0024,4.0408,17.9137,2.6167,32.4729-10.6383,44.5267-4.6242C799.7263,772.5807,798.5339,800.9354,821.2433,812.0628Z" style="fill:#9358e0"/><path d="M456.688,1155.3527s20.6938-3.096,37.482-7.8715l6.0762,36.7987-39.1844-1.9776S448.5745,1172.341,456.688,1155.3527Z" style="fill:#f99370"/><path d="M671.32,1306.2314l3.2451-24.0712,32.3016.3035s-4.2591,10.5175-8.2533,24.0674C698.6135,1306.5311,684.6652,1318.3529,671.32,1306.2314Z" style="fill:#f99370"/><path d="M694.6068,665.9987c35.821-10.6225,34.7563,48.414,31.2729,59.9945Z" style="fill:#c92828"/><path d="M437.6,1154.9557a16.5252,16.5252,0,0,0-5.8794,2.9617l10.5482,64.9955a4.6758,4.6758,0,0,0,6.8043,3.4107q.05-.0273.1-.0552c6.4249-3.5326,15.2084-13.8526,11.8882-43.9661,0,0-4.6869-9.7-4.3738-26.95C456.688,1155.3527,446.2471,1152.4453,437.6,1154.9557Z" style="fill:#1d3f70"/><path d="M449.1736,1226.2684,437.6,1154.9557a16.5252,16.5252,0,0,0-5.8794,2.9617l10.5482,64.9955a4.6758,4.6758,0,0,0,6.8043,3.4107Z" style="fill:#395b96"/><path d="M667.6638,1324.9752a16.5306,16.5306,0,0,0,1.9115,6.3008l65.8245.7228a4.6769,4.6769,0,0,0,4.5235-6.1223l-.0371-.1083c-2.3806-6.9363-11.0432-17.3579-41.2727-19.2371,0,0-10.3563,2.96-27.2934-.3C671.32,1306.2314,666.67,1316.0239,667.6638,1324.9752Z" style="fill:#1d3f70"/><path d="M739.8862,1325.7682l-72.2224-.793a16.5306,16.5306,0,0,0,1.9115,6.3008l65.8245.7228a4.6769,4.6769,0,0,0,4.5235-6.1223Z" style="fill:#395b96"/><path d="M477.0967,1187.7462c3.0278.6349,6.407,1.1906,10.0924,1.6556a.0355.0355,0,0,1,.0228.0113c46.8226,6.0214,142.7131-1.4289,177.0956-38.3289v-.0114a170.7864,170.7864,0,0,0,13.041-15.3315c30.3456-40.1775,41.6855-91.2752,45.4731-142.3729,1.3154-17.7017,1.7239-35.3919,1.701-52.64-6.6563-39.1-42.5815-50.5422-70.8971-40.9827-22.1925,7.4731-39.724,27.84-34.859,57.8677v-.1245c8.505,24.3354,10.2285,46.9812,6.43,67.6084-11.0337,59.7841-68.4815,102.5471-141.6923,119.8065q-5.9366,1.3947-11.9975,2.5742S466.5959,1170.3734,477.0967,1187.7462Z" style="fill:#e8c0a6"/><path d="M667.6683,929.833l51.5607,83.7675,1.7593-.9733q1.1981-10.3509,1.9467-21.1633.5244-7.1316.8485-14.475.73-15.7788.7363-32.4688l-17.657-4.9664Z" style="fill:#d1a68f"/><path d="M657.4155,1157.4607s13.2653-11.1628,19.933-21.7194c18.8644-29.8674,19.838-32.19,30.32-66.68L695.5518,1002.14l-70.6773-4.4923c.5738,14.45,3.083,20.7355-2.979,40.7611C621.8955,1038.4086,659.0377,1070.1245,657.4155,1157.4607Z" style="fill:#d1a68f"/><path d="M605.7936,1003.37c6.5269,7.65,13.483,14.4357,19.4024,21.7272,29.0077,35.6981,45.1785,72.519,52.1525,110.6439,8.131,44.3164,3.833,90.3905-7.1216,138.5058q-1.2924,5.6644-2.6988,11.3512s26.8548,8.9974,41.8105,2.3248q2.3812-5.0349,4.6492-10.0017v-.0114c44.7022-97.6368,57.89-173.7392,8.8338-284.5416A679.8456,679.8456,0,0,0,686.409,923.503c-10.3078-12.61-21.6251-20.219-32.7835-23.7572C606.9276,884.9133,559.7871,949.4468,605.7936,1003.37Z" style="fill:#e8c0a6"/><path d="M724.0308,934.773c.4891,6.7692.4891,10.0465.4891,10.0465C637.5425,962.287,590.116,937.896,590.116,937.896c-.5234.18-.4633-2.9.0686-8.262,1.0724-10.75,4.0323-30.6625,8.0217-51.7763.712-3.7577,1.4585-7.55,2.2306-11.35,5.405-26.5531,12.1741-52.763,18.6258-63.204,13.0491-36.7282,57.6188-42.8624,85.8791-31.246,4.41,1.6215,26.004,39.465,30.5339,54.1871,7.6442,24.8458-18.4712,43.66-15.22,75.0521C722.4437,916.542,723.5161,927.6093,724.0308,934.773Z" style="fill:#9358e0"/><path d="M672.5473,772.8551c1.1607,1.1231,2.059,2.0964,1.0482,3.8307-1.7844,3.07-.187,10.9187,4.143,12.4534a4.9375,4.9375,0,0,0,3.3565-.0622c6.8006-2.3334,7.0128.6364,12.2165,6.1519,5.2032,5.5278,10.5191,2.5579,12.5407-2.1214,2.0214-4.6669,6.4763-1.6971,7.7366-7.2249a8.85,8.85,0,0,0,0-3.881c-.6615-3.1944-4.3925-8.8417-4.3925-8.8417a30.0371,30.0371,0,0,0-4.2551-1.1035c-10.4195-5.89-22.9353-6.95-34.7647-5.1536h-.0125C669.54,770.06,671.2123,771.5572,672.5473,772.8551Z" style="fill:#7640cc"/><path d="M707.4885,753.2588l-2.6119,18.8235s5.6056,13.7954-6.6777,12.7438c-17.5-1.4982-20.79-18.6461-20.79-18.6461l2.7611-15.2438Z" style="fill:#f99370"/><path d="M680.17,750.9362l-1.2346,6.8161c10.9571,6.6513,24.6812,6.1587,27.1031,5.9553l1.45-10.4488Z" style="fill:#e57d61"/><path d="M728.0191,746.3035c-9.2438,10.4254-24.1491,14.0168-36.3309,12.0373a30.3852,30.3852,0,0,1-13.9137-5.5659l-.0146.0025c-16.5723-13.7492-22.8534-42.8346-14.44-61.9523,12.1678-28.0392,47.072-25.4365,56.3576,3.8405a36.0227,36.0227,0,0,0,8.9377,12.669C738.9687,716.7594,739.7726,732.32,728.0191,746.3035Z" style="fill:#f99370"/><path d="M719.5155,730.8088l-16.332-7.3285s-.5065,8.7327,5.912,10.77C715.2292,736.1978,719.5155,730.8088,719.5155,730.8088Z" style="fill:#f9f8f3"/><path d="M668.61,731.087s1.4482,11.7672,12.0078,23.5466a28.1508,28.1508,0,0,1-2.8428-1.8587l-.0146.0025c-16.5706-13.7495-22.8547-42.8345-14.44-61.9523,6.1921-16.4058,26.6641-26.2653,43.1533-14.6962,0,0,8.421,24.7968-36.5039,46.4087Z" style="fill:#e57d61"/><path d="M706.349,709.8679a1.84,1.84,0,1,0-2.43.9314A1.841,1.841,0,0,0,706.349,709.8679Z" style="fill:#c16256"/><path d="M701.7393,672.9445s7.1724,26.1378-33.394,45.3979l-10.177,6.2143a53.39,53.39,0,0,1-1.9456-38.3192C663.2287,665.514,695.9912,657.368,701.7393,672.9445Z" style="fill:#c92828"/><path d="M721.6672,706.4874a1.84,1.84,0,1,0-2.43.9315A1.8406,1.8406,0,0,0,721.6672,706.4874Z" style="fill:#c16256"/><path d="M719.633,731.4957a.6933.6933,0,0,1-.4021-.0514l-16.3322-7.3287a.6962.6962,0,1,1,.5692-1.2707L719.8,730.1736a.6964.6964,0,0,1-.1672,1.3221Z" style="fill:#c16256"/><path d="M717.697,722.6517a7.49,7.49,0,0,1-3.1165-.07.6964.6964,0,1,1,.3578-1.346c2.369.6287,5.6113-.7083,6.007-1.7856.14-.38-.3784-.7219-.8388-.942-4.0489-1.9365-7.0736-9.2659-7.2007-9.5772a.6965.6965,0,0,1,1.29-.5258c.0284.0717,2.9484,7.1416,6.5119,8.8456,1.9426.9293,1.7277,2.1844,1.5455,2.6808C721.7765,721.2268,719.7939,722.2932,717.697,722.6517Z" style="fill:#c16256"/><path d="M652.9969,726.23c1.5276,5.7672,6.5264,9.4462,11.1651,8.2173s7.1609-6.9,5.6333-12.6676-6.5263-9.4462-11.1651-8.2174S651.4693,720.4627,652.9969,726.23Z" style="fill:#f99370"/><path d="M663.73,717.9349c-15.865-4.8175-2.7926,23.0195-6.7366,4.2422,4.0567.502,6.2864,4.9445,6.31,4.9921,3.4806,1.705-.9354-5.8974-6.0522-6.3694C658.1648,716.727,666.1251,721.0239,663.73,717.9349Z" style="fill:#c16256"/><path d="M660.9215,732.2111a1.5632,1.5632,0,1,0,1.482-1.6406A1.5635,1.5635,0,0,0,660.9215,732.2111Z" style="fill:#f4d4be"/><path d="M531.4426,998.1225c-3.8575.419-3.3565-8.7773-5.6668-11.459a55.1477,55.1477,0,0,0-4.9906,11.653c-.645,7.6957-.8726,15.412-.7515,23.1418-5.7821,10.2181-5.6686-19.3313-6.1861-22.2289-.0381-.0058-.0761-.0138-.1141-.02a174.4,174.4,0,0,0-5.51,23.6188c-8.2555,9.1737-.962-22.9483-.5865-25.9879l-.0491-.03a101.3658,101.3658,0,0,0-7.8074,21.7533c-9.14,8.504.8-23.5517,2.1562-26.3413l-.0641-.0656a103.3668,103.3668,0,0,0-8.8764,16.0869c-9.65,6.6993,2.8913-19.8075,4.41-22.2293.2109-2.1943,6.1335-14.6143,13.0089-24.6883,2.5487-3.7343,17.6333-3.0678,19.1777,1.0966,1.4479,3.9045,3.02,16.8867,3.25,18.9257C533.9368,985.2482,535.3919,995.63,531.4426,998.1225Z" style="fill:#f99370"/><path d="M791.875,778.4691c2.1012,7.1114-4.5289,7.3906-.791,14.6007s10.87,3.7743,13.3668,16.9141c2.4553,12.9488,13.9807,10.1661,14.3263,10.0746l.0121.0031a44.7963,44.7963,0,0,0,3.3406-7.9609c-22.7152-11.1234-22.409-39.84-22.409-39.84-2.7815-2.21-6.34-1.9946-10.472-1.0084C790.0915,773.3373,791.1413,775.9611,791.875,778.4691Z" style="fill:#7640cc"/><path d="M697.5793,705.4957a.9593.9593,0,0,0,.2754-.0921,25.6173,25.6173,0,0,0,9.0651-8.3343.9361.9361,0,0,0-1.5919-.9852,24.1247,24.1247,0,0,1-8.3391,7.6587.9361.9361,0,0,0,.5905,1.7529Z" style="fill:#c16256"/><path d="M720.5843,698.3093a.9356.9356,0,0,0-.1308-1.8572,13.626,13.626,0,0,1-6.9407-2.5547.9361.9361,0,1,0-1.1236,1.4975,15.3009,15.3009,0,0,0,8.011,2.9278A.9479.9479,0,0,0,720.5843,698.3093Z" style="fill:#c16256"/><path d="M670.2269,1274.2471q-1.2924,5.6644-2.6988,11.3512s26.3442,9.5081,41.8105,2.3248q2.3812-5.0349,4.6492-10.0017S700.7088,1285.281,670.2269,1274.2471Z" style="fill:#d1a68f"/><path d="M477.0967,1187.7462c3.0278.6349,6.407,1.1906,10.0924,1.6556,0,0-9.1625-14.9687-3.6854-44.4979q-5.9366,1.3947-11.9975,2.5742S466.5959,1170.3734,477.0967,1187.7462Z" style="fill:#d1a68f"/><path d="M652.0275,823.67c-51.273,24.0529-73.348,51.3468-99.1335,100.3726-8.1453,15.07-15.7525,30.623-22.4675,46.4019-4.821,12.0287-23.902,5.6215-20.5192-6.8357A431.7657,431.7657,0,0,1,552.83,856.0447c18.5958-31.2729,47.0353-55.8217,78.6408-73.2544C658.93,768.744,679.742,809.9458,652.0275,823.67Z" style="fill:#f99370"/><path d="M646.4393,832.739c-17.5276,4.384-32.37,27.5311-43.6946,35.4155a46.8828,46.8828,0,0,1-10.604,5.6023,27.9019,27.9019,0,0,1-9.5316,1.9818c-6.5719-18.4026-27.84-22.8982-27.84-22.8982a16.709,16.709,0,0,1-5.13-12.02c-.3174-16.927,22.1106-36.6394,49.3843-57.4357,33.3737-25.4549,68.3386-16.0676,68.3386-16.0676C683.13,797.122,663.9583,828.3635,646.4393,832.739Z" style="fill:#9358e0"/><path d="M662.3883,813.976c-1.6987,2.8054-28.0848,47.59-64.7616,66.9792.712-3.7577,1.3128-7.04,2.0848-10.841C599.7115,870.1142,639.19,847.71,662.3883,813.976Z" style="fill:#7640cc"/><path d="M746.1655,840.8036c-3.2515-.0258-6.4688-.1459-9.6346-.3518a72.7883,72.7883,0,0,0-9.4458-33.3565C737.2516,818.2828,743.18,832.1384,746.1655,840.8036Z" style="fill:#7640cc"/><path d="M592.1407,873.7568a27.9019,27.9019,0,0,1-9.5316,1.9818c-6.5719-18.4026-27.84-22.8982-27.84-22.8982a16.709,16.709,0,0,1-5.13-12.02c6.4517-.4718,7.9874,8.7166,13.8985,9.3772,5.9112.6521,8.9826-2.0247,13.5812,1.0639,4.5985,3.0972,2.1877,10.1065,5.9112,14.2674S592.0978,866.73,592.1407,873.7568Z" style="fill:#7640cc"/><path d="M724.52,944.82C637.5425,962.287,590.116,937.896,590.116,937.896c-.5234.18-.4633-2.9.0686-8.262a16.8032,16.8032,0,0,1,12.9977,2.9256c10.2952,7.2238,5.4393,9.8576,18.0509,9.4116,12.62-.4375,7.7986-5.4737,15.6831-2.1878s8.9825,9.1971,16.4294,7.4468,6.3573-4.813,11.9424-3.9378,9.7462,6.3315,17.193,4.2554c7.4469-2.0678,8.3906-7.5241,13.6154-7.2068s9.8234,4.916,14.422,4.0409c4.0408-.7721,6.7776-8.1247,13.5123-9.6089C724.52,941.5422,724.52,944.82,724.52,944.82Z" style="fill:#7640cc"/></g><g id="_1" data-name="1"><path d="M1433.3909,550.7585s9.6134-15.4158,23.4969-19.1316,32.8948-.3932,32.8948-.3932-5.3992,4.5853-3.3666,19.6265c0,0-17.9858,1.0559-27.588.4629S1433.3909,550.7585,1433.3909,550.7585Z" style="fill:#e57d61"/><path d="M1625.7288,325.3033s-13.6779-.32-21.2011,14.2617c-8.9349,17.318,2.4173,30.427-.9691,42.0794s-9.2281,19.931-4.6448,31.6059-3.0071,18.9688.9334,28.5677,9.8505,9.2838,9.5907,22.1694,11.0417,23.8662,21.4376,16.2237,16.1577,9.1093,32.7681-1.3439,17.2952-22.7613,36.5706-26.2331,11.6274-30.2394,27.97-40.1957,14.9268-25.6447,1.2526-36.3251-22.5479-13.33-32.4977-39.0922C1685.7413,308.0279,1643.9672,295.4954,1625.7288,325.3033Z" style="fill:#662948"/><path d="M1682.35,461.4449c-13.8867,37.6981-36.5662,78.98-77.4459,92.0633-38.9786,9.4519-79.1663,5.1726-117.8381-2.6093-14.176-.5413-15.0945-19.947-.5474-19.8489,34.7508,1.57,71.2975,1.58,104.6217-8.87,29.485-10.9182,42.7192-45.1083,53.11-72.718C1652.2376,423.9473,1690.4272,435.861,1682.35,461.4449Z" style="fill:#e57d61"/><path d="M1673.5235,514.6857a95.4737,95.4737,0,0,1-6.7347,12.9892,93.5432,93.5432,0,0,1-13.9243,17.4074q-1.4541,1.4542-2.9771,2.8141c-21.1909,19.1748-49.1681,27.4538-72.4525,27.9171-25.8666.5148-61.9513-7.9788-78.6123-16.6268-5.1562-2.6767-8.4594-5.3706-9.0084-7.8157-2.3336-10.3295,2.9169-20.0328,2.9169-20.0328,1.6987-2.0247,5.3793-3.6548,10.27-5.0017,17.3989-4.8044,50.1119-6.057,63.3327-9.0169,16.9442-3.8007,43.2227-13.727,58.7084-47.6068,9.2743-20.2987,19.0118-30.3108,25.3176-35.0637a23.268,23.268,0,0,1,7.16-3.9556,107.83,107.83,0,0,1,16.9218,31.5382c.48,1.4155.9351,2.874,1.3469,4.3582C1679.7607,480.6257,1680.85,497.467,1673.5235,514.6857Z" style="fill:#eb5648"/><path d="M1666.7888,527.6749a93.9538,93.9538,0,0,1-16.9014,20.2215c-4.9588-6.3144-14.5162-20.4017-15.82-36.7282-1.7845-22.2119,14.4905-48.43,14.4905-48.43Z" style="fill:#ce3932"/><path d="M1905.8815,984.85l51.9539-42.6748c-1.3857-3.4975-14.26-13.954-17.5671-18.9987-1.57-1.9789-18.0185-21.0848-19.4161-23.1956l-19.3828-18.5046-22.9026,18.8121,36.3768,34.4583a12.4074,12.4074,0,0,1,1.9183,15.672c-6.5929,11.5165-18.9091,18.7028-18.9716,31.25A4.9074,4.9074,0,0,0,1905.8815,984.85Z" style="fill:#f99370"/><path d="M1955.3069,935.8767a17.0312,17.0312,0,0,1,2.53,6.2977l-52.46,43.09a4.8209,4.8209,0,0,1-7.5886-1.9984c-2.6256-7.258-2.4129-21.0971,20.7294-42.2236,0,0,10.2372-4.31,21.7519-17.8668C1940.27,923.176,1950.3285,928.042,1955.3069,935.8767Z" style="fill:#1d3f70"/><path d="M1897.7483,983.1554l57.5586-47.2787a17.0312,17.0312,0,0,1,2.53,6.2977l-52.46,43.09A4.8217,4.8217,0,0,1,1897.7483,983.1554Z" style="fill:#395b96"/><path d="M1652.784,418.7288l4.7358,11.9647s6.3377,70.9274,18.4417,70.9146c21.4321-.0228,7.2656-76.2872,8.386-80.4894,0,0-3.8957-7.9619-5.2282-11.8213Z" style="fill:#f99370"/><path d="M1647.7,1000.8918l67.2335.1062c1.1548-3.58-2.1309-19.8373-1.475-25.8336.0471-2.5253.8687-16.3447,1.1325-18.8625l-4.5559-37.9929-29.6381-.0469,6.16,49.7263a12.4074,12.4074,0,0,1-8.4862,13.3145c-12.4117,4.6949-26.4867,2.4084-34.5144,12.0518A4.9074,4.9074,0,0,0,1647.7,1000.8918Z" style="fill:#f99370"/><path d="M1716.9873,994.53a17.026,17.026,0,0,1-2.0528,6.4689l-67.888-.1072a4.8209,4.8209,0,0,1-4.5855-6.3682c2.5894-7.2711,11.5545-17.8158,42.85-19.4025,0,0,10.6411,3.1843,28.149.0445C1713.46,975.1652,1718.1278,985.3175,1716.9873,994.53Z" style="fill:#1d3f70"/><path d="M1642.5007,994.4121l74.4866.1176a17.026,17.026,0,0,1-2.0528,6.4689l-67.888-.1072A4.8218,4.8218,0,0,1,1642.5007,994.4121Z" style="fill:#395b96"/><path d="M1671.3811,381.4044c.1092.4787.2046.97.2686,1.4549-.7613-.17,3.8333,16.9543,8.3878,28.9173-9.2874,9.4039-22.5641,12.1453-25.0375,12.5509-6.0339-15.0528-10.0286-29.5839-11.1146-39.1C1642.8383,368.8238,1667.9151,365.3643,1671.3811,381.4044Z" style="fill:#e57d61"/><path d="M1682.006,362.376c3.416,12.2265,5.49,26.8258-.0275,38.5l-.0148.0068c-15.11,33.57-80.2892,22.3376-68.1916-17.1386,4.3289-10.4459.2337-23.5278,3.0487-33.2316C1627.8751,313.36,1674.731,330.5355,1682.006,362.376Z" style="fill:#f99370"/><path d="M1635.4643,397.9257l8.5487-7.2342C1646.2809,396.38,1641.0131,401.58,1635.4643,397.9257Z" style="fill:#f9f8f3"/><path d="M1635.3245,375.3984c-1.9544-1.4976.4436-4.5314,2.3527-2.9776C1639.6315,373.9183,1637.2335,376.9523,1635.3245,375.3984Z" style="fill:#c16256"/><path d="M1619.7145,379.6466c-1.9544-1.4975.4437-4.5315,2.3528-2.9776C1624.0215,378.1665,1621.6235,381.2006,1619.7145,379.6466Z" style="fill:#c16256"/><path d="M1635.5135,398.3584c.2733.0426,8.5582-7.2379,8.781-7.3347a.4354.4354,0,0,0,.0508-.6138c-.2015-1.0617-8.9052,7.2424-9.162,7.183A.4383.4383,0,0,0,1635.5135,398.3584Z" style="fill:#c16256"/><path d="M1657.0517,938.4238c1.0638,7.9044,1.7772,12.2356,1.7772,12.2356,28.35,9.4331,66.2356,11.49,91.49,1.86-20.7579-71.9744-12.3056-267.5984,2.414-291.7194,0,0,51.5987,172.8851,103.4076,269.5029q3.2865,6.1242,6.5669,11.79s58.9363.6815,89.28-51.707c0,0-3.2166-3.7961-8.2994-10.6815-15.2483-20.6432-47.3056-62.72-60.0063-120.0826-28.2928-127.8216-61.2738-186.0444-85.433-208.3756-33.4139-30.879-102.5349,6.0381-124.8215,50.2993C1642.2811,699.7934,1644.848,857.8315,1657.0517,938.4238Z" style="fill:#1d3f70"/><path d="M1631.0784,392.5011c1.0646-.4815,3.5837-1.1587,2.8577-2.57a.719.719,0,0,0-1.0146-.0439c-1.8644,1.7086-5.4659,2.0407-6.3438,1.2469-.3094-.28.0008-.84.3157-1.2616,2.8078-3.5224,2.8-15.986.5642-12.0527.0075.08.7262,7.9308-1.7138,11.1925C1623.2453,393.2354,1627.9708,393.43,1631.0784,392.5011Z" style="fill:#c16256"/><path d="M1682.006,362.376c3.416,12.2265,5.49,26.8258-.0275,38.5l-.0148.0068c2.13-8.483-1.1464-23.7539-1.1464-23.7539l-5.1948-5.0685c-45.4091,5.4807-56.4135-27.7116-56.4135-27.7116C1634.34,313.66,1675.1771,333.9168,1682.006,362.376Z" style="fill:#e57d61"/><path d="M1621.8589,339.4842s11.257,32.7591,52.5557,29.2866l9.4632-12.8614C1685.0528,325.9046,1646.1781,300.6026,1621.8589,339.4842Z" style="fill:#662948"/><path d="M1691.8885,364.79c3.3678,14.0567-14.4235,18.1105-17.474,3.98C1671.047,354.7139,1688.8382,350.66,1691.8885,364.79Z" style="fill:#f99370"/><path d="M1688.9374,369.388c1.3811-4.0458-2.2827-9.2091-4.1336-9.5341-3.5223-.8548-7.6119,2.3748-6.6693,3.5173,1.4172.9138,2.7584-3.0436,6.227-2.1506C1687.8212,361.9338,1686.9,369.0152,1688.9374,369.388Z" style="fill:#c16256"/><path d="M1682.4289,371.2849c1.3-.6873-.4475-5.7587,4.4356-8.64a.7177.7177,0,0,0,.2873-.974C1682.3078,360.6249,1680.1191,372.68,1682.4289,371.2849Z" style="fill:#c16256"/><path d="M1687.5133,374.044a1.6126,1.6126,0,0,1-2.9276,1.35A1.6126,1.6126,0,0,1,1687.5133,374.044Z" style="fill:#f4d4be"/><path d="M1798.25,551.2509c-31.4177,26.09-79.5563,53.741-124.8294,50.292,0,.0086-6.2286-3.2944-5.774-12.56,1.0468-21.2939-6.8549-32.9618-14.7822-43.9-10.7413-14.7993-21.5427-28.2517-10.3209-62.3975,2.7712-8.3477,6.8378-22.6237,10.1836-34.8922,1.8446-6.7862,3.72-12.8866,4.7926-17.0991,6.5631,26.2614,12.3833,34.7726,16.9218,31.5382,4.9417-3.509,8.0817-21.0109,8.0988-44.9215a46.3594,46.3594,0,0,1,8.7423-.6005c35.27.8751,67.631,41.5669,92.9143,89.5511q3.5133,6.6662,6.8377,13.4868c1.4329,2.17,2.9,4.4526,4.2468,6.8034a41.9154,41.9154,0,0,1,4.5642,10.8271A18.7527,18.7527,0,0,1,1798.25,551.2509Z" style="fill:#eb5648"/><path d="M1856.1408,930.3027q3.2865,6.1242,6.5669,11.79s58.9363.6815,89.28-51.707c0,0-3.2166-3.7961-8.2994-10.6815C1943.6884,879.704,1917.1088,923.9143,1856.1408,930.3027Z" style="fill:#163356"/><path d="M1640.3946,367.7066a.8777.8777,0,0,1-.8851-.0739c-4.4219-3.1129-8.0723-2.4472-8.1081-2.4406a.8773.8773,0,0,1-.3494-1.7194c.1766-.0366,4.3885-.8509,9.4683,2.7252a.8779.8779,0,0,1-.1257,1.5087Z" style="fill:#c16256"/><path d="M1617.11,372.5632a.8774.8774,0,0,1-1.0023-1.4092,37.8643,37.8643,0,0,1,6.7981-4.7978.8773.8773,0,0,1,.9,1.5064,37.5137,37.5137,0,0,0-6.4554,4.5309A.8811.8811,0,0,1,1617.11,372.5632Z" style="fill:#c16256"/><path d="M1799.5253,548.3813S1732.82,600.5671,1671.3806,599.92c0,0-.5188,1.7309.9811,5.0541,0,0,60.9316,6.3659,128.5468-51.158A3.8348,3.8348,0,0,0,1799.5253,548.3813Z" style="fill:#ce3932"/><path d="M1736.661,956.3468A77.3384,77.3384,0,0,0,1750.32,952.52c-10.6288-58.0564-12.6257-107.4946-12.3212-150.5568.64-86.8814,14.7343-141.1618,14.7343-141.1618s-9.2075-4.85-12.8-13.2216C1739.9333,647.58,1699.886,814.08,1736.661,956.3468Z" style="fill:#163356"/><path d="M1657.05,938.4238c1.0622,7.9034,1.7806,12.2376,1.7806,12.2376,28.345,9.4288,66.2337,11.49,91.4891,1.8587-.6559-3.5769-1.2808-7.1379-1.8821-10.66C1748.438,941.86,1700.987,952.3014,1657.05,938.4238Z" style="fill:#163356"/><path d="M1799.8457,537.3781c-7.0865-8.8625-21.9631-23.9364-47.1778-34.1458-37.6718-15.2541-48.2469-47.78-48.2469-47.78l79.776,50.8081q3.5133,6.6662,6.8377,13.4868C1794.5867,525.1353,1798.3787,531.1838,1799.8457,537.3781Z" style="fill:#ce3932"/><path d="M1736.4577,422.9976c28.1736,18.9437,56.1369,38.7422,80.5531,62.4792,18.0556,19.2147,31.0726,42.3506,42.1885,65.94,2.96,10.5213,18.8185,28.77,4.2182,35.9718-9.9414,3.6159-13.6322-8.0954-18.0691-14.4548-6.4153-10.09-13.29-20.0576-20.4342-29.5568-9.7873-12.8148-20.4609-25.5247-32.8405-35.3807-8.0484-6.1243-17.8509-12.8642-26.29-18.5669-16.3223-10.8661-34.3841-22.3922-50.9784-32.867C1692.7069,442.0514,1714.0294,408.8122,1736.4577,422.9976Z" style="fill:#f99370"/><path d="M1848.9636,606.7911c3.3241.9636,3.3314-8.7443,5.3257-11.2531a53.725,53.725,0,0,1,5.06,11.266c.7595,7.4837,1.1126,14.9945,1.1263,22.5242-.0542,2.4126,3.726,2.6732,3.9722.2409.8946-7.2889,1.4725-14.6408,1.6759-21.9908.0372-.0062.0739-.0147.1111-.0215a169.9288,169.9288,0,0,1,5.77,22.91c8.1015,9.33.5764-22.69.1287-25.3181l.0473-.03a98.7677,98.7677,0,0,1,7.9769,21.0557c9.0228,8.4661-1.1883-23.1263-2.5494-25.6173l.0614-.0647a100.74,100.74,0,0,1,8.9215,15.52c9.4321,6.5482-2.9668-18.8814-4.3992-21.1033-.8161-2.7947-5.3353-11.8061-14.6849-22.392-2.9115-3.3063-13.9,2.2657-15.3331,6.3466-1.3442,3.8263-1.7138,9.3448-1.9032,11.3345C1849.2906,593.4986,1845.1133,605.1525,1848.9636,606.7911Z" style="fill:#f99370"/><path d="M1865.512,564.6947s-8.1847,12.74-18.1452,10.9472c-.9782-.18-4.1611-1.5443-8.4078-4.1266a85.13,85.13,0,0,1-22.5122-19.9641c-5.4565-7.0094-11.4964-15.7346-21.1653-25-9.9348-9.4974-21.24-24.3132-42.1048-33.6389-29.4529-13.1607-42.2-22.35-52.727-45.2391-4.1868-9.1113-16.88-15.9666-17.9093-30.3628a63.4106,63.4106,0,0,1,8.6738-2.5137c13.6583-3.0886,42.0044-6.2115,74.4086,9.3343,39.1389,18.763,94.7588,87.02,101.0645,124.7779C1867.7255,555.1116,1867.4252,560.4908,1865.512,564.6947Z" style="fill:#eb5648"/><path d="M1690.3905,452.0308c-.7378,9.403-.8422,16.2551-4.341,18.12-4.5167,2.4068-8.6309-1.6644-10.261-3.56a11.5338,11.5338,0,0,1-.8065-1.038s-2.1908,13.7959-10.405,8.5388c-6.3337-4.0536-9.6534-16.8866-11.85-26.2981a132.9651,132.9651,0,0,1-2.3679-13.1435c4.2365-3.4364,7.16-3.9556,7.16-3.9556,6.5631,26.2614,12.3833,34.7726,16.9218,31.5382,4.9417-3.509,8.0817-21.0109,8.0988-44.9215a63.4106,63.4106,0,0,1,8.6738-2.5137h.0429s.0086.6863.0256,1.9132C1691.3514,422.2519,1691.4373,438.7843,1690.3905,452.0308Z" style="fill:#ce3932"/><path d="M1498.8226,559.1867c-5.1562-2.6767-8.4594-5.3706-9.0084-7.8157-2.3336-10.3295,2.9169-20.0328,2.9169-20.0328,1.6987-2.0247,5.3793-3.6548,10.27-5.0017C1503.0006,526.3365,1493.2974,543.2978,1498.8226,559.1867Z" style="fill:#ce3932"/><path d="M1865.512,564.6947s-8.1847,12.74-18.1452,10.9472c-.9782-.18-4.1611-1.5443-8.4078-4.1266,1.1667-1.2355,16.7641-4.2468,27.7283-22.6066C1867.7255,555.1116,1867.4252,560.4908,1865.512,564.6947Z" style="fill:#ce3932"/></g></g></g></svg>