<svg xmlns="http://www.w3.org/2000/svg" viewBox="0 0 2628.5863 1646.1194"><g id="Layer_2" data-name="Layer 2"><g id="_ëîé_1" data-name="‘ëîé_1"><path d="M212.0458,1639.347S-116.2931,1197.45,44.1732,742.5189C148.7684,445.9861,541.1224,283.5008,762.5487,445.9861c94.3086,69.2046,358.2271-22.9257,558.4243-284.1806C1652.98-271.46,2691.8607,209.9324,2371.43,1076.306c-146.4083,395.8564,103.9785,345.166,41.1972,569.8134Z" style="fill:#ebf3fa"/><rect x="1727.64" y="433.0228" width="45.0225" height="1208.8671" style="fill:#ccddfc"/><rect x="1452.4623" y="465.9256" width="589.1679" height="29.7183" style="fill:#ccddfc"/><rect x="1474.6771" y="400.1199" width="9.7119" height="65.8057" style="fill:#ccddfc"/><path d="M1453.265,413.5477c0-3.3306,11.92-6.0308,26.6231-6.0308s26.623,2.7,26.623,6.0308-11.92,6.0307-26.623,6.0307S1453.265,416.8782,1453.265,413.5477Z" style="fill:#ccddfc"/><path d="M1453.265,401.4866c0-3.331,11.92-6.0307,26.6231-6.0307s26.623,2.7,26.623,6.0307-11.92,6.03-26.623,6.03S1453.265,404.8172,1453.265,401.4866Z" style="fill:#ccddfc"/><ellipse cx="1479.8881" cy="389.4251" rx="26.623" ry="6.0308" style="fill:#ccddfc"/><path d="M1453.265,377.3636c0-3.3306,11.92-6.0308,26.6231-6.0308s26.623,2.7,26.623,6.0308-11.92,6.0307-26.623,6.0307S1453.265,380.6941,1453.265,377.3636Z" style="fill:#ccddfc"/><rect x="1463.3822" y="374.6468" width="32.3018" height="41.04" style="fill:#ccddfc"/><rect x="1741.8353" y="400.1199" width="9.7119" height="65.8057" style="fill:#ccddfc"/><path d="M1720.4232,413.5477c0-3.3306,11.92-6.0308,26.6231-6.0308s26.623,2.7,26.623,6.0308-11.92,6.0307-26.623,6.0307S1720.4232,416.8782,1720.4232,413.5477Z" style="fill:#ccddfc"/><path d="M1720.4232,401.4866c0-3.331,11.92-6.0307,26.6231-6.0307s26.623,2.7,26.623,6.0307-11.92,6.03-26.623,6.03S1720.4232,404.8172,1720.4232,401.4866Z" style="fill:#ccddfc"/><ellipse cx="1747.0463" cy="389.4251" rx="26.623" ry="6.0308" style="fill:#ccddfc"/><path d="M1720.4232,377.3636c0-3.3306,11.92-6.0308,26.6231-6.0308s26.623,2.7,26.623,6.0308-11.92,6.0307-26.623,6.0307S1720.4232,380.6941,1720.4232,377.3636Z" style="fill:#ccddfc"/><rect x="1730.5404" y="374.6468" width="32.3018" height="41.04" style="fill:#ccddfc"/><rect x="2009.7972" y="400.1199" width="9.711" height="65.8057" style="fill:#ccddfc"/><path d="M1988.3851,413.5477c0-3.3306,11.919-6.0308,26.6221-6.0308s26.623,2.7,26.623,6.0308-11.92,6.0307-26.623,6.0307S1988.3851,416.8782,1988.3851,413.5477Z" style="fill:#ccddfc"/><path d="M1988.3851,401.4866c0-3.331,11.919-6.0307,26.6221-6.0307s26.623,2.7,26.623,6.0307-11.92,6.03-26.623,6.03S1988.3851,404.8172,1988.3851,401.4866Z" style="fill:#ccddfc"/><path d="M1988.3851,389.4251c0-3.3311,11.919-6.0308,26.6221-6.0308s26.623,2.7,26.623,6.0308-11.92,6.0308-26.623,6.0308S1988.3851,392.7557,1988.3851,389.4251Z" style="fill:#ccddfc"/><path d="M1988.3851,377.3636c0-3.3306,11.919-6.0308,26.6221-6.0308s26.623,2.7,26.623,6.0308-11.92,6.0307-26.623,6.0307S1988.3851,380.6941,1988.3851,377.3636Z" style="fill:#ccddfc"/><rect x="1998.5013" y="374.6468" width="32.3018" height="41.04" style="fill:#ccddfc"/><polygon points="1750.177 628.314 1583.264 488.948 1589.418 481.625 1750.125 615.81 1913.429 477.149 1919.645 484.42 1750.177 628.314" style="fill:#ccddfc"/><path d="M309.6415,1380.512H255.1781a.5242.5242,0,0,1-.5244-.5244V1099.2132a.5247.5247,0,0,1,.5244-.5244h54.4634a.5245.5245,0,0,1,.5244.5244v280.7744A.5239.5239,0,0,1,309.6415,1380.512Zm-53.94-1.0488h53.4156V1099.7376H255.702Z" style="fill:#c0d8fb"/><path d="M334.1058,1567.6946h-103.74a.5244.5244,0,0,1-.5195-.5937l24.8125-187.1826a.5231.5231,0,0,1,.5195-.4551h54.4634a.5237.5237,0,0,1,.5195.456l24.4644,187.1836a.5228.5228,0,0,1-.52.5918Zm-103.1416-1.0488h102.544L309.1815,1380.512H255.6371Z" style="fill:#c0d8fb"/><path d="M240.3719,1641.9993H220.4906a.5244.5244,0,0,1-.5195-.5937l9.875-74.3047a.5247.5247,0,0,1,.5195-.4551h41.126a.5248.5248,0,0,1,.4834.7275l-31.1192,74.3047A.5253.5253,0,0,1,240.3719,1641.9993Zm-19.2827-1.0488h18.9341l30.68-73.2559H230.8246Z" style="fill:#c0d8fb"/><path d="M343.8148,1641.9993H323.9335a.5253.5253,0,0,1-.4839-.3213L292.33,1567.3733a.5253.5253,0,0,1,.4839-.7275H333.94a.5247.5247,0,0,1,.5195.4551l9.875,74.3047a.5243.5243,0,0,1-.5195.5937Zm-19.5327-1.0488h18.9341l-9.7354-73.2559H293.6019Z" style="fill:#c0d8fb"/><path d="M439.1429,1380.512H133.1092a.5242.5242,0,0,1-.1879-1.0137L254.99,1332.7024a.5185.5185,0,0,1,.188-.0351h54.4634a.5268.5268,0,0,1,.1782.0312l129.5015,46.7959a.5244.5244,0,0,1-.1783,1.0176Zm-303.2021-1.0488H436.15l-126.6-45.7471H255.2753Z" style="fill:#c0d8fb"/><path d="M420.9886,1240.1243H151.2631a.524.524,0,0,1-.2149-1.0019l103.9146-46.7959a.5274.5274,0,0,1,.2153-.0459h54.4634a.518.518,0,0,1,.2031.041l111.3472,46.7959a.5239.5239,0,0,1-.2032,1.0068Zm-267.2846-1.0478H418.3881L309.536,1193.3284H255.29Z" style="fill:#c0d8fb"/><path d="M392.46,1099.7376H179.7919a.5243.5243,0,0,1-.1953-1.0107l84.8276-34.0625a.5176.5176,0,0,1,.1958-.0381h37.8472a.5247.5247,0,0,1,.186.0342l89.9917,34.0625a.5243.5243,0,0,1-.1851,1.0146Zm-209.956-1.0488h207.09l-87.2226-33.0137h-37.65Z" style="fill:#c0d8fb"/><path d="M302.4672,1065.6751H264.62a.5243.5243,0,0,1-.5059-.6631l17.79-65.1474a.5246.5246,0,0,1,.4975-.3858.5158.5158,0,0,1,.5093.37l20.0576,65.1475a.5247.5247,0,0,1-.5014.6787Zm-37.1607-1.0488h36.4507L282.44,1001.8831Z" style="fill:#c0d8fb"/><path d="M309.6415,1146.5335H255.1781a.5242.5242,0,0,1-.3413-.9219l26.7685-23.001-26.7685-23a.5239.5239,0,0,1,.3413-.9218h54.4634a.5239.5239,0,0,1,.3413.9218l-26.7686,23,26.7686,23.001a.5242.5242,0,0,1-.3413.9219Zm-53.0493-1.0488h51.6347L282.41,1123.3021Zm0-45.7471L282.41,1121.92l25.8169-22.1826Z" style="fill:#c0d8fb"/><path d="M309.6415,1193.3284H255.1781a.5234.5234,0,0,1-.3413-.9209l26.7685-23.001-26.7685-23a.5239.5239,0,0,1,.3413-.9218h54.4634a.5239.5239,0,0,1,.3413.9218l-26.7686,23,26.7686,23.001a.5234.5234,0,0,1-.3413.9209Zm-53.0493-1.0478h51.6347L282.41,1170.098Zm0-45.7471,25.8178,22.1826,25.8169-22.1826Z" style="fill:#c0d8fb"/><path d="M309.6415,1240.1243H255.1781a.524.524,0,0,1-.3413-.9219l26.7685-23-26.7685-23a.5239.5239,0,0,1,.3413-.9218h54.4634a.5239.5239,0,0,1,.3413.9218l-26.7686,23,26.7686,23a.524.524,0,0,1-.3413.9219Zm-53.0493-1.0478h51.6347L282.41,1216.8939Zm0-45.7481L282.41,1215.511l25.8169-22.1826Z" style="fill:#c0d8fb"/><path d="M309.6415,1286.92H255.1781a.524.524,0,0,1-.3413-.9219l26.7685-23-26.7685-23.0009a.5234.5234,0,0,1,.3413-.9209h54.4634a.5234.5234,0,0,1,.3413.9209l-26.7686,23.0009,26.7686,23a.524.524,0,0,1-.3413.9219Zm-53.0493-1.0478h51.6347L282.41,1263.6888Zm0-45.7481,25.8178,22.1826,25.8169-22.1826Z" style="fill:#c0d8fb"/><path d="M309.6415,1333.7161H255.1781a.524.524,0,0,1-.3413-.9219l26.7685-23-26.7685-23a.5239.5239,0,0,1,.3413-.9218h54.4634a.5239.5239,0,0,1,.3413.9218l-26.7686,23,26.7686,23a.524.524,0,0,1-.3413.9219Zm-53.0493-1.0488h51.6347L282.41,1310.4856Zm0-45.7471,25.8178,22.1826,25.8169-22.1826Z" style="fill:#c0d8fb"/><path d="M315.8954,1427.3069h-67.06a.5241.5241,0,0,1-.32-.9394l33.0151-25.4072-26.6723-20.5577a.5242.5242,0,0,1,.32-.9394h54.4634a.5248.5248,0,0,1,.32.94L283.2489,1400.96l32.9663,25.4072a.5241.5241,0,0,1-.32.9394Zm-65.5195-1.0478h63.9809L282.39,1401.6214Zm6.3408-45.7471,25.6733,19.7861,25.7109-19.7861Z" style="fill:#c0d8fb"/><path d="M322,1474.1028H242.493a.5238.5238,0,0,1-.2817-.9658l39.126-24.9433-32.7847-20.9688a.5242.5242,0,0,1,.2827-.9658h67.06a.524.524,0,0,1,.2817.9658l-32.8921,20.97,38.9976,24.9424a.5242.5242,0,0,1-.2827.9658Zm-77.71-1.0478h75.918l-37.898-24.2393Zm6.3379-45.7481,31.6836,20.2647,31.7866-20.2647Z" style="fill:#c0d8fb"/><path d="M328.4027,1520.8987H236.15a.524.524,0,0,1-.25-.9843l45.2651-24.6739-38.9223-21.2011a.5242.5242,0,0,1,.2509-.9844H322a.5242.5242,0,0,1,.251.9844l-38.8951,21.2011,45.2979,24.6739a.5242.5242,0,0,1-.251.9843Zm-90.1958-1.0488h88.1377l-44.084-24.0127Zm6.3442-45.7471,37.709,20.5411,37.6831-20.5411Z" style="fill:#c0d8fb"/><path d="M334.3656,1567.6946h-104a.524.524,0,0,1-.2256-.997l50.9605-24.3252-45.1758-21.5254a.5239.5239,0,0,1,.2251-.9971h92.2529a.5241.5241,0,0,1,.2261.9971l-45.0928,21.5244,51.0547,24.3262a.5238.5238,0,0,1-.2251.997Zm-101.6851-1.0488h99.3658l-49.7281-23.6934Zm5.7886-45.7471,43.8486,20.8926,43.7706-20.8926Z" style="fill:#c0d8fb"/><path d="M219.7977,1240.1243a.5208.5208,0,0,1-.3525-.1367L196.7406,1219.35l.7056-.7754,22.2793,20.252,35.0341-46.3379.8365.6318-35.38,46.7959a.5262.5262,0,0,1-.37.2061C219.83,1240.1233,219.8138,1240.1243,219.7977,1240.1243Z" style="fill:#c0d8fb"/><path d="M352.8173,1240.1243a.522.522,0,0,1-.3853-.1689l-43.1758-46.7949.7705-.711,42.8409,46.4326,22.7539-18.6142.6635.8115-23.1357,18.9268A.5239.5239,0,0,1,352.8173,1240.1243Z" style="fill:#c0d8fb"/><rect x="246.5068" y="1356.0658" width="71.8061" height="1.0478" transform="translate(-815.5864 511.3115) rotate(-40.6499)" style="fill:#c0d8fb"/><path d="M398.8334,1380.8265l-39.6612-29.0987-49.2666,28.7129a.5229.5229,0,0,1-.6054-.0556l-54.4634-46.7959.6826-.795L309.7,1379.347l49.2412-28.6983a.5265.5265,0,0,1,.5742.03l39.938,29.3018Z" style="fill:#c0d8fb"/><path d="M187.5467,1380.7376l-.8081-.668,25.5577-30.9277a.5253.5253,0,0,1,.3974-.19.5085.5085,0,0,1,.4024.1806l26.5454,30.5118-.791.6875-26.14-30.045Z" style="fill:#c0d8fb"/><path d="M255.1781,1099.7376a.521.521,0,0,1-.2407-.0586l-32.9717-17.0312.481-.9317,32.3984,16.7354,9.2695-33.44a.5238.5238,0,0,1,.8218-.2783l44.7812,33.8809,39.19-16.293.4023.9678-39.4673,16.4092a.5276.5276,0,0,1-.5175-.0664l-44.4063-33.5967-9.2358,33.3183a.5234.5234,0,0,1-.5049.3848Z" style="fill:#c0d8fb"/><path d="M255.4842,1099.639l-.6123-.8516,47.29-34.0625a.5238.5238,0,0,1,.8188.3174l7.1744,34.0625-1.0259.2168-7.0083-33.2754Z" style="fill:#c0d8fb"/><path d="M302.0756,1065.4993l-18.9019-21.2666-18.1553,21.2578-.7973-.6806,18.25-21.3682-9.3472-10.5166a.524.524,0,0,1,.3916-.8721h18.9234a.5242.5242,0,0,1,.3989.8643l-8.9766,10.5107,18.9981,21.3741Zm-27.3936-32.3984,8.4761,9.5361,8.1435-9.5361Z" style="fill:#c0d8fb"/><path d="M675.6581,1171.3978H577.9105a.94.94,0,0,1-.94-.9414V666.5433a.94.94,0,0,1,.94-.9405h97.7476a.94.94,0,0,1,.94.9405v503.9131A.94.94,0,0,1,675.6581,1171.3978Zm-96.8067-1.8819h95.8658V667.4842H578.8514Z" style="fill:#c0d8fb"/><path d="M719.5648,1507.3392H533.3793a.9408.9408,0,0,1-.9326-1.0645l44.5317-335.9414a.939.939,0,0,1,.9321-.8174h97.7476a.94.94,0,0,1,.9321.8184l43.9067,335.9424a.9387.9387,0,0,1-.9321,1.0625Zm-185.1113-1.8809H718.4926l-43.6607-334.0605H578.7347Z" style="fill:#c0d8fb"/><path d="M551.3383,1640.6956H515.6566a.941.941,0,0,1-.9326-1.0644l17.7227-133.3565a.9408.9408,0,0,1,.9326-.8164h73.81a.9412.9412,0,0,1,.8682,1.3047l-55.8506,133.3555A.9416.9416,0,0,1,551.3383,1640.6956Zm-34.6075-1.8818h33.982l55.062-131.4746H534.2035Z" style="fill:#c0d8fb"/><path d="M736.99,1640.6956H701.308a.9417.9417,0,0,1-.8682-.5771L644.5892,1506.763a.9412.9412,0,0,1,.8682-1.3047h73.81a.9408.9408,0,0,1,.9326.8164l17.7226,133.3565a.94.94,0,0,1-.9326,1.0644Zm-35.0561-1.8818h33.9819l-17.4727-131.4746H646.8715Z" style="fill:#c0d8fb"/><path d="M908.0775,1171.3978H358.83a.941.941,0,0,1-.3369-1.8194l219.08-83.9853a.9261.9261,0,0,1,.3369-.0625h97.7476a.935.935,0,0,1,.3193.0556l232.42,83.9854a.941.941,0,0,1-.32,1.8262Zm-544.1645-1.8819H902.7059l-227.2124-82.1045H578.0853Z" style="fill:#c0d8fb"/><path d="M875.495,919.4407H391.4125a.9407.9407,0,0,1-.3858-1.7988l186.4981-83.9854a.9414.9414,0,0,1,.3857-.083h97.7476a.94.94,0,0,1,.3647.0733L875.86,917.6321a.9411.9411,0,0,1-.3647,1.8086Zm-479.7022-1.8818H870.828L675.4686,835.4554H578.1127Z" style="fill:#c0d8fb"/><path d="M824.2938,667.4842h-381.68a.9407.9407,0,0,1-.351-1.8135l152.2426-61.1338a.9521.9521,0,0,1,.3511-.0674h67.9263a.9336.9336,0,0,1,.333.0611l161.5107,61.1333a.94.94,0,0,1-.3325,1.82Zm-376.813-1.8814h371.67l-156.54-59.2519H595.038Z" style="fill:#c0d8fb"/><path d="M662.7826,606.3509H594.8563a.94.94,0,0,1-.9077-1.1885l31.9287-116.9219a.9405.9405,0,0,1,.8926-.6924.924.924,0,0,1,.9141.6636l35.9975,116.9214a.9406.9406,0,0,1-.8989,1.2178ZM596.0883,604.47h65.42l-34.669-112.6079Z" style="fill:#c0d8fb"/><path d="M675.6581,751.47H577.9105a.94.94,0,0,1-.6123-1.6538l48.0425-41.28-48.0425-41.2793a.94.94,0,0,1,.6123-1.6538h97.7476a.94.94,0,0,1,.6128,1.6538l-48.043,41.2793,48.043,41.28a.94.94,0,0,1-.6128,1.6538Zm-95.209-1.8813h92.67l-46.335-39.8115Zm0-82.104,46.3354,39.8115,46.335-39.8115Z" style="fill:#c0d8fb"/><path d="M675.6581,835.4554H577.9105a.9406.9406,0,0,1-.6123-1.6543l48.0425-41.2793-48.0425-41.2793a.9405.9405,0,0,1,.6123-1.6543h97.7476a.9408.9408,0,0,1,.6128,1.6543l-48.043,41.2793,48.043,41.2793a.9409.9409,0,0,1-.6128,1.6543Zm-95.209-1.8819h92.67l-46.335-39.8115Zm0-82.104,46.3354,39.8116L673.12,751.47Z" style="fill:#c0d8fb"/><path d="M675.6581,919.4407H577.9105a.94.94,0,0,1-.6123-1.6543l48.0425-41.2793-48.0425-41.2793a.94.94,0,0,1,.6123-1.6543h97.7476a.9407.9407,0,0,1,.6128,1.6543l-48.043,41.2793,48.043,41.2793a.9407.9407,0,0,1-.6128,1.6543Zm-95.209-1.8818h92.67l-46.335-39.8115Zm0-82.1035,46.3354,39.8115,46.335-39.8115Z" style="fill:#c0d8fb"/><path d="M675.6581,1003.4271H577.9105a.9412.9412,0,0,1-.6123-1.6553l48.0425-41.2793-48.0425-41.2793a.9406.9406,0,0,1,.6123-1.6543h97.7476a.9408.9408,0,0,1,.6128,1.6543l-48.043,41.2793,48.043,41.2793a.9414.9414,0,0,1-.6128,1.6553Zm-95.209-1.8819h92.67l-46.335-39.8125Zm0-82.1045,46.3354,39.8115,46.335-39.8115Z" style="fill:#c0d8fb"/><path d="M675.6581,1087.4114H577.9105a.94.94,0,0,1-.6123-1.6543l48.0425-41.2783L577.2982,1003.2a.94.94,0,0,1,.6123-1.6543h97.7476a.9407.9407,0,0,1,.6128,1.6543l-48.043,41.2793,48.043,41.2783a.9407.9407,0,0,1-.6128,1.6543Zm-95.209-1.8808h92.67l-46.335-39.8116Zm0-82.1035,46.3354,39.81,46.335-39.81Z" style="fill:#c0d8fb"/><path d="M686.8817,1255.3821H566.5272a.9412.9412,0,0,1-.5742-1.6865l59.2534-45.6-47.87-36.8945a.9406.9406,0,0,1,.5737-1.6856h97.7476a.9411.9411,0,0,1,.5737,1.6865L628.29,1208.097l59.1655,45.6a.9406.9406,0,0,1-.5742,1.6855Zm-117.5893-1.8808H684.12l-57.3721-44.2178Zm11.38-82.1035,46.0767,35.5117,46.1436-35.5117Z" style="fill:#c0d8fb"/><path d="M697.8383,1339.3685H555.1444a.94.94,0,0,1-.5054-1.7334l70.22-44.7676L566.02,1255.2347a.9408.9408,0,0,1,.5073-1.7334H686.8817a.94.94,0,0,1,.5054,1.7334L628.3549,1292.87l69.99,44.7647a.9409.9409,0,0,1-.5068,1.7334ZM558.37,1337.4866H694.6219l-68.0161-43.5019Zm11.3745-82.1045,56.8628,36.37,57.0488-36.37Z" style="fill:#c0d8fb"/><path d="M709.33,1423.3538H543.7606a.9409.9409,0,0,1-.45-1.7666L624.55,1377.304l-69.8555-38.0508a.9407.9407,0,0,1,.45-1.7666H697.8383a.9408.9408,0,0,1,.45,1.7666l-69.8056,38.0508,81.2969,44.2832a.9409.9409,0,0,1-.45,1.7666ZM547.452,1421.472H705.6351l-79.1186-43.0967Zm11.3863-82.1035,67.6772,36.8652,67.6313-36.8652Z" style="fill:#c0d8fb"/><path d="M720.03,1507.3392H533.3793a.94.94,0,0,1-.4048-1.7891l91.46-43.6572-81.0786-38.6309a.9407.9407,0,0,1,.4043-1.79H709.33a.9408.9408,0,0,1,.4047,1.79l-80.9282,38.6289,91.6284,43.6592a.94.94,0,0,1-.4043,1.7891Zm-182.4965-1.8809H715.8685l-89.248-42.5234Zm10.3886-82.1045,78.6973,37.4971,78.5552-37.4971Z" style="fill:#c0d8fb"/><path d="M514.413,919.4407a.938.938,0,0,1-.6333-.2451l-40.7481-37.04,1.2661-1.3916,39.9854,36.3466,62.8769-83.164,1.5015,1.1348-63.4981,83.9863a.9462.9462,0,0,1-.6635.3691C514.4706,919.4388,514.4423,919.4407,514.413,919.4407Z" style="fill:#c0d8fb"/><path d="M753.1468,919.4407a.9408.9408,0,0,1-.6918-.3027l-77.4888-83.9854,1.3833-1.2763,76.8872,83.334,40.8374-33.4073,1.19,1.4561-41.5224,33.9687A.9351.9351,0,0,1,753.1468,919.4407Z" style="fill:#c0d8fb"/><rect x="562.3481" y="1127.523" width="128.8727" height="1.8819" transform="translate(-583.5945 679.83) rotate(-40.6133)" style="fill:#c0d8fb"/><path d="M835.7328,1171.9622l-71.18-52.2246-88.42,51.5322a.941.941,0,0,1-1.0869-.0986l-97.7471-83.9863,1.2251-1.4278,97.2393,83.55,88.3745-51.5058a.9454.9454,0,0,1,1.0307.0547l71.6783,52.5888Z" style="fill:#c0d8fb"/><path d="M456.5306,1171.803l-1.45-1.1982L500.95,1115.098a.9344.9344,0,0,1,.7129-.3418.9049.9049,0,0,1,.7221.3232l47.6421,54.76-1.42,1.2353-46.9136-53.9238Z" style="fill:#c0d8fb"/><path d="M577.9105,667.4842a.9341.9341,0,0,1-.4316-.105l-59.1753-30.5664.8638-1.6719,58.1464,30.0352L593.95,605.159a.941.941,0,0,1,1.4746-.499l80.3706,60.8076,70.335-29.2417.7221,1.7373-70.833,29.4487a.942.942,0,0,1-.9287-.1186l-79.6973-60.2974-16.5752,59.7988a.9409.9409,0,0,1-.9072.6895Z" style="fill:#c0d8fb"/><path d="M578.46,667.3069l-1.0991-1.5268,84.8716-61.1333a.94.94,0,0,1,1.47.5693L676.5785,666.35l-1.8413.3872L662.16,607.0179Z" style="fill:#c0d8fb"/><path d="M662.08,606.0355l-33.9239-38.167-32.5839,38.1528-1.4312-1.2222,32.7524-38.3506-16.7753-18.874a.9408.9408,0,0,1,.7031-1.5659h33.9624a.9411.9411,0,0,1,.7158,1.5518l-16.11,18.8632,34.0967,38.3614ZM612.9149,547.89l15.2119,17.1143L642.7426,547.89Z" style="fill:#c0d8fb"/><path d="M1181.4169,482.5159c-1.7974-7.083-2.82-7.76-2.82-7.76s-70.4819,3.936-77.1093,4.0166-97.0728-24.3521-97.0728-24.3521l-46.4961,49.669s127.2388,12.6279,144.0269,12.0957c27.7422-.88,79.3423-23.3877,79.3423-23.3877A20.2841,20.2841,0,0,0,1181.4169,482.5159Z" style="fill:#77a4e5"/><path d="M1160.6005,896.16s-1.2876,28.4472,4.4243,30.9072,72.0376-2.14,72.0376-2.14-.4634-8.3038-11.99-9.5166-27.4936-8.9454-36.209-21.7491C1176.7025,875.7952,1160.6005,896.16,1160.6005,896.16Z" style="fill:#2c3a64"/><path d="M1051.0223,647.4549s92.6939,79.79,104.6211,105.5371,48.732,141.7964,48.732,141.7964-10.1519,6.1094-30.8428,7.2529a31.003,31.003,0,0,1-15.7363-3.2549s-53.6787-105.2959-58.375-115.45-124.03-49.7407-156.8121-109.728Z" style="fill:#1d3f77"/><rect x="1171.4501" y="173.888" width="54.6382" height="1466.335" style="fill:#adc8fe"/><rect x="837.4989" y="213.7986" width="715.0044" height="36.0484" style="fill:#adc8fe"/><rect x="864.4584" y="133.9778" width="11.7861" height="79.8208" style="fill:#adc8fe"/><ellipse cx="870.7826" cy="150.2655" rx="32.3091" ry="7.3149" style="fill:#adc8fe"/><path d="M838.4735,135.6351c0-4.04,14.4653-7.315,32.3091-7.315s32.3091,3.2749,32.3091,7.315-14.4654,7.3154-32.3091,7.3154S838.4735,139.6751,838.4735,135.6351Z" style="fill:#adc8fe"/><path d="M838.4735,121.0052c0-4.04,14.4653-7.3155,32.3091-7.3155s32.3091,3.2754,32.3091,7.3155-14.4654,7.3149-32.3091,7.3149S838.4735,125.0452,838.4735,121.0052Z" style="fill:#adc8fe"/><ellipse cx="870.7826" cy="106.3748" rx="32.3091" ry="7.3149" style="fill:#adc8fe"/><rect x="850.7509" y="103.0789" width="39.2016" height="49.7813" style="fill:#adc8fe"/><rect x="1188.6776" y="133.9778" width="11.7861" height="79.8208" style="fill:#adc8fe"/><ellipse cx="1195.0013" cy="150.2655" rx="32.3091" ry="7.3149" style="fill:#adc8fe"/><path d="M1162.6923,135.6351c0-4.04,14.4653-7.315,32.309-7.315s32.3091,3.2749,32.3091,7.315-14.4653,7.3154-32.3091,7.3154S1162.6923,139.6751,1162.6923,135.6351Z" style="fill:#adc8fe"/><path d="M1162.6923,121.0052c0-4.04,14.4653-7.3155,32.309-7.3155s32.3091,3.2754,32.3091,7.3155-14.4653,7.3149-32.3091,7.3149S1162.6923,125.0452,1162.6923,121.0052Z" style="fill:#adc8fe"/><ellipse cx="1195.0013" cy="106.3748" rx="32.3091" ry="7.3149" style="fill:#adc8fe"/><rect x="1174.9696" y="103.0789" width="39.2017" height="49.7813" style="fill:#adc8fe"/><rect x="1513.8705" y="133.9778" width="11.7861" height="79.8208" style="fill:#adc8fe"/><path d="M1487.8851,150.2654c0-4.04,14.4658-7.3149,32.31-7.3149s32.3086,3.2749,32.3086,7.3149-14.4649,7.315-32.3086,7.315S1487.8851,154.3055,1487.8851,150.2654Z" style="fill:#adc8fe"/><path d="M1487.8851,135.6351c0-4.04,14.4658-7.315,32.31-7.315s32.3086,3.2749,32.3086,7.315-14.4649,7.3154-32.3086,7.3154S1487.8851,139.6751,1487.8851,135.6351Z" style="fill:#adc8fe"/><path d="M1487.8851,121.0052c0-4.04,14.4658-7.3155,32.31-7.3155s32.3086,3.2754,32.3086,7.3155-14.4649,7.3149-32.3086,7.3149S1487.8851,125.0452,1487.8851,121.0052Z" style="fill:#adc8fe"/><path d="M1487.8851,106.3748c0-4.04,14.4658-7.3149,32.31-7.3149s32.3086,3.2749,32.3086,7.3149-14.4649,7.3149-32.3086,7.3149S1487.8851,110.4148,1487.8851,106.3748Z" style="fill:#adc8fe"/><rect x="1500.1625" y="103.0789" width="39.2021" height="49.7813" style="fill:#adc8fe"/><polygon points="1198.801 410.773 996.238 241.725 1003.707 232.843 1198.738 395.606 1396.921 227.413 1404.464 236.233 1198.801 410.773" style="fill:#adc8fe"/><rect x="1126.1102" y="326.5184" width="146.1377" height="179.0171" style="fill:#2a4e96"/><path d="M1059.0424,630.2a5.5622,5.5622,0,0,0-1.6353-.4351l-3.7822-.4106a5.9081,5.9081,0,0,0-5.1553,2.0645l-5.6675,6.7148,7.89,11.0049,9.1-5.7822a5.4351,5.4351,0,0,0,2.4966-4.0044,3.602,3.602,0,0,0,.05-.6338v-3.482A5.4751,5.4751,0,0,0,1059.0424,630.2Zm-.5992,11.0547-7.09,4.5142-5.3926-7.5108,4.419-5.248a3.4251,3.4251,0,0,1,2.9712-1.1812l3.7944.41a3.0108,3.0108,0,0,1,2.6963,2.997v3.482a2.741,2.741,0,0,1-.2744,1.2309A2.848,2.848,0,0,1,1058.4432,641.2547Z" style="fill:#1d3f77"/><path d="M1226.0853,576.4432V589.699s-139.1943,43.5352-163.7973,49.6529c-1.1734.2861-2.085.4975-2.709.6093l-.0122-.0122a2.741,2.741,0,0,0,.2744-1.2309v-3.482a3.0108,3.0108,0,0,0-2.6963-2.997l-3.7944-.41s2.0468-.5845,5.6919-1.6289C1085.3685,622.6146,1195.3529,590.6439,1226.0853,576.4432Z" style="fill:#f99746"/><path d="M1118.93,918.5814s-5.9917,27.8427-.7671,31.21,71.4013,9.7559,71.4013,9.7559.9214-8.2666-10.2451-11.36-25.63-13.3515-32.1-27.414C1138.19,901.1487,1118.93,918.5814,1118.93,918.5814Z" style="fill:#2c3a64"/><path d="M961.3168,435.0247s31.4912,35.4053,55.2138,30.9434c0,0-6.4858-7.5581-13.7129-14.32-2.1582-2.0191-1.5112-6.7818-.7314-9.627q.6592-2.4009,1.1978-4.5352a140.843,140.843,0,0,0,3.0253-14.6547l-15.9843-16.3062-10.8457-11.0635c-.4629,5.35-1.0181,10.33-2.7906,14.5118C969.9447,425.889,961.3168,435.0247,961.3168,435.0247Z" style="fill:#ffb27d"/><path d="M976.6888,409.973s5.9712,20.4648,26.5953,27.5126a140.843,140.843,0,0,0,3.0253-14.6547l-15.9843-16.3062C981.4506,407.6053,976.6888,409.973,976.6888,409.973Z" style="fill:#ed975d"/><path d="M1013.3685,423.1189s-38.5185,1.754-39.2456-22.1586-6.1885-39.7915,18.374-41.9224,29.62,6.85,31.8116,14.7725S1023.37,422.0462,1013.3685,423.1189Z" style="fill:#ffb27d"/><path d="M1042.1361,558.0423c-.145-2.3687-.2583-4.7686-.3452-7.2149a216.75,216.75,0,0,0-4.3545-36.5507,165.8049,165.8049,0,0,0-7.2041-25.232,80.2048,80.2048,0,0,0-15.6436-26.166c-.0493-.0552-10.3642-10.5713-10.4165-10.603-24.8134,2.5723-42.8554-17.251-42.8554-17.251s-59.3116,51.2363-43.8409,161.46c0,0,1.4893,7.9653,4.108,19.4355.5732,2.4873,1.1972,5.1421,1.8725,7.9224C928.02,642.719,1044.0253,589.6268,1042.1361,558.0423Z" style="fill:#afcdfb"/><path d="M952.6625,365.4236c-.4317-.351-1.315-.54-3.167-.3159a7.4847,7.4847,0,0,1,3.2519-1.583c-.0771-2.6479.4654-7.4551,4.6563-9.3418a5.6373,5.6373,0,0,0-1.9507,4.4873c4.1416-6.1826,14.3486-11.9555,44.9424-14.8867,40.3193-3.8633,31.8115,24.207,27.2124,28.1875s-19.0547-2.1416-28.5059.3262-8.7744,16.8081-11.6841,19.3076-2.2373-1.1284-6.9975-2.3618-3.8623,6.2187-1.7354,10.791-2.7915,11.9707-2.7915,11.9707l-7.2988-5.5767c-7.2988-5.5766-18.09-32.76-16.3838-39.2636C952.3617,366.59,952.5082,366.0091,952.6625,365.4236Z" style="fill:#2b478b"/><path d="M939.5834,531.1722s16.644,55.9936,35.5009,65.07,17.7623-38.87,17.7623-38.87Z" style="fill:#77a4e5"/><path d="M1064.0438,666.5306c-29.9033-13.2617-20.0185-76.9038-21.9077-108.4883-.145-2.3687-.2583-4.7686-.3452-7.2149a216.75,216.75,0,0,0-4.3545-36.5507,165.8049,165.8049,0,0,0-7.2041-25.232l-41.3418,6.7168a15.8977,15.8977,0,0,0-13.3662,16.2617c.75,20.56-1.1245,58.7081-22.8677,78.169-15.6621,14.02-25.3442,21.6357-31.0727,25.7275.5732,2.4873,1.1972,5.1421,1.8725,7.9224,4.5635,18.8769,9.65,42.895,20.5015,56.6392C952.3256,691.0794,1067.2333,667.9451,1064.0438,666.5306Z" style="fill:#2a4e96"/><path d="M957.2572,439.0491s11.4077,4.2739,26.3247,23.9561a112.8867,112.8867,0,0,1,17.3418,32.7373l-6.8574,1.5229s-10.17-34.9516-40.9478-53.5171C953.1185,443.7483,953.1976,443.074,957.2572,439.0491Z" style="fill:#2a4e96"/><path d="M1136.9432,467.8387s7.1241-16.2119,9.0205-18.4273,11.938-9.86,12.6822-9.4785,1.0268,3.3247-.7783,5.0381c-1.2769,1.2114-2.775,2.3179-1.9913,2.44s4.3409-5.49,7.1519-3.6445,9.4556,10.0459,5.19,16.4844-20.5317,13.2827-21.3989,14.2588C1139.4667,482.7855,1136.9432,467.8387,1136.9432,467.8387Z" style="fill:#ffb27d"/><path d="M1136.9432,467.8387s-74.3779,65.7431-81.4126,66.519c-11.2285,1.2393-73.937-55.8047-73.937-55.8047s-8.3071-14.23-26.6953-7.2475c-15.9785,6.0669-22.9453,25.2466-22.9453,25.2466s-5.4063,18.9091,3.979,30.2031c20.8022,25.0351,100.2246,50.2153,123.9092,47.1968,30.5483-3.8931,87.1421-87.0455,87.1421-87.0455s3.4267-7.4487-.1636-12.3969C1143.6537,470.1453,1136.9432,467.8387,1136.9432,467.8387Z" style="fill:#afcdfb"/><path d="M1154.9716,921.7151s-11.022,4.3526-31.6187,2.0772a30.9837,30.9837,0,0,1-14.979-5.8076s-3.2085-10.1963-7.7769-24.7461q-1.0488-3.3765-2.2094-7.0254c-.9986-3.1836-2.0347-6.5166-3.1079-9.9356q-1.0863-3.47-2.1973-7.038c-9.9985-31.9209-21.4951-68.7789-23.1177-74.7227-2.9458-10.7939-114.0664-69.4873-136.435-134.05l110.8457-22.2715s78.5908,108.2969,86.08,135.6543c3.9947,14.5986,10.71,55.7461,16.1026,90.9248q.5435,3.4878,1.0488,6.877c.5244,3.4443,1.0234,6.8017,1.5225,10.0351q.5244,3.5435,1.0239,6.8643C1153.0243,907.9,1154.9716,921.7151,1154.9716,921.7151Z" style="fill:#2a4e96"/><path d="M1044.3763,638.2s-42.6552,33.582-104.7929,39.3814c0,0,5.3383,14.0322,16.5371,20.6928,0,0,66.6767-10.062,94.9018-50.8188Z" style="fill:#f99746"/><path d="M1189.5638,962.6565a2.98,2.98,0,0,1-.4062-.0273l-89.5117-11.7148a3.1088,3.1088,0,1,1,.813-6.1641l88.8159,11.624,35.8574-11.501a3.11,3.11,0,1,1,1.9126,5.919L1190.52,962.5071A3.1273,3.1273,0,0,1,1189.5638,962.6565Z" style="fill:#19243f"/><path d="M1147.6068,871.6517c-14.38,4.1035-28.9473,5.0361-39.7324,5.0361-5.2427,0-9.5991-.2236-12.5947-.41q-1.0863-3.47-2.1973-7.038c.2622.0244.562.0371.9111.0615,7.7022.498,30.62,1.9648,52.5645-4.5264Q1147.1015,868.2625,1147.6068,871.6517Z" style="fill:#fff"/><path d="M1150.1532,888.5511c-14.2554,4.0283-28.6851,4.9492-39.3828,4.9492-3.9693,0-7.4146-.125-10.1734-.2617q-1.0488-3.3765-2.2094-7.0254c8.8379.5342,30.1831,1.4795,50.7417-4.5264Q1149.6537,885.23,1150.1532,888.5511Z" style="fill:#fff"/><rect x="1159.6727" y="326.5184" width="112.5752" height="179.0171" style="fill:#233862"/><rect x="2118.0414" y="799.3265" width="31.4326" height="846.7929" style="fill:#d8e6fb"/><rect x="1925.9232" y="822.3748" width="411.333" height="20.8169" style="fill:#d8e6fb"/><rect x="1941.433" y="776.2786" width="6.7803" height="46.0962" style="fill:#d8e6fb"/><ellipse cx="1945.0707" cy="785.6849" rx="18.5869" ry="4.2246" style="fill:#d8e6fb"/><path d="M1926.4838,777.2361c0-2.333,8.3213-4.2246,18.5869-4.2246s18.5869,1.8916,18.5869,4.2246-8.3213,4.2242-18.5869,4.2242S1926.4838,779.5691,1926.4838,777.2361Z" style="fill:#d8e6fb"/><path d="M1926.4838,768.7874c0-2.333,8.3213-4.2246,18.5869-4.2246s18.5869,1.8916,18.5869,4.2246-8.3213,4.2241-18.5869,4.2241S1926.4838,771.12,1926.4838,768.7874Z" style="fill:#d8e6fb"/><path d="M1926.4838,760.3387c0-2.333,8.3213-4.2246,18.5869-4.2246s18.5869,1.8916,18.5869,4.2246-8.3213,4.2241-18.5869,4.2241S1926.4838,762.6717,1926.4838,760.3387Z" style="fill:#d8e6fb"/><rect x="1933.5472" y="758.4354" width="22.5518" height="28.7475" style="fill:#d8e6fb"/><rect x="2127.9515" y="776.2786" width="6.7813" height="46.0962" style="fill:#d8e6fb"/><path d="M2113.0023,785.6849c0-2.333,8.3223-4.2246,18.5879-4.2246s18.5869,1.8916,18.5869,4.2246-8.3213,4.2246-18.5869,4.2246S2113.0023,788.0179,2113.0023,785.6849Z" style="fill:#d8e6fb"/><path d="M2113.0023,777.2361c0-2.333,8.3223-4.2246,18.5879-4.2246s18.5869,1.8916,18.5869,4.2246-8.3213,4.2242-18.5869,4.2242S2113.0023,779.5691,2113.0023,777.2361Z" style="fill:#d8e6fb"/><path d="M2113.0023,768.7874c0-2.333,8.3223-4.2246,18.5879-4.2246s18.5869,1.8916,18.5869,4.2246-8.3213,4.2241-18.5869,4.2241S2113.0023,771.12,2113.0023,768.7874Z" style="fill:#d8e6fb"/><path d="M2113.0023,760.3387c0-2.333,8.3223-4.2246,18.5879-4.2246s18.5869,1.8916,18.5869,4.2246-8.3213,4.2241-18.5869,4.2241S2113.0023,762.6717,2113.0023,760.3387Z" style="fill:#d8e6fb"/><rect x="2120.0658" y="758.4354" width="22.5527" height="28.7475" style="fill:#d8e6fb"/><rect x="2315.0316" y="776.2786" width="6.7803" height="46.0962" style="fill:#d8e6fb"/><path d="M2300.0824,785.6849c0-2.333,8.3223-4.2246,18.5879-4.2246s18.5859,1.8916,18.5859,4.2246-8.3213,4.2246-18.5859,4.2246S2300.0824,788.0179,2300.0824,785.6849Z" style="fill:#d8e6fb"/><path d="M2300.0824,777.2361c0-2.333,8.3223-4.2246,18.5879-4.2246s18.5859,1.8916,18.5859,4.2246-8.3213,4.2242-18.5859,4.2242S2300.0824,779.5691,2300.0824,777.2361Z" style="fill:#d8e6fb"/><path d="M2300.0824,768.7874c0-2.333,8.3223-4.2246,18.5879-4.2246s18.5859,1.8916,18.5859,4.2246-8.3213,4.2241-18.5859,4.2241S2300.0824,771.12,2300.0824,768.7874Z" style="fill:#d8e6fb"/><path d="M2300.0824,760.3387c0-2.333,8.3223-4.2246,18.5879-4.2246s18.5859,1.8916,18.5859,4.2246-8.3213,4.2241-18.5859,4.2241S2300.0824,762.6717,2300.0824,760.3387Z" style="fill:#d8e6fb"/><rect x="2307.1459" y="758.4354" width="22.5517" height="28.7475" style="fill:#d8e6fb"/><polygon points="2133.776 936.125 2017.244 838.502 2021.54 833.372 2133.74 927.367 2247.752 830.237 2252.091 835.33 2133.776 936.125" style="fill:#d8e6fb"/><rect x="1032.6058" y="1045.0335" width="245.5772" height="593.5742" style="fill:#adc8fe"/><rect x="1184.788" y="1045.0335" width="93.395" height="593.5742" style="fill:#8cb4f4"/><rect x="1111.9755" y="1065.5306" width="49.7192" height="88.2539" style="fill:#4786d1"/><rect x="1099.391" y="1065.5306" width="49.7192" height="88.2539" style="fill:#699ae2"/><path d="M1049.1693,1265.9564l-.3076-1.21c.1562-.041,15.6528-4.3067,18.0737-29.74,2.01-21.11,5.4385-32.1416,11.4649-36.8868a12.46,12.46,0,0,1,9.8413-2.3867c4.8047.6865,9.0727,5.0469,14.0141,10.0947,8.8667,9.0577,19.9,20.3311,39.41,15.0538,29.9282-8.0977,42.416-40.17,42.5386-40.4932l1.167.4434c-.125.3291-12.8433,32.9931-43.3794,41.2548-20.2134,5.4668-31.5337-6.0937-40.6285-15.3847-4.7827-4.8868-8.9135-9.1055-13.2988-9.7325a11.1011,11.1011,0,0,0-8.8921,2.1319c-5.6557,4.4531-9.0464,15.5635-10.9941,36.0244-1.3076,13.7334-6.3711,21.3711-10.3882,25.3613A20.7924,20.7924,0,0,1,1049.1693,1265.9564Z" style="fill:#ebf3fa"/><polygon points="1184.788 1284.708 1111.351 1284.708 1111.351 1153.785 1112.6 1153.785 1112.6 1283.46 1184.788 1283.46 1184.788 1284.708" style="fill:#ebf3fa"/><polygon points="1184.788 1270.491 1123.626 1270.491 1123.626 1153.785 1124.875 1153.785 1124.875 1269.243 1184.788 1269.243 1184.788 1270.491" style="fill:#ebf3fa"/><polygon points="1184.788 1254.111 1140.58 1254.111 1140.58 1153.785 1141.829 1153.785 1141.829 1252.863 1184.788 1252.863 1184.788 1254.111" style="fill:#ebf3fa"/><polygon points="1184.788 1492.022 1075.67 1492.022 1075.67 1357.768 1184.788 1357.768 1184.788 1359.016 1076.919 1359.016 1076.919 1490.774 1184.788 1490.774 1184.788 1492.022" style="fill:#ebf3fa"/><polygon points="1184.788 1477.035 1092.893 1477.035 1092.893 1369.008 1184.788 1369.008 1184.788 1370.256 1094.142 1370.256 1094.142 1475.786 1184.788 1475.786 1184.788 1477.035" style="fill:#ebf3fa"/><polygon points="1184.788 1457.273 1111.351 1457.273 1111.351 1385.868 1184.788 1385.868 1184.788 1387.116 1112.6 1387.116 1112.6 1456.025 1184.788 1456.025 1184.788 1457.273" style="fill:#ebf3fa"/><rect x="1065.6967" y="1531.7776" width="119.0913" height="73.7813" style="fill:#699ae2"/><polygon points="1083.785 1531.778 1082.536 1531.778 1082.536 1508.257 1184.788 1508.257 1184.788 1509.505 1083.785 1509.505 1083.785 1531.778" style="fill:#699ae2"/><polygon points="1110.622 1531.778 1109.373 1531.778 1109.373 1519.705 1184.788 1519.705 1184.788 1520.953 1110.622 1520.953 1110.622 1531.778" style="fill:#699ae2"/><path d="M1130.1263,1073.4144a1.95,1.95,0,1,1-1.95-1.9512A1.9511,1.9511,0,0,1,1130.1263,1073.4144Z" style="fill:#adc8fe"/><path d="M1137.3817,1073.4144a1.95,1.95,0,1,1-1.95-1.9512A1.9511,1.9511,0,0,1,1137.3817,1073.4144Z" style="fill:#f99746"/><path d="M1143.9349,1073.4144a1.95,1.95,0,1,1-1.95-1.9512A1.9511,1.9511,0,0,1,1143.9349,1073.4144Z" style="fill:#fff"/><rect x="1107.5013" y="1078.0198" width="38.3843" height="21.0196" style="fill:#4786d1"/><path d="M1084.9432,1100.9866s6.6822-13.8857,12.105-18.1963,19.8985-3.26,20.4541-2.1562c1.72,3.414-11.6167,8.7344-13.1548,11.8681s4.8531,2.8184-.0551,8.2647c-4.1456,4.6006-14.0665,8.9863-14.0665,8.9863Z" style="fill:#ffb27d"/><path d="M1090.7181,1099.4017c-3.5136-5.4707-4.5644-5.7539-4.5644-5.7539s-58.1113,23.19-63.6572,25.1259-88.4561,6.8135-88.4561,6.8135L909.0189,1180.61s110.4873-25.21,124.4434-30.3926c23.0625-8.5625,60.0556-42.1025,60.0556-42.1025A18.1263,18.1263,0,0,0,1090.7181,1099.4017Z" style="fill:#e58638"/><path d="M946.3524,1613.8733s1.2656,20.4082,5.0537,25.2081h58.29c-.3687-2.0352-2.0186-7.06-9.3067-8.3331-9.21-1.6025-24.6274-8.0771-30.2016-20.2568C964.3168,1597.679,946.3524,1613.8733,946.3524,1613.8733Z" style="fill:#163560"/><path d="M842.74,1605.4827s-3.67,30.9512,1.3189,31.41c.664.0605,24.0117.0185,30.36.9687,10.3662,1.5528,27.6577.1983,27.6577.1983a2.7406,2.7406,0,0,0,2.482-4.1231c-1.21-2.0478-3.5176-4.2353-7.919-5.083-9.1792-1.7676-24.477-8.5127-29.84-20.7871C861.1566,1595.1546,842.74,1605.4827,842.74,1605.4827Z" style="fill:#163560"/><path d="M973.7577,1342.27s-14.6548,51.3037-56.6587,140.4043c-13.7559,29.1846-22.9556,52.8018-29.1094,71.3887q-1.1982,3.5947-2.2344,6.9268-1.6852,5.3745-3.0083,10.0869-1.0115,3.6137-1.8471,6.8525c-5.5054,21.4453-5.3931,31.1943-5.3931,31.1943a51.339,51.339,0,0,1-20.9331,2.459c-5.8047-.5869-18.5371-6.0293-18.5371-6.0293s1.3735-14.3672,4.1445-34.6767q.468-3.3516.9737-6.9024c.4492-3.1709.936-6.4541,1.4482-9.8115.3491-2.26.7114-4.5566,1.0859-6.8662,4.88-30.2578,12.1206-65.3838,21.7823-87.291,19.8471-44.9619,23.8916-168.0156,23.8916-168.0156Z" style="fill:#233862"/><path d="M997.2,1316.0931a1331.2863,1331.2863,0,0,1-12.4825,159.0293c-4.7436,33.69-7.3022,60.69-8.6127,81.5986q-.2256,3.6885-.4,7.1152c-.2,3.6827-.35,7.1524-.4742,10.3985-.0874,2.459-.1621,4.7929-.2124,7.0146-.5493,22.5059.6118,32.8418.6118,32.8418a16.5166,16.5166,0,0,1-2.5712,1.1611h-.0127c-2.9585,1.1114-8.5132,2.6084-16.8765,2.6084a40.2709,40.2709,0,0,1-9.5869-1.1357,28.7969,28.7969,0,0,1-7.1026-2.6084s-2.2094-12.9951-4.7182-31.8437c-.3125-2.2588-.6118-4.5928-.9238-7.0147-.4122-3.1953-.8116-6.5166-1.2232-9.9492-.2622-2.2959-.5366-4.6182-.7993-6.99-3.32-29.9454-5.8916-65.5206-3.12-89.55a116.0282,116.0282,0,0,0,.6611-12.7081v-.0127c.0249-21.6318-4.3935-50.7666-9.6987-77.9287,0,0-.0127-.0752-.05-.2246-5.4678-27.9482-11.8589-53.7627-15.3164-67.1318-1.56-6.0537-2.5215-9.5488-2.5215-9.5488l2.9087-.1h.0122l22.9682-.7374,62.65-2.0341,3.857-.125,3.1206-.1S997.3871,1304.5843,997.2,1316.0931Z" style="fill:#2a4e96"/><path d="M932.3563,1112.1849l15.5215,11.5019,22.4316-4.7246c-.31-2.0469-1.7915-10.5293-3.14-18.2119-.0815-.4531-.1631-.9063-.2393-1.35-1.1552-6.5371-2.1528-12.1533-2.1528-12.1533L943.8265,1076.8l-7.811-3.8945c.02.1367.6055,7.2549.687,8.2939C938.1678,1099.6507,932.3563,1112.1849,932.3563,1112.1849Z" style="fill:#ffb27d"/><path d="M968.74,1106.3821c-.4917-.207-30.5146-9.0713-33.7759-7.9931s-5.1923,7.3906-5.1923,7.3906l46.3515,13.21S975.0131,1109.0247,968.74,1106.3821Z" style="fill:#e58638"/><path d="M887.8973,1307.9241c5.0806,23.2246,111.18-49.6523,109.7671-63.8252-.1557-1.5566-.3115-3.125-.4668-4.6816-1.957-19.7363-3.8364-39.0449-3.9658-51.6494a177.8169,177.8169,0,0,0-3.6162-32.2627c-1.8408-9.375-4.1089-17.8819-6.0791-24.5078a27.067,27.067,0,0,0-15.877-17.4024,23.2446,23.2446,0,0,0-2.6313-.9209c-12.78-3.709-30.4585-8.2988-35.2539-6.8984-12.9868,3.8252-22.63,26.6865-29.4605,55.8369C887.5341,1216.18,884.579,1292.7913,887.8973,1307.9241Z" style="fill:#f99746"/><path d="M938.2748,1081.5247c4.6006,8.8086,21.7451,16.4248,28.895,19.2256-.0815-.4531-.1631-.9063-.2393-1.35-1.1552-6.5371-2.1528-12.1533-2.1528-12.1533L943.8265,1076.8C939.1957,1076.7288,936.3768,1077.9,938.2748,1081.5247Z" style="fill:#fca56b"/><path d="M974.9593,1086.0208s-37.7983,11.7969-44.7788-11.8672-16.56-38.0771,7.2779-46.6094,31.2119-.8935,35.4619,6.4375S984.6117,1082.3421,974.9593,1086.0208Z" style="fill:#ffb27d"/><path d="M971.4359,1031.7024s-2.4106,27.5362-8.1025,26.3409-10.854-2.0821-10.02,6.2187,1.1005,18.28-16.441,19.749-35.1333-44.1875-30.3139-52.7568C920.4618,1006.5286,991.5321,1001.5384,971.4359,1031.7024Z" style="fill:#163560"/><path d="M994.4628,1298.1155c-10.5083,3.8.1816-10.4463,0-13.416-.8164-13.0586,4.3032-29.5654,2.7348-45.2822l-64.1738-38.3789S917.7982,1297.5062,994.4628,1298.1155Z" style="fill:#e58638"/><path d="M887.8973,1307.9241c27.3951,50.7979,31.7583,70.1953,31.7583,70.1953,23.8433-2.7187,64.7-49.6172,77.66-62.1357,0,0,1.7617-57.7119.3491-71.8848l-19.8047-.5713s-35.7983,9.0772-45.0786-3.2412-5.2622-72.7861-5.2622-72.7861l-27.2051-5.8877C887.5341,1216.18,880.5438,1294.2894,887.8973,1307.9241Z" style="fill:#2a4e96"/><path d="M1050.4506,1210.5814s13.0405-8.8262,15.5141-9.5958,10.583-1.6025,10.9595-.9628,1.4868,2.5957.07,3.2587-3.1806.4307-2.6514.8936,5.8609-2.0762,7.09.6436,2.3115,12.038-3.9434,14.8632-21.6948.2725-22.8081.5957C1045.24,1223.0237,1050.4506,1210.5814,1050.4506,1210.5814Z" style="fill:#ffb27d"/><path d="M1050.5712,1208.1946s-63.6475,10.8262-69.2871,8.0782c-9.002-4.3848,3.4931-68.9922,3.4931-68.9922s.5366-14.6426-16.5586-18.0967c-14.855-3.001-29.188,8.1328-29.188,8.1328s-13.0351,11.6689-11.37,24.6123c3.6919,28.69,9.4341,87.044,28.6148,95.9883,24.7382,11.5371,96.3242-31.9912,96.3242-31.9912s2.3838-2.9209,2.0449-8.3447C1054.3461,1212.7981,1050.5712,1208.1946,1050.5712,1208.1946Z" style="fill:#f99746"/><path d="M922.244,1166.3587l5.2749,1.1416s11.1465-48.2773,48.604-48.5107a26.77,26.77,0,0,0-8.4634-5.3946C953.9335,1117.2776,930.0985,1129.013,922.244,1166.3587Z" style="fill:#2a4e96"/><path d="M1105.6019,1099.0394l6.3736-8.2188s-1.5874-2.0293-4.8374.3906c-1.8926,1.4082-6.97,4.6827-6.97,4.6827Z" style="fill:#ffb27d"/><g style="opacity:0.5"><path d="M887.99,1554.0628q-1.1982,3.5947-2.2344,6.9268a150.3949,150.3949,0,0,1-37.2983-5.1924c-2.1221-.5489-4.0942-1.11-5.854-1.6348.3491-2.26.7114-4.5566,1.0859-6.8662C853.6874,1550.305,870.4764,1554.4622,887.99,1554.0628Z" style="fill:#fff"/></g><g style="opacity:0.5"><path d="M882.7469,1571.0765q-1.0115,3.6137-1.8471,6.8525a154.4038,154.4038,0,0,1-33.8906-5.13c-2.5215-.6621-4.8057-1.3232-6.8282-1.9228q.468-3.3516.9737-6.9024C850.3168,1566.77,865.995,1570.8636,882.7469,1571.0765Z" style="fill:#fff"/></g><path d="M976.1049,1556.721q-.2256,3.6885-.4,7.1152a152.2853,152.2853,0,0,1-35.251,2.0342c-2.9209-.1494-5.5547-.3486-7.8389-.5615-.2622-2.2959-.5366-4.6182-.7993-6.99C941.3529,1559.2552,958.6415,1560.2913,976.1049,1556.721Z" style="fill:#fff"/><path d="M975.2308,1574.2347c-.0874,2.459-.1621,4.7929-.2124,7.0146a155.0526,155.0526,0,0,1-32.5171,1.5606c-2.8837-.1494-5.48-.3369-7.7392-.5371-.3125-2.2588-.6118-4.5928-.9238-7.0147C942.8383,1576.1321,958.766,1577.1175,975.2308,1574.2347Z" style="fill:#fff"/><polygon points="1659.738 1630.052 1702.444 1629.52 1802.183 1213.915 1759.476 1214.448 1659.738 1630.052" style="fill:#8cb4f4"/><path d="M1589.1849,1639.3011h191.5127a20.2886,20.2886,0,0,0-20.2881-20.2891H1609.473a20.2886,20.2886,0,0,0-20.2881,20.2891Z" style="fill:#8cb4f4"/><polygon points="2031.586 1446.875 2013.191 1354.653 2013.191 1354.653 2013.152 1354.458 1951.938 1047.558 1356.945 1047.644 1436.593 1446.961 1549.61 1446.945 1549.61 1446.945 1550.672 1446.945 1677.153 1446.926 1677.538 1446.926 1677.538 1446.926 1803.466 1446.908 1804.33 1446.908 1804.33 1446.908 1929.983 1446.89 1929.983 1446.89 1931.121 1446.89 1931.121 1446.89 2031.586 1446.875" style="fill:#1d3f77"/><polygon points="2041.777 1438.981 1446.784 1439.065 1367.135 1047.643 1962.128 1047.558 2041.777 1438.981" style="fill:#2a4e96"/><polygon points="1560.939 1439.049 1559.8 1439.049 1480.366 1048.679 1481.504 1048.679 1560.939 1439.049" style="fill:#c0d8fb"/><polygon points="1687.73 1439.031 1686.591 1439.031 1607.157 1048.661 1608.295 1048.661 1687.73 1439.031" style="fill:#c0d8fb"/><polygon points="1814.521 1439.013 1813.382 1439.013 1733.948 1048.643 1735.086 1048.643 1814.521 1439.013" style="fill:#c0d8fb"/><polygon points="1941.312 1438.995 1940.173 1438.995 1860.739 1048.625 1861.877 1048.625 1941.312 1438.995" style="fill:#c0d8fb"/><polygon points="1981.031 1140.452 1386.038 1140.536 1385.821 1139.467 1980.813 1139.382 1981.031 1140.452" style="fill:#c0d8fb"/><polygon points="2002.206 1244.517 1407.213 1244.602 1406.997 1243.533 2001.989 1243.449 2002.206 1244.517" style="fill:#c0d8fb"/><polygon points="2023.382 1348.581 1428.389 1348.666 1428.171 1347.597 2023.164 1347.512 2023.382 1348.581" style="fill:#c0d8fb"/><polygon points="1501.856 1151.492 1487.266 1139.988 1497.173 1128.479 1511.763 1139.984 1501.856 1151.492" style="fill:#c0d8fb"/><polygon points="1523.141 1256.092 1508.551 1244.587 1518.457 1233.079 1533.047 1244.583 1523.141 1256.092" style="fill:#c0d8fb"/><polygon points="1629.216 1151.474 1614.626 1139.969 1624.534 1128.461 1639.123 1139.966 1629.216 1151.474" style="fill:#c0d8fb"/><polygon points="1650.5 1256.074 1635.911 1244.57 1645.818 1233.062 1660.408 1244.566 1650.5 1256.074" style="fill:#c0d8fb"/><polygon points="1756.007 1151.455 1741.417 1139.952 1751.325 1128.444 1765.914 1139.948 1756.007 1151.455" style="fill:#c0d8fb"/><polygon points="1881.66 1151.438 1867.071 1139.933 1876.977 1128.425 1891.567 1139.93 1881.66 1151.438" style="fill:#c0d8fb"/><polygon points="1544.207 1359.621 1529.618 1348.117 1539.525 1336.609 1554.115 1348.114 1544.207 1359.621" style="fill:#c0d8fb"/><polygon points="1671.568 1359.603 1656.978 1348.099 1666.885 1336.591 1681.474 1348.095 1671.568 1359.603" style="fill:#c0d8fb"/><polygon points="1798.358 1359.585 1783.769 1348.081 1793.676 1336.574 1808.266 1348.077 1798.358 1359.585" style="fill:#c0d8fb"/><polygon points="1924.011 1359.568 1909.421 1348.063 1919.329 1336.555 1933.918 1348.06 1924.011 1359.568" style="fill:#c0d8fb"/><polygon points="1902.944 1256.038 1888.355 1244.534 1898.262 1233.026 1912.852 1244.53 1902.944 1256.038" style="fill:#c0d8fb"/><polygon points="1777.291 1256.056 1762.702 1244.551 1772.609 1233.043 1787.199 1244.548 1777.291 1256.056" style="fill:#c0d8fb"/><rect x="1840.7052" y="1161.999" width="7.2506" height="38.4303" transform="translate(-232.1218 484.6743) rotate(-14.0939)" style="fill:#adc8fe"/><path d="M1842.1107,1149.598a.3308.3308,0,0,1,.0049.0332c.35,2.8789-.4824,5.9716-3.1982,6.9873-3.6338,1.3593-6.0928-1.003-7.0108-4.6563-.0039-.0176-.2344-.9336-.2383-.9512-.31-1.2783-3.2705-.2324-3.7,1.0108a10.4526,10.4526,0,1,0,17.74-3.501C1844.6761,1147.348,1841.9,1148.05,1842.1107,1149.598Z" style="fill:#adc8fe"/><path d="M1845.6781,1213.59l-.0039-.0332c-.35-2.8779.4824-5.9716,3.1982-6.9873,3.6338-1.3593,6.0928,1.003,7.01,4.6563.0049.0176.2344.9336.2393.9512.31,1.2783,3.2705.2324,3.7-1.0108a10.4526,10.4526,0,1,0-17.74,3.501C1843.1136,1215.84,1845.89,1215.138,1845.6781,1213.59Z" style="fill:#adc8fe"/><path d="M1828.9418,1068.15s-7.1211-14.791-12.9-19.3818-21.2051-3.4717-21.7979-2.2969c-1.833,3.6367,12.38,9.3037,14.02,12.6416s-5.1719,3.002.0586,8.8037c4.4179,4.9,14.99,9.5713,14.99,9.5713Z" style="fill:#ffb27d"/><path d="M1822.7875,1066.4622c3.7451-5.8271,4.8642-6.13,4.8642-6.13s61.9307,24.7022,67.8409,26.7647,94.2685,7.2568,94.2685,7.2568l26.665,58.61s-117.748-26.8545-132.62-32.3741c-24.5781-9.1211-64.0019-44.8466-64.0019-44.8466A19.3053,19.3053,0,0,1,1822.7875,1066.4622Z" style="fill:#77a4e5"/><path d="M1813.52,1063.8528a5.6314,5.6314,0,0,0-.7373-6.7519c-2.22-2.6309-2.7149,2.375-6.502,1.1221-3.1474-1.042-11.6005-2.2989-6.1347,2.1093,5.0293,4.0567,10.0019,9.5059,11.86,10.7754S1813.52,1063.8528,1813.52,1063.8528Z" style="fill:#ffb27d"/><path d="M1976.64,1614.471s-1.3486,21.7393-5.3857,26.8516h-62.12c.3925-2.168,2.1513-7.52,9.9179-8.876,9.8155-1.707,26.2461-8.6035,32.1865-21.5772C1957.4945,1597.221,1976.64,1614.471,1976.64,1614.471Z" style="fill:#163560"/><path d="M2086.8763,1611.44s4.0967,27.0635-1.2216,27.5518c-.7071.0645-25.59.0195-32.3545,1.0322-11.0479,1.6534-29.4756.211-29.4756.211a2.9191,2.9191,0,0,1-2.6445-4.3916c1.289-2.1817,3.749-4.5117,8.4394-5.4141,9.7822-1.8828,26.085-9.0684,31.8008-22.1426C2067.434,1594.5325,2086.8763,1611.44,2086.8763,1611.44Z" style="fill:#163560"/><path d="M2086.8734,1611.4378a59.7274,59.7274,0,0,1-14.8721,2.97,44.7907,44.7907,0,0,1-13.6416-.8691,21.9364,21.9364,0,0,1-2.3183-.6524s-1.0508-13.207-9.5615-41.0576q-.96-3.1509-2.0635-6.5791-1.4327-4.4736-3.1153-9.3808c-.7363-2.1368-1.497-4.334-2.3056-6.5909-7.0742-19.8955-17.083-44.6552-31.1826-74.5459q-6.99-14.8491-13.0625-28.3457c-34.792-77.3711-47.3233-121.23-47.3233-121.23l1.5215-.9053,61.7129-36.7471,10.37-6.17h.0117l16.334-9.7295s.2295,6.9776.8457,18.3018c0,.1562.0117.3134.0235.4824,2.0644,37.9912,8.3906,123.4873,24.5791,160.1865,9.8632,22.31,15.7548,58.78,19.2314,91.3389.2422,2.2939.4824,4.5752.7,6.82q.5068,5.1064.93,9.9961c.2051,2.3057.3984,4.5879.5674,6.8086C2086.3666,1591.844,2086.8734,1611.4378,2086.8734,1611.4378Z" style="fill:#e58638"/><path d="M2024.1586,1281.43s-1.0264,3.73-2.6914,10.1777c-3.6954,14.2813-10.54,41.8906-16.3829,71.7451-5.6494,28.9375-10.37,59.9864-10.3339,83.0332a121.8412,121.8412,0,0,0,.7,13.5205c2.8369,24.5674-.3379,60.7354-4.4786,92.0635q-.47,3.4761-.9414,6.8809c-.4834,3.44-.9658,6.8086-1.4609,10.0683-.3506,2.33-.6885,4.6114-1.0381,6.82-3.6582,23.3964-7.0264,40.1279-7.0264,40.1279s-1.4609.3262-4.0322.7373a140.6368,140.6368,0,0,1-16.7441,1.7256c-4.1524.1816-8.7041-1.292-11.5293-2.4141-1.6895-.6767-2.7637-1.22-2.7637-1.22s1.4356-12.7236.4942-40.5869c-.0352-1.086-.084-2.1963-.1329-3.3321l-.1445-3.4765c-.1328-3.0664-.2891-6.2891-.4951-9.67-.12-2.209-.2656-4.4786-.41-6.8331-1.4482-21.8623-4.1406-49.7128-8.9941-84.1191a1416.3405,1416.3405,0,0,1-13.3037-169.3975c-.1934-12.2656-.0957-19.1464-.0957-19.1464l3.3193.1084,4.1289.1328,66.7588,2.1611,24.4707.7959h.0117Z" style="fill:#f99746"/><path d="M1991.5551,1080.0794l-16.5411,12.251-23.9052-5.0332c.331-2.18,1.9091-11.2149,3.3457-19.3994.0869-.4825.1738-.9649.2548-1.4366,1.2315-6.9638,2.294-12.9453,2.294-12.9453l22.3281-11.1289,8.3252-4.1494c-.0224.1465-.6465,7.7285-.7324,8.835C1985.3617,1066.7269,1991.5551,1080.0794,1991.5551,1080.0794Z" style="fill:#ffb27d"/><path d="M1952.7816,1073.8978c.5235-.2207,32.5195-9.6631,35.9951-8.5157s5.5342,7.8731,5.5342,7.8731l-49.3984,14.0713S1946.0961,1076.7122,1952.7816,1073.8978Z" style="fill:#77a4e5"/><path d="M2038.9359,1288.5774c-5.4141,24.7383-118.4853-52.8886-116.9795-67.9863.1651-1.6572.3311-3.3291.4971-4.9863,2.0859-21.0225,4.0889-41.59,4.2266-55.0156a189.2736,189.2736,0,0,1,3.8535-34.3662c1.9619-9.9864,4.3789-19.0479,6.4785-26.1065a28.8339,28.8339,0,0,1,16.9209-18.5361,24.9526,24.9526,0,0,1,2.8037-.9815c13.6191-3.95,32.46-8.84,37.57-7.3476,13.84,4.0742,24.1172,28.4267,31.3965,59.4775C2039.3226,1190.8528,2042.472,1272.4583,2038.9359,1288.5774Z" style="fill:#adc8fe"/><path d="M1985.2484,1047.4192c-4.9033,9.3829-23.1738,17.4961-30.7939,20.4786.0869-.4825.1738-.9649.2548-1.4366,1.2315-6.9638,2.294-12.9453,2.294-12.9453l22.3281-11.1289C1984.266,1042.3108,1987.2709,1043.5579,1985.2484,1047.4192Z" style="fill:#fca56b"/><path d="M1946.1537,1052.2083s40.2812,12.5664,47.7207-12.64,17.6484-40.56-7.7559-49.6485-33.2627-.9521-37.792,6.8574S1935.8666,1048.29,1946.1537,1052.2083Z" style="fill:#ffb27d"/><path d="M1949.9086,994.3489s2.5683,29.3321,8.6347,28.0586,11.5664-2.2178,10.6787,6.624-9.3,19.0518,9.3946,20.6153,45.5683-46.6465,40.4326-55.7744C2004.2318,967.5345,1928.4916,962.219,1949.9086,994.3489Z" style="fill:#ce6719"/><path d="M1925.3676,1278.13c11.1992,4.0469-.1934-11.128,0-14.291.871-13.91-4.586-31.4932-2.9141-48.2344l68.3906-40.8809S2007.0707,1277.4808,1925.3676,1278.13Z" style="fill:#77a4e5"/><path d="M2038.9359,1288.5774c-29.1953,54.1094-33.8447,74.7715-33.8447,74.7715-25.41-2.8965-68.9522-52.8515-82.7627-66.1865,0,0-1.8779-61.4736-.3721-76.5713l21.1055-.6074s38.1514,9.6689,48.041-3.4531,5.6074-77.5313,5.6074-77.5313l28.9932-6.27C2039.3226,1190.8528,2046.7718,1274.054,2038.9359,1288.5774Z" style="fill:#f99746"/><path d="M1865.7015,1184.889s-13.8974-9.4014-16.5332-10.2207-11.2793-1.7071-11.68-1.0264-1.5849,2.7656-.0752,3.4717,3.39.458,2.8262.9511-6.2461-2.2109-7.5566.6866-2.4629,12.8222,4.2021,15.832,23.1211.2891,24.3076.6348C1871.2552,1198.1429,1865.7015,1184.889,1865.7015,1184.889Z" style="fill:#ffb27d"/><path d="M1865.5726,1182.347s67.83,11.5312,73.84,8.6054c9.5937-4.6718-3.7227-73.4912-3.7227-73.4912s-.5713-15.5966,17.6465-19.2754c15.832-3.1972,31.1064,8.6622,31.1064,8.6622s13.8916,12.4306,12.1163,26.2177c-3.9336,30.5606-10.0538,92.7178-30.4942,102.2461-26.3642,12.2881-102.6543-34.0781-102.6543-34.0781s-2.54-3.11-2.1787-8.8877C1861.55,1187.2513,1865.5726,1182.347,1865.5726,1182.347Z" style="fill:#adc8fe"/><path d="M2002.3324,1137.7845l-5.6221,1.2148s-11.8779-51.4248-51.7978-51.6728a28.5386,28.5386,0,0,1,9.0205-5.7461C1968.56,1085.5032,1993.9613,1098.0032,2002.3324,1137.7845Z" style="fill:#f99746"/><path d="M1990.972,1551.97q-.47,3.4761-.9414,6.8809a144.6382,144.6382,0,0,1-36.9775-.0723c-2.97-.3623-5.626-.7734-7.8955-1.1474-.12-2.209-.2656-4.4786-.41-6.8331C1954.2718,1552.4642,1972.5736,1554.9388,1990.972,1551.97Z" style="fill:#fff"/><path d="M1945.6527,1567.3011l.1445,3.4765.1329,3.3321c2.2822.374,4.9375.7724,7.9316,1.1474a147.3736,147.3736,0,0,0,33.67.4825c.35-2.209.6875-4.49,1.0381-6.82C1971.3549,1571.1282,1954.6586,1568.8587,1945.6527,1567.3011Z" style="fill:#fff"/><g style="opacity:0.5"><path d="M2082.7572,1548.7337a145.7286,145.7286,0,0,1-35.4072,6.7852c-2.1856.1689-4.2139.2656-6.0489.35-.7363-2.1368-1.497-4.334-2.3056-6.5909,9.7178-.29,26.7158-1.5332,43.0615-7.3642C2082.2992,1544.2073,2082.5394,1546.4886,2082.7572,1548.7337Z" style="fill:#fff"/></g><g style="opacity:0.5"><path d="M2084.2543,1565.5384a148.0578,148.0578,0,0,1-32.9092,5.9883c-1.7256.1328-3.3565.23-4.8652.3017q-.96-3.1509-2.0635-6.5791c9.4033-.3623,24.4453-1.63,39.2705-6.5195C2083.892,1561.0355,2084.0853,1563.3177,2084.2543,1565.5384Z" style="fill:#fff"/></g><path d="M425.2635,1312.347s5.3038-8.0742,9.0318-10.3037,12.64-.377,12.894.3545c.7866,2.2636-7.9448,4.4648-9.1606,6.2851s2.7837,2.1524-.7183,5.1309c-2.958,2.5146-9.4883,4.4179-9.4883,4.4179Z" style="fill:#ffb27d"/><path d="M428.9847,1311.8411c-1.7314-3.69-2.3608-3.9541-2.3608-3.9541s-38.0454,9.5967-41.6538,10.3408-55.5537-3.0927-55.5537-3.0927l-20.11,32.1171s70.7735-6.5146,79.8784-8.5791c15.0454-3.41,40.8189-21.1865,40.8189-21.1865A11.3573,11.3573,0,0,0,428.9847,1311.8411Z" style="fill:#77a4e5"/><path d="M434.5936,1311.0394c.0484-.0332,2.1206-1.9483,4.1587-3.8,1.5-1.3624,2.5674-3.2442,3.2114-3.7627,1.52-1.2237,2.2325,2.0869-.2724,5.8144a21.139,21.139,0,0,1-6.7779,6.0977C433.7308,1315.9856,434.5936,1311.0394,434.5936,1311.0394Z" style="fill:#ffb27d"/><polygon points="533.668 1634.69 558.8 1634.377 617.495 1389.799 592.363 1390.113 533.668 1634.69" style="fill:#8cb4f4"/><path d="M492.1488,1640.1331H604.8519a11.9392,11.9392,0,0,0-11.94-11.9394H504.0883a11.9388,11.9388,0,0,0-11.94,11.9394Z" style="fill:#8cb4f4"/><polygon points="752.496 1526.893 741.671 1472.621 741.671 1472.621 741.648 1472.506 705.624 1291.9 355.478 1291.951 402.35 1526.944 468.859 1526.934 468.859 1526.934 469.484 1526.934 543.916 1526.923 544.144 1526.923 544.144 1526.923 618.25 1526.912 618.759 1526.912 618.759 1526.912 692.703 1526.902 692.703 1526.902 693.373 1526.902 693.373 1526.902 752.496 1526.893" style="fill:#1d3f77"/><polygon points="758.493 1522.247 408.348 1522.296 361.476 1291.95 711.621 1291.9 758.493 1522.247" style="fill:#2a4e96"/><polygon points="475.526 1522.287 474.856 1522.287 428.11 1292.56 428.78 1292.56 475.526 1522.287" style="fill:#c0d8fb"/><polygon points="550.141 1522.277 549.471 1522.277 502.725 1292.549 503.395 1292.549 550.141 1522.277" style="fill:#c0d8fb"/><polygon points="624.756 1522.266 624.086 1522.266 577.34 1292.538 578.01 1292.538 624.756 1522.266" style="fill:#c0d8fb"/><polygon points="699.37 1522.255 698.701 1522.255 651.955 1292.528 652.625 1292.528 699.37 1522.255" style="fill:#c0d8fb"/><polygon points="722.744 1346.567 372.6 1346.617 372.471 1345.987 722.617 1345.938 722.744 1346.567" style="fill:#c0d8fb"/><polygon points="735.206 1407.808 385.061 1407.858 384.933 1407.228 735.078 1407.179 735.206 1407.808" style="fill:#c0d8fb"/><polygon points="747.668 1469.048 397.522 1469.098 397.394 1468.469 747.54 1468.419 747.668 1469.048" style="fill:#c0d8fb"/><polygon points="440.757 1353.064 432.171 1346.293 438.001 1339.521 446.587 1346.291 440.757 1353.064" style="fill:#c0d8fb"/><polygon points="453.283 1414.619 444.697 1407.849 450.527 1401.077 459.113 1407.847 453.283 1414.619" style="fill:#c0d8fb"/><polygon points="515.706 1353.053 507.121 1346.283 512.951 1339.51 521.537 1346.281 515.706 1353.053" style="fill:#c0d8fb"/><polygon points="528.232 1414.609 519.646 1407.838 525.476 1401.066 534.062 1407.836 528.232 1414.609" style="fill:#c0d8fb"/><polygon points="590.322 1353.042 581.736 1346.272 587.566 1339.5 596.152 1346.27 590.322 1353.042" style="fill:#c0d8fb"/><polygon points="664.266 1353.032 655.68 1346.262 661.511 1339.49 670.097 1346.26 664.266 1353.032" style="fill:#c0d8fb"/><polygon points="465.68 1475.545 457.094 1468.775 462.924 1462.003 471.51 1468.773 465.68 1475.545" style="fill:#c0d8fb"/><polygon points="540.63 1475.535 532.044 1468.764 537.874 1461.993 546.46 1468.762 540.63 1475.535" style="fill:#c0d8fb"/><polygon points="615.245 1475.524 606.659 1468.753 612.489 1461.982 621.075 1468.751 615.245 1475.524" style="fill:#c0d8fb"/><polygon points="689.189 1475.513 680.604 1468.744 686.434 1461.971 695.02 1468.742 689.189 1475.513" style="fill:#c0d8fb"/><polygon points="676.792 1414.587 668.206 1407.818 674.036 1401.045 682.622 1407.816 676.792 1414.587" style="fill:#c0d8fb"/><polygon points="602.847 1414.598 594.261 1407.827 600.091 1401.056 608.677 1407.826 602.847 1414.598" style="fill:#c0d8fb"/><rect x="410.37" y="1359.2468" width="4.2666" height="22.6163" transform="translate(478.8027 2800.3048) rotate(-165.9045)" style="fill:#adc8fe"/><path d="M413.8094,1351.9485l-.0024.02c-.2056,1.6943.2837,3.5146,1.8818,4.1123,2.1382.8,3.5855-.59,4.1255-2.74.0025-.01.1377-.55.14-.5595.1826-.752,1.9253-.1367,2.1777.5947a6.1512,6.1512,0,1,1-10.44-2.0606C412.3,1350.6253,413.934,1351.0384,413.8094,1351.9485Z" style="fill:#adc8fe"/><path d="M411.71,1389.6077l.0025-.02c.2055-1.6943-.2837-3.5147-1.8819-4.1123-2.1381-.8-3.5854.59-4.1254,2.7412-.0025.01-.1377.5488-.14.5586-.1826.7529-1.9253.1377-2.1777-.5947a6.1515,6.1515,0,1,1,10.4394,2.0605C413.2191,1390.9319,411.5853,1390.5189,411.71,1389.6077Z" style="fill:#adc8fe"/><path d="M334.641,1625.5208s.7934,12.793,3.1694,15.8018h36.5567c-.231-1.2754-1.2662-4.4248-5.8365-5.2237-5.7768-1.0049-15.4458-5.0625-18.9414-12.6972C345.9076,1615.3694,334.641,1625.5208,334.641,1625.5208Z" style="fill:#163560"/><path d="M269.7679,1623.7366s-2.41,15.9268.7193,16.2139c.416.0381,15.0591.0117,19.04.6074,6.5015.9736,17.3457.125,17.3457.125a1.7185,1.7185,0,0,0,1.5567-2.5849,6.9289,6.9289,0,0,0-4.9663-3.1866c-5.7569-1.1074-15.3511-5.3359-18.7144-13.03C281.21,1613.7874,269.7679,1623.7366,269.7679,1623.7366Z" style="fill:#163560"/><path d="M351.8353,1455.262s-9.2,32.168-35.5381,88.0156A480.5459,480.5459,0,0,0,297.598,1588.14c-.499,1.3858-.9609,2.7207-1.3979,4.02q-1.0482,3.0893-1.9224,5.8789c-.437,1.373-.8364,2.6963-1.2231,3.97-4.5562,15.3037-5.1431,22.5811-5.1431,22.5811a24.7743,24.7743,0,0,1-9.5493,1.3105,31.8774,31.8774,0,0,1-8.6-2.1592s.2617-10.373,1.36-24.6787c.1-1.2978.2-2.6211.312-3.9814.15-1.8477.3248-3.7451.5-5.6924.1245-1.3106.2622-2.6465.3867-3.9815,2.0224-19.7978,5.53-42.6035,11.5967-56.3349,12.4448-28.1856,14.979-105.3281,14.979-105.3281Z" style="fill:#e58638"/><path d="M358.7006,1538.5462c-3.1705,22.5566-4.7808,40.3193-5.542,53.7627-.0874,1.3984-.15,2.7461-.2124,4.0576-.1,2.0967-.1748,4.0684-.2495,5.916-.0376,1.3985-.0752,2.7344-.1,3.9942a165.8249,165.8249,0,0,0,.4121,19.374,30.7771,30.7771,0,0,1-9.7862,1.6719,53.31,53.31,0,0,1-10.86-.9854s-1.5977-7.9394-3.4824-19.5234v-.0127q-.3186-1.9468-.6368-4.0069-.4307-2.7714-.8613-5.7168c-.2-1.31-.3867-2.6464-.5864-4.0068-2.709-19.3359-5.0308-42.8906-3.2207-58.5059,3.5327-30.6074-16.8892-105.0292-16.8892-105.0292l59.9043-1.9473A803.32,803.32,0,0,1,358.7006,1538.5462Z" style="fill:#f99746"/><path d="M325.8632,1311.0384l9.7343,7.209,14.0684-2.961c-.1948-1.2832-1.1235-6.6006-1.9692-11.417-.0513-.2841-.1021-.5673-.15-.8457-.7246-4.0976-1.35-7.6181-1.35-7.6181l-13.14-6.5489-4.8989-2.4414c.0127.086.38,4.5479.4306,5.1993C329.5082,1303.18,325.8632,1311.0384,325.8632,1311.0384Z" style="fill:#ffb27d"/><path d="M348.6815,1307.4007c-.3086-.13-19.1377-5.6865-21.1831-5.0108s-3.2563,4.6329-3.2563,4.6329l29.07,8.28S352.6156,1309.0569,348.6815,1307.4007Z" style="fill:#77a4e5"/><path d="M297.98,1433.7366c3.1866,14.5586,69.7271-31.124,68.8414-40.0088-.0977-.9756-.1954-1.9589-.293-2.9345-1.2276-12.3721-2.4058-24.4756-2.4873-32.376a111.4025,111.4025,0,0,0-2.2676-20.2246c-1.1543-5.877-2.5771-11.209-3.8125-15.3623a16.97,16.97,0,0,0-9.9575-10.9092,14.8418,14.8418,0,0,0-1.65-.5772c-8.0152-2.3242-19.1026-5.2021-22.11-4.3242-8.145,2.3975-14.1929,16.7285-18.4765,35.002C297.7528,1376.2269,295.8993,1424.25,297.98,1433.7366Z" style="fill:#adc8fe"/><path d="M329.5751,1291.8187c2.8852,5.5214,13.6372,10.2959,18.1216,12.0507-.0513-.2841-.1021-.5673-.15-.8457-.7246-4.0976-1.35-7.6181-1.35-7.6181l-13.14-6.5489C330.1527,1288.8118,328.3846,1289.5462,329.5751,1291.8187Z" style="fill:#fca56b"/><path d="M352.5819,1294.637s-23.7056,7.3945-28.083-7.4385-10.3862-23.8691,4.564-29.2177,19.5747-.5606,22.24,4.0351S358.6351,1292.33,352.5819,1294.637Z" style="fill:#ffb27d"/><path d="M350.3724,1260.5872s-1.5122,17.2608-5.0815,16.5117-6.0635-1.3261-6.2847,3.8985c-.2295,5.4179.9654,11.6562-10.0361,12.5771s-22.3086-27.8965-19.2866-33.2685C318.4037,1244.8069,362.9759,1241.679,350.3724,1260.5872Z" style="fill:#163560"/><path d="M364.8138,1427.5882c-6.5908,2.3818.1138-6.5479,0-8.41-.5122-8.1855,2.6988-18.5332,1.7149-28.3847l-40.2471-24.0577S316.7328,1427.2064,364.8138,1427.5882Z" style="fill:#77a4e5"/><path d="M297.98,1433.7366c17.1812,31.8428,19.9175,44.002,19.9175,44.002,14.9536-1.7041,40.5772-31.1026,48.7051-38.95,0,0,1.1045-36.1758.2188-45.0606l-12.4209-.3574s-22.4512,5.6895-28.271-2.0322-3.3-45.626-3.3-45.626l-17.062-3.69C297.7528,1376.2269,293.3685,1425.19,297.98,1433.7366Z" style="fill:#f99746"/><path d="M399.9266,1372.7171s8.1787-5.5322,9.73-6.0147,6.6372-1.0039,6.8731-.6035.9326,1.627.0439,2.043-1.9946.2695-1.6626.56,3.6753-1.3008,4.4463.4043,1.45,7.5449-2.4731,9.3164-13.606.1709-14.3042.374C396.6586,1380.5169,399.9266,1372.7171,399.9266,1372.7171Z" style="fill:#ffb27d"/><path d="M400.0023,1371.222s-39.917,6.7851-43.4536,5.0635c-5.646-2.7491,2.19-43.2481,2.19-43.2481s.3365-9.1787-10.3847-11.3437c-9.3164-1.8809-18.3052,5.0976-18.3052,5.0976s-8.1753,7.3154-7.1309,15.4287c2.3155,17.9844,5.9165,54.5635,17.9458,60.17,15.5152,7.2325,60.4107-20.0537,60.4107-20.0537a7.8524,7.8524,0,0,0,1.2822-5.23A12.193,12.193,0,0,0,400.0023,1371.222Z" style="fill:#adc8fe"/><path d="M319.5209,1344.9964l3.3086.7158s6.9907-30.2627,30.4824-30.4092a16.8172,16.8172,0,0,0-5.3081-3.3818C339.3954,1314.23,324.4471,1321.5862,319.5209,1344.9964Z" style="fill:#f99746"/><path d="M353.1586,1592.3089c-.0874,1.3984-.15,2.7461-.2124,4.0576a90.0992,90.0992,0,0,1-21.9444,1.0234c-1.311-.0878-2.5215-.2-3.62-.3125-.2-1.31-.3867-2.6464-.5864-4.0068C332.7245,1593.7073,342.96,1594.3685,353.1586,1592.3089Z" style="fill:#fff"/><path d="M352.6967,1602.2825c-.0376,1.3985-.0752,2.7344-.1,3.9942a90.2751,90.2751,0,0,1-20.5586.7871c-1.1363-.0752-2.1846-.1621-3.1582-.25v-.0127q-.3186-1.9468-.6368-4.0069A91.1488,91.1488,0,0,0,352.6967,1602.2825Z" style="fill:#fff"/><g style="opacity:0.5"><path d="M297.598,1588.14c-.499,1.3858-.9609,2.7207-1.3979,4.02a90.0151,90.0151,0,0,1-20.6338-1.96c-1.3233-.2744-2.5342-.55-3.6323-.8115.1245-1.3106.2622-2.6465.3867-3.9815A89.2466,89.2466,0,0,0,297.598,1588.14Z" style="fill:#fff"/></g><g style="opacity:0.5"><path d="M294.2777,1598.0384c-.437,1.373-.8364,2.6963-1.2231,3.97a93.7022,93.7022,0,0,1-17.7627-1.9971c-1.5479-.3242-2.9463-.6494-4.1695-.9492.1-1.2978.2-2.6211.312-3.9814A93.5815,93.5815,0,0,0,294.2777,1598.0384Z" style="fill:#fff"/></g><path d="M2318.33,773.4266c-32.7666-4.88-69.1416-27.1612-108.1123-66.2237-31.13-31.2021-63.9912-73.1333-97.6738-124.6279-55.4111-84.7158-94.9775-168.0376-97.9287-174.3027-39.9238.9985-90.749-12.2368-151.0029-39.3584-48.3291-21.753-102.8252-52.438-161.9756-91.2022A2135.831,2135.831,0,0,1,1519.7924,143.596l.8046-.9551a2134.1838,2134.1838,0,0,0,181.7354,134.0342c59.0937,38.7261,113.53,69.3779,161.7978,91.103,60.2852,27.1348,111.0577,40.3408,150.8594,39.2354l.41-.0113.1728.3716c.4014.8594,40.7383,86.95,98.0244,174.5293,33.6338,51.42,66.4414,93.2827,97.51,124.4229,38.7754,38.8657,74.9131,61.0263,107.4072,65.8662Z" style="fill:#adc8fe"/><path d="M2119.9711,759.0521c-42.7832-6.5743-89.0655-29.7916-137.5616-69.0079-38.7627-31.3447-79.0263-72.9277-119.6728-123.5937-67.1553-83.71-113.3438-165.1309-116.43-170.6138A882.06,882.06,0,0,1,1509.8051,339.89a894.4866,894.4866,0,0,1-173.2022-90.3243c-73.9932-49.5444-125.5742-100.8676-142.5107-121.0839l.957-.8018c16.9062,20.1777,68.4014,71.4082,142.2871,120.875a893.3005,893.3005,0,0,0,172.95,90.1831A880.8184,880.8184,0,0,0,1746.75,394.6248l.3271.0308.1592.2866c.4658.8359,47.3564,84.5747,116.4853,170.7412,40.5889,50.5933,80.7872,92.1094,119.4795,123.396,48.3194,39.0718,94.3994,62.1992,136.959,68.7393Z" style="fill:#adc8fe"/><path d="M1944.8021,773.4334c-57.3037-1.85-117.458-22.88-178.7929-62.5073-49.0372-31.6817-98.9366-75.2559-148.3145-129.5122-81.6533-89.7222-135.05-179.6421-138.5254-185.5533-54.9473-1.5009-121.1084-16.455-196.6636-44.4492-60.5454-22.4326-127.2275-53.2436-198.1938-91.5771C963.4926,194.5726,870.912,129.242,869.9911,128.59l.7217-1.0186c.92.6519,93.4492,65.9453,214.205,131.1719,70.9131,38.3037,137.54,69.0893,198.0289,91.5,75.58,28.0029,141.7265,42.934,196.6025,44.3784l.3476.0093.1758.3012c.5362.9234,54.5908,93.395,138.5616,185.6582,49.3027,54.1729,99.1181,97.6734,148.0625,129.2935,61.1386,39.4985,121.0751,60.46,178.1464,62.3013Z" style="fill:#adc8fe"/><path d="M20.2885,1636.9964H2625.7309a2.8554,2.8554,0,0,1,2.8554,2.8554v.7432a2.8555,2.8555,0,0,1-2.8555,2.8555H20.2885a2.8555,2.8555,0,0,1-2.8555-2.8555v-.7431a2.8555,2.8555,0,0,1,2.8555-2.8555Z" style="fill:#2e3552"/></g></g></svg>