<svg xmlns="http://www.w3.org/2000/svg" viewBox="0 0 465.7099 515.4009"><g id="Layer_2" data-name="Layer 2"><g id="Capa_1" data-name="Capa 1"><path d="M232.8505,49.69C104.2529,49.69,0,153.9453,0,282.5454,0,411.147,104.2529,515.4009,232.8505,515.4009c128.6055,0,232.8594-104.2539,232.8594-232.8555C465.71,153.9453,361.456,49.69,232.8505,49.69Z" style="fill:#a5dcf0"/><path d="M419.7509,421.4516a34.7233,34.7233,0,0,0-66.1992-14.0468,29.92,29.92,0,0,0-44.09,4.7695,33.7834,33.7834,0,1,0-19.2666,64.4531,33.61,33.61,0,0,0,18.1338-1.3652c-.0274.1269-.0586.2529-.084.3818a32.3109,32.3109,0,0,0,5.51,25.31A233.4741,233.4741,0,0,0,419.7509,421.4516Z" style="fill:#d8edee"/><path d="M76.124,435.1528a27.4369,27.4369,0,1,0,17.9687-51.2021c.1992-.3467.4063-.7041.5957-1.0616a28.5119,28.5119,0,0,0-36.8847-39.3554A25.0041,25.0041,0,0,0,18.999,331.8452,24.1034,24.1034,0,0,0,12.04,326.3a24.1456,24.1456,0,0,0-8.42-2.64,232.0194,232.0194,0,0,0,52.8632,110.92,24.8241,24.8241,0,0,0,11.8438-5.5918A27.4027,27.4027,0,0,0,76.124,435.1528Zm-31.01-48.64c-.0078-.8076-.06-1.6182-.1426-2.4248.4229.7246.8867,1.4121,1.376,2.0937C45.9287,386.2817,45.5166,386.3931,45.1142,386.5132Z" style="fill:#d8edee"/><polygon points="222.21 286.004 191.917 457.524 285.795 451.858 250.073 284.207 222.21 286.004" style="fill:#d8edee"/><path d="M302.5068,441.0835a15.5931,15.5931,0,0,0-7.51-19.1748,22.8161,22.8161,0,1,0-38.4941-22.9531A23.2824,23.2824,0,0,0,255.45,402.95a24.8061,24.8061,0,0,0-3.1269-1.3965,24.3409,24.3409,0,0,0-21.794,43.1436,20.9707,20.9707,0,0,0-1.36,31.0556,24.0574,24.0574,0,0,0-1.8926,3.9922,23.6818,23.6818,0,1,0,45.4883,3.4629c.0869.03.1689.0664.2559.0986a22.7133,22.7133,0,0,0,25.1972-35.8974A15.5369,15.5369,0,0,0,302.5068,441.0835Z" style="fill:#d8edee"/><path d="M435.5,332.6382a23.063,23.063,0,0,0-2.1485,3.4785,23.4236,23.4236,0,0,0-2.5566-2.2256A24.084,24.084,0,0,0,397.7236,368.44a20.7465,20.7465,0,0,0-10.2442,29.002,23.4272,23.4272,0,0,0,18.7325,40.5508,232.108,232.108,0,0,0,55.5908-112.8106A22.5869,22.5869,0,0,0,435.5,332.6382Z" style="fill:#d8edee"/><path d="M211.6923,414.5278a21.0931,21.0931,0,0,0,2.7168-5.7109c3.04-10.0127-1.6933-20.3135-10.5732-23.0059-8.0352-2.4433-16.7129,2.19-20.54,10.5137-7.4746-.2334-14.7373,5.1953-17.2763,13.5566A18.9283,18.9283,0,0,0,169.6572,428.1a13.707,13.707,0,0,0-8.042,8.9453c-2.12,6.9766,1.1787,14.1562,7.3662,16.0352a10.4876,10.4876,0,0,0,1.6465.3447c-.0137.0459-.0362.0928-.0488.14-2.28,7.5088,1.2714,15.2354,7.93,17.2559,6.6621,2.0234,13.9063-2.4268,16.1856-9.9356a15.82,15.82,0,0,0,.6738-4.0615c.1719.0567.336.1172.5078.169,10.6485,3.2334,22.2373-3.8838,25.8828-15.8955C225.0927,430.1157,220.624,418.8462,211.6923,414.5278Z" style="fill:#d8edee"/><path d="M181.6083,483.4419a33.7827,33.7827,0,1,0-12.8974-61.7666c-.0039-.13,0-.2588-.0039-.3906a32.4048,32.4048,0,0,0-60.8252-14.6778,22.239,22.239,0,0,0-32.1631,17.6065,32.5716,32.5716,0,0,0-26.332,1.7324,233.3919,233.3919,0,0,0,104.24,75.62c.4229.0068.8467.0225,1.2744.0107A29.9244,29.9244,0,0,0,181.6083,483.4419Z" style="fill:#d8edee"/><path d="M413.5761,429.3735a34.7333,34.7333,0,0,0-49.331,5.6065,29.9114,29.9114,0,0,0-44.0371-5.2178A33.7837,33.7837,0,1,0,287.0058,488.27a33.6162,33.6162,0,0,0,17.9815,2.7285c-.0547.1172-.1133.2324-.168.3516a32.3052,32.3052,0,0,0-2.8506,13.6191A233.129,233.129,0,0,0,413.5761,429.3735Z" style="fill:#fff"/><path d="M84.7529,453.0962c.1172-.0586.23-.1153.3476-.1778a32.4026,32.4026,0,0,0-14.375-60.8955,22.24,22.24,0,0,0-30.2343-20.747A32.5509,32.5509,0,0,0,7.8144,342.5268,233.1828,233.1828,0,0,0,100.456,474.103a33.8727,33.8727,0,0,0-15.7031-21.0068Z" style="fill:#fff"/><polygon points="225.944 318.463 202.446 438.428 275.264 434.467 247.558 317.206 225.944 318.463" style="fill:#fff"/><path d="M272.7646,500.3364c.0869.0293.1689.0664.2559.0977a22.7129,22.7129,0,0,0,25.1972-35.8965,15.5884,15.5884,0,0,0-3.2207-25.5,22.8161,22.8161,0,1,0-38.4941-22.9531,23.02,23.02,0,0,0-1.0528,3.9941,24.6779,24.6779,0,0,0-3.1269-1.3965,24.3415,24.3415,0,0,0-21.7959,43.1436,20.9725,20.9725,0,0,0-1.3584,31.0556,23.8652,23.8652,0,0,0-1.8926,3.9922,23.605,23.605,0,0,0,.9815,18.4707c1.5283.0283,3.0576.0567,4.5927.0567a234.42,234.42,0,0,0,39.2539-3.3106A23.5631,23.5631,0,0,0,272.7646,500.3364Z" style="fill:#fff"/><path d="M453.2285,345.1684A24.0991,24.0991,0,0,0,435.0742,368.76a20.75,20.75,0,0,0-26.1651,16.1661,23.8357,23.8357,0,0,0-4.3183.6757,23.433,23.433,0,0,0,7.06,46.1094,232.2221,232.2221,0,0,0,45.711-87.2129A24.4121,24.4121,0,0,0,453.2285,345.1684Z" style="fill:#fff"/><path d="M216.8291,426.5337a21.0867,21.0867,0,0,0,.4765-6.3047c-.7676-10.4375-8.8916-18.3438-18.1474-17.66-8.3741.6153-14.8018,8.0586-15.377,17.2041-7.0566,2.4717-11.8779,10.1524-11.2373,18.8643a18.9342,18.9342,0,0,0,9.9531,15.6914,13.7134,13.7134,0,0,0-4.2851,11.24c.5351,7.2735,6.1992,12.7832,12.6445,12.3086a10.821,10.821,0,0,0,1.6641-.2715c.0019.0489-.002.0977.0019.1485.5762,7.8271,6.67,13.7578,13.6113,13.2441,6.94-.5117,12.0987-7.27,11.5225-15.0957a15.9189,15.9189,0,0,0-.8311-4.0332c.1778-.01.3545-.0117.5332-.0244,11.1-.8164,19.3477-11.627,18.4278-24.1455C234.9423,436.2524,226.7148,427.3472,216.8291,426.5337Z" style="fill:#fff"/><path d="M201.7548,511.897a33.7866,33.7866,0,1,0-19.1894-62.1924c-.002-.13.0019-.2588-.002-.39a32.4032,32.4032,0,0,0-60.8242-14.6758,22.2382,22.2382,0,0,0-32.1641,17.6055,32.478,32.478,0,0,0-17.5937-1.3555,232.1535,232.1535,0,0,0,123.0742,61.4424c.1367-.2881.2813-.5674.4063-.86A34.0241,34.0241,0,0,0,201.7548,511.897Z" style="fill:#fff"/><path d="M309.0556,485.272a33.62,33.62,0,0,0-17.3779,5.3554c-.0039-.1308,0-.2588-.0039-.3886a32.4041,32.4041,0,0,0-60.8252-14.6778,22.2391,22.2391,0,0,0-32.1631,17.6055,32.5439,32.5439,0,0,0-37.2627,11.0557,233.4824,233.4824,0,0,0,170.4561-10.8848A33.6594,33.6594,0,0,0,309.0556,485.272Z" style="fill:#fff"/><path d="M380.8056,168.0859a11.6857,11.6857,0,0,0-2.5664.82,13.4833,13.4833,0,0,0-.2051-1.5244,13.2812,13.2812,0,0,0-24.5937-4.001,11.8661,11.8661,0,0,0-20.1426,6.1817A13.1611,13.1611,0,0,0,318.21,179.6562h76.4307a11.6112,11.6112,0,0,0-13.835-11.57Zm-26.4023,10.8072c.123-.1607.2451-.3267.3584-.4937.247.2988.5107.5854.78.86C355.17,179.12,354.788,179,354.4033,178.8931Z" style="fill:#fff"/><path d="M135.4462,218.5449a9.1284,9.1284,0,0,0-2.0039.6406,10.0156,10.0156,0,0,0-.16-1.1894,10.3686,10.3686,0,0,0-19.2-3.1245,9.2646,9.2646,0,0,0-15.7256,4.8256,10.2735,10.2735,0,0,0-11.7783,7.88H146.247a8.8182,8.8182,0,0,0-.1689-1.8725A9.062,9.062,0,0,0,135.4462,218.5449Zm-20.6123,8.437c.0967-.125.1905-.2539.28-.3852.19.2329.3984.457.6094.6718C115.4326,227.16,115.1337,227.0659,114.8339,226.9819Z" style="fill:#fff"/><path d="M241.9443,368.0259c9.2217-23.125,30.0576-52.3184,29.7246-65.4375s-15.5049-31.3711-32.168-30.9493c-16.6562.4219-30.8965,19.1915-30.5566,32.5391C209.2832,317.52,241.9443,368.0259,241.9443,368.0259Z" style="fill:#f05a2a"/><path d="M241.5244,351.3755c7.5351-18.8985,24.5664-42.7559,24.2929-53.4785s-12.67-25.6368-26.2881-25.293-25.2529,15.6855-24.9736,26.5908C214.8291,310.0991,241.5244,351.3755,241.5244,351.3755Z" style="fill:#f8ec3a"/><path d="M241.0625,333.1919c5.8056-14.5625,18.9267-32.9473,18.7207-41.208-.21-8.2627-9.7647-19.7549-20.2588-19.4922-10.4922.2666-19.4571,12.0889-19.2442,20.4912C220.4951,301.3862,241.0625,333.1919,241.0625,333.1919Z" style="fill:#fff"/><path d="M214.4248,341.4653c9.3535-13.6582,27.125-29.5722,28.82-38.1328s-5.49-22.6143-16.3653-24.7695c-10.873-2.1524-22.8437,7.9551-24.5722,16.6621C200.5869,303.937,214.4248,341.4653,214.4248,341.4653Z" style="fill:#f05a2a"/><path d="M216.5771,330.6c7.6406-11.166,22.17-24.168,23.5547-31.1641,1.3848-6.998-4.49-18.4824-13.377-20.2422s-18.6689,6.5-20.0781,13.6162C205.2626,299.9292,216.5771,330.6,216.5771,330.6Z" style="fill:#f8ec3a"/><path d="M218.9257,318.7329c5.8877-8.6055,17.084-18.625,18.15-24.0137,1.0684-5.3926-3.458-14.2422-10.3056-15.5986s-14.3877,5.0107-15.4756,10.4951C210.2119,295.0981,218.9257,318.7329,218.9257,318.7329Z" style="fill:#fff"/><path d="M248.081,313.2934c-.0518-10.5195,3.4844-25.2539,1.2754-30.3378-2.208-5.0821-11.041-9.8262-17.4981-7.0235-6.4589,2.8027-9.0644,12.4121-6.8173,17.582C227.29,298.687,248.081,313.2934,248.081,313.2934Z" style="fill:#f05a2a"/><path d="M245.2773,306.84c-.0381-8.5947,2.8467-20.6387,1.042-24.793-1.8047-4.1582-9.0235-8.0341-14.3027-5.74-5.2735,2.29-7.4,10.1426-5.5665,14.3711C228.2861,294.9048,245.2773,306.84,245.2773,306.84Z" style="fill:#f8ec3a"/><path d="M242.2177,299.7905c-.0293-6.6221,2.1963-15.9014.8037-19.1045-1.39-3.2051-6.956-6.1885-11.0234-4.4219-4.0654,1.7657-5.7061,7.8165-4.29,11.0743C229.125,290.5942,242.2177,299.7905,242.2177,299.7905Z" style="fill:#fff"/><path d="M322.2,89.3472c-46.5039,61.5981-63.6376,8.3784-89.3437,8.5644-13.4629.1006-23.25,55.4795-89.3477-8.5644a89.3457,89.3457,0,1,1,178.6914,0Z" style="fill:#e8af2e"/><path d="M143.5087,89.3472c9.795,55.74,36.7188,62.5615,51.4043,120.8271,31.8858,21.2256,29.4375,16.3257,80.7832,4.1851,7.336-53.627,46.5039-85.9707,46.5039-125.0122C324.6464,31.001,150.8564,42.4346,143.5087,89.3472Z" style="fill:#e8af2e"/><path d="M192.4746,106.3257s16.9345,38.8789,22.05,53.3c5.1172,14.4228,5.2656,48.8593,5.2656,48.8593" style="fill:none;stroke:#403f41;stroke-linecap:round;stroke-miterlimit:10;stroke-width:4.895630000000001px"/><path d="M279.4082,106.3266s-16.9268,38.878-22.0469,53.3-5.2647,48.8589-5.2647,48.8589" style="fill:none;stroke:#403f41;stroke-linecap:round;stroke-miterlimit:10;stroke-width:4.895630000000001px"/><path d="M204.6005,237.1367V264.71c0,8.4785,5.501,15.3515,12.2911,15.35h36.8623c6.7744,0,12.2763-6.8711,12.2763-15.35l-.0019-27.5718Z" style="fill:#a6a8ab"/><path d="M189.2978,203.3179v44.707a15.35,15.35,0,0,0,15.3428,15.3525h61.3486a15.351,15.351,0,0,0,15.3438-15.3525v-44.707Z" style="fill:#221f1f"/><path d="M218.1132,120.5283c0,6.4619-3.9931,11.7-8.9131,11.7-4.9238-.0019-8.9082-5.2378-8.9082-11.7-.0019-6.4512,3.9854-11.6885,8.9082-11.69C214.12,108.8379,218.1132,114.0791,218.1132,120.5283Z" style="fill:none;stroke:#403f41;stroke-linecap:round;stroke-miterlimit:10;stroke-width:4.08405px"/><path d="M235.9394,120.5283c.002,6.4619-3.9853,11.7-8.915,11.6978-4.917.0019-8.9112-5.2359-8.9112-11.6978,0-6.4492,3.9932-11.6885,8.9131-11.6885C231.9541,108.84,235.9414,114.0771,235.9394,120.5283Z" style="fill:none;stroke:#403f41;stroke-linecap:round;stroke-miterlimit:10;stroke-width:4.08405px"/><path d="M253.7734,120.5283c0,6.4619-3.9932,11.7-8.9151,11.6978-4.9267.0019-8.9169-5.2359-8.9189-11.6978.002-6.4512,3.9922-11.6885,8.9189-11.6885C249.78,108.84,253.7734,114.0791,253.7734,120.5283Z" style="fill:none;stroke:#403f41;stroke-linecap:round;stroke-miterlimit:10;stroke-width:4.08405px"/><path d="M271.5947,120.5283c-.001,6.4619-3.9864,11.7-8.9082,11.7-4.9239,0-8.9131-5.2378-8.9131-11.7,0-6.4492,3.9892-11.69,8.915-11.6885C267.6083,108.8379,271.5937,114.0771,271.5947,120.5283Z" style="fill:none;stroke:#403f41;stroke-linecap:round;stroke-miterlimit:10;stroke-width:4.08405px"/><path d="M204.6005,16.41c22.0479-16.2695,61.3828-2.4336,75.9532,8.1543,20.2539,14.712,35.205,47.2017,32.8691,68.2085-2.3379,21.0064-11.2207,32.0874-19.4805,51.6372-2.9384,6.9512,10.043-21.1855-5.7373-59.1186C276.4248,56.9834,242.37,49.76,219.79,47.15,203.9912,45.3222,182.6718,32.5976,204.6005,16.41Z" style="fill:#fde039"/><path d="M284.4482,216.792A2.1527,2.1527,0,0,1,282.3505,219H187.8427a2.1529,2.1529,0,0,1-2.0967-2.2061V212.958a2.1548,2.1548,0,0,1,2.0967-2.2066h94.5078a2.1573,2.1573,0,0,1,2.1,2.2081Z" style="fill:#403f41"/><path d="M284.45,229.9863a2.1585,2.1585,0,0,1-2.1,2.2095H187.8427a2.1568,2.1568,0,0,1-2.0967-2.2095v-3.834a2.1555,2.1555,0,0,1,2.0967-2.208l94.5078,0a2.1543,2.1543,0,0,1,2.0977,2.2075Z" style="fill:#403f41"/><path d="M284.6669,243.1826a2.1548,2.1548,0,0,1-2.0976,2.2075H188.0625a2.1563,2.1563,0,0,1-2.1026-2.2075V239.35a2.16,2.16,0,0,1,2.1026-2.2129l94.5068.001a2.1585,2.1585,0,0,1,2.1,2.2119Z" style="fill:#403f41"/></g></g></svg>