<svg xmlns="http://www.w3.org/2000/svg" viewBox="0 0 2894.8799 1485.2263"><g id="Layer_2" data-name="Layer 2"><g id="Layer_1-2" data-name="Layer 1"><path d="M187.7551,1481.6287S-149.4622,1123.13,79.9584,705.55c176.9885-322.1456,605.1483-264.7458,824.84-128.484,93.57,58.0351,294.6126-48.3979,549.5739-371.5906C1750.3569-169.7187,2896.2849,59.2024,2698.3806,776.0681,2602.61,1122.98,2989.8513,1135.59,2792.5368,1482.363Z" style="fill:#ebf3fa"/><path d="M2587.9854,1478.76H1732.4712a155.0568,155.0568,0,0,1-155.0567-155.0567V583.019A583.3652,583.3652,0,0,1,1933.3421,46.0444C1995.3073,19.8351,1980.49,3.9523,2047.6687.2834c10.7826-.5889,101.6833-.0772,112.56-.0772A582.4046,582.4046,0,0,1,2743.042,583.019v740.684A155.0567,155.0567,0,0,1,2587.9854,1478.76ZM1759.5438,613.9074h801.3689V583.019c0-220.9376-179.7459-400.6835-400.6844-400.6835S1759.5438,362.0814,1759.5438,583.019Z" style="fill:#4f75ba"/><path d="M2484.7788,1478.76H1629.2646a155.0568,155.0568,0,0,1-155.0567-155.0567V583.019a582.8138,582.8138,0,1,1,1165.6275,0v740.684A155.0567,155.0567,0,0,1,2484.7788,1478.76ZM1656.3372,613.9074h801.3689V583.019c0-220.9376-179.7459-400.6835-400.6844-400.6835S1656.3372,362.0814,1656.3372,583.019Z" style="fill:#739af0"/><path d="M2129.1356,904.1805a71.81,71.81,0,0,0-17.5068-47.0714c-10.0013-14.8427-30.6908-25.0426-54.6071-25.0426s-44.6058,10.2-54.6072,25.0426a72.1036,72.1036,0,0,0,33.0744,115.9134V1082.24c0,8.8094,9.6407,15.951,21.5328,15.951s21.5328-7.1416,21.5328-15.951V973.0225A72.1445,72.1445,0,0,0,2129.1356,904.1805Z" style="fill:#4f75ba"/><path d="M1098.5261,811.9224c-1.3659,9.258-11.9388,19.9767-23.2209,28.0151-12.1416,8.6509-17.0059,17.5345-21.3114,21.97-1.5934,1.8224-2.5731,2.8244-2.5731,2.8244l-12.9594-15.0764a3.55,3.55,0,0,0,.5963-.5691c2.8993-3.1578,10.2542-10.9523,15.1516-19.9246,10.7377-19.672,25.7532-22.5753,25.7532-22.5753S1094.3145,808.712,1098.5261,811.9224Z" style="fill:#ffb27d"/><path d="M429.0136,1001.04l8.7594,7.1133s23.9607-8.5922,29.3676,19.88c0,0,1.44,12.1343-6.2473,12.1573s-4.5139-1.3268-15.4-1.0075-19.9056-5.4193-21.5-14.2516l-5.2068-7.4841Z" style="fill:#ea8e50"/><path d="M428.022,1016.3052c6.988-7.2965,6.4251-12.69,6.4251-12.69s-80.9182-66.2487-89.1245-71.6456c-5.5918-3.6781-61.9757-57.6883-93.0408-88.7164-14.9443-14.9264-30.9327-9.7776-50.5146-4.159L185.641,843.721c-19.4717,5.5865-24.5361,32.8207-8.5593,46.054,44.9966,37.2715,119.8508,79.193,133.8569,88.0031,34.7691,21.8709,102.8265,47.861,102.8265,47.861A43.1345,43.1345,0,0,0,428.022,1016.3052Z" style="fill:#992525"/><path d="M520.3648,1423.33s19.6379,14.7131,49.7285,6.9381c0,0,24.26-5.5277,29.5818,6.5709,0,0-37.2092,18.9034-46.6231,24.0719-7.0973,3.8968-14.5024,10.0471-19.7367,14.8a9.7588,9.7588,0,0,1-14.1289-1.09c-1.6371-2.0125-3.51-4.4091-5.5623-7.1908-5.7369-7.774-19.1044-32.8873-19.1044-32.8873Z" style="fill:#233862"/><path d="M531.8925,1415.8547s-11.9582,27.5721-39.5587,22.5032c0,0-56.3243-46.5146-94.959-94.8345-12.5477-15.6948-23.2315-31.5783-29.51-46.1144-25.62-59.3167-94.7686-147.7866-138.7337-192.6258l109.9976-39.7927s35.2332,70.8747,82.1116,157.9315C455.0241,1285.6483,494.846,1356.7772,531.8925,1415.8547Z" style="fill:#2b478b"/><path d="M421.24,1222.922l-23.8656,120.6014c-12.5477-15.6948-23.2315-31.5783-29.51-46.1144-25.62-59.3167-94.7686-147.7866-138.7337-192.6258l109.9976-39.7927S374.362,1135.8652,421.24,1222.922Z" style="fill:#233862"/><path d="M331.3281,1439.3308s-1.1988,22.0007,25.4724,24.9362c0,0,15.2406.08,15.2841,14.0827l-77.5176.2454s-2.25-5.6478-2.7959-17.7465c-.42-9.29,9.004-33.5773,9.004-33.5773Z" style="fill:#233862"/><path d="M303.05,1064.9905s49.0028,53.845,80.1088,150.8529c16.9249,52.78-31.02,185.4805-40.367,231.586,0,0-32.1625,2.7293-54.1535-5.7731,0,0-1.6718-95.2285,11.19-168.6251,7.1979-41.0767-64.52-87.851-95.8571-162.072-21.32-50.4942,4.6153-49.6369,36.4889-50.85Z" style="fill:#2b478b"/><path d="M246.4819,824.763c-27.2635,15.3956-83.0791,1.1969-83.0791,1.1969s22.6668-25.9127,12.3672-67.647l21.4067,10.871,22.9932,11.678a190.77,190.77,0,0,1,2.5212,20.6086c.2623,3.4091.4988,7.2174.6615,11.3788A71.5087,71.5087,0,0,1,246.4819,824.763Z" style="fill:#ffb07b"/><path d="M346.4547,1062.2089c0,4.7915-5.5207,7.0858-6.6927,7.3187-10.9969,2.01-41.701,13.9537-69.36,16.6918-23.29,2.44-44.9121.1237-68.6683-4.6464-3.1463-.6332-10.5308-2.6216-11.0555-5.6363-.6546-3.2921-91.63-185.46-20.9079-263.7126,1.66-1.835,15.6211,1.4714,28.3877,4.5006a52.4026,52.4026,0,0,0,32.2621-2.6362l11.9732,6.3c14.7034,8.1928,42.5236,37.3017,45.7783,60.14,1.6532,11.6158,8.2953,20.2169,10.2179,30.4347q1.07,5.6691,2.1849,11.0689,2.1729,10.586,4.4784,20.159c4.1592,17.2742,8.55,32.1457,12.8617,44.9922,4.5878,13.64,9.0884,24.9869,13.1088,34.4756,5.2139,12.3076,9.6194,21.5063,12.3725,28.5484C345.34,1055.1667,346.4547,1059.0555,346.4547,1062.2089Z" style="fill:#bc3f3f"/><path d="M343.3955,1050.2071C214.973,989.7024,170.4983,873.5226,170.4983,873.5226s104.3392,38.4889,130.0758,48.5093q2.1729,10.586,4.4784,20.159c4.1592,17.2742,8.55,32.1457,12.8617,44.9922,4.5878,13.64,9.0884,24.9869,13.1088,34.4756C336.2369,1033.9663,340.6424,1043.165,343.3955,1050.2071Z" style="fill:#992525"/><path d="M506.3076,1020.36H435.4085A123.473,123.473,0,0,1,312.0753,897.0264V666.0273A123.473,123.473,0,0,1,435.4085,542.6941h70.8991A123.473,123.473,0,0,1,629.6408,666.0273V897.0264A123.473,123.473,0,0,1,506.3076,1020.36ZM435.4085,615.5438a50.54,50.54,0,0,0-50.4835,50.4835V897.0264A50.54,50.54,0,0,0,435.4085,947.51h70.8991a50.54,50.54,0,0,0,50.4835-50.4835V666.0273a50.54,50.54,0,0,0-50.4835-50.4835Z" style="fill:#f99746"/><path d="M1249.83,824.0754H599.6751V738.979H1249.83a42.5481,42.5481,0,0,1,42.5481,42.5482h0A42.5481,42.5481,0,0,1,1249.83,824.0754Z" style="fill:#f99746"/><path d="M1168.25,806.94h68.2933a0,0,0,0,1,0,0V973.7016a34.1465,34.1465,0,0,1-34.1465,34.1465h0a34.1465,34.1465,0,0,1-34.1465-34.1465V806.94a0,0,0,0,1,0,0Z" style="fill:#f99746"/><path d="M418.5317,1015.1438l11.0973,4.0693s22.223-15.7135,36.0593,9.8435c0,0,5.0049,11.1631-2.9177,13.5873s-5.04.1422-16.1759,3.8505-22.104,1.0378-26.31-6.9168l-7.5428-5.534Z" style="fill:#ffb07b"/><path d="M427.6654,1030.8378c4.1032-10.7051,5.9759-15.5544,5.9759-15.5544s-83.8536-68.349-92.3978-74.2112c-5.8212-3.9955-63.7854-47.3221-92.0439-81.088a59.1414,59.1414,0,0,0-57.4963-19.9225L174.1,843.7531c-21.2555,4.457-28.1608,31.3612-11.6726,45.4955C208.8637,929.058,287.186,975.2312,301.79,984.8354c36.2523,23.8416,116.4368,57.25,116.4368,57.25S424.4427,1039.2459,427.6654,1030.8378Z" style="fill:#bc3f3f"/><path d="M222.6911,801.4705c-26.8109,1.5051-44.2461-20.63-44.2461-20.63s12.1226-6.7154,18.7317-11.6567l22.9932,11.678A190.77,190.77,0,0,1,222.6911,801.4705Z" style="fill:#ea8e50"/><path d="M234.1129,773.9446s-40.6222,29.152-58.3873,3.575-34.9727-39.04-9.7875-58.7347,37.0581-13.4721,45.0642-6.3774S244.2232,765.7023,234.1129,773.9446Z" style="fill:#ffb07b"/><path d="M215.294,689.3075a65.4173,65.4173,0,0,0-4.7336-16.75s-2.5486,10.56-21.8478,9.1031-49.8868,1.8982-60.0824,23.89c-.6482,1.3988-1.2272,2.84-1.7412,4.3144-1.8453-4.876-2.29-12.1819-2.29-12.1819-3.6674,9.4673,0,21.31,0,21.31h.0018c-.056.3446-.1013.691-.15,1.037-4.26,3.6011-7.8373,14.7949-7.8373,14.7949,1.2859-3.121,4.4215-5.1592,7.2148-6.4144-.0864,17.1129,6.8536,33.842,19.034,38.8219,17.8114,7.2828,17.6691,1.7274,35.5828,13.6087,0,0,4.8056-5.9618,1.5277-9.967s-15.6575-9.8319-8.7388-15.6581,9.4671.7283,12.0167-3.2769-10.1964-15.658,6.1894-26.5819S216.7506,699.1394,215.294,689.3075Z" style="fill:#233862"/><path d="M926.8358,1455.5735l-14.9674,5.5731s-65.009-90.164-73.0134-169.493c-1.43-14.1627-.9524-27.8852,2.1387-40.5565,0,0-.635-3.6292-1.7474-10.0444-.5131-2.9942-1.149-6.5985-1.87-10.7291-2.113-12.1094-5.0218-28.6784-8.3459-47.5453-7.6487-43.4165-17.5588-98.9172-25.2573-139.7183l4.0329-1.2948,43.6352-14.0772,9.0181-28.642,32.4917-8.5539s7.2582,14.1992,13.7472,81.2712c1.1971,8.7985,2.2846,18.5,3.1036,29.0216a574.2835,574.2835,0,0,1-3.092,117.4907q-2.2356,17.4864-5.7065,36.0593c-1.71,9.0672-1.967,21.421-1.2458,35.6077C903.0316,1354.7914,926.8358,1455.5735,926.8358,1455.5735Z" style="fill:#bc3f3f"/><path d="M909.8016,1100.7849l-70.5553,140.2678c-.5131-2.9942-1.149-6.5985-1.87-10.7291-2.113-12.1094-5.0218-28.6784-8.3459-47.5453-7.6487-43.4165-17.5588-98.9172-25.2573-139.7183l4.0329-1.2948,43.6352-14.0772,9.0181-28.642,32.4917-8.5539s7.2582,14.1992,13.7472,81.2712C907.8951,1080.5618,908.9826,1090.2638,909.8016,1100.7849Z" style="fill:#992525"/><path d="M878.7623,1008.492,877.13,994.4858c-27.364,7.2682-100.4769-20.3093-100.4769-20.3093s-26.51,23.3018-23.0288,79.1583c1.6985,27.2635,4.8021,143.1144,8.0426,177.396,1.1721,12.4251,2.1974,21.2671,2.6163,24.7985a.0627.0627,0,0,1,.0089.0346,4.9,4.9,0,0,1-.795,3.0352,161.0323,161.0323,0,0,0-11.9635,25.1577c-31.81,84.7687,4.9,189.162,4.9,189.162l9.5259-3.839s20.8909-116.1772,37.8647-167.5019c2.8821-8.7052,5.6442-15.5463,8.1751-19.6344,7.38-11.911,14.2293-31.3737,20.4462-54.5217,11.7492-43.765,21.2067-100.6984,27.501-144.643C860.8139,1082.8188,878.7623,1008.492,878.7623,1008.492Z" style="fill:#bc3f3f"/><path d="M1045.71,834.688c8.2641,3.2943,16.355,9.78,24.3592,17.8638,0,0-46.6694,81.3939-73.5327,93.232-14.7456,6.498-60.885-42.7992-70.4215-70.4214-2.3313-6.7525,6.2749-29.3381,3.457-34.0881a47.3559,47.3559,0,0,1-6.2764-17.66,8.4577,8.4577,0,0,1-.29-2.4779,39.1264,39.1264,0,0,1,.8427-14.115c1.0665-2.7457,4.0885-3.9262,8.5745-3.8549l1.5855-.003c24.1681,14.2224,55.9245,84.07,61.1621,85.7062C1008.83,871.5681,1045.71,834.688,1045.71,834.688Z" style="fill:#2c3a64"/><path d="M931.0385,838.6032c-8.59,3.984-18.9647,6.6963-31.5133,7.3811-47.0456,2.578-57.7258-38.6627-59.668-66.0344a39.4573,39.4573,0,0,1,16.1422-2.0409c3.3357.1837,6.8181.5256,9.69.88,5.7554-3.0057,16.0932-17.6082,22.0683-42.0349l2.0285.9409,33.9464,15.9585S920.1271,764.7,917.4628,775.27c-2.0773,8.2725-3.5677,16.2644-2.321,18.5005,2.6758,1.0876,4.2765,1.7719,4.2765,1.7719a.0932.0932,0,0,0,.0125.0365A233.0206,233.0206,0,0,1,931.0385,838.6032Z" style="fill:#ffb27d"/><path d="M942.8064,869.47c-.3549.9409-.7453,1.8577-1.173,2.7986-11.9146,25.661-33.9705,131.9583-33.9705,131.9583,3.141,19.1106-143.6274-3.7518-144.0062-21.1523-5.1694-18.4517,18.3414-48.0958,31.6-62.9673a42.28,42.28,0,0,0,4.4473-5.9875,41.73,41.73,0,0,0,6.0125-17.5472c2.6038-24.6668-7.088-81.5545-4.4736-92.5447,1.0222-4.2971,20.4566,20.2908,22.7785,17.8225,2.554-2.6882,4.1547-5.4375,4.3379-8.5411a45.5177,45.5177,0,0,0-.1832-7.1608c-.11-1.1366-.257-2.273-.4286-3.41-1.8319-11.9385-24.6616-6.8411-24.6616-6.8411,8.3672-20.1431,52.9231-18.5352,52.914-17.9889s-.0249,1.2469-.0374,3.2873c-.0729,8.1991,0,29.2533,2.6279,33.2372,3.2867,4.9609,63.4189,26.7,66.5954,19.9661,3.1284-6.6225-5.437-37.6476-5.7545-38.821a.0932.0932,0,0,1-.0125-.0365,119.1367,119.1367,0,0,1,14.59,7.6217C941.5577,818.2968,952.1909,844.5783,942.8064,869.47Z" style="fill:#2b478b"/><path d="M902.3015,647.74c-.0738-2.0395-1.6523-24.0177-35.1292-25.1661,0,0,16.4623,1.9626,19.3062,9.2,0,0-11.2093-8.9426-20.3378-6.0662s-14.489,18.8687-14.5433,24.1288,5.0183,22.2173,10.8119,23.6592a17.68,17.68,0,0,0,7.0165.0085,78.9687,78.9687,0,0,0-4.4972,8.0267c-13.3579,27.4213.4189,54.22,11.7269,51.2589,7.2531-1.8987,9.3055,10.4775,9.3055,10.4775l70.4638-57.0455S930.5432,632.6676,902.3015,647.74Z" style="fill:#bc3f3f"/><path d="M923.7322,753.6606s-3.6087,11.0356-6.2676,21.6157c-19.8425-5.5362-25.8674-26.3933-27.6806-37.5738Z" style="fill:#ed985f"/><path d="M927.911,765.3457s-47.4716-10.9865-40.175-40.4439,6.0844-50.7142,36.7023-44.9455,33.7,18.4627,33.6557,28.8878S940.4471,767.4444,927.911,765.3457Z" style="fill:#ffb27d"/><path d="M960.7636,692.12c-5.1036-10.6767-11.11-10.1072-14.867-8.2143-22.3058-20.6379-44.1838-3.7777-44.1838-3.7777a57.9741,57.9741,0,0,1-26.6722,28.6557s7.293,7.4673,28.4294,7.3028c6.457-.05,12.9479-3.0146,18.8545-7.0991a113.6428,113.6428,0,0,1-24.7523,18.461c26.46-5.0636,44.2017-35.6953,46.0194-38.9487,2.2419,3.31,6.5291,10.3561,6.89,16.3063.4909,8.0857-2.2916,23.7873,2.3388,24.3822C952.8205,729.1881,968.4167,708.1318,960.7636,692.12Z" style="fill:#bc3f3f"/><path d="M811.8174,1480.7009H736.434s-1.8069-11.4886,2.1308-20.2044c3.7723-8.3645,9.6815-12.1654,8.2667-22.2853,4.7906,4.9319,12.5975,10.4552,23.4957,8.9889,1.3347,2.1644,8.62,13.7508,13.08,16.9549C788.3332,1467.6952,810.3,1466.4342,811.8174,1480.7009Z" style="fill:#233862"/><path d="M973.6759,1480.7009H898.2917s-2.8181-12.023,2.1307-20.2044c4.3815-7.24,2.7025-11.3632-.5425-17.3524a29.2922,29.2922,0,0,0,12.6972,2.3912c3.7554-.2161,7.7269-1.9208,11.21-3.943,3.2441,3.6985,17.1374,19.4431,21.4779,22.5627C950.1918,1467.6952,972.1588,1466.4342,973.6759,1480.7009Z" style="fill:#233862"/><polygon points="1076.216 824.075 1190.954 824.075 1184.58 779.577 1082.135 783.693 1076.216 824.075" style="fill:#f99746"/><path d="M1096.3634,738.979c-5.35,5.33-5.223,22.4093-16.5051,30.4477-12.1416,8.651-17.0059,17.5345-21.3114,21.97-1.5934,1.8224-2.5731,2.8244-2.5731,2.8244l-12.9594-15.0764a3.55,3.55,0,0,0,.5963-.5691c2.8993-3.1577,10.2542-10.9523,15.1516-19.9245,10.7377-19.6721,25.7532-22.5754,25.7532-22.5754S1092.1517,735.7686,1096.3634,738.979Z" style="fill:#ffb27d"/><path d="M1050.9461,767.302l19.1231,21.4s-51.1031,44.4857-61.77,53.7279c-7.5857,6.4509-14.7377,11.7128-20.5733,14.7263a13.683,13.683,0,0,1-1.78.7949c-15.0041,6.5682-47.3956,5.8374-79.7715,1.0466-4.4746-.6519-8.8923-1.4026-13.2123-2.0948a309.9736,309.9736,0,0,1-43.6643-10.6182,121.5687,121.5687,0,0,1-19.2358-7.7255,49.8412,49.8412,0,0,1-5.0418-2.822c-25.3165-15.1635-24.0906-29.2532-23.61-34.312s4.1232-11.7367,12.5765-14.4792c20.0869-6.5167,87.48,19.4565,97.4065,21.3343,5.9575,1.2591,21.46,6.7489,26.6762,7.7056,9.984,1.78,18.2322,2.9365,23.8667,2.9561,3.6524.0393,10.0985-2.2236,17.891-5.6655C993.4211,807.3257,1050.9461,767.302,1050.9461,767.302Z" style="fill:#253d78"/><path d="M1058.4587,831.8423c-1.5936-2.6181-1.7487-6.8567-1.7487-6.8567,2.204-5.6644,7.0986-12.0387,8.92-13.2908s4.2116-4.3255,4.7807-2.2766-2.1627,12.7487-5.35,16.96A16.442,16.442,0,0,1,1058.4587,831.8423Z" style="fill:#ffb27d"/><path d="M2195.159,575.1113c16.084,27.9941,36.314,38.8,36.314,38.8h84.1616S2182.889,553.7558,2195.159,575.1113Z" style="fill:#ed7d2b"/><path d="M2254.7981,793.1563c2.1933,2.5136,4.0854,2.3759,3,5.375-.001.0127-.4873,1.4882-.5,1.5-2.0078,5.5468-5.7964,9.44-13.5,15.625-.9839.7949-1.9873,1.4561-2.75,2.125-.2.1758-1.5615.4482-1.75.625-.1553.1357-1.3516,2.6086-1.5,2.7394-7.1836,6.6221-5.72,4.6991-18.625,18.1356-14.7152,15.3106-14.2848,13.7279-17.1666,12.3333-2.4385-1.1884-3.4476-4.0385,2.0412-13.1654.2666-.44.5273-.8857.8-1.3311.7309-1.2129,1.4575-2.4453,2.1831-3.665,6.4326-10.9844,4.7807-16.1387,3.2558-32.4854-1.2392-13.2841-20.666-74.2138-20.666-74.2138l28.1992-4.8574s8.4927,48.5175,17.8492,55.99c5.0034,3.9824,10.604,4.0322,15.4126,6.9844q.51.3075,1,.6318C2254.8153,787.3144,2252.5989,790.6367,2254.7981,793.1563Z" style="fill:#ffb27d"/><path d="M2259.7982,791.7041a7.78,7.78,0,0,1,1.3872,8.3213.0694.0694,0,0,1-.021.042c-2.4585,5.541-8.9234,11.7041-16.37,17.87-.9727.8076-1.8316,1.55-2.5958,2.2431-.2.1758-.4.3516-.5888.5284-.1553.1357-.3047.2783-.4531.4091-7.1836,6.6221-4.48,8.1387-17.3853,21.5752-14.7153,15.3106-24.8467,15.586-27.7285,14.1914-2.4385-1.1884,2.5156-9.3086,8.0044-18.4355a62.713,62.713,0,0,0,26.2309-19.3281c8.8609-11.3067,14.77-25.835,20.8033-34.25q.51.3075,1,.6318A37.02,37.02,0,0,1,2259.7982,791.7041Z" style="fill:#bc3f3f"/><path d="M2027.1731,772.4063c-1.7412,8.7041-7.3872,6.2617-21.25,2.875s-10.646-.0664-30.375-2.25-21.523-5.3165-22.125-8.25c-.5386-2.6026,3.5845-4.3634,14.0406-5.5684,1.3149-.1475,2.6357-.3106,3.957-.4727,11.8057-1.4814,20.4507-9.1,31.1739-15.3555,10.1577-5.9257,25.3154-30.07,25.3154-30.07l27.0571,2.1426s-14.1982,21.5654-19.69,30.9414c-3.23,5.5147-3.0586,12.8067-2.6558,18.4375C2032.8309,767.8974,2027.79,769.3408,2027.1731,772.4063Z" style="fill:#ffb27d"/><path d="M2004.4017,777.957c-13.8623-3.3877-10.5674.6387-30.2964-1.5449s-25.7056-9.54-26.3076-12.4736c-.5386-2.6026,9.21-3.5206,19.666-4.7256l.0977.2011a55.623,55.623,0,0,0,28.2543,8.7823c13.3848.3252,27.5621-3.51,36.8057-3.36a34.7285,34.7285,0,0,1-.2085,9.2559C2030.6717,782.7959,2018.2645,781.3437,2004.4017,777.957Z" style="fill:#bc3f3f"/><path d="M2136.1009,601.0859l25.2935,68.06,33.021,88.8672a53.4982,53.4982,0,0,0,17.5424-1.6026c7.9009-2.2841,16.9663-8.2588,16.9663-8.2588s-9.1694-95.4179-26.2739-150.1914c-4.3828-14.0595-9.2959-25.4316-14.7168-31.833C2161.4173,534.79,2136.1009,601.0859,2136.1009,601.0859Z" style="fill:#ed7d2b"/><path d="M2161.8172,492.9961c16.57-5.3448,63.8311,1.5185,111.3062,10.8115l9.94-16.3955,102.5449-8.0078s33.7824,75.0185,15.3125,122.8535c-4.4981,11.65-19.1817,11.6447-19.1856,11.65,0,0-60.7-.0022-80.518-.0022-50.9966,0-107.9272-35.0556-115.292-36.5283-12.0542-2.4111-16.876,21.6983-28.9307,47.0117s-113.3105,112.1065-113.3105,112.1065-15.5625.1543-21.9912-2.2568c-6.9136-2.5928-9.4434-5.961-9.4434-5.961S2124.4486,505.0508,2161.8172,492.9961Z" style="fill:#f99746"/><path d="M2283.6663,346.1933c36.5161,20.1065,110.5943,61.7871,110.979,61.5176,0,0,27.2281,10.26,42.6753.001,25.7451-17.0977,39.5523-63.1143-7.5312-102.7139-23.482-19.75-40.1646-24.5586-42.7-56.0937-1.375-17.1089-24.7622-73.5733-63.62-68.3516a59.3017,59.3017,0,0,1-9.7945.6436,36.3675,36.3675,0,0,0-19.7168,5.0922C2271.9661,199.3813,2228.9241,338.4111,2283.6663,346.1933Z" style="fill:#233862"/><path d="M2314.2728,329.0791c-.1607.1045,17.9663,6.2929,30.0874.9248,11.4028-5.0391,20.041-23.8,19.8721-23.81-5.1875-.24-10.8819-4.7744-15.2676-34.5322l-2.2095.793-37.1382,13.3632s2.6909,11.917,4.4312,23.2618C2315.5135,318.6064,2316.3011,327.7324,2314.2728,329.0791Z" style="fill:#ffb27d"/><path d="M2309.617,285.8183s2.6909,11.917,4.4312,23.2618c21.3315-3.8389,29.7036-25.0918,32.707-36.625Z" style="fill:#ed975d"/><path d="M2304.0863,297.6465s50.812-6.82,46.0781-38.3985-1.3643-53.7251-34.0069-50.706-37.125,16.0117-38.1084,26.936S2290.7469,298.6064,2304.0863,297.6465Z" style="fill:#ffb27d"/><path d="M2279.9007,218.1689s32.5278,28.0313,54.6528,30.291,30.5015-4.8418,30.5015-4.8418a86.3954,86.3954,0,0,1-20.8892-28.3027,15.5547,15.5547,0,0,0-12.8251-9.17C2315.5418,204.7812,2285.5931,204.1592,2279.9007,218.1689Z" style="fill:#233862"/><path d="M2300.2342,215.6587s-10.8818,10.521-14.3086,18.3252c-3.3071,7.5307-4.2988,25.5415-1.665,32.6958,0,0-16.9546-32.9668-7.356-48.9839C2287.0833,200.7114,2300.2342,215.6587,2300.2342,215.6587Z" style="fill:#233862"/><path d="M2271.4862,403.9306c1.5361,102.8565.4218,81.3633,11.6728,91.1231,2.7109,2.35,10.3325,3.751,20.3633,4.4131,31.5391,2.0937,86.9814-3.1026,89.09-8.9317,7.2749-20.1679,2.1392-26.4336,8.2085-57.31.6328-3.2832,1.416-6.8379,2.335-10.709,5.0605-21.2071,9.9858-28.4209-7.9678-62.4912-16.2817-30.8614-33.1958-55.9092-34.7173-55.0049-42.956,25.499-46.42,4.0664-46.42,4.0664S2270.7332,353.76,2271.4862,403.9306Z" style="fill:#bc3f3f"/><path d="M2161.3944,669.1455l33.021,88.8672a53.4982,53.4982,0,0,0,17.5424-1.6026c7.9009-2.2841,16.9663-8.2588,16.9663-8.2588s-9.1694-95.4179-26.2739-150.1914Z" style="fill:#f99746"/><path d="M2314.0482,309.08s-44.2,7.4941-49.39,26.5253-35.7339,130.9073-35.7339,130.9073,22.47,4.0371,32.85-6.3438,36.12-96.3066,36.12-96.3066Z" style="fill:#bc3f3f"/><path d="M2303.5223,499.4668c31.5391,2.0937,86.9814-3.1026,89.09-8.9317,7.2749-20.1679,2.1392-26.4336,8.2085-57.31l-15.2119-42.836s2.5152,47.7012-11.5522,60.2471c-14.0528,12.5469-57.5962,24.2187-64.4341,34.7021C2306.3236,490.3691,2304.1546,495.415,2303.5223,499.4668Z" style="fill:#992525"/><path d="M2339.6585,479.4043s-31.1157-6.9278-36.1362-4.167-17.291,12.8174-18.8272,16.3174,11.1778-2.6563,15.3125-3.7657c2.6783-.7187,9.7281,1.7315,13.2178,2.8946,14.6851,4.8945,23.6836,2.3769,23.6836,2.3769Z" style="fill:#ffb27d"/><path d="M2360.4969,304.998s41.78,2.5733,56.2427,22.7461c20.3594,28.3955,60.748,149.4141,37.6011,165.5547-26.0674,18.1758-118.6373,4.7549-118.6373,4.7549s-3.0805-14.3994,1.2056-21.3643,73.937-18.2168,77.1519-21.4316-40.1831-62.6856-40.1831-72.3291S2360.4969,304.998,2360.4969,304.998Z" style="fill:#bc3f3f"/><path d="M2302.0159,483.8984s-6.5195,8.4092-8.6567,9.4131a6.3763,6.3763,0,0,1-3.5181.7529l4.3931-7.9072Z" style="fill:#ffb27d"/><path d="M2303.5223,475.2373l-18.9551,9.2051a3.3779,3.3779,0,0,0,3.14,1.2128c2.3344-.1064,8.2211-2.2587,8.2211-2.2587Z" style="fill:#ffb27d"/><polygon points="2293.359 506.194 2143.419 506.194 2098.313 394.031 2248.023 394.031 2293.359 506.194" style="fill:#163560"/><polygon points="2141.661 501.824 2339.659 501.824 2339.659 506.194 2143.419 506.194 2141.661 501.824" style="fill:#11294a"/><path d="M2181.2689,450.1123c-1.1309-3.9424,1.1489-7.1387,5.0918-7.1387a10.23,10.23,0,0,1,9.186,7.1387c1.1309,3.9433-1.1489,7.14-5.0918,7.14A10.2292,10.2292,0,0,1,2181.2689,450.1123Z" style="fill:#fff"/><path d="M2891.0606,1485.2263H17.6847a3.8306,3.8306,0,0,1-3.8194-3.8193h0a3.8306,3.8306,0,0,1,3.8194-3.8194H2891.0606a3.8306,3.8306,0,0,1,3.8193,3.8194h0A3.8305,3.8305,0,0,1,2891.0606,1485.2263Z" style="fill:#2e3552"/></g></g></svg>