<svg xmlns="http://www.w3.org/2000/svg" viewBox="0 0 399.2209 386.0306"><g id="Layer_2" data-name="Layer 2"><g id="OBJECTS"><circle cx="200.8068" cy="190.124" r="92.1587" transform="translate(-75.623 197.6779) rotate(-45)"/><circle cx="200.8068" cy="190.124" r="98.3884" transform="translate(-75.623 197.6779) rotate(-45)" style="fill:none;stroke:#000;stroke-miterlimit:10"/><path d="M295.5775,190.1241a2.612,2.612,0,1,1-2.612-2.6121A2.612,2.612,0,0,1,295.5775,190.1241Z" style="stroke:#fff;stroke-miterlimit:10"/><path d="M111.26,190.1241a2.612,2.612,0,1,1-2.612-2.6121A2.612,2.612,0,0,1,111.26,190.1241Z" style="stroke:#fff;stroke-miterlimit:10"/><path d="M203.4188,97.9653a2.612,2.612,0,1,1-2.612-2.612A2.612,2.612,0,0,1,203.4188,97.9653Z" style="stroke:#fff;stroke-miterlimit:10"/><path d="M203.4188,282.2828a2.612,2.612,0,1,1-2.612-2.6121A2.612,2.612,0,0,1,203.4188,282.2828Z" style="stroke:#fff;stroke-miterlimit:10"/><path d="M309.3062,289.8633l-11.3984-28.7488a108.9973,108.9973,0,0,1,32.5619,2.3877s-13.5085,4.432-15.7488,6.32c0,0,61.4977,6.4979,41.1436,72.1986l-5.8575-10.3987s-8.2659,8.01-12.4113,9.7641c0,0,27.1874-45.814-25.6017-66.3838C311.994,275.0024,310.7066,284.1828,309.3062,289.8633Z" style="fill:none;stroke:#69cc3b;stroke-linecap:round;stroke-linejoin:round"/><path d="M148.3389,316.1815l-10.1828-24.4761a93.432,93.432,0,0,0-18.5777,20.9319s10.9486-5.3523,13.4535-5.5316c0,0-33.8979,40.7546,17.8819,68.9518l-2.6175-9.89s9.8665-.02,13.462-1.4206c0,0-44.09-11.8944-23.9544-56.0885C137.8039,308.6582,144.0827,313.5288,148.3389,316.1815Z" style="fill:#005385"/><path d="M214.8062,382.4781a16.4741,16.4741,0,0,0,3.81,1.198" style="fill:none;stroke:#ff8e00;stroke-linecap:round;stroke-linejoin:round;stroke-width:2px"/><path d="M226.6763,383.281a16.2672,16.2672,0,0,0,4.7066-2.2181,16.6651,16.6651,0,0,0,7.0164-15.0292,16.1654,16.1654,0,0,0-9.9575-13.1995,5.0758,5.0758,0,0,0-2.9781-.41c-2.4319.5834-3.0694,4.1783-1.4728,6.1033s4.4552,2.3188,6.9038,1.8094c5.7777-1.2021,10.14-6.875,10.3068-12.7741a16.0743,16.0743,0,0,0-8.8157-14.28c-1.9932-1.0178-5.0244-1.3014-5.9258.747-.7014,1.5938.5764,3.4325,2.1208,4.2369,3.0423,1.5846,7.033.5114,9.3625-2.0066a12.2981,12.2981,0,0,0,2.7948-9.584,26.2765,26.2765,0,0,0-3.3784-9.6488,62.3,62.3,0,0,0-3.4823-5.6938" style="fill:none;stroke:#ff8e00;stroke-linecap:round;stroke-linejoin:round;stroke-width:2px;stroke-dasharray:8.135069847106934,8.135069847106934"/><path d="M231.4649,308.0592q-1.2384-1.5707-2.576-3.06" style="fill:none;stroke:#ff8e00;stroke-linecap:round;stroke-linejoin:round;stroke-width:2px"/><path d="M240.6366,309.55l-12.4688,7.3767a.7209.7209,0,0,1-1.088-.6179l-.0551-15.76a.7209.7209,0,0,1,1.1219-.6016l12.5239,8.3827A.7209.7209,0,0,1,240.6366,309.55Z" style="fill:#ff8e00"/><path d="M398.2209,144.3182a17.84,17.84,0,0,0-.7932-3.9156" style="fill:none;stroke:#ff8e00;stroke-linecap:round;stroke-linejoin:round;stroke-width:2px"/><path d="M393.4429,133.4967a17.8491,17.8491,0,0,0-5.4153-4.1031,18.1029,18.1029,0,0,0-17.9646,1.391,17.561,17.561,0,0,0-7.1673,16.47,5.5148,5.5148,0,0,0,1.2027,3.0364c1.8509,1.9889,5.592.6716,6.56-1.867s-.1862-5.453-1.976-7.4971c-4.2234-4.8233-11.92-5.9194-17.5892-2.9263s-9.0673,9.5614-8.7987,15.9668c.102,2.429,1.4529,5.4479,3.8721,5.2065,1.8823-.1879,2.9389-2.3789,2.875-4.2694-.1261-3.7243-3.2732-6.926-6.8992-7.7847a13.36,13.36,0,0,0-10.5589,2.4758,28.5434,28.5434,0,0,0-7.3226,8.35,67.68,67.68,0,0,0-3.8494,7.0071" style="fill:none;stroke:#ff8e00;stroke-linecap:round;stroke-linejoin:round;stroke-width:2px;stroke-dasharray:8.02886962890625,8.02886962890625"/><path d="M318.7962,168.6314q-.7494,1.8546-1.3884,3.7514" style="fill:none;stroke:#ff8e00;stroke-linecap:round;stroke-linejoin:round;stroke-width:2px"/><path d="M315.437,158.84l13.6384,7.8545a.7832.7832,0,0,1-.0035,1.3593l-14.8781,8.47a.7832.7832,0,0,1-1.1684-.74l1.24-16.3246A.7832.7832,0,0,1,315.437,158.84Z" style="fill:#fff;stroke:#ff8e00;stroke-linecap:round;stroke-linejoin:round;stroke-width:2px"/><path d="M10.4025,145.02a16.31,16.31,0,0,0,.3278,15.7744,15.8045,15.8045,0,0,0,13.7954,7.5573,15.3307,15.3307,0,0,0,13.0995-8.6183,4.8126,4.8126,0,0,0,.57-2.7933c-.4035-2.3372-3.767-3.16-5.6862-1.7663s-2.4663,4.0749-2.1337,6.4232c.7852,5.5414,5.8878,10.0158,11.46,10.5339a15.2442,15.2442,0,0,0,14.052-7.4719c1.085-1.8241,1.5383-4.6756-.3453-5.6537-1.4656-.761-3.2837.3361-4.1392,1.7486-1.6853,2.7825-.9131,6.6248,1.3277,8.9831a11.663,11.663,0,0,0,8.9,3.23,24.92,24.92,0,0,0,9.3376-2.6084,59.1448,59.1448,0,0,0,11.9-7.2828" style="fill:none;stroke:#00b4e9;stroke-linecap:round;stroke-linejoin:round;stroke-width:2px"/><path d="M77.8452,173.9159l-6.2205-12.25a.6838.6838,0,0,1,.6513-.992l14.9179.91a.6837.6837,0,0,1,.501,1.0985l-8.6976,11.341A.6837.6837,0,0,1,77.8452,173.9159Z" style="fill:#fff;stroke:#00b4e9;stroke-linecap:round;stroke-linejoin:round;stroke-width:2px"/><path d="M118.9466,85.8749c.3616-.0053,4.3085-.2534,4.333-.2778a9.6115,9.6115,0,0,0-1.5638-2.075c-5.4627-6.6554-14.1713-8.87-22.47-8.1414a25.5742,25.5742,0,0,1-5.1172.2147c-5.385-.5948-6.781-3.6926-8.6608-6.957-2.0689-3.59-2.8566-7.3908-4.3367-11.2119A17.67,17.67,0,0,0,72.28,48.0423a17.38,17.38,0,0,0-10.8986-1.245c-4.5919.9023-9.1361,2.393-13.6674,3.5651,1.8055-1.6626,3.3418-3.51,5.4955-4.6872-.0245,0-.049-.0124-.0735-.0124a57.7976,57.7976,0,0,0-7.3028-.728,42.8277,42.8277,0,0,1,6.2579-3.1718c-1.898-.6663-4.672-1.5246-6.57-2.1908l1.8888-.6329A50.4375,50.4375,0,0,1,63.71,36.1158a27.7008,27.7008,0,0,1,15.6639,4.78c6.919,4.9614,9.094,12.945,12.7711,20.6318,2.1342,4.4661,2.8477,5.9568,11.5846,6.5779,5.1282.3613,9.8733-.5468,14.36,1.5534,4.0827,1.9153,7.3577,5.98,9.205,9.9977,1.0585-1.8726,4.1118-7.8095,4.9616-9.5723.9028,1.7179,1.21,4.0778,1.6282,5.9723.5215,2.3543.92,4.7329,1.2273,7.13a88.609,88.609,0,0,1,.7088,13.9058c-1.6655-.5187-21.96-8.9308-24.1561-10.4005.7063-.6785,2.5385-.6681,3.4946-.7271C116.4158,85.8751,117.6843,85.8719,118.9466,85.8749Z" style="fill:none;stroke:#005385;stroke-linecap:round;stroke-linejoin:round"/><path d="M122.2994,85.6576c.2417-.4919.1826-.3717.4242-.8636-4.5233-6.14-12.3389-9.5282-19.9923-9.4394-2.59.03-5.1772.4186-7.76.2356C83.326,74.7652,84.2623,60.842,78.8765,53.5331a17.1352,17.1352,0,0,0-8.5034-6.29c-3.6684-1.1466-7.6468-.8012-11.3958.0452s-7.3763,2.1768-11.13,3.0025a26.461,26.461,0,0,1,5.3-4.5885l-3.2055,2.3434c5.2828-1.5976,10.6718-3.2108,16.19-3.108,5.274.0983,10.8859,2.0133,14.1861,6.3216,3.5758,4.668,4.7877,10.5682,7.1811,15.8313a10.8246,10.8246,0,0,0,7.7861,6.06c2.6367.47,5.3335-.09,8.0092-.2059a24.8026,24.8026,0,0,1,22.443,12.8439.4894.4894,0,0,1-.3463.71q-3.634.6574-7.265,1.3326c5.9866,2.62,11.0394,5.4,17.7012,9.0367-.5722-.5084-2.2293-.6913-3.0149-.9953q-1.69-.654-3.37-1.3319-3.4785-1.4052-6.9054-2.9337c-1.0036-.45-9.6164-3.9607-10.8295-4.8449a3.13,3.13,0,0,1,2.2381-.71Z" style="fill:#005385"/><path d="M4.6791,276.2316a210.8609,210.8609,0,0,1,25.4363-15.6238c2.1417-1.1607,4.2894-2.3108,6.4562-3.4241a215.5987,215.5987,0,0,1,44.5276-16.9546" style="fill:none;stroke:#69cc3b;stroke-linecap:round;stroke-linejoin:round;stroke-width:2px"/><path d="M15.28,259.565a52.382,52.382,0,0,1,13.619,1.1279" style="fill:none;stroke:#69cc3b;stroke-linecap:round;stroke-linejoin:round;stroke-width:2px"/><path d="M7.34,265.0446a52.3823,52.3823,0,0,1,13.619,1.1279" style="fill:none;stroke:#69cc3b;stroke-linecap:round;stroke-linejoin:round;stroke-width:2px"/><path d="M1,269.1151a52.3832,52.3832,0,0,1,13.6513.6257" style="fill:none;stroke:#69cc3b;stroke-linecap:round;stroke-linejoin:round;stroke-width:2px"/><path d="M22.2357,272.7571A52.384,52.384,0,0,0,29.53,261.201" style="fill:none;stroke:#69cc3b;stroke-linecap:round;stroke-linejoin:round;stroke-width:2px"/><path d="M14.6513,277.6577A52.3891,52.3891,0,0,0,21.34,265.741" style="fill:none;stroke:#69cc3b;stroke-linecap:round;stroke-linejoin:round;stroke-width:2px"/><path d="M7.34,281.1679a52.3887,52.3887,0,0,0,7.2942-11.5562" style="fill:none;stroke:#69cc3b;stroke-linecap:round;stroke-linejoin:round;stroke-width:2px"/><path d="M81.6482,239.9461q-3.3636-2.3093-6.8917-4.3658a1.0121,1.0121,0,0,1,.5058-1.8891,174.2619,174.2619,0,0,1,21.6144,1.37.4193.4193,0,0,1,.2132.74A179.1283,179.1283,0,0,1,79,248.4748a1.0094,1.0094,0,0,1-1.3346-1.4446,70.322,70.322,0,0,0,4.0681-6.7922Z" style="fill:#69cc3b"/><path d="M360.94,56.2217A188.6411,188.6411,0,0,1,346.014,78.3722c-1.3141,1.7391-2.6371,3.4716-3.9892,5.1813a192.918,192.918,0,0,1-29.9814,30.3092" style="fill:none;stroke:#005385;stroke-linecap:round;stroke-linejoin:round;stroke-width:2px"/><path d="M358.4826,73.724a46.8717,46.8717,0,0,1-11.51,4.1283" style="fill:none;stroke:#005385;stroke-linecap:round;stroke-linejoin:round;stroke-width:2px"/><path d="M362.9188,66.3187a46.87,46.87,0,0,1-11.51,4.1283" style="fill:none;stroke:#005385;stroke-linecap:round;stroke-linejoin:round;stroke-width:2px"/><path d="M366.5737,60.6542a46.8768,46.8768,0,0,1-11.35,4.5493" style="fill:none;stroke:#005385;stroke-linecap:round;stroke-linejoin:round;stroke-width:2px"/><path d="M347.9292,65.5575a46.8708,46.8708,0,0,0-1.6581,12.1147" style="fill:none;stroke:#005385;stroke-linecap:round;stroke-linejoin:round;stroke-width:2px"/><path d="M352.29,58.7557A46.8789,46.8789,0,0,0,351.2584,70.94" style="fill:none;stroke:#005385;stroke-linecap:round;stroke-linejoin:round;stroke-width:2px"/><path d="M356.9439,53.1875a46.8757,46.8757,0,0,0-1.6581,12.1147" style="fill:none;stroke:#005385;stroke-linecap:round;stroke-linejoin:round;stroke-width:2px"/><path d="M311.701,114.2966q3.5952.6342,7.2307,1.0017a.9056.9056,0,0,1,.2882,1.726,155.9533,155.9533,0,0,1-18.1111,6.894.3751.3751,0,0,1-.4478-.5235,160.28,160.28,0,0,1,10.0359-17.0254.9032.9032,0,0,1,1.6223.6819,62.9189,62.9189,0,0,0-.7961,7.0393Z" style="fill:#005385"/><path d="M308.9988,112.4337c-1.3233,2.0852-3.2159,5.7552-4.5393,7.84,3.0216-1.237,3.9559-1.4131,6.4474-2.6047a12.6708,12.6708,0,0,0,2.4622-1.4607l-3.5812.3365a.4272.4272,0,0,1-.2587-.03.422.422,0,0,1-.1568-.2758,12.4541,12.4541,0,0,1-.3736-3.806" style="fill:#fff"/><path d="M334.1956,230.1311c-3.6217-2.562-18.8663-13.9566-22.3484-17.9316,4.0025-1.531,23.9834-7.6145,30.6415-9.9889a39.871,39.871,0,0,0-8.073,10.1128,479.1622,479.1622,0,0,0,58.4787-2.4518,143.1445,143.1445,0,0,0-3.1827,19.8941c-18.2741-6.1287-37.8013-7.2439-56.6678-11.1887a81.97,81.97,0,0,1,3.0971,12.7452Z" style="fill:none;stroke:#00b4e9;stroke-linecap:round;stroke-linejoin:round"/><path d="M311.8472,212.2l.2256,4.1251s19.3912,15.9531,23.7317,18.2186l.3365-3.221-13.0353-9.52Z" style="fill:none;stroke:#00b4e9;stroke-linecap:round;stroke-linejoin:round"/><path d="M314.4321,214.6186q-.1168,1.621-.267,3.2394" style="fill:none;stroke:#00b4e9;stroke-linecap:round;stroke-linejoin:round"/><path d="M316.4823,216.45a20.5458,20.5458,0,0,0-.3121,2.9306" style="fill:none;stroke:#00b4e9;stroke-linecap:round;stroke-linejoin:round"/><path d="M318.6082,218.2989l-.3288,2.7224" style="fill:none;stroke:#00b4e9;stroke-linecap:round;stroke-linejoin:round"/><path d="M320.7492,220.1317q-.0984,1.3971-.197,2.7942" style="fill:none;stroke:#00b4e9;stroke-linecap:round;stroke-linejoin:round"/><path d="M322.9933,221.8948q-.3247,1.3694-.5459,2.76" style="fill:none;stroke:#00b4e9;stroke-linecap:round;stroke-linejoin:round"/><path d="M325.0545,223.44a24.4287,24.4287,0,0,0-.7448,2.4612" style="fill:none;stroke:#00b4e9;stroke-linecap:round;stroke-linejoin:round"/><path d="M327.1707,224.9982a25.197,25.197,0,0,0-.69,2.67" style="fill:none;stroke:#00b4e9;stroke-linecap:round;stroke-linejoin:round"/><path d="M329.2238,226.6335q-.4515,1.2579-.8021,2.549" style="fill:none;stroke:#00b4e9;stroke-linecap:round;stroke-linejoin:round"/><path d="M331.1926,228.0978q-.4739,1.1574-.838,2.3557" style="fill:none;stroke:#00b4e9;stroke-linecap:round;stroke-linejoin:round"/><path d="M333.5974,229.9153q-.37.9294-.74,1.8587a1.8955,1.8955,0,0,0-.1605.5713" style="fill:none;stroke:#00b4e9;stroke-linecap:round;stroke-linejoin:round"/><path d="M334.0874,221.6667q11.8469,2.7871,23.9107,4.51c5.4009.771,10.8524,1.3855,16.0907,2.9108,5.04,1.4674,9.9548,3.7874,15.2036,3.85q.17-1.6.3386-3.2005" style="fill:none;stroke:#00b4e9;stroke-linecap:round;stroke-linejoin:round"/><path d="M337.2042,219.4705a17.2613,17.2613,0,0,0-.2164,2.7544" style="fill:none;stroke:#00b4e9;stroke-linecap:round;stroke-linejoin:round"/><path d="M340.674,220.0628a27.2193,27.2193,0,0,1-.152,2.9042" style="fill:none;stroke:#00b4e9;stroke-linecap:round;stroke-linejoin:round"/><path d="M344.1689,220.8q-.1275,1.4657-.1606,2.9374" style="fill:none;stroke:#00b4e9;stroke-linecap:round;stroke-linejoin:round"/><path d="M347.89,221.3643q-.0249.4115-.05.8231-.065,1.0722-.13,2.1446" style="fill:none;stroke:#00b4e9;stroke-linecap:round;stroke-linejoin:round"/><path d="M351.8287,221.9532l-.2982,3.0891" style="fill:none;stroke:#00b4e9;stroke-linecap:round;stroke-linejoin:round"/><path d="M356.1316,222.5288a27.4573,27.4573,0,0,1-.01,3.2317" style="fill:none;stroke:#00b4e9;stroke-linecap:round;stroke-linejoin:round"/><path d="M359.8859,223.16q-.0225,1.5268-.0715,3.0533" style="fill:none;stroke:#00b4e9;stroke-linecap:round;stroke-linejoin:round"/><path d="M363.3854,223.7281q-.2062,1.5184-.4123,3.037" style="fill:none;stroke:#00b4e9;stroke-linecap:round;stroke-linejoin:round"/><path d="M366.52,224.2405q-.1363,1.46-.2726,2.9192" style="fill:none;stroke:#00b4e9;stroke-linecap:round;stroke-linejoin:round"/><path d="M370.4684,225.0412a18.1533,18.1533,0,0,0-.4569,2.927" style="fill:none;stroke:#00b4e9;stroke-linecap:round;stroke-linejoin:round"/><path d="M373.9787,225.8805q-.146,1.4586-.2921,2.9172" style="fill:none;stroke:#00b4e9;stroke-linecap:round;stroke-linejoin:round"/><path d="M377.8777,226.5712q-.2905,1.7145-.65,3.4164" style="fill:none;stroke:#00b4e9;stroke-linecap:round;stroke-linejoin:round"/><path d="M382.4124,227.6609q-.3547,1.7911-.76,3.5718" style="fill:none;stroke:#00b4e9;stroke-linecap:round;stroke-linejoin:round"/><path d="M386.168,228.7414q-.1875,1.7958-.49,3.577" style="fill:none;stroke:#00b4e9;stroke-linecap:round;stroke-linejoin:round"/><path d="M5.7434,208.5613a1.1287,1.1287,0,0,0-.2845.2009.6005.6005,0,0,0-.1312.1849,1.69,1.69,0,0,0-.2287.9116,1.2162,1.2162,0,0,0,.1058.393,1.3546,1.3546,0,0,0,2.5809-.415,1.4,1.4,0,0,0-.536-1.224A1.7181,1.7181,0,0,0,5.7434,208.5613Z" style="fill:#ff8e00"/><path d="M12.8473,207.6061a1.1264,1.1264,0,0,0-.2844.2009.6008.6008,0,0,0-.1313.1849,1.69,1.69,0,0,0-.2286.9116,1.2135,1.2135,0,0,0,.1057.393,1.3535,1.3535,0,1,0,2.0449-1.639A1.7181,1.7181,0,0,0,12.8473,207.6061Z" style="fill:#ff8e00"/><path d="M19.4226,206.7381a1.1269,1.1269,0,0,0-.2845.2009.6005.6005,0,0,0-.1312.1849,1.69,1.69,0,0,0-.2287.9116,1.2173,1.2173,0,0,0,.1057.3931,1.3536,1.3536,0,1,0,2.045-1.6391A1.7181,1.7181,0,0,0,19.4226,206.7381Z" style="fill:#ff8e00"/><path d="M26.9135,205.9258a1.1264,1.1264,0,0,0-.2844.2009.6.6,0,0,0-.1313.1849,1.6894,1.6894,0,0,0-.2286.9116,1.2135,1.2135,0,0,0,.1057.393,1.3535,1.3535,0,1,0,2.0449-1.639A1.7181,1.7181,0,0,0,26.9135,205.9258Z" style="fill:#ff8e00"/><path d="M33.9221,205.06a1.1294,1.1294,0,0,0-.2845.2009.601.601,0,0,0-.1312.185,1.69,1.69,0,0,0-.2287.9115,1.2173,1.2173,0,0,0,.1057.3931,1.3536,1.3536,0,1,0,2.045-1.639A1.7181,1.7181,0,0,0,33.9221,205.06Z" style="fill:#ff8e00"/><path d="M40.2084,204.6268a1.1307,1.1307,0,0,0-.2844.2009.6012.6012,0,0,0-.1313.185,1.69,1.69,0,0,0-.2286.9115,1.2173,1.2173,0,0,0,.1057.3931,1.3536,1.3536,0,1,0,2.045-1.639A1.7183,1.7183,0,0,0,40.2084,204.6268Z" style="fill:#ff8e00"/><path d="M47.0726,204.1044a1.1269,1.1269,0,0,0-.2845.2009.5993.5993,0,0,0-.1312.1849,1.69,1.69,0,0,0-.2287.9116,1.22,1.22,0,0,0,.1057.393,1.3536,1.3536,0,1,0,2.045-1.639A1.7181,1.7181,0,0,0,47.0726,204.1044Z" style="fill:#ff8e00"/><path d="M53.6478,203.7433a1.1282,1.1282,0,0,0-.2844.2009.6.6,0,0,0-.1313.1849,1.69,1.69,0,0,0-.2286.9116,1.2135,1.2135,0,0,0,.1057.393,1.3536,1.3536,0,1,0,2.045-1.639A1.7183,1.7183,0,0,0,53.6478,203.7433Z" style="fill:#ff8e00"/><path d="M60.5842,203.31a1.1269,1.1269,0,0,0-.2845.2009.5993.5993,0,0,0-.1312.1849,1.69,1.69,0,0,0-.2287.9116,1.2186,1.2186,0,0,0,.1057.393,1.3536,1.3536,0,1,0,2.045-1.639A1.7181,1.7181,0,0,0,60.5842,203.31Z" style="fill:#ff8e00"/><path d="M68.1473,203.31a1.1282,1.1282,0,0,0-.2844.2009.6.6,0,0,0-.1313.1849,1.69,1.69,0,0,0-.2286.9116,1.2135,1.2135,0,0,0,.1057.393,1.3536,1.3536,0,1,0,2.045-1.639A1.7183,1.7183,0,0,0,68.1473,203.31Z" style="fill:#ff8e00"/><path d="M74.1994,203.7433a1.1264,1.1264,0,0,0-.2844.2009.6.6,0,0,0-.1313.1849,1.6894,1.6894,0,0,0-.2286.9116,1.2135,1.2135,0,0,0,.1057.393,1.3535,1.3535,0,1,0,2.0449-1.639A1.7181,1.7181,0,0,0,74.1994,203.7433Z" style="fill:#ff8e00"/><path d="M79.9488,203.7433a1.1282,1.1282,0,0,0-.2844.2009.5977.5977,0,0,0-.1312.1849,1.69,1.69,0,0,0-.2287.9116,1.216,1.216,0,0,0,.1057.393,1.3536,1.3536,0,1,0,2.045-1.639A1.7183,1.7183,0,0,0,79.9488,203.7433Z" style="fill:#ff8e00"/><path d="M86.5241,203.7433a1.1264,1.1264,0,0,0-.2844.2009.6.6,0,0,0-.1313.1849,1.6894,1.6894,0,0,0-.2286.9116,1.2135,1.2135,0,0,0,.1057.393,1.3535,1.3535,0,1,0,2.0449-1.639A1.7181,1.7181,0,0,0,86.5241,203.7433Z" style="fill:#ff8e00"/><path d="M81.2978,199.9862a1.1307,1.1307,0,0,0-.2844.2009.6012.6012,0,0,0-.1313.185,1.69,1.69,0,0,0-.2286.9116,1.2174,1.2174,0,0,0,.1057.393,1.3535,1.3535,0,1,0,2.045-1.639A1.7183,1.7183,0,0,0,81.2978,199.9862Z" style="fill:#ff8e00"/><path d="M76.0716,197.3525a1.1269,1.1269,0,0,0-.2845.2009.601.601,0,0,0-.1312.185,1.69,1.69,0,0,0-.2287.9115,1.2173,1.2173,0,0,0,.1057.3931,1.3536,1.3536,0,1,0,2.045-1.639A1.7178,1.7178,0,0,0,76.0716,197.3525Z" style="fill:#ff8e00"/><path d="M71.5014,194.4721a1.1307,1.1307,0,0,0-.2844.2009.6012.6012,0,0,0-.1313.185,1.69,1.69,0,0,0-.2286.9115,1.2173,1.2173,0,0,0,.1057.3931,1.3536,1.3536,0,1,0,2.045-1.639A1.7183,1.7183,0,0,0,71.5014,194.4721Z" style="fill:#ff8e00"/><path d="M66.1055,191.2787a1.1264,1.1264,0,0,0-.2844.2009.6.6,0,0,0-.1313.1849,1.69,1.69,0,0,0-.2286.9116,1.2149,1.2149,0,0,0,.1057.393,1.3535,1.3535,0,1,0,2.045-1.639A1.7183,1.7183,0,0,0,66.1055,191.2787Z" style="fill:#ff8e00"/><path d="M82.0531,207.2543a1.126,1.126,0,0,0-.2816.2048.5985.5985,0,0,0-.1287.1867,1.69,1.69,0,0,0-.2162.9146,1.2182,1.2182,0,0,0,.1111.3916,1.3536,1.3536,0,1,0,2.0223-1.6669A1.7178,1.7178,0,0,0,82.0531,207.2543Z" style="fill:#ff8e00"/><path d="M77.4205,208.923a1.1282,1.1282,0,0,0-.2844.2009.6.6,0,0,0-.1313.1849,1.69,1.69,0,0,0-.2286.9116,1.2167,1.2167,0,0,0,.1057.393,1.3536,1.3536,0,1,0,2.045-1.639A1.7183,1.7183,0,0,0,77.4205,208.923Z" style="fill:#ff8e00"/><path d="M72.85,211.96a1.1307,1.1307,0,0,0-.2844.2009.6012.6012,0,0,0-.1313.185,1.69,1.69,0,0,0-.2286.9115,1.2148,1.2148,0,0,0,.1057.3931,1.3535,1.3535,0,1,0,2.045-1.639A1.7183,1.7183,0,0,0,72.85,211.96Z" style="fill:#ff8e00"/><path d="M66.7983,214.3673a1.1282,1.1282,0,0,0-.2844.2009.6008.6008,0,0,0-.1313.1849,1.69,1.69,0,0,0-.2286.9116,1.216,1.216,0,0,0,.1057.393,1.3536,1.3536,0,1,0,2.045-1.639A1.7183,1.7183,0,0,0,66.7983,214.3673Z" style="fill:#ff8e00"/><path d="M80.9427,97.5621l19.5824,23.9364a109,109,0,0,1-31.7519,7.6025s11.5275-8.321,13.09-10.8c0,0-60.5709,12.4637-61.1065-56.3155l8.736,8.1318s5.4466-10.14,8.8645-13.069c0,0-12.0085,51.9026,44.533,55.4894C82.89,112.5381,81.3315,103.4,80.9427,97.5621Z" style="fill:none;stroke:#f33a52;stroke-linecap:round;stroke-linejoin:round"/><path d="M21.17,68.1567a1.0571,1.0571,0,0,1,.4756.41l1.9757,2.5641" style="fill:none;stroke:#f33a52;stroke-linecap:round;stroke-linejoin:round"/><path d="M21.6075,72.4245q1.1146,1.0909,2.2821,2.1261" style="fill:none;stroke:#f33a52;stroke-linecap:round;stroke-linejoin:round"/><path d="M22.3965,77.3014c.7752.1925,1.2331,1.1252,2.0267,1.2162" style="fill:none;stroke:#f33a52;stroke-linecap:round;stroke-linejoin:round"/><path d="M23.0681,81.3452a10.776,10.776,0,0,1,2.1426,1.5587" style="fill:none;stroke:#f33a52;stroke-linecap:round;stroke-linejoin:round"/><path d="M23.9946,85.5445a4.9867,4.9867,0,0,1,.9286.5659l2.3006,1.6436" style="fill:none;stroke:#f33a52;stroke-linecap:round;stroke-linejoin:round"/><path d="M25.8141,90.0034a17.0412,17.0412,0,0,1,2.1914,1.309" style="fill:none;stroke:#f33a52;stroke-linecap:round;stroke-linejoin:round"/><path d="M27.3255,93.9865q1.6246.83,3.2081,1.7378" style="fill:none;stroke:#f33a52;stroke-linecap:round;stroke-linejoin:round"/><path d="M29.9191,98.4566l2.9452.8489" style="fill:none;stroke:#f33a52;stroke-linecap:round;stroke-linejoin:round"/><path d="M32.0156,102q1.8179.6784,3.6445,1.3335" style="fill:none;stroke:#f33a52;stroke-linecap:round;stroke-linejoin:round"/><path d="M35.0969,105.3106q1.8606.8,3.7736,1.469" style="fill:none;stroke:#f33a52;stroke-linecap:round;stroke-linejoin:round"/><path d="M39.0056,108.8787a21.1156,21.1156,0,0,1,3.7359.2831" style="fill:none;stroke:#f33a52;stroke-linecap:round;stroke-linejoin:round"/><path d="M42.96,111.7467a17.8618,17.8618,0,0,0,3.0322.1095" style="fill:none;stroke:#f33a52;stroke-linecap:round;stroke-linejoin:round"/><path d="M47.4013,113.8754l3.0316-.1413" style="fill:none;stroke:#f33a52;stroke-linecap:round;stroke-linejoin:round"/><path d="M51.3568,115.51q1.3069-.1419,2.6-.3857" style="fill:none;stroke:#f33a52;stroke-linecap:round;stroke-linejoin:round"/><path d="M55.1972,116.936l3.0924-.568" style="fill:none;stroke:#f33a52;stroke-linecap:round;stroke-linejoin:round"/><path d="M59.2093,117.9889a12.4331,12.4331,0,0,0,3.1478-.8562" style="fill:none;stroke:#f33a52;stroke-linecap:round;stroke-linejoin:round"/><path d="M63.9275,118.6461q1.4637-.7036,2.8638-1.5306" style="fill:none;stroke:#f33a52;stroke-linecap:round;stroke-linejoin:round"/><path d="M69.1563,118.8935a.9144.9144,0,0,1,.52-.2786c.69-.2329,1.1714-.86,1.822-1.1864" style="fill:none;stroke:#f33a52;stroke-linecap:round;stroke-linejoin:round"/><path d="M74.1058,119.1226q1.0056-.803,1.94-1.69" style="fill:none;stroke:#f33a52;stroke-linecap:round;stroke-linejoin:round"/><path d="M78.8636,118.4627a28.6375,28.6375,0,0,0,2.2749-2.2734" style="fill:none;stroke:#f33a52;stroke-linecap:round;stroke-linejoin:round"/><path d="M72.4738,128.4478A17.0419,17.0419,0,0,0,74.4525,126.6" style="fill:none;stroke:#f33a52;stroke-linecap:round;stroke-linejoin:round"/><path d="M75.4358,128.1475a2.665,2.665,0,0,0,.9832-.7624,7.9642,7.9642,0,0,0,.7039-1.0384" style="fill:none;stroke:#f33a52;stroke-linecap:round;stroke-linejoin:round"/><path d="M78.5343,127.5926a7.37,7.37,0,0,0,.8047-.8177c.3149-.3947.5473-.8526.8845-1.2284" style="fill:none;stroke:#f33a52;stroke-linecap:round;stroke-linejoin:round"/><path d="M81.0235,127.34q.4006-.4327.7911-.875a4.1182,4.1182,0,0,0,.8615-1.2812" style="fill:none;stroke:#f33a52;stroke-linecap:round;stroke-linejoin:round"/><path d="M84.4777,126.4265c.1824-.3459.3651-.6923.5179-1.0523a3.078,3.078,0,0,1,.3189-.6405" style="fill:none;stroke:#f33a52;stroke-linecap:round;stroke-linejoin:round"/><path d="M86.9915,125.7976a6.1635,6.1635,0,0,0,.908-1.7485" style="fill:none;stroke:#f33a52;stroke-linecap:round;stroke-linejoin:round"/><path d="M89.9222,125.1336a12.1946,12.1946,0,0,0,.9128-1.7193" style="fill:none;stroke:#f33a52;stroke-linecap:round;stroke-linejoin:round"/><path d="M92.5391,124.3753a8.4678,8.4678,0,0,0,1.3489-2.0878" style="fill:none;stroke:#f33a52;stroke-linecap:round;stroke-linejoin:round"/><path d="M95.3237,123.3809a3.2327,3.2327,0,0,0,1.01-.9646,9.6558,9.6558,0,0,0,.6953-1.2227" style="fill:none;stroke:#f33a52;stroke-linecap:round;stroke-linejoin:round"/><path d="M274.7322,298.8591c-.2547-.1556-3.1187-1.7209-3.1466-1.7147a7.935,7.935,0,0,0,.1775,2.137c.8811,7.0513,5.9839,12.4326,12.0968,15.58a21.1009,21.1009,0,0,1,3.6661,2.1042c3.4965,2.787,3.1063,5.5641,2.98,8.67-.1372,3.4167-1.2617,6.4166-1.9118,9.7355a14.5833,14.5833,0,0,0,2.0441,10.4484,14.3436,14.3436,0,0,0,7.0582,5.67c3.6023,1.3928,7.43,2.354,11.1093,3.5319a24.2168,24.2168,0,0,1-5.9.8508c.017.0108.0287.03.0458.041a47.6948,47.6948,0,0,0,4.7762,3.7248,35.3541,35.3541,0,0,1-5.7647-.5427c1.0312,1.3011,2.5892,3.1219,3.6205,4.423l-1.5971-.39a41.6258,41.6258,0,0,1-12.62-5.2094,22.8612,22.8612,0,0,1-8.8272-10.2355c-2.6437-6.51-.6451-13.0406.1743-20.0252.4777-4.0572.6363-5.4119-5.188-9.6937-3.42-2.5111-7.1318-3.9674-9.3383-7.4095-2.0058-3.1351-2.5014-7.4144-2.0208-11.0325-1.2751.6857-4.667,2.6736-6.6178,3.848a.566.566,0,0,1-.8379-.6291c.3135-1.2294.8694-2.4946,1.2707-3.6089.673-1.8729,1.4424-3.7087,2.2839-5.5166a73.1248,73.1248,0,0,1,5.63-10.0177c.8232.9657,9.0462,12.5862,11.5913,16.6935a.61.61,0,0,1-.7878.8662c-.4836-.2267-.9511-.51-1.2844-.6924C276.4986,299.9738,275.6119,299.4172,274.7322,298.8591Z" style="fill:none;stroke:#f33a52;stroke-linecap:round;stroke-linejoin:round"/><path d="M268.757,297.632c-.43,11.1576,4.3744,13.7419,10.0693,17.3309,2.23,1.4054,4.879,2.5124,6.1222,4.8369,1.1187,2.0917.7919,4.6235.5119,6.979a46.5883,46.5883,0,0,0,1.19,18.5015c1.835,6.2075,6.3738,9.556,13.4083,11.5513" style="fill:none;stroke:#f33a52;stroke-linecap:round;stroke-linejoin:round;stroke-dasharray:4"/><path d="M235.9031,64.2632A171.492,171.492,0,0,1,223.4939,80.092a1.7265,1.7265,0,0,1-2.8574-.5217A173.4318,173.4318,0,0,0,212.7,63.8753a1.7213,1.7213,0,0,1,1.5-2.5662,50.3937,50.3937,0,0,0,5.8813-.2912,1.7146,1.7146,0,0,0,1.4869-1.62q1.482-28.8921,4.0256-57.75A1.7311,1.7311,0,0,1,227.1855.0755l.9222-.07a1.7209,1.7209,0,0,1,1.8484,1.8859c-1.5057,14.965-2.5922,49.5-2.8268,57.4116a1.7218,1.7218,0,0,0,1.5863,1.767l5.9165.4777A1.7245,1.7245,0,0,1,235.9031,64.2632Z" style="fill:#ff8e00"/><path d="M90.5687,271.6123a171.47,171.47,0,0,1,19.1739-6.0747,1.7265,1.7265,0,0,1,2.0656,2.042,173.4152,173.4152,0,0,0-2.2956,17.4373,1.7214,1.7214,0,0,1-2.6857,1.2737,50.4035,50.4035,0,0,0-5.0212-3.076,1.7148,1.7148,0,0,0-2.1414.4992q-17.516,23.0249-35.8892,45.4226a1.7312,1.7312,0,0,1-2.202.401l-.8013-.462a1.7209,1.7209,0,0,1-.463-2.6c9.6821-11.51,30.0536-39.4179,34.7086-45.8192a1.7218,1.7218,0,0,0-.3137-2.3538l-4.6168-3.7308A1.7245,1.7245,0,0,1,90.5687,271.6123Z" style="fill:none;stroke:#005385;stroke-miterlimit:10"/><path d="M177.4079,321.7462a171.4789,171.4789,0,0,1,11.5758-16.4482,1.7264,1.7264,0,0,1,2.88.3735,173.3894,173.3894,0,0,0,8.7365,15.2644,1.7214,1.7214,0,0,1-1.3653,2.64,50.3954,50.3954,0,0,0-5.8584.5943,1.7146,1.7146,0,0,0-1.4014,1.6944q.0111,28.93-1.04,57.8806a1.7311,1.7311,0,0,1-1.5091,1.6529l-.9173.1178a1.7209,1.7209,0,0,1-1.9433-1.788c.7313-15.0227.0339-49.568-.14-57.4809a1.7217,1.7217,0,0,0-1.6754-1.6828l-5.9333-.1717A1.7246,1.7246,0,0,1,177.4079,321.7462Z" style="fill:none;stroke:#005385;stroke-miterlimit:10;stroke-dasharray:4"/><path d="M290.5692,76.2446,270.86,94.5566a94.82,94.82,0,0,1-8.3394-27.15s6.2169,8.2217,8.4543,9.442c0,0-12.5-50.5736,47.1844-54.8055l-6.5815,8.03s9.1016,4.1733,11.8319,6.98c0,0-45.7189-7.5831-45.7362,41.702C277.6739,78.7551,285.5223,76.9018,290.5692,76.2446Z" style="fill:none;stroke:#00b4e9;stroke-miterlimit:10"/><path d="M298.7607,29.2952c4.1164-2.8165,12.1486-4.1791,16.7006-3.8851" style="fill:none;stroke:#00b4e9;stroke-miterlimit:10"/><path d="M299.2646,33.7418c4.0569-1.7024,8.1957-3.4256,12.5786-3.8074" style="fill:none;stroke:#00b4e9;stroke-miterlimit:10"/><path d="M301.4752,36.4669a36.5229,36.5229,0,0,1,15.3768-3.5528" style="fill:none;stroke:#00b4e9;stroke-miterlimit:10"/><path d="M175.2029,49.8446c.0795,4.4356-.078,23.4673-1.22,28.6269-3.6035-2.3191-20.3359-14.82-26.1914-18.78a39.8706,39.8706,0,0,0,12.93.5189,479.1374,479.1374,0,0,0-36.5982-45.6766A143.1456,143.1456,0,0,0,142.04,5.32c5.88,18.3556,16.5425,34.7529,24.5332,52.2929a81.9882,81.9882,0,0,1,8.4377-10.0417Z" style="fill:none;stroke:#ffc943;stroke-linecap:round;stroke-linejoin:round"/><path d="M173.9831,78.4715l3.1909-2.624s1.3761-25.0724.6321-29.9117l-2.7952,1.6358.0451,16.1417Z" style="fill:none;stroke:#ffc943;stroke-linecap:round;stroke-linejoin:round"/><path d="M174.4023,74.9562q1.3755-.8655,2.7687-1.7027" style="fill:none;stroke:#ffc943;stroke-linecap:round;stroke-linejoin:round"/><path d="M174.6643,72.22a20.5427,20.5427,0,0,0,2.5465-1.4836" style="fill:none;stroke:#ffc943;stroke-linecap:round;stroke-linejoin:round"/><path d="M174.8958,69.4117l2.3887-1.3468" style="fill:none;stroke:#ffc943;stroke-linecap:round;stroke-linejoin:round"/><path d="M175.1053,66.6012l2.3684-1.4956" style="fill:none;stroke:#ffc943;stroke-linecap:round;stroke-linejoin:round"/><path d="M175.1975,63.7488q1.2957-.549,2.5478-1.1944" style="fill:none;stroke:#ffc943;stroke-linecap:round;stroke-linejoin:round"/><path d="M175.2225,61.1728a24.4142,24.4142,0,0,0,2.4245-.8569" style="fill:none;stroke:#ffc943;stroke-linecap:round;stroke-linejoin:round"/><path d="M175.2253,58.5449a25.2222,25.2222,0,0,0,2.5606-1.0249" style="fill:none;stroke:#ffc943;stroke-linecap:round;stroke-linejoin:round"/><path d="M175.3277,55.9221q1.281-.3809,2.5291-.8627" style="fill:none;stroke:#ffc943;stroke-linecap:round;stroke-linejoin:round"/><path d="M175.3422,53.4685q1.2132-.3033,2.3945-.7193" style="fill:none;stroke:#ffc943;stroke-linecap:round;stroke-linejoin:round"/><path d="M175.3831,50.4544l1.9359-.5043a1.8962,1.8962,0,0,0,.5554-.2089" style="fill:none;stroke:#ffc943;stroke-linecap:round;stroke-linejoin:round"/><path d="M168.4454,54.9431q-4.7676-11.1975-10.5215-21.94c-2.5763-4.8092-5.3086-9.5663-7.1807-14.6909-1.8013-4.93-2.8415-10.265-5.8988-14.5319l-2.78,1.6219" style="fill:none;stroke:#ffc943;stroke-linecap:round;stroke-linejoin:round"/><path d="M164.83,53.7315a17.2445,17.2445,0,0,0,2.3479-1.4564" style="fill:none;stroke:#ffc943;stroke-linecap:round;stroke-linejoin:round"/><path d="M163.2533,50.5845a27.2243,27.2243,0,0,1,2.43-1.5969" style="fill:none;stroke:#ffc943;stroke-linecap:round;stroke-linejoin:round"/><path d="M161.7786,47.3313q1.2565-.765,2.4623-1.61" style="fill:none;stroke:#ffc943;stroke-linecap:round;stroke-linejoin:round"/><path d="M160.03,43.999q.3465-.2235.6929-.4471l1.8054-1.1649" style="fill:none;stroke:#ffc943;stroke-linecap:round;stroke-linejoin:round"/><path d="M158.1726,40.4758l2.6661-1.5886" style="fill:none;stroke:#ffc943;stroke-linecap:round;stroke-linejoin:round"/><path d="M156.089,36.6673a27.4469,27.4469,0,0,1,2.61-1.9055" style="fill:none;stroke:#ffc943;stroke-linecap:round;stroke-linejoin:round"/><path d="M154.3752,33.2677q1.2438-.8859,2.503-1.75" style="fill:none;stroke:#ffc943;stroke-linecap:round;stroke-linejoin:round"/><path d="M152.7608,30.1113l2.6916-1.4658" style="fill:none;stroke:#ffc943;stroke-linecap:round;stroke-linejoin:round"/><path d="M151.3179,27.2817l2.514-1.5085" style="fill:none;stroke:#ffc943;stroke-linecap:round;stroke-linejoin:round"/><path d="M149.6255,23.6256a18.1383,18.1383,0,0,0,2.6294-1.3647" style="fill:none;stroke:#ffc943;stroke-linecap:round;stroke-linejoin:round"/><path d="M148.2237,20.3l2.5239-1.4917" style="fill:none;stroke:#ffc943;stroke-linecap:round;stroke-linejoin:round"/><path d="M146.4718,16.7487q1.5538-.7809,3.1382-1.4988" style="fill:none;stroke:#ffc943;stroke-linecap:round;stroke-linejoin:round"/><path d="M144.6654,12.449q1.6534-.7746,3.3283-1.5023" style="fill:none;stroke:#ffc943;stroke-linecap:round;stroke-linejoin:round"/><path d="M143.3126,8.7826q1.5582-.912,3.1727-1.7229" style="fill:none;stroke:#ffc943;stroke-linecap:round;stroke-linejoin:round"/><path d="M132.3081,12.4051a179.233,179.233,0,0,1,16.6636,21.0463" style="fill:none;stroke:#ffc943;stroke-linecap:round;stroke-linejoin:round"/></g></g></svg>